<svg width="1440" height="438" viewbox = "0 0 1440 438"  xmlns="http://www.w3.org/2000/svg">
<!--<json>{"starttime":1741657135,"startdate":"Mon Mar 10 2025 19:38:55 GMT-0600 (Mountain Daylight Time)","f1":1000,"f2":2000,"f3":3000,"f4":4000,"notes":"this is some notes","p1":[157,156,156,156,156,156,156,156,156,156,156,156,156,156,156,156,156,156,156,156,156,156,156,155,155,155,155,155,156,156,156,156,155,155,155,154,154,153,153,152,152,151,151,151,151,151,151,151,151,151,152,152,151,151,151,151,151,150,150,150,150,151,152,152,153,153,154,154,154,154,155,155,155,155,155,155,156,156,156,156,156,156,156,156,156,156,156,156,156,156,156,156,156,156,156,156,156,156,156,156,156],"p2":[17,25,19,14,8,2,0,13,11,5,0,0,47,52,55,52,46,39,34,28,24,17,11,40,36,31,24,18,11,14,9,5,2,0,35,35,32,32,27,21,16,16,10,6,3,16,12,9,5,1,1,15,16,14,9,14,39,60,53,53,48,43,41,38,31,25,22,23,19,15,9,3,0,0,0,0,0,4,25,34,32,27,20,20,16,13,8,3,16,12,8,5,2,0,0,0,0,0,0,6,21],"p3":[0,0,0,0,0,0,0,0,0,0,0,0,0,0,0,0,0,0,0,0,0,0,0,0,0,0,0,0,0,0,0,0,0,0,0,0,0,0,0,0,0,0,0,0,0,0,0,0,0,0,0,0,0,0,0,0,0,0,0,0,0,0,0,0,0,0,0,0,0,0,0,0,0,0,0,0,0,3,15,11,6,1,0,0,0,0,0,0,0,0,0,0,0,0,0,0,0,0,0,0,0],"p4":[12,12,16,11,8,6,0,3,2,0,1,6,18,15,15,14,8,2,0,0,0,0,0,0,0,0,1,0,0,0,0,0,0,0,0,10,9,4,0,0,0,0,0,0,0,0,0,0,0,0,0,0,0,0,0,0,0,0,0,0,0,0,0,0,0,0,0,0,0,0,0,0,0,0,0,0,0,0,0,0,0,0,0,0,0,0,0,0,0,0,0,0,0,0,0,0,0,0,0,0,0],"timeseconds":[0.40000009536743164,0.40000009536743164,0.5,0.5,0.5,0.5999999046325684,0.5999999046325684,0.5999999046325684,0.7000000476837158,0.7000000476837158,0.7000000476837158,0.7999999523162842,0.7999999523162842,0.7999999523162842,0.9000000953674316,0.9000000953674316,0.9000000953674316,1,1,1,1.0999999046325684,1.0999999046325684,1.0999999046325684,1.2000000476837158,1.2000000476837158,1.2000000476837158,1.2999999523162842,1.2999999523162842,1.2999999523162842,1.4000000953674316,1.4000000953674316,1.4000000953674316,1.5,1.5,1.5,1.5999999046325684,1.5999999046325684,1.5999999046325684,1.7000000476837158,1.7000000476837158,1.7000000476837158,1.7999999523162842,1.7999999523162842,1.7999999523162842,1.9000000953674316,1.9000000953674316,1.9000000953674316,2,2,2,2.0999999046325684,2.0999999046325684,2.0999999046325684,2.200000047683716,2.200000047683716,2.200000047683716,2.299999952316284,2.299999952316284,2.299999952316284,2.4000000953674316,2.4000000953674316,2.4000000953674316,2.5,2.5,2.5,2.5999999046325684,2.5999999046325684,2.5999999046325684,2.700000047683716,2.700000047683716,2.700000047683716,2.799999952316284,2.799999952316284,2.799999952316284,2.9000000953674316,2.9000000953674316,2.9000000953674316,3,3,3,3.0999999046325684,3.0999999046325684,3.0999999046325684,3.200000047683716,3.200000047683716,3.200000047683716,3.299999952316284,3.299999952316284,3.299999952316284,3.4000000953674316,3.4000000953674316,3.4000000953674316,3.5,3.5,3.5,3.5999999046325684,3.5999999046325684,3.5999999046325684,3.700000047683716,3.700000047683716,3.700000047683716]}</json>-->
<path d = "M0 168.13725490196077 L1 169.85294117647055 L2 169.85294117647055 L3 169.85294117647055 L4 169.85294117647055 L5 169.85294117647055 L6 169.85294117647055 L7 169.85294117647055 L8 169.85294117647055 L9 169.85294117647055 L10 169.85294117647055 L11 169.85294117647055 L12 169.85294117647055 L13 169.85294117647055 L14 169.85294117647055 L15 169.85294117647055 L16 169.85294117647055 L17 169.85294117647055 L18 169.85294117647055 L19 169.85294117647055 L20 169.85294117647055 L21 169.85294117647055 L22 169.85294117647055 L23 171.5686274509804 L24 171.5686274509804 L25 171.5686274509804 L26 171.5686274509804 L27 171.5686274509804 L28 169.85294117647055 L29 169.85294117647055 L30 169.85294117647055 L31 169.85294117647055 L32 171.5686274509804 L33 171.5686274509804 L34 171.5686274509804 L35 173.28431372549022 L36 173.28431372549022 L37 175 L38 175 L39 176.71568627450984 L40 176.71568627450984 L41 178.4313725490196 L42 178.4313725490196 L43 178.4313725490196 L44 178.4313725490196 L45 178.4313725490196 L46 178.4313725490196 L47 178.4313725490196 L48 178.4313725490196 L49 178.4313725490196 L50 176.71568627450984 L51 176.71568627450984 L52 178.4313725490196 L53 178.4313725490196 L54 178.4313725490196 L55 178.4313725490196 L56 178.4313725490196 L57 180.1470588235294 L58 180.1470588235294 L59 180.1470588235294 L60 180.1470588235294 L61 178.4313725490196 L62 176.71568627450984 L63 176.71568627450984 L64 175 L65 175 L66 173.28431372549022 L67 173.28431372549022 L68 173.28431372549022 L69 173.28431372549022 L70 171.5686274509804 L71 171.5686274509804 L72 171.5686274509804 L73 171.5686274509804 L74 171.5686274509804 L75 171.5686274509804 L76 169.85294117647055 L77 169.85294117647055 L78 169.85294117647055 L79 169.85294117647055 L80 169.85294117647055 L81 169.85294117647055 L82 169.85294117647055 L83 169.85294117647055 L84 169.85294117647055 L85 169.85294117647055 L86 169.85294117647055 L87 169.85294117647055 L88 169.85294117647055 L89 169.85294117647055 L90 169.85294117647055 L91 169.85294117647055 L92 169.85294117647055 L93 169.85294117647055 L94 169.85294117647055 L95 169.85294117647055 L96 169.85294117647055 L97 169.85294117647055 L98 169.85294117647055 L99 169.85294117647055 L100 169.85294117647055" stroke = "red"  stroke-width = "4" fill = "none" />
<path d = "M0 408.3333333333333 L1 394.6078431372549 L2 404.9019607843137 L3 413.48039215686276 L4 423.77450980392155 L5 434.0686274509804 L6 437.5 L7 415.19607843137254 L8 418.62745098039215 L9 428.921568627451 L10 437.5 L11 437.5 L12 356.8627450980392 L13 348.28431372549016 L14 343.1372549019608 L15 348.28431372549016 L16 358.578431372549 L17 370.5882352941176 L18 379.1666666666667 L19 389.46078431372547 L20 396.3235294117647 L21 408.3333333333333 L22 418.62745098039215 L23 368.87254901960785 L24 375.7352941176471 L25 384.3137254901961 L26 396.3235294117647 L27 406.61764705882354 L28 418.62745098039215 L29 413.48039215686276 L30 422.05882352941177 L31 428.921568627451 L32 434.0686274509804 L33 437.5 L34 377.45098039215685 L35 377.45098039215685 L36 382.5980392156863 L37 382.5980392156863 L38 391.1764705882353 L39 401.47058823529414 L40 410.04901960784315 L41 410.04901960784315 L42 420.343137254902 L43 427.20588235294116 L44 432.3529411764706 L45 410.04901960784315 L46 416.9117647058824 L47 422.05882352941177 L48 428.921568627451 L49 435.7843137254902 L50 435.7843137254902 L51 411.7647058823529 L52 410.04901960784315 L53 413.48039215686276 L54 422.05882352941177 L55 413.48039215686276 L56 370.5882352941176 L57 334.55882352941177 L58 346.5686274509804 L59 346.5686274509804 L60 355.1470588235294 L61 363.72549019607845 L62 367.156862745098 L63 372.30392156862746 L64 384.3137254901961 L65 394.6078431372549 L66 399.7549019607843 L67 398.03921568627453 L68 404.9019607843137 L69 411.7647058823529 L70 422.05882352941177 L71 432.3529411764706 L72 437.5 L73 437.5 L74 437.5 L75 437.5 L76 437.5 L77 430.6372549019608 L78 394.6078431372549 L79 379.1666666666667 L80 382.5980392156863 L81 391.1764705882353 L82 403.1862745098039 L83 403.1862745098039 L84 410.04901960784315 L85 415.19607843137254 L86 423.77450980392155 L87 432.3529411764706 L88 410.04901960784315 L89 416.9117647058824 L90 423.77450980392155 L91 428.921568627451 L92 434.0686274509804 L93 437.5 L94 437.5 L95 437.5 L96 437.5 L97 437.5 L98 437.5 L99 427.20588235294116 L100 401.47058823529414" stroke = "green"  stroke-width = "4" fill = "none" />
<path d = "M0 437.5 L1 437.5 L2 437.5 L3 437.5 L4 437.5 L5 437.5 L6 437.5 L7 437.5 L8 437.5 L9 437.5 L10 437.5 L11 437.5 L12 437.5 L13 437.5 L14 437.5 L15 437.5 L16 437.5 L17 437.5 L18 437.5 L19 437.5 L20 437.5 L21 437.5 L22 437.5 L23 437.5 L24 437.5 L25 437.5 L26 437.5 L27 437.5 L28 437.5 L29 437.5 L30 437.5 L31 437.5 L32 437.5 L33 437.5 L34 437.5 L35 437.5 L36 437.5 L37 437.5 L38 437.5 L39 437.5 L40 437.5 L41 437.5 L42 437.5 L43 437.5 L44 437.5 L45 437.5 L46 437.5 L47 437.5 L48 437.5 L49 437.5 L50 437.5 L51 437.5 L52 437.5 L53 437.5 L54 437.5 L55 437.5 L56 437.5 L57 437.5 L58 437.5 L59 437.5 L60 437.5 L61 437.5 L62 437.5 L63 437.5 L64 437.5 L65 437.5 L66 437.5 L67 437.5 L68 437.5 L69 437.5 L70 437.5 L71 437.5 L72 437.5 L73 437.5 L74 437.5 L75 437.5 L76 437.5 L77 432.3529411764706 L78 411.7647058823529 L79 418.62745098039215 L80 427.20588235294116 L81 435.7843137254902 L82 437.5 L83 437.5 L84 437.5 L85 437.5 L86 437.5 L87 437.5 L88 437.5 L89 437.5 L90 437.5 L91 437.5 L92 437.5 L93 437.5 L94 437.5 L95 437.5 L96 437.5 L97 437.5 L98 437.5 L99 437.5 L100 437.5" stroke = "blue"  stroke-width = "4" fill = "none" />
<path d = "M0 416.9117647058824 L1 416.9117647058824 L2 410.04901960784315 L3 418.62745098039215 L4 423.77450980392155 L5 427.20588235294116 L6 437.5 L7 432.3529411764706 L8 434.0686274509804 L9 437.5 L10 435.7843137254902 L11 427.20588235294116 L12 406.61764705882354 L13 411.7647058823529 L14 411.7647058823529 L15 413.48039215686276 L16 423.77450980392155 L17 434.0686274509804 L18 437.5 L19 437.5 L20 437.5 L21 437.5 L22 437.5 L23 437.5 L24 437.5 L25 437.5 L26 435.7843137254902 L27 437.5 L28 437.5 L29 437.5 L30 437.5 L31 437.5 L32 437.5 L33 437.5 L34 437.5 L35 420.343137254902 L36 422.05882352941177 L37 430.6372549019608 L38 437.5 L39 437.5 L40 437.5 L41 437.5 L42 437.5 L43 437.5 L44 437.5 L45 437.5 L46 437.5 L47 437.5 L48 437.5 L49 437.5 L50 437.5 L51 437.5 L52 437.5 L53 437.5 L54 437.5 L55 437.5 L56 437.5 L57 437.5 L58 437.5 L59 437.5 L60 437.5 L61 437.5 L62 437.5 L63 437.5 L64 437.5 L65 437.5 L66 437.5 L67 437.5 L68 437.5 L69 437.5 L70 437.5 L71 437.5 L72 437.5 L73 437.5 L74 437.5 L75 437.5 L76 437.5 L77 437.5 L78 437.5 L79 437.5 L80 437.5 L81 437.5 L82 437.5 L83 437.5 L84 437.5 L85 437.5 L86 437.5 L87 437.5 L88 437.5 L89 437.5 L90 437.5 L91 437.5 L92 437.5 L93 437.5 L94 437.5 L95 437.5 L96 437.5 L97 437.5 L98 437.5 L99 437.5 L100 437.5" stroke = "purple"  stroke-width = "4" fill = "none" />
</svg>