<svg width="200" height="438" viewbox = "0 0 200 438"  xmlns="http://www.w3.org/2000/svg">
<!--<json>{"starttime":1741738335.991,"startdate":"Tue Mar 11 2025 18:12:15 GMT-0600 (Mountain Daylight Time)","f1":1000,"f2":2000,"f3":3000,"f4":4000,"notes":"this is just a test run of some random noise, this is not real data but what is real data? what makes data more real?\nwhat even is real?","p1":[174,175,174,174,176,175,175,175,174,174,175,175,175,175,175,174,175,175,174,173,174,176,177,178,178,178,178,178,179,179,180,180,180,180,179,177,175,174,174,174,174,173,173,173,173,173,173,173,173,173,173,174,174,174,174,174,174,174,175,175,175,174,174,174,174,174,173,174,174,174,173,173,173,173,173,173,173,173,173,173,173,172,173,173,173,173,173,173,173,173,173,173,173,173,173,173,173,173,173,172,173,172,171,171,171,172,172,173,173,174,174,174,174,174,174,174,173,173,173,174,174,173,173,173,173,174,174,173,173,174,174,174,174,174,174,174,174,174,175,176,175,175,175,175,175,175,175,175,175,175,175,174,174,175,175,175,174,175,175,175,175,175,175,175,175,175,175,175,176,176,175,176,176,176,176,176,176,175,175,175,175,176,175,175,175,175,174,174,175,175,174,174,174,177,179,176,175,175,174,174,174],"p2":[54,54,51,45,40,35,30,27,20,19,16,21,18,13,10,4,2,0,0,1,0,0,6,15,16,27,36,47,51,51,53,52,46,39,34,31,26,20,30,32,28,27,22,33,34,31,25,21,29,74,80,78,80,73,67,61,54,47,41,35,30,25,23,18,17,24,22,22,16,10,7,9,4,3,0,0,14,36,32,28,22,17,13,8,2,0,0,0,0,0,0,0,0,0,0,0,0,0,0,0,0,0,0,0,0,0,0,0,0,0,0,0,0,0,0,0,0,0,0,0,0,0,0,0,0,0,0,0,0,0,37,43,38,33,26,25,21,20,16,10,5,5,2,0,7,26,37,43,40,37,32,26,22,16,14,15,18,30,36,47,45,41,35,30,24,22,26,36,38,37,32,30,26,25,31,43,44,51,62,64,64,61,57,58,63,62,59,58,63,67,63,59,55,55,53,47,48,46,44,42,37],"p3":[35,36,39,34,28,25,24,21,20,16,12,7,4,0,0,0,0,4,0,11,12,7,10,9,11,26,30,29,28,23,20,36,34,42,40,38,38,35,36,38,42,42,40,50,49,44,38,44,43,39,35,38,37,35,30,30,27,21,21,15,11,15,10,5,16,13,11,11,6,5,25,22,23,24,21,17,11,6,8,10,9,10,21,33,46,42,38,33,29,24,19,14,9,5,0,0,0,0,0,0,1,0,0,0,0,0,0,0,0,2,0,16,22,15,11,9,3,6,2,1,8,9,7,16,29,26,27,22,18,19,31,32,26,22,16,40,40,34,29,24,17,19,13,8,3,0,0,10,7,6,3,0,0,0,0,0,0,0,0,1,0,0,0,0,0,0,0,0,6,7,23,17,20,21,18,13,17,13,10,20,27,23,20,19,21,15,8,4,0,0,4,6,2,5,3,3,11,10,8,4,8],"p4":[0,0,0,0,0,0,0,0,0,0,0,0,0,0,0,0,0,0,0,0,0,0,0,0,0,0,0,2,2,0,1,0,8,3,0,0,0,0,8,3,3,7,4,3,0,0,0,4,0,0,0,0,0,0,0,0,0,0,0,0,0,0,0,0,0,3,1,0,0,0,0,0,0,0,0,0,0,0,0,0,0,0,0,0,0,0,0,0,0,0,0,0,0,0,0,0,0,0,0,0,0,0,0,0,0,0,0,0,0,0,0,0,0,0,0,0,0,0,0,0,0,0,0,0,0,0,0,0,0,0,14,16,16,12,13,47,40,35,28,21,16,14,8,2,0,0,0,3,0,0,0,0,0,0,0,0,0,0,0,0,0,0,0,0,0,0,0,0,0,0,0,0,0,0,0,0,0,0,0,0,0,0,2,4,2,0,0,0,0,0,0,0,0,0,7,6,4,0,2,0,2],"timeseconds":[0.029000043869018555,0.06200003623962402,0.09599995613098145,0.12899994850158691,0.16300010681152344,0.1960000991821289,0.22900009155273438,0.2630000114440918,0.29600000381469727,0.3300001621246338,0.36300015449523926,0.3960001468658447,0.43000006675720215,0.46200013160705566,0.4960000514984131,0.5299999713897705,0.562999963760376,0.5959999561309814,0.630000114440918,0.6630001068115234,0.6960000991821289,0.7300000190734863,0.7630000114440918,0.7970001697540283,0.8300001621246338,0.8619999885559082,0.8960001468658447,0.9300000667572021,0.9630000591278076,0.9950001239776611,1.0290000438690186,1.062000036239624,1.0959999561309814,1.128999948501587,1.1630001068115234,1.195000171661377,1.2290000915527344,1.2620000839233398,1.2950000762939453,1.3289999961853027,1.3619999885559082,1.3960001468658447,1.4290001392364502,1.4630000591278076,1.496000051498413,1.5310001373291016,1.562999963760376,1.5959999561309814,1.628999948501587,1.6620001792907715,1.696000099182129,1.7300000190734863,1.7630000114440918,1.7960000038146973,1.8300001621246338,1.8619999885559082,1.8949999809265137,1.9290001392364502,1.9630000591278076,1.9950001239776611,2.0290000438690186,2.062000036239624,2.0950000286102295,2.130000114440918,2.1620001792907715,2.196000099182129,2.2300000190734863,2.263000011444092,2.2960000038146973,2.3289999961853027,2.361999988555908,2.3970000743865967,2.42900013923645,2.4639999866485596,2.495000123977661,2.5280001163482666,2.561000108718872,2.5940001010894775,2.628000020980835,2.6610000133514404,2.696000099182129,2.7280001640319824,2.76200008392334,2.7950000762939453,2.828000068664551,2.8610000610351562,2.8949999809265137,2.92900013923645,2.9630000591278076,2.996000051498413,3.0290000438690186,3.062999963760376,3.0959999561309814,3.130000114440918,3.1630001068115234,3.195000171661377,3.2280001640319824,3.261000156402588,3.2950000762939453,3.328000068664551,3.361999988555908,3.3970000743865967,3.42900013923645,3.4630000591278076,3.496000051498413,3.5290000438690186,3.562999963760376,3.5970001220703125,3.630000114440918,3.6620001792907715,3.697000026702881,3.7300000190734863,3.764000177383423,3.7980000972747803,3.830000162124634,3.864000082015991,3.8960001468658447,3.92900013923645,3.9630000591278076,3.996000051498413,4.028000116348267,4.061000108718872,4.0959999561309814,4.128999948501587,4.1620001792907715,4.196000099182129,4.228000164031982,4.26200008392334,4.296000003814697,4.330000162124634,4.363000154495239,4.396000146865845,4.430999994277954,4.462000131607056,4.495000123977661,4.5299999713897705,4.562999963760376,4.5959999561309814,4.628000020980835,4.6620001792907715,4.696000099182129,4.729000091552734,4.763000011444092,4.796000003814697,4.828999996185303,4.861999988555908,4.897000074386597,4.930000066757202,4.963000059127808,4.996000051498413,5.0290000438690186,5.062999963760376,5.0959999561309814,5.128999948501587,5.163000106811523,5.196000099182129,5.229000091552734,5.263000011444092,5.296000003814697,5.330000162124634,5.363000154495239,5.396000146865845,5.42900013923645,5.463000059127808,5.496000051498413,5.5290000438690186,5.562999963760376,5.5959999561309814,5.630000114440918,5.6620001792907715,5.696000099182129,5.729000091552734,5.763000011444092,5.796000003814697,5.830000162124634,5.861999988555908,5.896000146865845,5.92900013923645,5.962000131607056,5.996000051498413,6.0299999713897705,6.062999963760376,6.0959999561309814,6.128999948501587,6.1620001792907715,6.195000171661377,6.230000019073486,6.263000011444092,6.296000003814697,6.330000162124634,6.361999988555908,6.397000074386597,6.430000066757202,6.463000059127808,6.496000051498413,6.5299999713897705,6.562999963760376,6.5970001220703125,6.628999948501587,6.6620001792907715,6.695000171661377]}</json>-->
<path d = "M0 139.12941176470588 L1 137.41176470588238 L2 139.12941176470588 L3 139.12941176470588 L4 135.69411764705882 L5 137.41176470588238 L6 137.41176470588238 L7 137.41176470588238 L8 139.12941176470588 L9 139.12941176470588 L10 137.41176470588238 L11 137.41176470588238 L12 137.41176470588238 L13 137.41176470588238 L14 137.41176470588238 L15 139.12941176470588 L16 137.41176470588238 L17 137.41176470588238 L18 139.12941176470588 L19 140.84705882352938 L20 139.12941176470588 L21 135.69411764705882 L22 133.97647058823532 L23 132.25882352941176 L24 132.25882352941176 L25 132.25882352941176 L26 132.25882352941176 L27 132.25882352941176 L28 130.54117647058825 L29 130.54117647058825 L30 128.8235294117647 L31 128.8235294117647 L32 128.8235294117647 L33 128.8235294117647 L34 130.54117647058825 L35 133.97647058823532 L36 137.41176470588238 L37 139.12941176470588 L38 139.12941176470588 L39 139.12941176470588 L40 139.12941176470588 L41 140.84705882352938 L42 140.84705882352938 L43 140.84705882352938 L44 140.84705882352938 L45 140.84705882352938 L46 140.84705882352938 L47 140.84705882352938 L48 140.84705882352938 L49 140.84705882352938 L50 140.84705882352938 L51 139.12941176470588 L52 139.12941176470588 L53 139.12941176470588 L54 139.12941176470588 L55 139.12941176470588 L56 139.12941176470588 L57 139.12941176470588 L58 137.41176470588238 L59 137.41176470588238 L60 137.41176470588238 L61 139.12941176470588 L62 139.12941176470588 L63 139.12941176470588 L64 139.12941176470588 L65 139.12941176470588 L66 140.84705882352938 L67 139.12941176470588 L68 139.12941176470588 L69 139.12941176470588 L70 140.84705882352938 L71 140.84705882352938 L72 140.84705882352938 L73 140.84705882352938 L74 140.84705882352938 L75 140.84705882352938 L76 140.84705882352938 L77 140.84705882352938 L78 140.84705882352938 L79 140.84705882352938 L80 140.84705882352938 L81 142.56470588235294 L82 140.84705882352938 L83 140.84705882352938 L84 140.84705882352938 L85 140.84705882352938 L86 140.84705882352938 L87 140.84705882352938 L88 140.84705882352938 L89 140.84705882352938 L90 140.84705882352938 L91 140.84705882352938 L92 140.84705882352938 L93 140.84705882352938 L94 140.84705882352938 L95 140.84705882352938 L96 140.84705882352938 L97 140.84705882352938 L98 140.84705882352938 L99 142.56470588235294 L100 140.84705882352938 L101 142.56470588235294 L102 144.2823529411765 L103 144.2823529411765 L104 144.2823529411765 L105 142.56470588235294 L106 142.56470588235294 L107 140.84705882352938 L108 140.84705882352938 L109 139.12941176470588 L110 139.12941176470588 L111 139.12941176470588 L112 139.12941176470588 L113 139.12941176470588 L114 139.12941176470588 L115 139.12941176470588 L116 140.84705882352938 L117 140.84705882352938 L118 140.84705882352938 L119 139.12941176470588 L120 139.12941176470588 L121 140.84705882352938 L122 140.84705882352938 L123 140.84705882352938 L124 140.84705882352938 L125 139.12941176470588 L126 139.12941176470588 L127 140.84705882352938 L128 140.84705882352938 L129 139.12941176470588 L130 139.12941176470588 L131 139.12941176470588 L132 139.12941176470588 L133 139.12941176470588 L134 139.12941176470588 L135 139.12941176470588 L136 139.12941176470588 L137 139.12941176470588 L138 137.41176470588238 L139 135.69411764705882 L140 137.41176470588238 L141 137.41176470588238 L142 137.41176470588238 L143 137.41176470588238 L144 137.41176470588238 L145 137.41176470588238 L146 137.41176470588238 L147 137.41176470588238 L148 137.41176470588238 L149 137.41176470588238 L150 137.41176470588238 L151 139.12941176470588 L152 139.12941176470588 L153 137.41176470588238 L154 137.41176470588238 L155 137.41176470588238 L156 139.12941176470588 L157 137.41176470588238 L158 137.41176470588238 L159 137.41176470588238 L160 137.41176470588238 L161 137.41176470588238 L162 137.41176470588238 L163 137.41176470588238 L164 137.41176470588238 L165 137.41176470588238 L166 137.41176470588238 L167 137.41176470588238 L168 135.69411764705882 L169 135.69411764705882 L170 137.41176470588238 L171 135.69411764705882 L172 135.69411764705882 L173 135.69411764705882 L174 135.69411764705882 L175 135.69411764705882 L176 135.69411764705882 L177 137.41176470588238 L178 137.41176470588238 L179 137.41176470588238 L180 137.41176470588238 L181 135.69411764705882 L182 137.41176470588238 L183 137.41176470588238 L184 137.41176470588238 L185 137.41176470588238 L186 139.12941176470588 L187 139.12941176470588 L188 137.41176470588238 L189 137.41176470588238 L190 139.12941176470588 L191 139.12941176470588 L192 139.12941176470588 L193 133.97647058823532 L194 130.54117647058825 L195 135.69411764705882 L196 137.41176470588238 L197 137.41176470588238 L198 139.12941176470588 L199 139.12941176470588 L200 139.12941176470588" stroke = "red"  stroke-width = "4" fill = "none" />
<path d = "M0 345.2470588235294 L1 345.2470588235294 L2 350.4 L3 360.70588235294116 L4 369.29411764705884 L5 377.88235294117646 L6 386.47058823529414 L7 391.6235294117647 L8 403.6470588235294 L9 405.36470588235295 L10 410.5176470588235 L11 401.9294117647059 L12 407.08235294117645 L13 415.67058823529413 L14 420.8235294117647 L15 431.1294117647059 L16 434.56470588235294 L17 438 L18 438 L19 436.2823529411765 L20 438 L21 438 L22 427.6941176470588 L23 412.2352941176471 L24 410.5176470588235 L25 391.6235294117647 L26 376.16470588235296 L27 357.2705882352941 L28 350.4 L29 350.4 L30 346.9647058823529 L31 348.6823529411765 L32 358.98823529411766 L33 371.01176470588234 L34 379.6 L35 384.7529411764706 L36 393.34117647058827 L37 403.6470588235294 L38 386.47058823529414 L39 383.0352941176471 L40 389.90588235294115 L41 391.6235294117647 L42 400.21176470588233 L43 381.3176470588235 L44 379.6 L45 384.7529411764706 L46 395.05882352941177 L47 401.9294117647059 L48 388.18823529411765 L49 310.8941176470588 L50 300.5882352941177 L51 304.0235294117647 L52 300.5882352941177 L53 312.61176470588236 L54 322.9176470588235 L55 333.22352941176473 L56 345.2470588235294 L57 357.2705882352941 L58 367.5764705882353 L59 377.88235294117646 L60 386.47058823529414 L61 395.05882352941177 L62 398.49411764705883 L63 407.08235294117645 L64 408.8 L65 396.77647058823527 L66 400.21176470588233 L67 400.21176470588233 L68 410.5176470588235 L69 420.8235294117647 L70 425.9764705882353 L71 422.54117647058825 L72 431.1294117647059 L73 432.84705882352944 L74 438 L75 438 L76 413.9529411764706 L77 376.16470588235296 L78 383.0352941176471 L79 389.90588235294115 L80 400.21176470588233 L81 408.8 L82 415.67058823529413 L83 424.25882352941176 L84 434.56470588235294 L85 438 L86 438 L87 438 L88 438 L89 438 L90 438 L91 438 L92 438 L93 438 L94 438 L95 438 L96 438 L97 438 L98 438 L99 438 L100 438 L101 438 L102 438 L103 438 L104 438 L105 438 L106 438 L107 438 L108 438 L109 438 L110 438 L111 438 L112 438 L113 438 L114 438 L115 438 L116 438 L117 438 L118 438 L119 438 L120 438 L121 438 L122 438 L123 438 L124 438 L125 438 L126 438 L127 438 L128 438 L129 438 L130 374.4470588235294 L131 364.1411764705882 L132 372.7294117647059 L133 381.3176470588235 L134 393.34117647058827 L135 395.05882352941177 L136 401.9294117647059 L137 403.6470588235294 L138 410.5176470588235 L139 420.8235294117647 L140 429.4117647058824 L141 429.4117647058824 L142 434.56470588235294 L143 438 L144 425.9764705882353 L145 393.34117647058827 L146 374.4470588235294 L147 364.1411764705882 L148 369.29411764705884 L149 374.4470588235294 L150 383.0352941176471 L151 393.34117647058827 L152 400.21176470588233 L153 410.5176470588235 L154 413.9529411764706 L155 412.2352941176471 L156 407.08235294117645 L157 386.47058823529414 L158 376.16470588235296 L159 357.2705882352941 L160 360.70588235294116 L161 367.5764705882353 L162 377.88235294117646 L163 386.47058823529414 L164 396.77647058823527 L165 400.21176470588233 L166 393.34117647058827 L167 376.16470588235296 L168 372.7294117647059 L169 374.4470588235294 L170 383.0352941176471 L171 386.47058823529414 L172 393.34117647058827 L173 395.05882352941177 L174 384.7529411764706 L175 364.1411764705882 L176 362.4235294117647 L177 350.4 L178 331.50588235294117 L179 328.0705882352941 L180 328.0705882352941 L181 333.22352941176473 L182 340.09411764705885 L183 338.3764705882353 L184 329.7882352941176 L185 331.50588235294117 L186 336.65882352941173 L187 338.3764705882353 L188 329.7882352941176 L189 322.9176470588235 L190 329.7882352941176 L191 336.65882352941173 L192 343.52941176470586 L193 343.52941176470586 L194 346.9647058823529 L195 357.2705882352941 L196 355.5529411764706 L197 358.98823529411766 L198 362.4235294117647 L199 365.8588235294118 L200 374.4470588235294" stroke = "green"  stroke-width = "4" fill = "none" />
<path d = "M0 377.88235294117646 L1 376.16470588235296 L2 371.01176470588234 L3 379.6 L4 389.90588235294115 L5 395.05882352941177 L6 396.77647058823527 L7 401.9294117647059 L8 403.6470588235294 L9 410.5176470588235 L10 417.38823529411764 L11 425.9764705882353 L12 431.1294117647059 L13 438 L14 438 L15 438 L16 438 L17 431.1294117647059 L18 438 L19 419.1058823529412 L20 417.38823529411764 L21 425.9764705882353 L22 420.8235294117647 L23 422.54117647058825 L24 419.1058823529412 L25 393.34117647058827 L26 386.47058823529414 L27 388.18823529411765 L28 389.90588235294115 L29 398.49411764705883 L30 403.6470588235294 L31 376.16470588235296 L32 379.6 L33 365.8588235294118 L34 369.29411764705884 L35 372.7294117647059 L36 372.7294117647059 L37 377.88235294117646 L38 376.16470588235296 L39 372.7294117647059 L40 365.8588235294118 L41 365.8588235294118 L42 369.29411764705884 L43 352.11764705882354 L44 353.83529411764704 L45 362.4235294117647 L46 372.7294117647059 L47 362.4235294117647 L48 364.1411764705882 L49 371.01176470588234 L50 377.88235294117646 L51 372.7294117647059 L52 374.4470588235294 L53 377.88235294117646 L54 386.47058823529414 L55 386.47058823529414 L56 391.6235294117647 L57 401.9294117647059 L58 401.9294117647059 L59 412.2352941176471 L60 419.1058823529412 L61 412.2352941176471 L62 420.8235294117647 L63 429.4117647058824 L64 410.5176470588235 L65 415.67058823529413 L66 419.1058823529412 L67 419.1058823529412 L68 427.6941176470588 L69 429.4117647058824 L70 395.05882352941177 L71 400.21176470588233 L72 398.49411764705883 L73 396.77647058823527 L74 401.9294117647059 L75 408.8 L76 419.1058823529412 L77 427.6941176470588 L78 424.25882352941176 L79 420.8235294117647 L80 422.54117647058825 L81 420.8235294117647 L82 401.9294117647059 L83 381.3176470588235 L84 358.98823529411766 L85 365.8588235294118 L86 372.7294117647059 L87 381.3176470588235 L88 388.18823529411765 L89 396.77647058823527 L90 405.36470588235295 L91 413.9529411764706 L92 422.54117647058825 L93 429.4117647058824 L94 438 L95 438 L96 438 L97 438 L98 438 L99 438 L100 436.2823529411765 L101 438 L102 438 L103 438 L104 438 L105 438 L106 438 L107 438 L108 438 L109 434.56470588235294 L110 438 L111 410.5176470588235 L112 400.21176470588233 L113 412.2352941176471 L114 419.1058823529412 L115 422.54117647058825 L116 432.84705882352944 L117 427.6941176470588 L118 434.56470588235294 L119 436.2823529411765 L120 424.25882352941176 L121 422.54117647058825 L122 425.9764705882353 L123 410.5176470588235 L124 388.18823529411765 L125 393.34117647058827 L126 391.6235294117647 L127 400.21176470588233 L128 407.08235294117645 L129 405.36470588235295 L130 384.7529411764706 L131 383.0352941176471 L132 393.34117647058827 L133 400.21176470588233 L134 410.5176470588235 L135 369.29411764705884 L136 369.29411764705884 L137 379.6 L138 388.18823529411765 L139 396.77647058823527 L140 408.8 L141 405.36470588235295 L142 415.67058823529413 L143 424.25882352941176 L144 432.84705882352944 L145 438 L146 438 L147 420.8235294117647 L148 425.9764705882353 L149 427.6941176470588 L150 432.84705882352944 L151 438 L152 438 L153 438 L154 438 L155 438 L156 438 L157 438 L158 438 L159 436.2823529411765 L160 438 L161 438 L162 438 L163 438 L164 438 L165 438 L166 438 L167 438 L168 427.6941176470588 L169 425.9764705882353 L170 398.49411764705883 L171 408.8 L172 403.6470588235294 L173 401.9294117647059 L174 407.08235294117645 L175 415.67058823529413 L176 408.8 L177 415.67058823529413 L178 420.8235294117647 L179 403.6470588235294 L180 391.6235294117647 L181 398.49411764705883 L182 403.6470588235294 L183 405.36470588235295 L184 401.9294117647059 L185 412.2352941176471 L186 424.25882352941176 L187 431.1294117647059 L188 438 L189 438 L190 431.1294117647059 L191 427.6941176470588 L192 434.56470588235294 L193 429.4117647058824 L194 432.84705882352944 L195 432.84705882352944 L196 419.1058823529412 L197 420.8235294117647 L198 424.25882352941176 L199 431.1294117647059 L200 424.25882352941176" stroke = "blue"  stroke-width = "4" fill = "none" />
<path d = "M0 438 L1 438 L2 438 L3 438 L4 438 L5 438 L6 438 L7 438 L8 438 L9 438 L10 438 L11 438 L12 438 L13 438 L14 438 L15 438 L16 438 L17 438 L18 438 L19 438 L20 438 L21 438 L22 438 L23 438 L24 438 L25 438 L26 438 L27 434.56470588235294 L28 434.56470588235294 L29 438 L30 436.2823529411765 L31 438 L32 424.25882352941176 L33 432.84705882352944 L34 438 L35 438 L36 438 L37 438 L38 424.25882352941176 L39 432.84705882352944 L40 432.84705882352944 L41 425.9764705882353 L42 431.1294117647059 L43 432.84705882352944 L44 438 L45 438 L46 438 L47 431.1294117647059 L48 438 L49 438 L50 438 L51 438 L52 438 L53 438 L54 438 L55 438 L56 438 L57 438 L58 438 L59 438 L60 438 L61 438 L62 438 L63 438 L64 438 L65 432.84705882352944 L66 436.2823529411765 L67 438 L68 438 L69 438 L70 438 L71 438 L72 438 L73 438 L74 438 L75 438 L76 438 L77 438 L78 438 L79 438 L80 438 L81 438 L82 438 L83 438 L84 438 L85 438 L86 438 L87 438 L88 438 L89 438 L90 438 L91 438 L92 438 L93 438 L94 438 L95 438 L96 438 L97 438 L98 438 L99 438 L100 438 L101 438 L102 438 L103 438 L104 438 L105 438 L106 438 L107 438 L108 438 L109 438 L110 438 L111 438 L112 438 L113 438 L114 438 L115 438 L116 438 L117 438 L118 438 L119 438 L120 438 L121 438 L122 438 L123 438 L124 438 L125 438 L126 438 L127 438 L128 438 L129 438 L130 413.9529411764706 L131 410.5176470588235 L132 410.5176470588235 L133 417.38823529411764 L134 415.67058823529413 L135 357.2705882352941 L136 369.29411764705884 L137 377.88235294117646 L138 389.90588235294115 L139 401.9294117647059 L140 410.5176470588235 L141 413.9529411764706 L142 424.25882352941176 L143 434.56470588235294 L144 438 L145 438 L146 438 L147 432.84705882352944 L148 438 L149 438 L150 438 L151 438 L152 438 L153 438 L154 438 L155 438 L156 438 L157 438 L158 438 L159 438 L160 438 L161 438 L162 438 L163 438 L164 438 L165 438 L166 438 L167 438 L168 438 L169 438 L170 438 L171 438 L172 438 L173 438 L174 438 L175 438 L176 438 L177 438 L178 438 L179 438 L180 438 L181 438 L182 434.56470588235294 L183 431.1294117647059 L184 434.56470588235294 L185 438 L186 438 L187 438 L188 438 L189 438 L190 438 L191 438 L192 438 L193 438 L194 425.9764705882353 L195 427.6941176470588 L196 431.1294117647059 L197 438 L198 434.56470588235294 L199 438 L200 434.56470588235294" stroke = "purple"  stroke-width = "4" fill = "none" />
</svg>