<svg width="1440" height="438" viewbox = "0 0 1440 438"  xmlns="http://www.w3.org/2000/svg">
<!--<json>{"starttime":1741657128,"startdate":"Mon Mar 10 2025 19:38:48 GMT-0600 (Mountain Daylight Time)","f1":1000,"f2":2000,"f3":3000,"f4":4000,"notes":"this is some notes","p1":[0,0,0,0,0,0,0,0,0,0,0,0,0,0,0,0,0,0,0,0,0,0,0,0,0,0,0,0,0,0,0,0,0,0,0,0,0,0,0,0,0,0,0,0,0,0,0,0,0,0,0,0,0,0,0,0,0,0,0,0,0,0,0,0,0,0,0,0,0,0,0,0,0,40,93,116,128,136,141,144,147,148,150,151,152,152,153,154,155,155,155,155,156,156,157,156,156,156,156,156,156],"p2":[0,0,0,0,0,0,0,0,0,0,0,0,0,0,0,0,0,0,0,0,0,0,0,0,0,0,0,0,0,0,0,0,0,0,0,0,0,0,0,0,15,35,30,27,21,15,11,5,0,0,4,0,0,0,0,0,0,0,0,0,0,0,10,21,24,18,11,5,1,0,0,0,12,8,2,0,0,0,0,4,0,0,0,46,58,64,57,51,45,39,33,27,21,16,33,28,22,16,9,3,0],"p3":[0,0,0,0,0,0,0,0,0,0,0,0,0,0,0,0,0,0,0,0,0,0,0,0,0,0,0,0,0,0,0,0,0,0,0,0,0,0,0,0,0,0,0,0,0,0,0,0,0,0,0,0,0,0,0,0,0,0,0,0,0,0,0,0,0,0,0,0,0,0,0,0,0,0,0,0,0,0,0,0,0,0,0,0,0,0,0,0,0,0,0,0,0,0,0,0,0,0,0,0,0],"p4":[0,0,0,0,0,0,0,0,0,0,0,0,0,0,0,0,0,0,0,0,0,0,0,0,0,0,0,0,0,0,0,0,0,0,0,0,0,0,0,0,0,0,0,0,0,0,0,0,0,0,0,0,0,0,0,0,0,0,0,0,0,0,0,0,0,0,0,0,0,0,0,0,0,0,0,0,0,0,0,0,0,0,0,0,14,15,15,18,12,9,5,4,0,0,7,8,9,2,1,0,1],"timeseconds":[0.7000000476837158,0.7000000476837158,0.7000000476837158,0.7999999523162842,0.7999999523162842,0.7999999523162842,0.9000000953674316,0.9000000953674316,0.9000000953674316,1,1,1,1.0999999046325684,1.0999999046325684,1.0999999046325684,1.2000000476837158,1.2000000476837158,1.2000000476837158,1.2999999523162842,1.2999999523162842,1.2999999523162842,1.4000000953674316,1.4000000953674316,1.4000000953674316,1.5,1.5,1.5,1.5999999046325684,1.5999999046325684,1.5999999046325684,1.7000000476837158,1.7000000476837158,1.7000000476837158,1.7999999523162842,1.7999999523162842,1.7999999523162842,1.9000000953674316,1.9000000953674316,1.9000000953674316,2,2,2,2.0999999046325684,2.0999999046325684,2.0999999046325684,2.200000047683716,2.200000047683716,2.200000047683716,2.299999952316284,2.299999952316284,2.299999952316284,2.4000000953674316,2.4000000953674316,2.4000000953674316,2.5,2.5,2.5,2.5999999046325684,2.5999999046325684,2.5999999046325684,2.700000047683716,2.700000047683716,2.700000047683716,2.799999952316284,2.799999952316284,2.799999952316284,2.9000000953674316,2.9000000953674316,2.9000000953674316,3,3,3,3.0999999046325684,3.0999999046325684,3.0999999046325684,3.200000047683716,3.200000047683716,3.200000047683716,3.299999952316284,3.299999952316284,3.299999952316284,3.4000000953674316,3.4000000953674316,3.4000000953674316,3.5,3.5,3.5,3.5999999046325684,3.5999999046325684,3.5999999046325684,3.700000047683716,3.700000047683716,3.700000047683716,3.799999952316284,3.799999952316284,3.799999952316284,3.9000000953674316,3.9000000953674316,3.9000000953674316,4,4]}</json>-->
<path d = "M0 437.5 L1 437.5 L2 437.5 L3 437.5 L4 437.5 L5 437.5 L6 437.5 L7 437.5 L8 437.5 L9 437.5 L10 437.5 L11 437.5 L12 437.5 L13 437.5 L14 437.5 L15 437.5 L16 437.5 L17 437.5 L18 437.5 L19 437.5 L20 437.5 L21 437.5 L22 437.5 L23 437.5 L24 437.5 L25 437.5 L26 437.5 L27 437.5 L28 437.5 L29 437.5 L30 437.5 L31 437.5 L32 437.5 L33 437.5 L34 437.5 L35 437.5 L36 437.5 L37 437.5 L38 437.5 L39 437.5 L40 437.5 L41 437.5 L42 437.5 L43 437.5 L44 437.5 L45 437.5 L46 437.5 L47 437.5 L48 437.5 L49 437.5 L50 437.5 L51 437.5 L52 437.5 L53 437.5 L54 437.5 L55 437.5 L56 437.5 L57 437.5 L58 437.5 L59 437.5 L60 437.5 L61 437.5 L62 437.5 L63 437.5 L64 437.5 L65 437.5 L66 437.5 L67 437.5 L68 437.5 L69 437.5 L70 437.5 L71 437.5 L72 437.5 L73 368.87254901960785 L74 277.94117647058823 L75 238.48039215686273 L76 217.8921568627451 L77 204.16666666666666 L78 195.58823529411762 L79 190.44117647058823 L80 185.29411764705884 L81 183.578431372549 L82 180.1470588235294 L83 178.4313725490196 L84 176.71568627450984 L85 176.71568627450984 L86 175 L87 173.28431372549022 L88 171.5686274509804 L89 171.5686274509804 L90 171.5686274509804 L91 171.5686274509804 L92 169.85294117647055 L93 169.85294117647055 L94 168.13725490196077 L95 169.85294117647055 L96 169.85294117647055 L97 169.85294117647055 L98 169.85294117647055 L99 169.85294117647055 L100 169.85294117647055" stroke = "red"  stroke-width = "4" fill = "none" />
<path d = "M0 437.5 L1 437.5 L2 437.5 L3 437.5 L4 437.5 L5 437.5 L6 437.5 L7 437.5 L8 437.5 L9 437.5 L10 437.5 L11 437.5 L12 437.5 L13 437.5 L14 437.5 L15 437.5 L16 437.5 L17 437.5 L18 437.5 L19 437.5 L20 437.5 L21 437.5 L22 437.5 L23 437.5 L24 437.5 L25 437.5 L26 437.5 L27 437.5 L28 437.5 L29 437.5 L30 437.5 L31 437.5 L32 437.5 L33 437.5 L34 437.5 L35 437.5 L36 437.5 L37 437.5 L38 437.5 L39 437.5 L40 411.7647058823529 L41 377.45098039215685 L42 386.02941176470586 L43 391.1764705882353 L44 401.47058823529414 L45 411.7647058823529 L46 418.62745098039215 L47 428.921568627451 L48 437.5 L49 437.5 L50 430.6372549019608 L51 437.5 L52 437.5 L53 437.5 L54 437.5 L55 437.5 L56 437.5 L57 437.5 L58 437.5 L59 437.5 L60 437.5 L61 437.5 L62 420.343137254902 L63 401.47058823529414 L64 396.3235294117647 L65 406.61764705882354 L66 418.62745098039215 L67 428.921568627451 L68 435.7843137254902 L69 437.5 L70 437.5 L71 437.5 L72 416.9117647058824 L73 423.77450980392155 L74 434.0686274509804 L75 437.5 L76 437.5 L77 437.5 L78 437.5 L79 430.6372549019608 L80 437.5 L81 437.5 L82 437.5 L83 358.578431372549 L84 337.9901960784314 L85 327.69607843137254 L86 339.70588235294116 L87 350 L88 360.2941176470588 L89 370.5882352941176 L90 380.88235294117646 L91 391.1764705882353 L92 401.47058823529414 L93 410.04901960784315 L94 380.88235294117646 L95 389.46078431372547 L96 399.7549019607843 L97 410.04901960784315 L98 422.05882352941177 L99 432.3529411764706 L100 437.5" stroke = "green"  stroke-width = "4" fill = "none" />
<path d = "M0 437.5 L1 437.5 L2 437.5 L3 437.5 L4 437.5 L5 437.5 L6 437.5 L7 437.5 L8 437.5 L9 437.5 L10 437.5 L11 437.5 L12 437.5 L13 437.5 L14 437.5 L15 437.5 L16 437.5 L17 437.5 L18 437.5 L19 437.5 L20 437.5 L21 437.5 L22 437.5 L23 437.5 L24 437.5 L25 437.5 L26 437.5 L27 437.5 L28 437.5 L29 437.5 L30 437.5 L31 437.5 L32 437.5 L33 437.5 L34 437.5 L35 437.5 L36 437.5 L37 437.5 L38 437.5 L39 437.5 L40 437.5 L41 437.5 L42 437.5 L43 437.5 L44 437.5 L45 437.5 L46 437.5 L47 437.5 L48 437.5 L49 437.5 L50 437.5 L51 437.5 L52 437.5 L53 437.5 L54 437.5 L55 437.5 L56 437.5 L57 437.5 L58 437.5 L59 437.5 L60 437.5 L61 437.5 L62 437.5 L63 437.5 L64 437.5 L65 437.5 L66 437.5 L67 437.5 L68 437.5 L69 437.5 L70 437.5 L71 437.5 L72 437.5 L73 437.5 L74 437.5 L75 437.5 L76 437.5 L77 437.5 L78 437.5 L79 437.5 L80 437.5 L81 437.5 L82 437.5 L83 437.5 L84 437.5 L85 437.5 L86 437.5 L87 437.5 L88 437.5 L89 437.5 L90 437.5 L91 437.5 L92 437.5 L93 437.5 L94 437.5 L95 437.5 L96 437.5 L97 437.5 L98 437.5 L99 437.5 L100 437.5" stroke = "blue"  stroke-width = "4" fill = "none" />
<path d = "M0 437.5 L1 437.5 L2 437.5 L3 437.5 L4 437.5 L5 437.5 L6 437.5 L7 437.5 L8 437.5 L9 437.5 L10 437.5 L11 437.5 L12 437.5 L13 437.5 L14 437.5 L15 437.5 L16 437.5 L17 437.5 L18 437.5 L19 437.5 L20 437.5 L21 437.5 L22 437.5 L23 437.5 L24 437.5 L25 437.5 L26 437.5 L27 437.5 L28 437.5 L29 437.5 L30 437.5 L31 437.5 L32 437.5 L33 437.5 L34 437.5 L35 437.5 L36 437.5 L37 437.5 L38 437.5 L39 437.5 L40 437.5 L41 437.5 L42 437.5 L43 437.5 L44 437.5 L45 437.5 L46 437.5 L47 437.5 L48 437.5 L49 437.5 L50 437.5 L51 437.5 L52 437.5 L53 437.5 L54 437.5 L55 437.5 L56 437.5 L57 437.5 L58 437.5 L59 437.5 L60 437.5 L61 437.5 L62 437.5 L63 437.5 L64 437.5 L65 437.5 L66 437.5 L67 437.5 L68 437.5 L69 437.5 L70 437.5 L71 437.5 L72 437.5 L73 437.5 L74 437.5 L75 437.5 L76 437.5 L77 437.5 L78 437.5 L79 437.5 L80 437.5 L81 437.5 L82 437.5 L83 437.5 L84 413.48039215686276 L85 411.7647058823529 L86 411.7647058823529 L87 406.61764705882354 L88 416.9117647058824 L89 422.05882352941177 L90 428.921568627451 L91 430.6372549019608 L92 437.5 L93 437.5 L94 425.4901960784314 L95 423.77450980392155 L96 422.05882352941177 L97 434.0686274509804 L98 435.7843137254902 L99 437.5 L100 435.7843137254902" stroke = "purple"  stroke-width = "4" fill = "none" />
</svg>