<svg width="500" height="438" viewbox = "0 0 500 438"  xmlns="http://www.w3.org/2000/svg">
<!--<json>{"starttime":1741738426.611,"startdate":"Tue Mar 11 2025 18:13:46 GMT-0600 (Mountain Daylight Time)","f1":1000,"f2":2000,"f3":3000,"f4":4000,"notes":"this is just a test run of some random noise, this is not real data but what is real data? what makes data more real?\nwhat even is real?","p1":[0,0,0,0,0,0,0,0,0,0,0,0,0,0,0,0,0,0,0,0,0,0,0,0,0,0,0,0,0,0,0,0,0,0,0,0,0,0,0,0,0,0,0,0,0,0,0,0,0,0,0,0,0,19,21,64,95,123,138,147,153,156,159,162,162,164,165,165,166,166,166,167,167,167,167,168,168,168,168,168,168,168,168,168,169,169,169,169,169,169,169,169,169,169,169,169,169,169,169,169,169,168,168,168,168,167,168,169,168,168,168,169,169,170,170,171,171,172,172,172,172,173,173,173,173,174,174,174,174,174,174,174,174,174,174,175,175,175,175,174,175,175,175,175,173,173,172,173,173,174,174,174,174,175,174,174,174,174,174,174,174,175,174,174,174,174,174,116,174.66666666666666,173.66666666666666,174,174,174,173.33333333333334,173,171.66666666666666,170,170,170,170,170,169,169,169,169,169,169,169,169,168,168.66666666666666,169.66666666666666,170.33333333333334,170,169,168.33333333333334,168,168,168,166,166,166.33333333333334,166.33333333333334,167,167,164.66666666666666,163.33333333333334,166,167.66666666666666,169.33333333333334,170.66666666666666,170.66666666666666,169.66666666666666,167.33333333333334,165.66666666666666,165,165,165.66666666666666,165.66666666666666,166.33333333333334,169.33333333333334,170.66666666666666,169,170.33333333333334,172,171.33333333333334,171,171.66666666666666,171,169.66666666666666,169,169,168.66666666666666,169,171,170.66666666666666,171,170,170.33333333333334,169,168.66666666666666,167.33333333333334,166,166,168,167,167,167,167,166.33333333333334,166.33333333333334,165.33333333333334,166,167,166.33333333333334,167.33333333333334,167.66666666666666,168,167.66666666666666,167.33333333333334,167,167,165.33333333333334,165.66666666666666,166.33333333333334,167,167,167,165.33333333333334,164.33333333333334,161,163.66666666666666,165.66666666666666,166,166.66666666666666,167.33333333333334,167.33333333333334,167,167,167,167,168,167.33333333333334,167.33333333333334,168,168,166.66666666666666,165.66666666666666,166.66666666666666,167,167,167,167.66666666666666,168.66666666666666,168.33333333333334,168,168,167.33333333333334,166.33333333333334,167.33333333333334,168,167.66666666666666,167,167.33333333333334,167.66666666666666,168,168,168,168,168,168,168,168,168,167.66666666666666,166.33333333333334,167,167.33333333333334,167.66666666666666,168,168,168,168,168.33333333333334,168,168,168.33333333333334,166,166.66666666666666,167,167,167,167,167,166.66666666666666,167,167,167,167.66666666666666,167,167,167,166,165.66666666666666,166,166,167,167.66666666666666,167,167,167.33333333333334,165.33333333333334,165.66666666666666,166.66666666666666,167,167,167,167,167,166.66666666666666,166.66666666666666,167,167,167,166,166,166,166,166,166.33333333333334,166.66666666666666,167,167,166,166.66666666666666,166.66666666666666,166,166.66666666666666,166.66666666666666,167,167,167,166.66666666666666,166.33333333333334,166.33333333333334,166,167.66666666666666,167.66666666666666,167,167,167.33333333333334,166.66666666666666,166.33333333333334,167,167,167,167.33333333333334,166.33333333333334,166,166,166,166,167,167,167,167,167.33333333333334,167,167,167,167,167,167,167,167,167,167,167.33333333333334,166.66666666666666,167,166.33333333333334,167,166.33333333333334,166.66666666666666,166,166.66666666666666,167,167,167,167,167,167,166.66666666666666,166.66666666666666,167,166.66666666666666,167,168,167.33333333333334,167,167,167,167.33333333333334,167.66666666666666,167.66666666666666,167.33333333333334,166.66666666666666,166,167,167,168.33333333333334,167.66666666666666,167,167,167,167,167,166.33333333333334,166,166.33333333333334,167,167,167,167,167,167,167,168,168,168,167,167,167,167,167,167,166.66666666666666,166,166.33333333333334,167,166.33333333333334,166,166.66666666666666,167,167,167,167,167,167,167,167,167,167.33333333333334,169.66666666666666,168.66666666666666,168,168,167,168,167,166.66666666666666],"p2":[0,0,0,0,0,0,0,0,0,0,0,0,0,0,0,0,0,0,0,0,0,0,0,0,0,0,0,0,0,0,0,0,0,0,0,0,0,0,0,36,48,45,39,32,26,19,13,7,1,0,0,0,14,16,9,7,52,55,49,42,43,60,57,54,47,40,34,27,20,13,8,16,10,5,2,0,0,0,0,19,13,41,42,36,30,24,17,11,8,12,8,23,21,16,23,21,17,16,11,4,2,3,5,18,16,12,8,2,0,0,23,30,26,22,31,32,33,30,23,18,12,9,7,1,0,0,0,0,0,0,0,0,0,0,0,0,0,0,0,0,0,0,0,0,0,0,0,0,0,0,0,0,0,0,0,0,0,0,0,0,0,26,23,18,14,9,6,0.3333333333333333,0,0,0,0,0,3,0,21,53,35.333333333333336,30.333333333333332,33.666666666666664,45,35,17.666666666666668,5.666666666666667,15.666666666666666,39,20.666666666666668,22,41.666666666666664,35.333333333333336,17.666666666666668,15,37.333333333333336,33.333333333333336,16,12,10.333333333333334,20.666666666666668,12.333333333333334,4.666666666666667,5.666666666666667,16,7.666666666666667,5,3,1.3333333333333333,2.6666666666666665,4.666666666666667,28,37.333333333333336,30,17,8.333333333333334,34,40.333333333333336,25.333333333333332,21.333333333333332,10,47,50.333333333333336,51.333333333333336,44.333333333333336,38.333333333333336,63.666666666666664,77.66666666666667,64.33333333333333,46.666666666666664,32.333333333333336,34.333333333333336,29,25.333333333333332,15.333333333333334,18.666666666666668,51.666666666666664,68.66666666666667,87.33333333333333,94.66666666666667,105.33333333333333,108.66666666666667,108.33333333333333,118.33333333333333,109,117,123.33333333333333,120.66666666666667,111,96.66666666666667,81.33333333333333,64.66666666666667,48.333333333333336,46,56.333333333333336,56.333333333333336,39,22,5.333333333333333,0,0,0,0,5,3.3333333333333335,3.3333333333333335,20.333333333333332,41.666666666666664,34.333333333333336,25.333333333333332,20.666666666666668,30.333333333333332,14,3.6666666666666665,0,0,0,0,0,10.666666666666666,18.333333333333332,14,24,16,12,32.333333333333336,23.666666666666668,17,28,70.66666666666667,60,43.333333333333336,23,14.333333333333334,22.333333333333332,18.666666666666668,10.666666666666666,0,0,0,60,48.333333333333336,49.333333333333336,40,47.333333333333336,64.33333333333333,49.333333333333336,30,14.333333333333334,8.333333333333334,6.666666666666667,0.3333333333333333,0,0,0,0,0,0,10.666666666666666,3.3333333333333335,13.333333333333334,36.333333333333336,35,23,12.666666666666666,3.6666666666666665,12.666666666666666,2,0,0.3333333333333333,0.3333333333333333,0.3333333333333333,0,12,8,0,0,4.666666666666667,0.3333333333333333,0,0,0,0,5.333333333333333,13.333333333333334,18,3.3333333333333335,0,0,17.333333333333332,7.666666666666667,1.3333333333333333,0,0,0,0,0,24.666666666666668,16,4,13,22.666666666666668,6,0,0,0,2.3333333333333335,6.666666666666667,38.333333333333336,46,55.333333333333336,39.666666666666664,63,56,40.333333333333336,24.666666666666668,23.333333333333332,12,0,0,0,0,0,0,0,0,0,2.3333333333333335,31.333333333333332,33.666666666666664,20,21.666666666666668,23,10.666666666666666,0,0,10,43.333333333333336,48,36.333333333333336,27,16,33,29.666666666666668,19.666666666666668,42.666666666666664,30,19.333333333333332,10.666666666666666,48,52.666666666666664,35.666666666666664,30,12.666666666666666,6,0,0,0,0,0,1,29,50,49.666666666666664,30.333333333333332,13.666666666666666,33.666666666666664,36,30.333333333333332,34,19.333333333333332,4.666666666666667,0,0,1,2.3333333333333335,2,2.6666666666666665,15,18,8.333333333333334,38.666666666666664,30.333333333333332,25,22,53.333333333333336,57.333333333333336,47,37.333333333333336,31,21.333333333333332,33,48.666666666666664,34.333333333333336,19.666666666666668,17.666666666666668,18.666666666666668,58,46.333333333333336,43.666666666666664,36.666666666666664,42,28.333333333333332,24,35.666666666666664,23.666666666666668,15.666666666666666,10,6.333333333333333,22.666666666666668,18.333333333333332,10.333333333333334,1,0,17.333333333333332,61,54.333333333333336,39,19.333333333333332,2,0,0,0,0,0,0,0,0,0,0,0,0,0,0,0,0,0,0,0,0,0,43.333333333333336,35.666666666666664,26],"p3":[0,0,0,0,0,0,0,0,0,0,0,0,0,0,0,0,0,0,0,0,0,0,0,0,0,0,0,0,0,0,0,0,0,0,0,0,0,0,0,0,0,0,0,0,0,0,0,0,0,0,0,0,0,0,0,0,0,0,0,0,0,0,0,0,0,0,0,0,0,0,0,0,0,0,0,0,0,0,0,0,0,0,0,0,0,0,0,0,0,0,0,0,0,0,0,0,0,0,0,0,0,0,0,0,0,0,0,0,0,2,11,23,21,20,22,20,24,30,29,25,18,18,14,22,19,16,12,6,2,0,0,0,0,0,0,0,0,0,0,0,0,0,0,0,0,0,0,0,0,0,0,0,0,0,0,0,0,0,0,0,0,0,0,0,0,0,0,0,0,0,0,0,0,0,0,0,0,0,0,0,0,0,0,0,0,0,0,0,5.666666666666667,15.333333333333334,17.333333333333332,22,33.666666666666664,27.333333333333332,11,0.3333333333333333,0,0,0.3333333333333333,9,0,0,0,3,10.333333333333334,25,18.333333333333332,5.666666666666667,1,0,0,0,4.666666666666667,7.666666666666667,5.333333333333333,3,0.3333333333333333,0,8.666666666666666,21.333333333333332,27.333333333333332,26.333333333333332,33,47.333333333333336,52,42,36.333333333333336,32.333333333333336,19.666666666666668,8.333333333333334,6.333333333333333,2.6666666666666665,14.333333333333334,55.666666666666664,64,78,78.33333333333333,74.33333333333333,69.66666666666667,69,64.66666666666667,53,48.333333333333336,58,52.666666666666664,41.666666666666664,29.333333333333332,23.333333333333332,6.666666666666667,0,0,0,0,0,0,0,0,0,0,0,0,2,0,0.6666666666666666,2.6666666666666665,0,0,0,0,0,0,0,0,2.3333333333333335,3.3333333333333335,1.6666666666666667,3.6666666666666665,0,0.3333333333333333,0,0,0,0,0,0,0,0,0,0,0,0,0,0,1.3333333333333333,1,0,0,0,0,9.333333333333334,1.3333333333333333,0,0,0,0,0,0,0,0,0,0,0,0,0,0.6666666666666666,7,2.3333333333333335,4.333333333333333,4,0,0,0,4.333333333333333,8.666666666666666,0,0,0,0,0,0,0,0,0,0,1.6666666666666667,0,0,0,3.6666666666666665,20.333333333333332,29,26.333333333333332,22.333333333333332,5,0,0,0,0,0,0,0,0,0,0,0,0,0,0,0,0,0,6,5,20,23.333333333333332,17.666666666666668,7.333333333333333,0,0,6,10.333333333333334,16.666666666666668,2.6666666666666665,0,0,0,0,0,0,0,0,0,0,0,0,0,0,0,0,0,0,0,0,0,0,0,0,4.333333333333333,16.333333333333332,25.666666666666668,16.666666666666668,2.3333333333333335,4,0,1.6666666666666667,2,13,4.666666666666667,0.6666666666666666,0,0,0,0,0,0,0,0,0,0,14,5,1.3333333333333333,9.333333333333334,16.666666666666668,19.666666666666668,4.333333333333333,2,6,0,0,0,0,0,0,0,2,2,0,13.333333333333334,8.666666666666666,2,0,10,6.333333333333333,0,3.6666666666666665,9.333333333333334,1.3333333333333333,0,0,0,5.666666666666667,8.666666666666666,12.333333333333334,21.666666666666668,25,24.666666666666668,22,19.333333333333332,13,6.666666666666667,1,16.333333333333332,25.666666666666668,27.333333333333332,14.666666666666666,18,27.666666666666668,32.666666666666664,39,47,35.333333333333336,24,12.333333333333334,2.3333333333333335,0,0,0,0,0,0,0,0,0,0,0,0,0,0,0,0,0,0,0,0,0,0,0,0,0,0],"p4":[0,0,0,0,0,0,0,0,0,0,0,0,0,0,0,0,0,0,0,0,0,0,0,0,0,0,0,0,0,0,0,0,0,0,0,0,0,0,0,0,0,0,0,0,0,0,0,0,0,0,0,0,0,0,0,0,0,0,0,0,0,0,0,0,0,0,0,0,0,0,0,0,0,0,0,0,0,0,0,0,0,0,0,0,0,0,0,0,0,0,0,0,0,0,0,0,0,0,0,0,0,0,0,0,0,0,0,0,0,1,8,19,15,11,14,15,12,9,3,0,0,0,0,0,0,6,8,2,3,0,0,0,0,0,0,0,0,0,0,0,0,0,0,0,0,0,0,0,0,0,0,0,0,0,0,0,0,0,0,0,0,0,0,0,0,0,0,0,0,0,0,0,0,3,0,0,0,0,0,0,0,0,0,0,0,0,0,0,0,0,0,0,0,0,0,0,0,0,0,0,0,0,0,0,0,0,0,0,0,0,0,0,0,0,0,0,0,0,0,0,0,7.333333333333333,27,37.333333333333336,52.333333333333336,48.333333333333336,40.666666666666664,39.666666666666664,44,34,21,14.333333333333334,10.666666666666666,16.333333333333332,30.666666666666668,36.333333333333336,38,33.333333333333336,21.666666666666668,18.666666666666668,10.333333333333334,0.3333333333333333,0,0,7,1,0.6666666666666666,1.3333333333333333,0,0,0,0,0,0,0,0,0,0,0,0,0,0,0,0,0,0,0,0,0,0,0,0,8.666666666666666,21.333333333333332,24.666666666666668,19.666666666666668,6.666666666666667,0,0,0,0,0,0,0,0,0,0,0,0,0,0,0,0,0,0,0,0,0,0,0,0,0,0,0,0,0,0,0,0,0,0,0,0,0,0,0,0,0,0,0,0,0,0,0,0,0,0,0,0,0,0,0,0,0,0,0,0,0,0,0,0,0,0,0,0,0,0,0,0,0,0,0,0,0,0,0,0,0,0,0,0,0,0,0,0,0,0,0,0,0,0,0,0,0,0,0,0,0,0,0,0,0,0,0,0,3.3333333333333335,1.3333333333333333,0,0,0,0,0,0,0,0,0,0,5.333333333333333,19.333333333333332,23.666666666666668,18.666666666666668,8.333333333333334,0,0,0,0,0,0,0,0,0,0,0,0,0,0,0,0,0,0,0,0,0,0,0,0,0,0,0,0,0,0,0,0,0,0,0,0,0,0,0,0,0,0,0,0,0,0,0,0,0,0,0,9.666666666666666,21.333333333333332,11.333333333333334,11.333333333333334,4.333333333333333,0,0,8.666666666666666,1.6666666666666667,1,1.3333333333333333,10.666666666666666,4.666666666666667,3.6666666666666665,10,18.333333333333332,12.666666666666666,10.666666666666666,2.3333333333333335,0,0,0,0,0,0,0,2,14.666666666666666,17.666666666666668,12,1.6666666666666667,0,0,0,0,0,0,0,0,0,0,0,0,0,0,0,0,0],"timeseconds":[0.14599990844726562,0.17499995231628418,0.2089998722076416,0.24399995803833008,0.2760000228881836,0.31099987030029297,0.3429999351501465,0.37599992752075195,0.41100001335144043,0.44299983978271484,0.4759998321533203,0.5079998970031738,0.5420000553131104,0.5750000476837158,0.6089999675750732,0.6419999599456787,0.6749999523162842,0.7100000381469727,0.7430000305175781,0.7760000228881836,0.812000036239624,0.8429999351501465,0.875,0.9089999198913574,0.9429998397827148,0.9779999256134033,1.0089998245239258,1.0420000553131104,1.0739998817443848,1.1080000400543213,1.1410000324249268,1.1749999523162842,1.2079999446868896,1.241999864578247,1.2749998569488525,1.309000015258789,1.3420000076293945,1.375,1.4079999923706055,1.441999912261963,1.4749999046325684,1.5079998970031738,1.5420000553131104,1.5739998817443848,1.6089999675750732,1.6419999599456787,1.6759998798370361,1.7089998722076416,1.741999864578247,1.7790000438690186,1.812000036239624,1.8420000076293945,1.875,1.9099998474121094,1.9429998397827148,1.9759998321533203,2.008999824523926,2.0429999828338623,2.0759999752044678,2.1080000400543213,2.1419999599456787,2.174999952316284,2.2089998722076416,2.241999864578247,2.2739999294281006,2.309000015258789,2.3409998416900635,2.373999834060669,2.4079999923706055,2.442999839782715,2.4769999980926514,2.508999824523926,2.5429999828338623,2.5759999752044678,2.609999895095825,2.6429998874664307,2.675999879837036,2.7100000381469727,2.743000030517578,2.7749998569488525,2.809999942779541,2.8429999351501465,2.875999927520752,2.9089999198913574,2.942999839782715,2.9759998321533203,3.009999990463257,3.0420000553131104,3.0769999027252197,3.1089999675750732,3.1419999599456787,3.1740000247955322,3.2109999656677246,3.241999864578247,3.2749998569488525,3.307999849319458,3.3420000076293945,3.375999927520752,3.4089999198913574,3.441999912261963,3.4759998321533203,3.503999948501587,3.5420000553131104,3.5769999027252197,3.609999895095825,3.6429998874664307,3.677000045776367,3.7100000381469727,3.743000030517578,3.7760000228881836,3.810999870300293,3.8429999351501465,3.875,3.9099998474121094,3.941999912261963,3.9769999980926514,4.009999990463257,4.042999982833862,4.075999975204468,4.108999967575073,4.141999959945679,4.175999879837036,4.208999872207642,4.243000030517578,4.276000022888184,4.309999942779541,4.3429999351501465,4.375,4.41100001335144,4.441999912261963,4.47599983215332,4.508999824523926,4.54200005531311,4.575999975204468,4.609999895095825,4.641999959945679,4.674999952316284,4.708999872207642,4.741999864578247,4.7749998569488525,4.809000015258789,4.855000019073486,4.892999887466431,4.925999879837036,4.95799994468689,4.991999864578247,5.0249998569488525,5.059999942779541,5.0920000076293945,5.125,5.158999919891357,5.191999912261963,5.22599983215332,5.258999824523926,5.29200005531311,5.325000047683716,5.358999967575073,5.391999959945679,5.424999952316284,5.460000038146973,5.491999864578247,5.526000022888184,5.559000015258789,5.5929999351501465,5.625999927520752,5.658999919891357,5.694000005722046,5.759999990463257,5.859999895095825,5.958999872207642,6.059999942779541,6.158999919891357,6.258999824523926,6.359999895095825,6.458999872207642,6.559000015258789,6.659999847412109,6.758999824523926,6.859999895095825,6.960000038146973,7.059999942779541,7.16100001335144,7.258999824523926,7.359999895095825,7.458999872207642,7.559999942779541,7.659999847412109,7.758999824523926,7.858000040054321,7.95799994468689,8.059000015258789,8.158999919891357,8.258999824523926,8.358000040054321,8.458999872207642,8.559000015258789,8.657999992370605,8.757999897003174,8.858999967575073,8.958999872207642,9.059999942779541,9.158999919891357,9.258999824523926,9.359999895095825,9.458999872207642,9.559999942779541,9.65999984741211,9.757999897003174,9.858999967575073,9.960000038146973,10.059999942779541,10.15999984741211,10.258999824523926,10.359999895095825,10.460000038146973,10.559000015258789,10.658999919891357,10.758999824523926,10.859999895095825,10.960000038146973,11.059999942779541,11.15999984741211,11.258999824523926,11.359999895095825,11.460000038146973,11.559000015258789,11.65999984741211,11.758999824523926,11.858999967575073,11.960000038146973,12.059999942779541,12.158999919891357,12.258999824523926,12.358999967575073,12.460000038146973,12.559999942779541,12.65999984741211,12.758999824523926,12.859999895095825,12.960000038146973,13.059000015258789,13.158999919891357,13.259999990463257,13.358999967575073,13.460000038146973,13.559000015258789,13.658999919891357,13.759999990463257,13.858999967575073,13.958999872207642,14.059999942779541,14.15999984741211,14.257999897003174,14.359999895095825,14.458999872207642,14.559999942779541,14.658999919891357,14.759999990463257,14.858999967575073,14.960000038146973,15.059999942779541,15.15999984741211,15.258999824523926,15.359999895095825,15.458999872207642,15.559000015258789,15.65999984741211,15.758999824523926,15.859999895095825,15.958999872207642,16.05999994277954,16.158999919891357,16.259999990463257,16.358999967575073,16.45899987220764,16.55900001525879,16.658999919891357,16.759999990463257,16.859999895095825,16.960000038146973,17.05900001525879,17.158999919891357,17.258999824523926,17.359999895095825,17.460000038146973,17.55900001525879,17.658999919891357,17.758999824523926,17.858999967575073,17.95899987220764,18.05900001525879,18.158999919891357,18.259999990463257,18.358999967575073,18.45799994468689,18.55900001525879,18.65999984741211,18.759999990463257,18.859999895095825,18.95899987220764,19.05999994277954,19.157999992370605,19.259999990463257,19.358999967575073,19.45899987220764,19.55900001525879,19.658999919891357,19.758999824523926,19.858999967575073,19.960000038146973,20.05999994277954,20.158999919891357,20.259999990463257,20.359999895095825,20.45899987220764,20.55999994277954,20.65999984741211,20.759999990463257,20.85800004005432,20.95899987220764,21.05999994277954,21.158999919891357,21.258999824523926,21.358999967575073,21.460000038146973,21.55999994277954,21.658999919891357,21.758999824523926,21.859999895095825,21.95899987220764,22.05900001525879,22.158999919891357,22.258999824523926,22.358999967575073,22.45899987220764,22.55999994277954,22.658999919891357,22.758999824523926,22.858999967575073,22.960000038146973,23.05999994277954,23.15999984741211,23.259999990463257,23.358999967575073,23.45899987220764,23.55900001525879,23.65999984741211,23.758999824523926,23.858999967575073,23.95899987220764,24.05900001525879,24.158999919891357,24.259999990463257,24.358999967575073,24.460000038146973,24.55900001525879,24.658999919891357,24.758999824523926,24.858999967575073,24.95899987220764,25.05900001525879,25.158999919891357,25.259999990463257,25.358999967575073,25.460000038146973,25.557999849319458,25.65999984741211,25.758999824523926,25.85800004005432,25.95899987220764,26.05999994277954,26.158999919891357,26.258999824523926,26.359999895095825,26.460000038146973,26.55900001525879,26.658999919891357,26.758999824523926,26.859999895095825,26.95899987220764,27.05900001525879,27.158999919891357,27.258999824523926,27.358999967575073,27.45899987220764,27.55900001525879,27.658999919891357,27.759999990463257,27.858999967575073,27.95899987220764,28.05900001525879,28.158999919891357,28.258999824523926,28.358999967575073,28.45899987220764,28.55900001525879,28.658999919891357,28.759999990463257,28.858999967575073,28.95899987220764,29.05900001525879,29.158999919891357,29.258999824523926,29.358999967575073,29.460000038146973,29.55900001525879,29.65999984741211,29.758999824523926,29.85800004005432,29.95899987220764,30.05900001525879,30.158999919891357,30.258999824523926,30.358999967575073,30.45899987220764,30.55999994277954,30.658999919891357,30.758999824523926,30.858999967575073,30.95899987220764,31.05900001525879,31.158999919891357,31.258999824523926,31.359999895095825,31.45899987220764,31.55900001525879,31.65999984741211,31.76099991798401,31.858999967575073,31.960000038146973,32.05900001525879,32.15899991989136,32.25999999046326,32.359999895095825,32.46000003814697,32.55900001525879,32.65899991989136,32.758999824523926,32.85899996757507,32.95899987220764,33.05999994277954,33.15999984741211,33.25999999046326,33.35899996757507,33.45899987220764,33.55999994277954,33.65999984741211,33.758999824523926,33.85899996757507,33.95799994468689,34.05900001525879,34.15899991989136,34.25999999046326,34.35899996757507,34.45899987220764,34.55999994277954,34.65999984741211,34.75999999046326,34.85899996757507,34.95899987220764,35.05999994277954,35.15999984741211,35.258999824523926,35.35899996757507,35.45899987220764,35.55999994277954,35.65899991989136,35.758999824523926,35.859999895095825,35.95899987220764,36.05900001525879,36.15899991989136,36.258999824523926,36.35899996757507,36.45899987220764,36.55900001525879,36.65899991989136,36.75999999046326,36.859999895095825,36.95899987220764,37.05900001525879,37.15899991989136,37.258999824523926,37.359999895095825,37.46000003814697,37.55900001525879,37.65899991989136,37.757999897003174,37.85899996757507,37.960999965667725,38.05900001525879,38.15899991989136,38.258999824523926,38.35899996757507,38.45899987220764,38.55999994277954,38.65899991989136,38.758999824523926,38.859999895095825,38.95899987220764,39.05799984931946]}</json>-->
<path d = "M0 438 L1 438 L2 438 L3 438 L4 438 L5 438 L6 438 L7 438 L8 438 L9 438 L10 438 L11 438 L12 438 L13 438 L14 438 L15 438 L16 438 L17 438 L18 438 L19 438 L20 438 L21 438 L22 438 L23 438 L24 438 L25 438 L26 438 L27 438 L28 438 L29 438 L30 438 L31 438 L32 438 L33 438 L34 438 L35 438 L36 438 L37 438 L38 438 L39 438 L40 438 L41 438 L42 438 L43 438 L44 438 L45 438 L46 438 L47 438 L48 438 L49 438 L50 438 L51 438 L52 438 L53 405.36470588235295 L54 401.9294117647059 L55 328.0705882352941 L56 274.8235294117647 L57 226.72941176470587 L58 200.96470588235294 L59 185.5058823529412 L60 175.2 L61 170.04705882352937 L62 164.8941176470588 L63 159.74117647058824 L64 159.74117647058824 L65 156.30588235294118 L66 154.58823529411762 L67 154.58823529411762 L68 152.87058823529412 L69 152.87058823529412 L70 152.87058823529412 L71 151.15294117647056 L72 151.15294117647056 L73 151.15294117647056 L74 151.15294117647056 L75 149.43529411764706 L76 149.43529411764706 L77 149.43529411764706 L78 149.43529411764706 L79 149.43529411764706 L80 149.43529411764706 L81 149.43529411764706 L82 149.43529411764706 L83 149.43529411764706 L84 147.71764705882356 L85 147.71764705882356 L86 147.71764705882356 L87 147.71764705882356 L88 147.71764705882356 L89 147.71764705882356 L90 147.71764705882356 L91 147.71764705882356 L92 147.71764705882356 L93 147.71764705882356 L94 147.71764705882356 L95 147.71764705882356 L96 147.71764705882356 L97 147.71764705882356 L98 147.71764705882356 L99 147.71764705882356 L100 147.71764705882356 L101 149.43529411764706 L102 149.43529411764706 L103 149.43529411764706 L104 149.43529411764706 L105 151.15294117647056 L106 149.43529411764706 L107 147.71764705882356 L108 149.43529411764706 L109 149.43529411764706 L110 149.43529411764706 L111 147.71764705882356 L112 147.71764705882356 L113 146 L114 146 L115 144.2823529411765 L116 144.2823529411765 L117 142.56470588235294 L118 142.56470588235294 L119 142.56470588235294 L120 142.56470588235294 L121 140.84705882352938 L122 140.84705882352938 L123 140.84705882352938 L124 140.84705882352938 L125 139.12941176470588 L126 139.12941176470588 L127 139.12941176470588 L128 139.12941176470588 L129 139.12941176470588 L130 139.12941176470588 L131 139.12941176470588 L132 139.12941176470588 L133 139.12941176470588 L134 139.12941176470588 L135 137.41176470588238 L136 137.41176470588238 L137 137.41176470588238 L138 137.41176470588238 L139 139.12941176470588 L140 137.41176470588238 L141 137.41176470588238 L142 137.41176470588238 L143 137.41176470588238 L144 140.84705882352938 L145 140.84705882352938 L146 142.56470588235294 L147 140.84705882352938 L148 140.84705882352938 L149 139.12941176470588 L150 139.12941176470588 L151 139.12941176470588 L152 139.12941176470588 L153 137.41176470588238 L154 139.12941176470588 L155 139.12941176470588 L156 139.12941176470588 L157 139.12941176470588 L158 139.12941176470588 L159 139.12941176470588 L160 139.12941176470588 L161 137.41176470588238 L162 139.12941176470588 L163 139.12941176470588 L164 139.12941176470588 L165 139.12941176470588 L166 139.12941176470588 L167 238.75294117647059 L168 137.9843137254902 L169 139.70196078431377 L170 139.12941176470588 L171 139.12941176470588 L172 139.12941176470588 L173 140.27450980392155 L174 140.84705882352938 L175 143.13725490196083 L176 146 L177 146 L178 146 L179 146 L180 146 L181 147.71764705882356 L182 147.71764705882356 L183 147.71764705882356 L184 147.71764705882356 L185 147.71764705882356 L186 147.71764705882356 L187 147.71764705882356 L188 147.71764705882356 L189 149.43529411764706 L190 148.2901960784314 L191 146.57254901960783 L192 145.4274509803921 L193 146 L194 147.71764705882356 L195 148.86274509803923 L196 149.43529411764706 L197 149.43529411764706 L198 149.43529411764706 L199 152.87058823529412 L200 152.87058823529412 L201 152.2980392156863 L202 152.2980392156863 L203 151.15294117647056 L204 151.15294117647056 L205 155.16078431372551 L206 157.45098039215685 L207 152.87058823529412 L208 150.0078431372549 L209 147.14509803921567 L210 144.85490196078433 L211 144.85490196078433 L212 146.57254901960783 L213 150.58039215686273 L214 153.443137254902 L215 154.58823529411762 L216 154.58823529411762 L217 153.443137254902 L218 153.443137254902 L219 152.2980392156863 L220 147.14509803921567 L221 144.85490196078433 L222 147.71764705882356 L223 145.4274509803921 L224 142.56470588235294 L225 143.7098039215686 L226 144.2823529411765 L227 143.13725490196083 L228 144.2823529411765 L229 146.57254901960783 L230 147.71764705882356 L231 147.71764705882356 L232 148.2901960784314 L233 147.71764705882356 L234 144.2823529411765 L235 144.85490196078433 L236 144.2823529411765 L237 146 L238 145.4274509803921 L239 147.71764705882356 L240 148.2901960784314 L241 150.58039215686273 L242 152.87058823529412 L243 152.87058823529412 L244 149.43529411764706 L245 151.15294117647056 L246 151.15294117647056 L247 151.15294117647056 L248 151.15294117647056 L249 152.2980392156863 L250 152.2980392156863 L251 154.0156862745098 L252 152.87058823529412 L253 151.15294117647056 L254 152.2980392156863 L255 150.58039215686273 L256 150.0078431372549 L257 149.43529411764706 L258 150.0078431372549 L259 150.58039215686273 L260 151.15294117647056 L261 151.15294117647056 L262 154.0156862745098 L263 153.443137254902 L264 152.2980392156863 L265 151.15294117647056 L266 151.15294117647056 L267 151.15294117647056 L268 154.0156862745098 L269 155.7333333333333 L270 161.4588235294118 L271 156.87843137254907 L272 153.443137254902 L273 152.87058823529412 L274 151.72549019607845 L275 150.58039215686273 L276 150.58039215686273 L277 151.15294117647056 L278 151.15294117647056 L279 151.15294117647056 L280 151.15294117647056 L281 149.43529411764706 L282 150.58039215686273 L283 150.58039215686273 L284 149.43529411764706 L285 149.43529411764706 L286 151.72549019607845 L287 153.443137254902 L288 151.72549019607845 L289 151.15294117647056 L290 151.15294117647056 L291 151.15294117647056 L292 150.0078431372549 L293 148.2901960784314 L294 148.86274509803923 L295 149.43529411764706 L296 149.43529411764706 L297 150.58039215686273 L298 152.2980392156863 L299 150.58039215686273 L300 149.43529411764706 L301 150.0078431372549 L302 151.15294117647056 L303 150.58039215686273 L304 150.0078431372549 L305 149.43529411764706 L306 149.43529411764706 L307 149.43529411764706 L308 149.43529411764706 L309 149.43529411764706 L310 149.43529411764706 L311 149.43529411764706 L312 149.43529411764706 L313 149.43529411764706 L314 150.0078431372549 L315 152.2980392156863 L316 151.15294117647056 L317 150.58039215686273 L318 150.0078431372549 L319 149.43529411764706 L320 149.43529411764706 L321 149.43529411764706 L322 149.43529411764706 L323 148.86274509803923 L324 149.43529411764706 L325 149.43529411764706 L326 148.86274509803923 L327 152.87058823529412 L328 151.72549019607845 L329 151.15294117647056 L330 151.15294117647056 L331 151.15294117647056 L332 151.15294117647056 L333 151.15294117647056 L334 151.72549019607845 L335 151.15294117647056 L336 151.15294117647056 L337 151.15294117647056 L338 150.0078431372549 L339 151.15294117647056 L340 151.15294117647056 L341 151.15294117647056 L342 152.87058823529412 L343 153.443137254902 L344 152.87058823529412 L345 152.87058823529412 L346 151.15294117647056 L347 150.0078431372549 L348 151.15294117647056 L349 151.15294117647056 L350 150.58039215686273 L351 154.0156862745098 L352 153.443137254902 L353 151.72549019607845 L354 151.15294117647056 L355 151.15294117647056 L356 151.15294117647056 L357 151.15294117647056 L358 151.15294117647056 L359 151.72549019607845 L360 151.72549019607845 L361 151.15294117647056 L362 151.15294117647056 L363 151.15294117647056 L364 152.87058823529412 L365 152.87058823529412 L366 152.87058823529412 L367 152.87058823529412 L368 152.87058823529412 L369 152.2980392156863 L370 151.72549019607845 L371 151.15294117647056 L372 151.15294117647056 L373 152.87058823529412 L374 151.72549019607845 L375 151.72549019607845 L376 152.87058823529412 L377 151.72549019607845 L378 151.72549019607845 L379 151.15294117647056 L380 151.15294117647056 L381 151.15294117647056 L382 151.72549019607845 L383 152.2980392156863 L384 152.2980392156863 L385 152.87058823529412 L386 150.0078431372549 L387 150.0078431372549 L388 151.15294117647056 L389 151.15294117647056 L390 150.58039215686273 L391 151.72549019607845 L392 152.2980392156863 L393 151.15294117647056 L394 151.15294117647056 L395 151.15294117647056 L396 150.58039215686273 L397 152.2980392156863 L398 152.87058823529412 L399 152.87058823529412 L400 152.87058823529412 L401 152.87058823529412 L402 151.15294117647056 L403 151.15294117647056 L404 151.15294117647056 L405 151.15294117647056 L406 150.58039215686273 L407 151.15294117647056 L408 151.15294117647056 L409 151.15294117647056 L410 151.15294117647056 L411 151.15294117647056 L412 151.15294117647056 L413 151.15294117647056 L414 151.15294117647056 L415 151.15294117647056 L416 151.15294117647056 L417 150.58039215686273 L418 151.72549019607845 L419 151.15294117647056 L420 152.2980392156863 L421 151.15294117647056 L422 152.2980392156863 L423 151.72549019607845 L424 152.87058823529412 L425 151.72549019607845 L426 151.15294117647056 L427 151.15294117647056 L428 151.15294117647056 L429 151.15294117647056 L430 151.15294117647056 L431 151.15294117647056 L432 151.72549019607845 L433 151.72549019607845 L434 151.15294117647056 L435 151.72549019607845 L436 151.15294117647056 L437 149.43529411764706 L438 150.58039215686273 L439 151.15294117647056 L440 151.15294117647056 L441 151.15294117647056 L442 150.58039215686273 L443 150.0078431372549 L444 150.0078431372549 L445 150.58039215686273 L446 151.72549019607845 L447 152.87058823529412 L448 151.15294117647056 L449 151.15294117647056 L450 148.86274509803923 L451 150.0078431372549 L452 151.15294117647056 L453 151.15294117647056 L454 151.15294117647056 L455 151.15294117647056 L456 151.15294117647056 L457 152.2980392156863 L458 152.87058823529412 L459 152.2980392156863 L460 151.15294117647056 L461 151.15294117647056 L462 151.15294117647056 L463 151.15294117647056 L464 151.15294117647056 L465 151.15294117647056 L466 151.15294117647056 L467 149.43529411764706 L468 149.43529411764706 L469 149.43529411764706 L470 151.15294117647056 L471 151.15294117647056 L472 151.15294117647056 L473 151.15294117647056 L474 151.15294117647056 L475 151.15294117647056 L476 151.72549019607845 L477 152.87058823529412 L478 152.2980392156863 L479 151.15294117647056 L480 152.2980392156863 L481 152.87058823529412 L482 151.72549019607845 L483 151.15294117647056 L484 151.15294117647056 L485 151.15294117647056 L486 151.15294117647056 L487 151.15294117647056 L488 151.15294117647056 L489 151.15294117647056 L490 151.15294117647056 L491 151.15294117647056 L492 150.58039215686273 L493 146.57254901960783 L494 148.2901960784314 L495 149.43529411764706 L496 149.43529411764706 L497 151.15294117647056 L498 149.43529411764706 L499 151.15294117647056 L500 151.72549019607845" stroke = "red"  stroke-width = "4" fill = "none" />
<path d = "M0 438 L1 438 L2 438 L3 438 L4 438 L5 438 L6 438 L7 438 L8 438 L9 438 L10 438 L11 438 L12 438 L13 438 L14 438 L15 438 L16 438 L17 438 L18 438 L19 438 L20 438 L21 438 L22 438 L23 438 L24 438 L25 438 L26 438 L27 438 L28 438 L29 438 L30 438 L31 438 L32 438 L33 438 L34 438 L35 438 L36 438 L37 438 L38 438 L39 376.16470588235296 L40 355.5529411764706 L41 360.70588235294116 L42 371.01176470588234 L43 383.0352941176471 L44 393.34117647058827 L45 405.36470588235295 L46 415.67058823529413 L47 425.9764705882353 L48 436.2823529411765 L49 438 L50 438 L51 438 L52 413.9529411764706 L53 410.5176470588235 L54 422.54117647058825 L55 425.9764705882353 L56 348.6823529411765 L57 343.52941176470586 L58 353.83529411764704 L59 365.8588235294118 L60 364.1411764705882 L61 334.94117647058823 L62 340.09411764705885 L63 345.2470588235294 L64 357.2705882352941 L65 369.29411764705884 L66 379.6 L67 391.6235294117647 L68 403.6470588235294 L69 415.67058823529413 L70 424.25882352941176 L71 410.5176470588235 L72 420.8235294117647 L73 429.4117647058824 L74 434.56470588235294 L75 438 L76 438 L77 438 L78 438 L79 405.36470588235295 L80 415.67058823529413 L81 367.5764705882353 L82 365.8588235294118 L83 376.16470588235296 L84 386.47058823529414 L85 396.77647058823527 L86 408.8 L87 419.1058823529412 L88 424.25882352941176 L89 417.38823529411764 L90 424.25882352941176 L91 398.49411764705883 L92 401.9294117647059 L93 410.5176470588235 L94 398.49411764705883 L95 401.9294117647059 L96 408.8 L97 410.5176470588235 L98 419.1058823529412 L99 431.1294117647059 L100 434.56470588235294 L101 432.84705882352944 L102 429.4117647058824 L103 407.08235294117645 L104 410.5176470588235 L105 417.38823529411764 L106 424.25882352941176 L107 434.56470588235294 L108 438 L109 438 L110 398.49411764705883 L111 386.47058823529414 L112 393.34117647058827 L113 400.21176470588233 L114 384.7529411764706 L115 383.0352941176471 L116 381.3176470588235 L117 386.47058823529414 L118 398.49411764705883 L119 407.08235294117645 L120 417.38823529411764 L121 422.54117647058825 L122 425.9764705882353 L123 436.2823529411765 L124 438 L125 438 L126 438 L127 438 L128 438 L129 438 L130 438 L131 438 L132 438 L133 438 L134 438 L135 438 L136 438 L137 438 L138 438 L139 438 L140 438 L141 438 L142 438 L143 438 L144 438 L145 438 L146 438 L147 438 L148 438 L149 438 L150 438 L151 438 L152 438 L153 438 L154 438 L155 438 L156 438 L157 438 L158 438 L159 438 L160 438 L161 393.34117647058827 L162 398.49411764705883 L163 407.08235294117645 L164 413.9529411764706 L165 422.54117647058825 L166 427.6941176470588 L167 437.42745098039217 L168 438 L169 438 L170 438 L171 438 L172 438 L173 432.84705882352944 L174 438 L175 401.9294117647059 L176 346.9647058823529 L177 377.30980392156863 L178 385.89803921568625 L179 380.17254901960786 L180 360.70588235294116 L181 377.88235294117646 L182 407.6549019607843 L183 428.26666666666665 L184 411.09019607843135 L185 371.01176470588234 L186 402.5019607843137 L187 400.21176470588233 L188 366.4313725490196 L189 377.30980392156863 L190 407.6549019607843 L191 412.2352941176471 L192 373.87450980392157 L193 380.7450980392157 L194 410.5176470588235 L195 417.38823529411764 L196 420.25098039215686 L197 402.5019607843137 L198 416.8156862745098 L199 429.9843137254902 L200 428.26666666666665 L201 410.5176470588235 L202 424.8313725490196 L203 429.4117647058824 L204 432.84705882352944 L205 435.7098039215686 L206 433.41960784313727 L207 429.9843137254902 L208 389.90588235294115 L209 373.87450980392157 L210 386.47058823529414 L211 408.8 L212 423.6862745098039 L213 379.6 L214 368.721568627451 L215 394.48627450980393 L216 401.35686274509806 L217 420.8235294117647 L218 357.2705882352941 L219 351.54509803921565 L220 349.82745098039214 L221 361.8509803921569 L222 372.156862745098 L223 328.64313725490194 L224 304.5960784313726 L225 327.4980392156863 L226 357.843137254902 L227 382.4627450980392 L228 379.02745098039213 L229 388.18823529411765 L230 394.48627450980393 L231 411.66274509803924 L232 405.9372549019608 L233 349.2549019607843 L234 320.05490196078426 L235 287.9921568627451 L236 275.39607843137253 L237 257.0745098039216 L238 251.34901960784313 L239 251.921568627451 L240 234.7450980392157 L241 250.7764705882353 L242 237.03529411764706 L243 226.15686274509804 L244 230.73725490196077 L245 247.34117647058824 L246 271.96078431372547 L247 298.2980392156863 L248 326.9254901960784 L249 354.98039215686276 L250 358.98823529411766 L251 341.2392156862745 L252 341.2392156862745 L253 371.01176470588234 L254 400.21176470588233 L255 428.8392156862745 L256 438 L257 438 L258 438 L259 438 L260 429.4117647058824 L261 432.27450980392155 L262 432.27450980392155 L263 403.07450980392156 L264 366.4313725490196 L265 379.02745098039213 L266 394.48627450980393 L267 402.5019607843137 L268 385.89803921568625 L269 413.9529411764706 L270 431.7019607843137 L271 438 L272 438 L273 438 L274 438 L275 438 L276 419.678431372549 L277 406.5098039215686 L278 413.9529411764706 L279 396.77647058823527 L280 410.5176470588235 L281 417.38823529411764 L282 382.4627450980392 L283 397.34901960784316 L284 408.8 L285 389.90588235294115 L286 316.61960784313726 L287 334.94117647058823 L288 363.5686274509804 L289 398.49411764705883 L290 413.38039215686274 L291 399.6392156862745 L292 405.9372549019608 L293 419.678431372549 L294 438 L295 438 L296 438 L297 334.94117647058823 L298 354.98039215686276 L299 353.2627450980392 L300 369.29411764705884 L301 356.69803921568626 L302 327.4980392156863 L303 353.2627450980392 L304 386.47058823529414 L305 413.38039215686274 L306 423.6862745098039 L307 426.54901960784315 L308 437.42745098039217 L309 438 L310 438 L311 438 L312 438 L313 438 L314 438 L315 419.678431372549 L316 432.27450980392155 L317 415.0980392156863 L318 375.59215686274507 L319 377.88235294117646 L320 398.49411764705883 L321 416.24313725490197 L322 431.7019607843137 L323 416.24313725490197 L324 434.56470588235294 L325 438 L326 437.42745098039217 L327 437.42745098039217 L328 437.42745098039217 L329 438 L330 417.38823529411764 L331 424.25882352941176 L332 438 L333 438 L334 429.9843137254902 L335 437.42745098039217 L336 438 L337 438 L338 438 L339 438 L340 428.8392156862745 L341 415.0980392156863 L342 407.08235294117645 L343 432.27450980392155 L344 438 L345 438 L346 408.2274509803922 L347 424.8313725490196 L348 435.7098039215686 L349 438 L350 438 L351 438 L352 438 L353 438 L354 395.6313725490196 L355 410.5176470588235 L356 431.1294117647059 L357 415.67058823529413 L358 399.06666666666666 L359 427.6941176470588 L360 438 L361 438 L362 438 L363 433.9921568627451 L364 426.54901960784315 L365 372.156862745098 L366 358.98823529411766 L367 342.956862745098 L368 369.8666666666667 L369 329.7882352941176 L370 341.81176470588235 L371 368.721568627451 L372 395.6313725490196 L373 397.921568627451 L374 417.38823529411764 L375 438 L376 438 L377 438 L378 438 L379 438 L380 438 L381 438 L382 438 L383 438 L384 433.9921568627451 L385 384.18039215686275 L386 380.17254901960786 L387 403.6470588235294 L388 400.78431372549016 L389 398.49411764705883 L390 419.678431372549 L391 438 L392 438 L393 420.8235294117647 L394 363.5686274509804 L395 355.5529411764706 L396 375.59215686274507 L397 391.6235294117647 L398 410.5176470588235 L399 381.3176470588235 L400 387.043137254902 L401 404.2196078431373 L402 364.7137254901961 L403 386.47058823529414 L404 404.7921568627451 L405 419.678431372549 L406 355.5529411764706 L407 347.5372549019608 L408 376.7372549019608 L409 386.47058823529414 L410 416.24313725490197 L411 427.6941176470588 L412 438 L413 438 L414 438 L415 438 L416 438 L417 436.2823529411765 L418 388.18823529411765 L419 352.11764705882354 L420 352.69019607843137 L421 385.89803921568625 L422 414.5254901960784 L423 380.17254901960786 L424 376.16470588235296 L425 385.89803921568625 L426 379.6 L427 404.7921568627451 L428 429.9843137254902 L429 438 L430 438 L431 436.2823529411765 L432 433.9921568627451 L433 434.56470588235294 L434 433.41960784313727 L435 412.2352941176471 L436 407.08235294117645 L437 423.6862745098039 L438 371.58431372549023 L439 385.89803921568625 L440 395.05882352941177 L441 400.21176470588233 L442 346.3921568627451 L443 339.52156862745096 L444 357.2705882352941 L445 373.87450980392157 L446 384.7529411764706 L447 401.35686274509806 L448 381.3176470588235 L449 354.4078431372549 L450 379.02745098039213 L451 404.2196078431373 L452 407.6549019607843 L453 405.9372549019608 L454 338.3764705882353 L455 358.41568627450977 L456 362.99607843137255 L457 375.01960784313724 L458 365.8588235294118 L459 389.3333333333333 L460 396.77647058823527 L461 376.7372549019608 L462 397.34901960784316 L463 411.09019607843135 L464 420.8235294117647 L465 427.121568627451 L466 399.06666666666666 L467 406.5098039215686 L468 420.25098039215686 L469 436.2823529411765 L470 438 L471 408.2274509803922 L472 333.22352941176473 L473 344.6745098039216 L474 371.01176470588234 L475 404.7921568627451 L476 434.56470588235294 L477 438 L478 438 L479 438 L480 438 L481 438 L482 438 L483 438 L484 438 L485 438 L486 438 L487 438 L488 438 L489 438 L490 438 L491 438 L492 438 L493 438 L494 438 L495 438 L496 438 L497 438 L498 363.5686274509804 L499 376.7372549019608 L500 393.34117647058827" stroke = "green"  stroke-width = "4" fill = "none" />
<path d = "M0 438 L1 438 L2 438 L3 438 L4 438 L5 438 L6 438 L7 438 L8 438 L9 438 L10 438 L11 438 L12 438 L13 438 L14 438 L15 438 L16 438 L17 438 L18 438 L19 438 L20 438 L21 438 L22 438 L23 438 L24 438 L25 438 L26 438 L27 438 L28 438 L29 438 L30 438 L31 438 L32 438 L33 438 L34 438 L35 438 L36 438 L37 438 L38 438 L39 438 L40 438 L41 438 L42 438 L43 438 L44 438 L45 438 L46 438 L47 438 L48 438 L49 438 L50 438 L51 438 L52 438 L53 438 L54 438 L55 438 L56 438 L57 438 L58 438 L59 438 L60 438 L61 438 L62 438 L63 438 L64 438 L65 438 L66 438 L67 438 L68 438 L69 438 L70 438 L71 438 L72 438 L73 438 L74 438 L75 438 L76 438 L77 438 L78 438 L79 438 L80 438 L81 438 L82 438 L83 438 L84 438 L85 438 L86 438 L87 438 L88 438 L89 438 L90 438 L91 438 L92 438 L93 438 L94 438 L95 438 L96 438 L97 438 L98 438 L99 438 L100 438 L101 438 L102 438 L103 438 L104 438 L105 438 L106 438 L107 438 L108 438 L109 434.56470588235294 L110 419.1058823529412 L111 398.49411764705883 L112 401.9294117647059 L113 403.6470588235294 L114 400.21176470588233 L115 403.6470588235294 L116 396.77647058823527 L117 386.47058823529414 L118 388.18823529411765 L119 395.05882352941177 L120 407.08235294117645 L121 407.08235294117645 L122 413.9529411764706 L123 400.21176470588233 L124 405.36470588235295 L125 410.5176470588235 L126 417.38823529411764 L127 427.6941176470588 L128 434.56470588235294 L129 438 L130 438 L131 438 L132 438 L133 438 L134 438 L135 438 L136 438 L137 438 L138 438 L139 438 L140 438 L141 438 L142 438 L143 438 L144 438 L145 438 L146 438 L147 438 L148 438 L149 438 L150 438 L151 438 L152 438 L153 438 L154 438 L155 438 L156 438 L157 438 L158 438 L159 438 L160 438 L161 438 L162 438 L163 438 L164 438 L165 438 L166 438 L167 438 L168 438 L169 438 L170 438 L171 438 L172 438 L173 438 L174 438 L175 438 L176 438 L177 438 L178 438 L179 438 L180 438 L181 438 L182 438 L183 438 L184 438 L185 438 L186 438 L187 438 L188 428.26666666666665 L189 411.66274509803924 L190 408.2274509803922 L191 400.21176470588233 L192 380.17254901960786 L193 391.0509803921569 L194 419.1058823529412 L195 437.42745098039217 L196 438 L197 438 L198 437.42745098039217 L199 422.54117647058825 L200 438 L201 438 L202 438 L203 432.84705882352944 L204 420.25098039215686 L205 395.05882352941177 L206 406.5098039215686 L207 428.26666666666665 L208 436.2823529411765 L209 438 L210 438 L211 438 L212 429.9843137254902 L213 424.8313725490196 L214 428.8392156862745 L215 432.84705882352944 L216 437.42745098039217 L217 438 L218 423.1137254901961 L219 401.35686274509806 L220 391.0509803921569 L221 392.7686274509804 L222 381.3176470588235 L223 356.69803921568626 L224 348.6823529411765 L225 365.8588235294118 L226 375.59215686274507 L227 382.4627450980392 L228 404.2196078431373 L229 423.6862745098039 L230 427.121568627451 L231 433.41960784313727 L232 413.38039215686274 L233 342.3843137254902 L234 328.0705882352941 L235 304.0235294117647 L236 303.4509803921569 L237 310.32156862745103 L238 318.33725490196076 L239 319.4823529411765 L240 326.9254901960784 L241 346.9647058823529 L242 354.98039215686276 L243 338.3764705882353 L244 347.5372549019608 L245 366.4313725490196 L246 387.6156862745098 L247 397.921568627451 L248 426.54901960784315 L249 438 L250 438 L251 438 L252 438 L253 438 L254 438 L255 438 L256 438 L257 438 L258 438 L259 438 L260 438 L261 434.56470588235294 L262 438 L263 436.85490196078433 L264 433.41960784313727 L265 438 L266 438 L267 438 L268 438 L269 438 L270 438 L271 438 L272 438 L273 433.9921568627451 L274 432.27450980392155 L275 435.1372549019608 L276 431.7019607843137 L277 438 L278 437.42745098039217 L279 438 L280 438 L281 438 L282 438 L283 438 L284 438 L285 438 L286 438 L287 438 L288 438 L289 438 L290 438 L291 438 L292 438 L293 435.7098039215686 L294 436.2823529411765 L295 438 L296 438 L297 438 L298 438 L299 421.9686274509804 L300 435.7098039215686 L301 438 L302 438 L303 438 L304 438 L305 438 L306 438 L307 438 L308 438 L309 438 L310 438 L311 438 L312 438 L313 438 L314 436.85490196078433 L315 425.9764705882353 L316 433.9921568627451 L317 430.55686274509804 L318 431.1294117647059 L319 438 L320 438 L321 438 L322 430.55686274509804 L323 423.1137254901961 L324 438 L325 438 L326 438 L327 438 L328 438 L329 438 L330 438 L331 438 L332 438 L333 438 L334 435.1372549019608 L335 438 L336 438 L337 438 L338 431.7019607843137 L339 403.07450980392156 L340 388.18823529411765 L341 392.7686274509804 L342 399.6392156862745 L343 429.4117647058824 L344 438 L345 438 L346 438 L347 438 L348 438 L349 438 L350 438 L351 438 L352 438 L353 438 L354 438 L355 438 L356 438 L357 438 L358 438 L359 438 L360 438 L361 427.6941176470588 L362 429.4117647058824 L363 403.6470588235294 L364 397.921568627451 L365 407.6549019607843 L366 425.4039215686274 L367 438 L368 438 L369 427.6941176470588 L370 420.25098039215686 L371 409.37254901960785 L372 433.41960784313727 L373 438 L374 438 L375 438 L376 438 L377 438 L378 438 L379 438 L380 438 L381 438 L382 438 L383 438 L384 438 L385 438 L386 438 L387 438 L388 438 L389 438 L390 438 L391 438 L392 438 L393 438 L394 438 L395 438 L396 438 L397 430.55686274509804 L398 409.9450980392157 L399 393.9137254901961 L400 409.37254901960785 L401 433.9921568627451 L402 431.1294117647059 L403 438 L404 435.1372549019608 L405 434.56470588235294 L406 415.67058823529413 L407 429.9843137254902 L408 436.85490196078433 L409 438 L410 438 L411 438 L412 438 L413 438 L414 438 L415 438 L416 438 L417 438 L418 438 L419 413.9529411764706 L420 429.4117647058824 L421 435.7098039215686 L422 421.9686274509804 L423 409.37254901960785 L424 404.2196078431373 L425 430.55686274509804 L426 434.56470588235294 L427 427.6941176470588 L428 438 L429 438 L430 438 L431 438 L432 438 L433 438 L434 438 L435 434.56470588235294 L436 434.56470588235294 L437 438 L438 415.0980392156863 L439 423.1137254901961 L440 434.56470588235294 L441 438 L442 420.8235294117647 L443 427.121568627451 L444 438 L445 431.7019607843137 L446 421.9686274509804 L447 435.7098039215686 L448 438 L449 438 L450 438 L451 428.26666666666665 L452 423.1137254901961 L453 416.8156862745098 L454 400.78431372549016 L455 395.05882352941177 L456 395.6313725490196 L457 400.21176470588233 L458 404.7921568627451 L459 415.67058823529413 L460 426.54901960784315 L461 436.2823529411765 L462 409.9450980392157 L463 393.9137254901961 L464 391.0509803921569 L465 412.8078431372549 L466 407.08235294117645 L467 390.47843137254904 L468 381.89019607843136 L469 371.01176470588234 L470 357.2705882352941 L471 377.30980392156863 L472 396.77647058823527 L473 416.8156862745098 L474 433.9921568627451 L475 438 L476 438 L477 438 L478 438 L479 438 L480 438 L481 438 L482 438 L483 438 L484 438 L485 438 L486 438 L487 438 L488 438 L489 438 L490 438 L491 438 L492 438 L493 438 L494 438 L495 438 L496 438 L497 438 L498 438 L499 438 L500 438" stroke = "blue"  stroke-width = "4" fill = "none" />
<path d = "M0 438 L1 438 L2 438 L3 438 L4 438 L5 438 L6 438 L7 438 L8 438 L9 438 L10 438 L11 438 L12 438 L13 438 L14 438 L15 438 L16 438 L17 438 L18 438 L19 438 L20 438 L21 438 L22 438 L23 438 L24 438 L25 438 L26 438 L27 438 L28 438 L29 438 L30 438 L31 438 L32 438 L33 438 L34 438 L35 438 L36 438 L37 438 L38 438 L39 438 L40 438 L41 438 L42 438 L43 438 L44 438 L45 438 L46 438 L47 438 L48 438 L49 438 L50 438 L51 438 L52 438 L53 438 L54 438 L55 438 L56 438 L57 438 L58 438 L59 438 L60 438 L61 438 L62 438 L63 438 L64 438 L65 438 L66 438 L67 438 L68 438 L69 438 L70 438 L71 438 L72 438 L73 438 L74 438 L75 438 L76 438 L77 438 L78 438 L79 438 L80 438 L81 438 L82 438 L83 438 L84 438 L85 438 L86 438 L87 438 L88 438 L89 438 L90 438 L91 438 L92 438 L93 438 L94 438 L95 438 L96 438 L97 438 L98 438 L99 438 L100 438 L101 438 L102 438 L103 438 L104 438 L105 438 L106 438 L107 438 L108 438 L109 436.2823529411765 L110 424.25882352941176 L111 405.36470588235295 L112 412.2352941176471 L113 419.1058823529412 L114 413.9529411764706 L115 412.2352941176471 L116 417.38823529411764 L117 422.54117647058825 L118 432.84705882352944 L119 438 L120 438 L121 438 L122 438 L123 438 L124 438 L125 427.6941176470588 L126 424.25882352941176 L127 434.56470588235294 L128 432.84705882352944 L129 438 L130 438 L131 438 L132 438 L133 438 L134 438 L135 438 L136 438 L137 438 L138 438 L139 438 L140 438 L141 438 L142 438 L143 438 L144 438 L145 438 L146 438 L147 438 L148 438 L149 438 L150 438 L151 438 L152 438 L153 438 L154 438 L155 438 L156 438 L157 438 L158 438 L159 438 L160 438 L161 438 L162 438 L163 438 L164 438 L165 438 L166 438 L167 438 L168 438 L169 438 L170 438 L171 438 L172 438 L173 432.84705882352944 L174 438 L175 438 L176 438 L177 438 L178 438 L179 438 L180 438 L181 438 L182 438 L183 438 L184 438 L185 438 L186 438 L187 438 L188 438 L189 438 L190 438 L191 438 L192 438 L193 438 L194 438 L195 438 L196 438 L197 438 L198 438 L199 438 L200 438 L201 438 L202 438 L203 438 L204 438 L205 438 L206 438 L207 438 L208 438 L209 438 L210 438 L211 438 L212 438 L213 438 L214 438 L215 438 L216 438 L217 438 L218 438 L219 438 L220 438 L221 425.4039215686274 L222 391.6235294117647 L223 373.87450980392157 L224 348.10980392156864 L225 354.98039215686276 L226 368.1490196078431 L227 369.8666666666667 L228 362.4235294117647 L229 379.6 L230 401.9294117647059 L231 413.38039215686274 L232 419.678431372549 L233 409.9450980392157 L234 385.3254901960784 L235 375.59215686274507 L236 372.7294117647059 L237 380.7450980392157 L238 400.78431372549016 L239 405.9372549019608 L240 420.25098039215686 L241 437.42745098039217 L242 438 L243 438 L244 425.9764705882353 L245 436.2823529411765 L246 436.85490196078433 L247 435.7098039215686 L248 438 L249 438 L250 438 L251 438 L252 438 L253 438 L254 438 L255 438 L256 438 L257 438 L258 438 L259 438 L260 438 L261 438 L262 438 L263 438 L264 438 L265 438 L266 438 L267 438 L268 438 L269 438 L270 438 L271 438 L272 423.1137254901961 L273 401.35686274509806 L274 395.6313725490196 L275 404.2196078431373 L276 426.54901960784315 L277 438 L278 438 L279 438 L280 438 L281 438 L282 438 L283 438 L284 438 L285 438 L286 438 L287 438 L288 438 L289 438 L290 438 L291 438 L292 438 L293 438 L294 438 L295 438 L296 438 L297 438 L298 438 L299 438 L300 438 L301 438 L302 438 L303 438 L304 438 L305 438 L306 438 L307 438 L308 438 L309 438 L310 438 L311 438 L312 438 L313 438 L314 438 L315 438 L316 438 L317 438 L318 438 L319 438 L320 438 L321 438 L322 438 L323 438 L324 438 L325 438 L326 438 L327 438 L328 438 L329 438 L330 438 L331 438 L332 438 L333 438 L334 438 L335 438 L336 438 L337 438 L338 438 L339 438 L340 438 L341 438 L342 438 L343 438 L344 438 L345 438 L346 438 L347 438 L348 438 L349 438 L350 438 L351 438 L352 438 L353 438 L354 438 L355 438 L356 438 L357 438 L358 438 L359 438 L360 438 L361 438 L362 438 L363 438 L364 438 L365 438 L366 438 L367 438 L368 438 L369 438 L370 438 L371 438 L372 438 L373 438 L374 438 L375 438 L376 438 L377 438 L378 438 L379 438 L380 438 L381 438 L382 438 L383 438 L384 438 L385 432.27450980392155 L386 435.7098039215686 L387 438 L388 438 L389 438 L390 438 L391 438 L392 438 L393 438 L394 438 L395 438 L396 438 L397 428.8392156862745 L398 404.7921568627451 L399 397.34901960784316 L400 405.9372549019608 L401 423.6862745098039 L402 438 L403 438 L404 438 L405 438 L406 438 L407 438 L408 438 L409 438 L410 438 L411 438 L412 438 L413 438 L414 438 L415 438 L416 438 L417 438 L418 438 L419 438 L420 438 L421 438 L422 438 L423 438 L424 438 L425 438 L426 438 L427 438 L428 438 L429 438 L430 438 L431 438 L432 438 L433 438 L434 438 L435 438 L436 438 L437 438 L438 438 L439 438 L440 438 L441 438 L442 438 L443 438 L444 438 L445 438 L446 438 L447 438 L448 438 L449 438 L450 438 L451 438 L452 438 L453 421.39607843137253 L454 401.35686274509806 L455 418.5333333333333 L456 418.5333333333333 L457 430.55686274509804 L458 438 L459 438 L460 423.1137254901961 L461 435.1372549019608 L462 436.2823529411765 L463 435.7098039215686 L464 419.678431372549 L465 429.9843137254902 L466 431.7019607843137 L467 420.8235294117647 L468 406.5098039215686 L469 416.24313725490197 L470 419.678431372549 L471 433.9921568627451 L472 438 L473 438 L474 438 L475 438 L476 438 L477 438 L478 438 L479 434.56470588235294 L480 412.8078431372549 L481 407.6549019607843 L482 417.38823529411764 L483 435.1372549019608 L484 438 L485 438 L486 438 L487 438 L488 438 L489 438 L490 438 L491 438 L492 438 L493 438 L494 438 L495 438 L496 438 L497 438 L498 438 L499 438 L500 438" stroke = "purple"  stroke-width = "4" fill = "none" />
</svg>