<svg width="1440" height="438" viewbox = "0 0 1440 438"  xmlns="http://www.w3.org/2000/svg">
<!--<json>{"starttime":1741657132,"startdate":"Mon Mar 10 2025 19:38:52 GMT-0600 (Mountain Daylight Time)","f1":1000,"f2":2000,"f3":3000,"f4":4000,"notes":"this is some notes","p1":[156,157,157,157,157,157,157,157,156,157,157,156,156,156,156,157,156,156,157,156,156,157,156,156,156,156,156,156,156,156,157,157,156,156,156,156,156,156,156,156,156,156,156,156,156,156,156,156,156,156,156,156,156,156,156,156,156,156,156,156,156,156,156,156,156,156,156,156,156,156,156,156,156,156,156,157,156,156,157,156,157,157,157,157,157,157,157,157,157,157,157,157,157,157,157,157,157,157,157,157,157],"p2":[0,0,0,0,12,34,33,34,31,26,20,17,10,4,0,0,0,0,0,0,0,0,0,0,0,0,16,38,42,36,31,25,24,20,15,9,6,19,19,13,6,0,0,1,0,0,0,0,33,27,27,25,21,19,15,14,9,12,27,25,19,12,6,0,9,4,0,0,0,41,53,63,58,52,47,41,35,28,22,16,35,30,24,19,12,5,6,7,3,0,0,18,53,51,49,44,38,36,31,26,22],"p3":[0,0,0,0,0,0,0,0,0,0,0,0,0,0,0,0,0,0,0,0,0,0,0,0,0,0,0,0,0,0,0,0,0,0,0,0,0,0,0,0,0,0,0,0,0,0,0,0,0,0,0,0,0,0,0,0,0,0,0,0,0,0,0,0,0,0,0,0,0,0,0,0,0,0,0,0,0,0,0,0,0,0,0,0,0,0,0,0,0,0,0,0,0,0,0,0,0,0,0,0,0],"p4":[0,0,0,0,26,32,31,25,22,16,13,8,1,0,0,0,0,0,0,0,0,0,0,0,0,0,0,0,0,0,0,0,3,9,4,3,3,11,13,14,16,10,9,18,13,11,9,8,27,28,28,23,17,14,19,15,15,9,10,9,4,1,0,0,0,6,2,0,9,17,20,19,21,17,11,9,5,0,0,0,0,0,0,0,0,0,0,0,0,0,0,13,17,16,10,4,3,14,19,13,14],"timeseconds":[0,0.09999990463256836,0.09999990463256836,0.09999990463256836,0.20000004768371582,0.20000004768371582,0.20000004768371582,0.2999999523162842,0.2999999523162842,0.2999999523162842,0.40000009536743164,0.40000009536743164,0.40000009536743164,0.5,0.5,0.5,0.5999999046325684,0.5999999046325684,0.5999999046325684,0.7000000476837158,0.7000000476837158,0.7000000476837158,0.7999999523162842,0.7999999523162842,0.7999999523162842,0.9000000953674316,0.9000000953674316,0.9000000953674316,1,1,1,1.0999999046325684,1.0999999046325684,1.0999999046325684,1.2000000476837158,1.2000000476837158,1.2000000476837158,1.2999999523162842,1.2999999523162842,1.2999999523162842,1.4000000953674316,1.4000000953674316,1.4000000953674316,1.5,1.5,1.5,1.5999999046325684,1.5999999046325684,1.5999999046325684,1.7000000476837158,1.7000000476837158,1.7000000476837158,1.7999999523162842,1.7999999523162842,1.7999999523162842,1.9000000953674316,1.9000000953674316,1.9000000953674316,2,2,2,2.0999999046325684,2.0999999046325684,2.0999999046325684,2.200000047683716,2.200000047683716,2.200000047683716,2.299999952316284,2.299999952316284,2.299999952316284,2.4000000953674316,2.4000000953674316,2.4000000953674316,2.5,2.5,2.5,2.5999999046325684,2.5999999046325684,2.5999999046325684,2.700000047683716,2.700000047683716,2.700000047683716,2.799999952316284,2.799999952316284,2.799999952316284,2.9000000953674316,2.9000000953674316,2.9000000953674316,3,3,3,3.0999999046325684,3.0999999046325684,3.0999999046325684,3.200000047683716,3.200000047683716,3.200000047683716,3.299999952316284,3.299999952316284,3.299999952316284,3.4000000953674316]}</json>-->
<path d = "M0 169.85294117647055 L1 168.13725490196077 L2 168.13725490196077 L3 168.13725490196077 L4 168.13725490196077 L5 168.13725490196077 L6 168.13725490196077 L7 168.13725490196077 L8 169.85294117647055 L9 168.13725490196077 L10 168.13725490196077 L11 169.85294117647055 L12 169.85294117647055 L13 169.85294117647055 L14 169.85294117647055 L15 168.13725490196077 L16 169.85294117647055 L17 169.85294117647055 L18 168.13725490196077 L19 169.85294117647055 L20 169.85294117647055 L21 168.13725490196077 L22 169.85294117647055 L23 169.85294117647055 L24 169.85294117647055 L25 169.85294117647055 L26 169.85294117647055 L27 169.85294117647055 L28 169.85294117647055 L29 169.85294117647055 L30 168.13725490196077 L31 168.13725490196077 L32 169.85294117647055 L33 169.85294117647055 L34 169.85294117647055 L35 169.85294117647055 L36 169.85294117647055 L37 169.85294117647055 L38 169.85294117647055 L39 169.85294117647055 L40 169.85294117647055 L41 169.85294117647055 L42 169.85294117647055 L43 169.85294117647055 L44 169.85294117647055 L45 169.85294117647055 L46 169.85294117647055 L47 169.85294117647055 L48 169.85294117647055 L49 169.85294117647055 L50 169.85294117647055 L51 169.85294117647055 L52 169.85294117647055 L53 169.85294117647055 L54 169.85294117647055 L55 169.85294117647055 L56 169.85294117647055 L57 169.85294117647055 L58 169.85294117647055 L59 169.85294117647055 L60 169.85294117647055 L61 169.85294117647055 L62 169.85294117647055 L63 169.85294117647055 L64 169.85294117647055 L65 169.85294117647055 L66 169.85294117647055 L67 169.85294117647055 L68 169.85294117647055 L69 169.85294117647055 L70 169.85294117647055 L71 169.85294117647055 L72 169.85294117647055 L73 169.85294117647055 L74 169.85294117647055 L75 168.13725490196077 L76 169.85294117647055 L77 169.85294117647055 L78 168.13725490196077 L79 169.85294117647055 L80 168.13725490196077 L81 168.13725490196077 L82 168.13725490196077 L83 168.13725490196077 L84 168.13725490196077 L85 168.13725490196077 L86 168.13725490196077 L87 168.13725490196077 L88 168.13725490196077 L89 168.13725490196077 L90 168.13725490196077 L91 168.13725490196077 L92 168.13725490196077 L93 168.13725490196077 L94 168.13725490196077 L95 168.13725490196077 L96 168.13725490196077 L97 168.13725490196077 L98 168.13725490196077 L99 168.13725490196077 L100 168.13725490196077" stroke = "red"  stroke-width = "4" fill = "none" />
<path d = "M0 437.5 L1 437.5 L2 437.5 L3 437.5 L4 416.9117647058824 L5 379.1666666666667 L6 380.88235294117646 L7 379.1666666666667 L8 384.3137254901961 L9 392.8921568627451 L10 403.1862745098039 L11 408.3333333333333 L12 420.343137254902 L13 430.6372549019608 L14 437.5 L15 437.5 L16 437.5 L17 437.5 L18 437.5 L19 437.5 L20 437.5 L21 437.5 L22 437.5 L23 437.5 L24 437.5 L25 437.5 L26 410.04901960784315 L27 372.30392156862746 L28 365.44117647058823 L29 375.7352941176471 L30 384.3137254901961 L31 394.6078431372549 L32 396.3235294117647 L33 403.1862745098039 L34 411.7647058823529 L35 422.05882352941177 L36 427.20588235294116 L37 404.9019607843137 L38 404.9019607843137 L39 415.19607843137254 L40 427.20588235294116 L41 437.5 L42 437.5 L43 435.7843137254902 L44 437.5 L45 437.5 L46 437.5 L47 437.5 L48 380.88235294117646 L49 391.1764705882353 L50 391.1764705882353 L51 394.6078431372549 L52 401.47058823529414 L53 404.9019607843137 L54 411.7647058823529 L55 413.48039215686276 L56 422.05882352941177 L57 416.9117647058824 L58 391.1764705882353 L59 394.6078431372549 L60 404.9019607843137 L61 416.9117647058824 L62 427.20588235294116 L63 437.5 L64 422.05882352941177 L65 430.6372549019608 L66 437.5 L67 437.5 L68 437.5 L69 367.156862745098 L70 346.5686274509804 L71 329.4117647058823 L72 337.9901960784314 L73 348.28431372549016 L74 356.8627450980392 L75 367.156862745098 L76 377.45098039215685 L77 389.46078431372547 L78 399.7549019607843 L79 410.04901960784315 L80 377.45098039215685 L81 386.02941176470586 L82 396.3235294117647 L83 404.9019607843137 L84 416.9117647058824 L85 428.921568627451 L86 427.20588235294116 L87 425.4901960784314 L88 432.3529411764706 L89 437.5 L90 437.5 L91 406.61764705882354 L92 346.5686274509804 L93 350 L94 353.4313725490196 L95 362.0098039215686 L96 372.30392156862746 L97 375.7352941176471 L98 384.3137254901961 L99 392.8921568627451 L100 399.7549019607843" stroke = "green"  stroke-width = "4" fill = "none" />
<path d = "M0 437.5 L1 437.5 L2 437.5 L3 437.5 L4 437.5 L5 437.5 L6 437.5 L7 437.5 L8 437.5 L9 437.5 L10 437.5 L11 437.5 L12 437.5 L13 437.5 L14 437.5 L15 437.5 L16 437.5 L17 437.5 L18 437.5 L19 437.5 L20 437.5 L21 437.5 L22 437.5 L23 437.5 L24 437.5 L25 437.5 L26 437.5 L27 437.5 L28 437.5 L29 437.5 L30 437.5 L31 437.5 L32 437.5 L33 437.5 L34 437.5 L35 437.5 L36 437.5 L37 437.5 L38 437.5 L39 437.5 L40 437.5 L41 437.5 L42 437.5 L43 437.5 L44 437.5 L45 437.5 L46 437.5 L47 437.5 L48 437.5 L49 437.5 L50 437.5 L51 437.5 L52 437.5 L53 437.5 L54 437.5 L55 437.5 L56 437.5 L57 437.5 L58 437.5 L59 437.5 L60 437.5 L61 437.5 L62 437.5 L63 437.5 L64 437.5 L65 437.5 L66 437.5 L67 437.5 L68 437.5 L69 437.5 L70 437.5 L71 437.5 L72 437.5 L73 437.5 L74 437.5 L75 437.5 L76 437.5 L77 437.5 L78 437.5 L79 437.5 L80 437.5 L81 437.5 L82 437.5 L83 437.5 L84 437.5 L85 437.5 L86 437.5 L87 437.5 L88 437.5 L89 437.5 L90 437.5 L91 437.5 L92 437.5 L93 437.5 L94 437.5 L95 437.5 L96 437.5 L97 437.5 L98 437.5 L99 437.5 L100 437.5" stroke = "blue"  stroke-width = "4" fill = "none" />
<path d = "M0 437.5 L1 437.5 L2 437.5 L3 437.5 L4 392.8921568627451 L5 382.5980392156863 L6 384.3137254901961 L7 394.6078431372549 L8 399.7549019607843 L9 410.04901960784315 L10 415.19607843137254 L11 423.77450980392155 L12 435.7843137254902 L13 437.5 L14 437.5 L15 437.5 L16 437.5 L17 437.5 L18 437.5 L19 437.5 L20 437.5 L21 437.5 L22 437.5 L23 437.5 L24 437.5 L25 437.5 L26 437.5 L27 437.5 L28 437.5 L29 437.5 L30 437.5 L31 437.5 L32 432.3529411764706 L33 422.05882352941177 L34 430.6372549019608 L35 432.3529411764706 L36 432.3529411764706 L37 418.62745098039215 L38 415.19607843137254 L39 413.48039215686276 L40 410.04901960784315 L41 420.343137254902 L42 422.05882352941177 L43 406.61764705882354 L44 415.19607843137254 L45 418.62745098039215 L46 422.05882352941177 L47 423.77450980392155 L48 391.1764705882353 L49 389.46078431372547 L50 389.46078431372547 L51 398.03921568627453 L52 408.3333333333333 L53 413.48039215686276 L54 404.9019607843137 L55 411.7647058823529 L56 411.7647058823529 L57 422.05882352941177 L58 420.343137254902 L59 422.05882352941177 L60 430.6372549019608 L61 435.7843137254902 L62 437.5 L63 437.5 L64 437.5 L65 427.20588235294116 L66 434.0686274509804 L67 437.5 L68 422.05882352941177 L69 408.3333333333333 L70 403.1862745098039 L71 404.9019607843137 L72 401.47058823529414 L73 408.3333333333333 L74 418.62745098039215 L75 422.05882352941177 L76 428.921568627451 L77 437.5 L78 437.5 L79 437.5 L80 437.5 L81 437.5 L82 437.5 L83 437.5 L84 437.5 L85 437.5 L86 437.5 L87 437.5 L88 437.5 L89 437.5 L90 437.5 L91 415.19607843137254 L92 408.3333333333333 L93 410.04901960784315 L94 420.343137254902 L95 430.6372549019608 L96 432.3529411764706 L97 413.48039215686276 L98 404.9019607843137 L99 415.19607843137254 L100 413.48039215686276" stroke = "purple"  stroke-width = "4" fill = "none" />
</svg>