<svg width="200" height="438" viewbox = "0 0 200 438"  xmlns="http://www.w3.org/2000/svg">
<!--<json>{"starttime":1741738329.291,"startdate":"Tue Mar 11 2025 18:12:09 GMT-0600 (Mountain Daylight Time)","f1":1000,"f2":2000,"f3":3000,"f4":4000,"notes":"this is just a test run of some random noise, this is not real data but what is real data? what makes data more real?\nwhat even is real?","p1":[163,164,163,163,163,164,164,164,164,164,164,163,162,162,162,162,161,161,163,163,163,163,163,163,163,164,164,164,165,164,165,165,165,165,165,165,165,165,165,164,165,165,165,165,165,165,165,165,164,164,164,164,164,164,164,163,164,164,163,164,164,165,167,168,169,170,171,172,172,172,173,173,173,173,173,173,173,173,173,173,173,173,173,173,173,174,174,174,174,174,173,174,174,174,174,174,174,174,173,173,174,174,174,173,174,174,174,175,174,174,175,174,174,174,174,174,173,174,174,175,174,174,174,175,175,175,175,174,174,173,173,173,173,174,176,177,178,179,180,180,181,182,182,183,183,183,183,183,183,182,182,183,182,182,182,182,181,182,181,181,182,182,182,182,182,182,182,182,182,182,182,182,182,182,181,180,178,177,176,176,174,172,173,173,174,174,173,173,174,173,172,174,174,173,174,174,175,175,175,174,173],"p2":[0,0,0,14,19,21,15,10,16,11,12,9,4,0,0,0,0,0,0,0,0,0,0,0,0,0,7,18,16,13,8,3,1,0,0,0,0,0,0,0,0,0,0,0,0,0,0,0,0,0,0,0,0,0,0,0,0,0,0,0,0,0,0,2,6,5,0,0,0,0,0,0,0,17,30,47,41,44,39,34,32,28,23,20,16,13,10,9,7,22,21,32,28,22,19,13,9,24,31,30,27,20,15,10,5,9,13,16,16,10,8,3,0,9,8,7,3,1,0,19,29,32,29,24,22,29,28,24,27,28,29,38,37,36,31,24,18,19,16,12,5,6,4,11,17,23,19,15,15,11,6,4,0,0,0,0,22,20,20,18,16,12,26,49,79,79,75,69,62,55,50,46,41,40,35,30,24,23,21,18,26,42,53,49,62,64,67,65,65,64,60,60,59,73,78,80,77,73,67,61,56],"p3":[0,1,0,0,0,0,0,0,0,2,0,0,0,0,0,18,26,23,22,20,21,24,19,14,16,16,19,28,27,34,30,27,34,29,28,30,26,21,29,36,29,28,23,20,16,14,11,10,8,8,14,28,32,32,28,28,30,27,24,26,23,16,15,15,14,8,11,24,20,15,21,21,25,28,30,32,35,38,36,32,27,21,15,12,8,9,23,18,18,15,18,33,27,23,18,20,16,16,14,26,38,34,31,33,29,23,23,19,16,20,32,39,43,38,35,34,39,33,30,28,26,32,36,46,47,47,48,45,40,36,32,30,35,41,43,42,47,48,48,50,46,45,42,42,42,45,44,55,53,54,56,56,54,50,53,65,70,70,65,60,54,50,52,47,52,50,45,50,51,51,52,49,42,39,37,31,26,29,26,19,23,22,29,34,36,32,32,32,28,22,23,26,29,25,40,36,39,50,48,43,38],"p4":[0,0,0,0,0,0,0,0,0,0,0,0,0,0,0,0,0,0,0,0,0,0,0,0,0,0,0,0,0,0,0,0,0,0,0,0,0,0,0,0,0,0,0,0,0,0,0,0,0,0,0,0,0,0,0,0,0,0,0,0,0,0,0,0,0,7,11,6,5,0,0,0,0,0,16,17,18,14,12,5,0,0,0,0,0,0,0,1,8,23,20,18,13,10,9,2,0,0,0,0,0,0,0,0,0,0,0,0,0,0,0,0,0,0,0,41,53,47,42,36,30,24,18,11,4,1,1,0,0,0,0,0,0,0,0,0,0,0,0,0,0,0,0,0,0,0,0,0,0,0,0,0,0,0,0,0,0,0,0,3,1,0,0,0,0,0,0,0,0,6,5,10,6,1,0,0,0,0,0,0,0,0,0,0,0,0,0,0,0,0,0,0,0,0,0,3,0,0,12,6,0],"timeseconds":[0.03000020980834961,0.06300020217895508,0.0970001220703125,0.12900018692016602,0.16200017929077148,0.1960000991821289,0.23000001907348633,0.2630000114440918,0.29600000381469727,0.3300001621246338,0.36300015449523926,0.3950002193450928,0.4290001392364502,0.46200013160705566,0.4960000514984131,0.5300002098083496,0.562000036239624,0.5970001220703125,0.629000186920166,0.6620001792907715,0.6960000991821289,0.7300000190734863,0.7620000839233398,0.7960000038146973,0.8320000171661377,0.8630001544952393,0.8960001468658447,0.9300000667572021,0.9630000591278076,0.9960000514984131,1.0300002098083496,1.063000202178955,1.0960001945495605,1.130000114440918,1.1620001792907715,1.196000099182129,1.2290000915527344,1.2620000839233398,1.2960000038146973,1.3289999961853027,1.3640000820159912,1.3950002193450928,1.4300000667572021,1.4630000591278076,1.4970002174377441,1.5290000438690186,1.562000036239624,1.5950000286102295,1.630000114440918,1.6620001792907715,1.696000099182129,1.7300000190734863,1.7630000114440918,1.7960000038146973,1.8289999961853027,1.8630001544952393,1.8950002193450928,1.9300000667572021,1.9620001316070557,1.9970002174377441,2.0290000438690186,2.063000202178955,2.0970001220703125,2.129000186920166,2.1620001792907715,2.196000099182129,2.2290000915527344,2.26200008392334,2.2950000762939453,2.3289999961853027,2.3630001544952393,2.3960001468658447,2.42900013923645,2.4620001316070557,2.495000123977661,2.5300002098083496,2.563000202178955,2.5960001945495605,2.629000186920166,2.6620001792907715,2.696000099182129,2.7300000190734863,2.76200008392334,2.7960000038146973,2.830000162124634,2.8620002269744873,2.8960001468658447,2.930000066757202,2.9630000591278076,2.996000051498413,3.0300002098083496,3.062000036239624,3.0960001945495605,3.130000114440918,3.1630001068115234,3.196000099182129,3.2300000190734863,3.263000011444092,3.2960000038146973,3.330000162124634,3.3630001544952393,3.3970000743865967,3.430000066757202,3.4620001316070557,3.497000217437744,3.5300002098083496,3.563000202178955,3.5950000286102295,3.630000114440918,3.6630001068115234,3.696000099182129,3.7310001850128174,3.76200008392334,3.7950000762939453,3.8289999961853027,3.8630001544952393,3.8970000743865967,3.930000066757202,3.9630000591278076,3.996000051498413,4.03000020980835,4.063000202178955,4.0960001945495605,4.130000114440918,4.163000106811523,4.196000099182129,4.230000019073486,4.263000011444092,4.296000003814697,4.330000162124634,4.362000226974487,4.396000146865845,4.42900013923645,4.462000131607056,4.496000051498413,4.5290000438690186,4.563000202178955,4.5960001945495605,4.630000114440918,4.6620001792907715,4.696000099182129,4.730000019073486,4.76200008392334,4.796000003814697,4.830000162124634,4.862000226974487,4.896000146865845,4.92900013923645,4.962000131607056,4.996000051498413,5.0290000438690186,5.062000036239624,5.0950000286102295,5.129000186920166,5.1620001792907715,5.196000099182129,5.230000019073486,5.26200008392334,5.296000003814697,5.328999996185303,5.363000154495239,5.397000074386597,5.42900013923645,5.462000131607056,5.496000051498413,5.5290000438690186,5.563000202178955,5.5950000286102295,5.630000114440918,5.663000106811523,5.696000099182129,5.729000091552734,5.76200008392334,5.795000076293945,5.830000162124634,5.862000226974487,5.896000146865845,5.930000066757202,5.962000131607056,5.996000051498413,6.03000020980835,6.062000036239624,6.0950000286102295,6.129000186920166,6.163000106811523,6.196000099182129,6.229000091552734,6.26200008392334,6.296000003814697,6.330000162124634,6.362000226974487,6.396000146865845,6.42900013923645,6.462000131607056,6.497000217437744,6.5290000438690186,6.562000036239624,6.5950000286102295,6.629000186920166,6.6620001792907715,6.696000099182129]}</json>-->
<path d = "M0 158.02352941176474 L1 156.30588235294118 L2 158.02352941176474 L3 158.02352941176474 L4 158.02352941176474 L5 156.30588235294118 L6 156.30588235294118 L7 156.30588235294118 L8 156.30588235294118 L9 156.30588235294118 L10 156.30588235294118 L11 158.02352941176474 L12 159.74117647058824 L13 159.74117647058824 L14 159.74117647058824 L15 159.74117647058824 L16 161.4588235294118 L17 161.4588235294118 L18 158.02352941176474 L19 158.02352941176474 L20 158.02352941176474 L21 158.02352941176474 L22 158.02352941176474 L23 158.02352941176474 L24 158.02352941176474 L25 156.30588235294118 L26 156.30588235294118 L27 156.30588235294118 L28 154.58823529411762 L29 156.30588235294118 L30 154.58823529411762 L31 154.58823529411762 L32 154.58823529411762 L33 154.58823529411762 L34 154.58823529411762 L35 154.58823529411762 L36 154.58823529411762 L37 154.58823529411762 L38 154.58823529411762 L39 156.30588235294118 L40 154.58823529411762 L41 154.58823529411762 L42 154.58823529411762 L43 154.58823529411762 L44 154.58823529411762 L45 154.58823529411762 L46 154.58823529411762 L47 154.58823529411762 L48 156.30588235294118 L49 156.30588235294118 L50 156.30588235294118 L51 156.30588235294118 L52 156.30588235294118 L53 156.30588235294118 L54 156.30588235294118 L55 158.02352941176474 L56 156.30588235294118 L57 156.30588235294118 L58 158.02352941176474 L59 156.30588235294118 L60 156.30588235294118 L61 154.58823529411762 L62 151.15294117647056 L63 149.43529411764706 L64 147.71764705882356 L65 146 L66 144.2823529411765 L67 142.56470588235294 L68 142.56470588235294 L69 142.56470588235294 L70 140.84705882352938 L71 140.84705882352938 L72 140.84705882352938 L73 140.84705882352938 L74 140.84705882352938 L75 140.84705882352938 L76 140.84705882352938 L77 140.84705882352938 L78 140.84705882352938 L79 140.84705882352938 L80 140.84705882352938 L81 140.84705882352938 L82 140.84705882352938 L83 140.84705882352938 L84 140.84705882352938 L85 139.12941176470588 L86 139.12941176470588 L87 139.12941176470588 L88 139.12941176470588 L89 139.12941176470588 L90 140.84705882352938 L91 139.12941176470588 L92 139.12941176470588 L93 139.12941176470588 L94 139.12941176470588 L95 139.12941176470588 L96 139.12941176470588 L97 139.12941176470588 L98 140.84705882352938 L99 140.84705882352938 L100 139.12941176470588 L101 139.12941176470588 L102 139.12941176470588 L103 140.84705882352938 L104 139.12941176470588 L105 139.12941176470588 L106 139.12941176470588 L107 137.41176470588238 L108 139.12941176470588 L109 139.12941176470588 L110 137.41176470588238 L111 139.12941176470588 L112 139.12941176470588 L113 139.12941176470588 L114 139.12941176470588 L115 139.12941176470588 L116 140.84705882352938 L117 139.12941176470588 L118 139.12941176470588 L119 137.41176470588238 L120 139.12941176470588 L121 139.12941176470588 L122 139.12941176470588 L123 137.41176470588238 L124 137.41176470588238 L125 137.41176470588238 L126 137.41176470588238 L127 139.12941176470588 L128 139.12941176470588 L129 140.84705882352938 L130 140.84705882352938 L131 140.84705882352938 L132 140.84705882352938 L133 139.12941176470588 L134 135.69411764705882 L135 133.97647058823532 L136 132.25882352941176 L137 130.54117647058825 L138 128.8235294117647 L139 128.8235294117647 L140 127.10588235294114 L141 125.38823529411764 L142 125.38823529411764 L143 123.67058823529413 L144 123.67058823529413 L145 123.67058823529413 L146 123.67058823529413 L147 123.67058823529413 L148 123.67058823529413 L149 125.38823529411764 L150 125.38823529411764 L151 123.67058823529413 L152 125.38823529411764 L153 125.38823529411764 L154 125.38823529411764 L155 125.38823529411764 L156 127.10588235294114 L157 125.38823529411764 L158 127.10588235294114 L159 127.10588235294114 L160 125.38823529411764 L161 125.38823529411764 L162 125.38823529411764 L163 125.38823529411764 L164 125.38823529411764 L165 125.38823529411764 L166 125.38823529411764 L167 125.38823529411764 L168 125.38823529411764 L169 125.38823529411764 L170 125.38823529411764 L171 125.38823529411764 L172 125.38823529411764 L173 125.38823529411764 L174 127.10588235294114 L175 128.8235294117647 L176 132.25882352941176 L177 133.97647058823532 L178 135.69411764705882 L179 135.69411764705882 L180 139.12941176470588 L181 142.56470588235294 L182 140.84705882352938 L183 140.84705882352938 L184 139.12941176470588 L185 139.12941176470588 L186 140.84705882352938 L187 140.84705882352938 L188 139.12941176470588 L189 140.84705882352938 L190 142.56470588235294 L191 139.12941176470588 L192 139.12941176470588 L193 140.84705882352938 L194 139.12941176470588 L195 139.12941176470588 L196 137.41176470588238 L197 137.41176470588238 L198 137.41176470588238 L199 139.12941176470588 L200 140.84705882352938" stroke = "red"  stroke-width = "4" fill = "none" />
<path d = "M0 438 L1 438 L2 438 L3 413.9529411764706 L4 405.36470588235295 L5 401.9294117647059 L6 412.2352941176471 L7 420.8235294117647 L8 410.5176470588235 L9 419.1058823529412 L10 417.38823529411764 L11 422.54117647058825 L12 431.1294117647059 L13 438 L14 438 L15 438 L16 438 L17 438 L18 438 L19 438 L20 438 L21 438 L22 438 L23 438 L24 438 L25 438 L26 425.9764705882353 L27 407.08235294117645 L28 410.5176470588235 L29 415.67058823529413 L30 424.25882352941176 L31 432.84705882352944 L32 436.2823529411765 L33 438 L34 438 L35 438 L36 438 L37 438 L38 438 L39 438 L40 438 L41 438 L42 438 L43 438 L44 438 L45 438 L46 438 L47 438 L48 438 L49 438 L50 438 L51 438 L52 438 L53 438 L54 438 L55 438 L56 438 L57 438 L58 438 L59 438 L60 438 L61 438 L62 438 L63 434.56470588235294 L64 427.6941176470588 L65 429.4117647058824 L66 438 L67 438 L68 438 L69 438 L70 438 L71 438 L72 438 L73 408.8 L74 386.47058823529414 L75 357.2705882352941 L76 367.5764705882353 L77 362.4235294117647 L78 371.01176470588234 L79 379.6 L80 383.0352941176471 L81 389.90588235294115 L82 398.49411764705883 L83 403.6470588235294 L84 410.5176470588235 L85 415.67058823529413 L86 420.8235294117647 L87 422.54117647058825 L88 425.9764705882353 L89 400.21176470588233 L90 401.9294117647059 L91 383.0352941176471 L92 389.90588235294115 L93 400.21176470588233 L94 405.36470588235295 L95 415.67058823529413 L96 422.54117647058825 L97 396.77647058823527 L98 384.7529411764706 L99 386.47058823529414 L100 391.6235294117647 L101 403.6470588235294 L102 412.2352941176471 L103 420.8235294117647 L104 429.4117647058824 L105 422.54117647058825 L106 415.67058823529413 L107 410.5176470588235 L108 410.5176470588235 L109 420.8235294117647 L110 424.25882352941176 L111 432.84705882352944 L112 438 L113 422.54117647058825 L114 424.25882352941176 L115 425.9764705882353 L116 432.84705882352944 L117 436.2823529411765 L118 438 L119 405.36470588235295 L120 388.18823529411765 L121 383.0352941176471 L122 388.18823529411765 L123 396.77647058823527 L124 400.21176470588233 L125 388.18823529411765 L126 389.90588235294115 L127 396.77647058823527 L128 391.6235294117647 L129 389.90588235294115 L130 388.18823529411765 L131 372.7294117647059 L132 374.4470588235294 L133 376.16470588235296 L134 384.7529411764706 L135 396.77647058823527 L136 407.08235294117645 L137 405.36470588235295 L138 410.5176470588235 L139 417.38823529411764 L140 429.4117647058824 L141 427.6941176470588 L142 431.1294117647059 L143 419.1058823529412 L144 408.8 L145 398.49411764705883 L146 405.36470588235295 L147 412.2352941176471 L148 412.2352941176471 L149 419.1058823529412 L150 427.6941176470588 L151 431.1294117647059 L152 438 L153 438 L154 438 L155 438 L156 400.21176470588233 L157 403.6470588235294 L158 403.6470588235294 L159 407.08235294117645 L160 410.5176470588235 L161 417.38823529411764 L162 393.34117647058827 L163 353.83529411764704 L164 302.3058823529412 L165 302.3058823529412 L166 309.17647058823525 L167 319.4823529411765 L168 331.50588235294117 L169 343.52941176470586 L170 352.11764705882354 L171 358.98823529411766 L172 367.5764705882353 L173 369.29411764705884 L174 377.88235294117646 L175 386.47058823529414 L176 396.77647058823527 L177 398.49411764705883 L178 401.9294117647059 L179 407.08235294117645 L180 393.34117647058827 L181 365.8588235294118 L182 346.9647058823529 L183 353.83529411764704 L184 331.50588235294117 L185 328.0705882352941 L186 322.9176470588235 L187 326.3529411764706 L188 326.3529411764706 L189 328.0705882352941 L190 334.94117647058823 L191 334.94117647058823 L192 336.65882352941173 L193 312.61176470588236 L194 304.0235294117647 L195 300.5882352941177 L196 305.74117647058824 L197 312.61176470588236 L198 322.9176470588235 L199 333.22352941176473 L200 341.81176470588235" stroke = "green"  stroke-width = "4" fill = "none" />
<path d = "M0 438 L1 436.2823529411765 L2 438 L3 438 L4 438 L5 438 L6 438 L7 438 L8 438 L9 434.56470588235294 L10 438 L11 438 L12 438 L13 438 L14 438 L15 407.08235294117645 L16 393.34117647058827 L17 398.49411764705883 L18 400.21176470588233 L19 403.6470588235294 L20 401.9294117647059 L21 396.77647058823527 L22 405.36470588235295 L23 413.9529411764706 L24 410.5176470588235 L25 410.5176470588235 L26 405.36470588235295 L27 389.90588235294115 L28 391.6235294117647 L29 379.6 L30 386.47058823529414 L31 391.6235294117647 L32 379.6 L33 388.18823529411765 L34 389.90588235294115 L35 386.47058823529414 L36 393.34117647058827 L37 401.9294117647059 L38 388.18823529411765 L39 376.16470588235296 L40 388.18823529411765 L41 389.90588235294115 L42 398.49411764705883 L43 403.6470588235294 L44 410.5176470588235 L45 413.9529411764706 L46 419.1058823529412 L47 420.8235294117647 L48 424.25882352941176 L49 424.25882352941176 L50 413.9529411764706 L51 389.90588235294115 L52 383.0352941176471 L53 383.0352941176471 L54 389.90588235294115 L55 389.90588235294115 L56 386.47058823529414 L57 391.6235294117647 L58 396.77647058823527 L59 393.34117647058827 L60 398.49411764705883 L61 410.5176470588235 L62 412.2352941176471 L63 412.2352941176471 L64 413.9529411764706 L65 424.25882352941176 L66 419.1058823529412 L67 396.77647058823527 L68 403.6470588235294 L69 412.2352941176471 L70 401.9294117647059 L71 401.9294117647059 L72 395.05882352941177 L73 389.90588235294115 L74 386.47058823529414 L75 383.0352941176471 L76 377.88235294117646 L77 372.7294117647059 L78 376.16470588235296 L79 383.0352941176471 L80 391.6235294117647 L81 401.9294117647059 L82 412.2352941176471 L83 417.38823529411764 L84 424.25882352941176 L85 422.54117647058825 L86 398.49411764705883 L87 407.08235294117645 L88 407.08235294117645 L89 412.2352941176471 L90 407.08235294117645 L91 381.3176470588235 L92 391.6235294117647 L93 398.49411764705883 L94 407.08235294117645 L95 403.6470588235294 L96 410.5176470588235 L97 410.5176470588235 L98 413.9529411764706 L99 393.34117647058827 L100 372.7294117647059 L101 379.6 L102 384.7529411764706 L103 381.3176470588235 L104 388.18823529411765 L105 398.49411764705883 L106 398.49411764705883 L107 405.36470588235295 L108 410.5176470588235 L109 403.6470588235294 L110 383.0352941176471 L111 371.01176470588234 L112 364.1411764705882 L113 372.7294117647059 L114 377.88235294117646 L115 379.6 L116 371.01176470588234 L117 381.3176470588235 L118 386.47058823529414 L119 389.90588235294115 L120 393.34117647058827 L121 383.0352941176471 L122 376.16470588235296 L123 358.98823529411766 L124 357.2705882352941 L125 357.2705882352941 L126 355.5529411764706 L127 360.70588235294116 L128 369.29411764705884 L129 376.16470588235296 L130 383.0352941176471 L131 386.47058823529414 L132 377.88235294117646 L133 367.5764705882353 L134 364.1411764705882 L135 365.8588235294118 L136 357.2705882352941 L137 355.5529411764706 L138 355.5529411764706 L139 352.11764705882354 L140 358.98823529411766 L141 360.70588235294116 L142 365.8588235294118 L143 365.8588235294118 L144 365.8588235294118 L145 360.70588235294116 L146 362.4235294117647 L147 343.52941176470586 L148 346.9647058823529 L149 345.2470588235294 L150 341.81176470588235 L151 341.81176470588235 L152 345.2470588235294 L153 352.11764705882354 L154 346.9647058823529 L155 326.3529411764706 L156 317.7647058823529 L157 317.7647058823529 L158 326.3529411764706 L159 334.94117647058823 L160 345.2470588235294 L161 352.11764705882354 L162 348.6823529411765 L163 357.2705882352941 L164 348.6823529411765 L165 352.11764705882354 L166 360.70588235294116 L167 352.11764705882354 L168 350.4 L169 350.4 L170 348.6823529411765 L171 353.83529411764704 L172 365.8588235294118 L173 371.01176470588234 L174 374.4470588235294 L175 384.7529411764706 L176 393.34117647058827 L177 388.18823529411765 L178 393.34117647058827 L179 405.36470588235295 L180 398.49411764705883 L181 400.21176470588233 L182 388.18823529411765 L183 379.6 L184 376.16470588235296 L185 383.0352941176471 L186 383.0352941176471 L187 383.0352941176471 L188 389.90588235294115 L189 400.21176470588233 L190 398.49411764705883 L191 393.34117647058827 L192 388.18823529411765 L193 395.05882352941177 L194 369.29411764705884 L195 376.16470588235296 L196 371.01176470588234 L197 352.11764705882354 L198 355.5529411764706 L199 364.1411764705882 L200 372.7294117647059" stroke = "blue"  stroke-width = "4" fill = "none" />
<path d = "M0 438 L1 438 L2 438 L3 438 L4 438 L5 438 L6 438 L7 438 L8 438 L9 438 L10 438 L11 438 L12 438 L13 438 L14 438 L15 438 L16 438 L17 438 L18 438 L19 438 L20 438 L21 438 L22 438 L23 438 L24 438 L25 438 L26 438 L27 438 L28 438 L29 438 L30 438 L31 438 L32 438 L33 438 L34 438 L35 438 L36 438 L37 438 L38 438 L39 438 L40 438 L41 438 L42 438 L43 438 L44 438 L45 438 L46 438 L47 438 L48 438 L49 438 L50 438 L51 438 L52 438 L53 438 L54 438 L55 438 L56 438 L57 438 L58 438 L59 438 L60 438 L61 438 L62 438 L63 438 L64 438 L65 425.9764705882353 L66 419.1058823529412 L67 427.6941176470588 L68 429.4117647058824 L69 438 L70 438 L71 438 L72 438 L73 438 L74 410.5176470588235 L75 408.8 L76 407.08235294117645 L77 413.9529411764706 L78 417.38823529411764 L79 429.4117647058824 L80 438 L81 438 L82 438 L83 438 L84 438 L85 438 L86 438 L87 436.2823529411765 L88 424.25882352941176 L89 398.49411764705883 L90 403.6470588235294 L91 407.08235294117645 L92 415.67058823529413 L93 420.8235294117647 L94 422.54117647058825 L95 434.56470588235294 L96 438 L97 438 L98 438 L99 438 L100 438 L101 438 L102 438 L103 438 L104 438 L105 438 L106 438 L107 438 L108 438 L109 438 L110 438 L111 438 L112 438 L113 438 L114 438 L115 367.5764705882353 L116 346.9647058823529 L117 357.2705882352941 L118 365.8588235294118 L119 376.16470588235296 L120 386.47058823529414 L121 396.77647058823527 L122 407.08235294117645 L123 419.1058823529412 L124 431.1294117647059 L125 436.2823529411765 L126 436.2823529411765 L127 438 L128 438 L129 438 L130 438 L131 438 L132 438 L133 438 L134 438 L135 438 L136 438 L137 438 L138 438 L139 438 L140 438 L141 438 L142 438 L143 438 L144 438 L145 438 L146 438 L147 438 L148 438 L149 438 L150 438 L151 438 L152 438 L153 438 L154 438 L155 438 L156 438 L157 438 L158 438 L159 432.84705882352944 L160 436.2823529411765 L161 438 L162 438 L163 438 L164 438 L165 438 L166 438 L167 438 L168 438 L169 427.6941176470588 L170 429.4117647058824 L171 420.8235294117647 L172 427.6941176470588 L173 436.2823529411765 L174 438 L175 438 L176 438 L177 438 L178 438 L179 438 L180 438 L181 438 L182 438 L183 438 L184 438 L185 438 L186 438 L187 438 L188 438 L189 438 L190 438 L191 438 L192 438 L193 438 L194 438 L195 432.84705882352944 L196 438 L197 438 L198 417.38823529411764 L199 427.6941176470588 L200 438" stroke = "purple"  stroke-width = "4" fill = "none" />
</svg>