<svg width="500" height="438" viewbox = "0 0 500 438"  xmlns="http://www.w3.org/2000/svg">
<!--<json>{"starttime":1741660194,"startdate":"Mon Mar 10 2025 20:29:54 GMT-0600 (Mountain Daylight Time)","f1":1000,"f2":2000,"f3":3000,"f4":4000,"notes":"this is just a test run of some random noise, this is not real data but what is real data? what makes data more real?\nwhat even is real?","p1":[0,0,0,0,0,0,0,0,0,0,0,0,0,0,0,0,0,0,0,0,0,0,0,0,0,0,0,0,0,0,0,4,6,4,4,31,36,36,43,45,41,40,41,39,53,82,104,117,125,130,126,120,114,108,101,94,87,81,74,69,63,58,55,54,50,48,44,37,33,26,19,13,8,3,0,0,0,0,0,0,0,0,0,0,0,0,0,0,0,0,0,0,0,0,0,0,0,0,26.4,20,6.8,0,0,1.8,4.4,10.6,2.4,2,0,3.4,32.8,66.6,122.8,133.2,136.6,138.4,140.2,143.8,146.2,146.6,147.4,147.4,147,148,148.2,148.8,149,149,150,149.8,149.4,149.2,148.8,149,148.2,148.4,148,148.6,148,148,148,148,148,148,148,148.2,148.6,148,148.2,148,148.6,149,148.4,147.8,148,148,148,148.2,148,147.8,148.4,148,147.6,147.2,147,147.2,147,147.4,148,148,147.6,148,148,148,147.8,147,147,148,148.4,147.6,147,147.4,147.4,147,146.8,147,147.6,147.8,148,147.8,147,148,147.6,147.6,147,148,148,148,148,147.8,147.4,148,147.2,148.4,148.2,148,147.6,147.4,148.2,149,149,148.6,148.2,148.8,148.8,148,148,148,148,148.4,148.8,148.4,149,148,148.6,148.8,148,148.8,148.2,148.2,148,148.4,148.8,148,148,148,148,148,148,148,147.8,148.6,149.2,149,148.6,148,148,147.4,147.4,147.6,148,148,147.6,148,148,148,148,148,148.2,148,148.6,148,148.2,148,148,148,148,147.4,147,147,148,148,148,148.4,147,145.6,145,145,144,144,144.2,144.2,143.8,144,143.6,143,143,143,143,143,143.4,144,144.4,145.4,145,144.4,144,144,144,144.4,144.6,144.6,144.6,145,145,145,145,144.8,144.8,144.6,144.2,144.6,145,144.4,144.2,144.8,145,145,145,144.8,144,144.2,144,144.2,144,144,144.6,145,145,145,145,145,145,145,144.6,145,145,145,145,145,144.4,144.6,145,145,145,145,144,143.2,142,141.2,141,141.4,141.2,141.4,145.8,149,147.4,147.8,147,147.2,148,147.4,146.4,147.2,149.6,150.4,151,151,150.6,150.8,150.4,150,150,150,150,149.8,149.8,149.6,149.6,150,150,149.8,149.4,149.6,149,149.2,149,149.4,149.2,149.6,149.8,149,149,149,149,149.8,150.2,150,150,150.4,151,152,152.4,152.6,152.4,151.8,150.8,150,150,150,150,150,150,150,150,149.8,149.4,150,149,149,149.4,150,149.4,149.4,149.8,149.4,149,148.6,149.2,149.2,149,148.6,148.4,149.2,149,149.4,149.6,149.4,149.4,149.2,150.4,150.8,151.4,151,150.2,149.4,151,150.4,150,150,150,150.8,151.8,152,153,153,152.8,152.8,154.2,152.6,152.8,152.4,153,151,150.2,148.4,147.4,149.4,148.2,147,147,147.8,147.4,145.8,146.6,147.2,147.8,147.8,147.8,146.8,147.4,146.2,147.6,147.4,146.2,145,145.4,145.4,144.2,144,143.6,143.6,143.2,143.4,142.8,144.4,145,145.4,145.8,148,146.8],"p2":[0,0,0,0,0,0,0,0,0,0,0,0,0,0,0,0,0,0,0,0,0,0,0,0,0,0,0,0,0,0,0,0,0,0,0,0,0,0,0,0,0,0,6,3,2,0,0,0,0,0,0,0,0,0,0,0,0,0,0,0,0,0,0,0,0,0,0,0,0,0,0,0,0,0,0,0,0,0,0,0,3,4,10,8,21,18,23,20,23,17,3.4,19.6,17.6,22.8,18,35.2,31.4,29,15.8,24.8,17.4,2.4,0,0,0,0,0,3,8,18.8,17,5.8,5.6,23.8,8,0,0,0,18.8,33.4,59.2,35.6,45.2,32.2,10,0.8,0,10.6,25.8,19,26.6,11,14,17,26.8,6.8,0,0,2.6,14.6,43.4,38.8,28,26.8,12,0.2,0,6,32.8,31.8,37.8,23.8,31,37.8,30.2,8.8,0,0,0.4,16.8,36.4,47.2,25,32.6,18.8,1.4,0,2.4,34.4,31.6,38.2,33.8,16.6,36.2,39.4,29.6,18.8,29.6,45.4,49.2,34.4,44.6,25,34,20.4,16.4,12.2,1.4,45.2,54.6,43.8,42.4,32,45.4,47.6,46.8,26.6,2.2,0,19.4,31.6,52.2,49.4,36.6,49,27,8.6,2.4,22.8,58.4,53.2,44,52.6,40.4,57.2,58,40.6,13.4,0.2,3.4,39.2,43.4,65.2,44.6,47.8,34.8,16.4,6.8,2,50.6,49,48,56.6,45,49.8,50.8,48,21.4,0.8,3.8,20.4,36.8,59,52.2,50,44.8,20.4,3.8,4.8,28.6,56.8,52,53,42.4,41,51.6,54.4,36,33.8,43.8,52.8,53.8,59,57,39.4,44.8,35.2,12.8,0.6,0,0.6,2.8,25,46.8,21.2,0.6,0,0,0,0,0,0.4,14.2,47.4,29,2.2,0,0,7.2,5.8,22,39.4,49.4,67.6,53.2,31.8,19.6,11.6,2,2.4,9.4,38.6,42.6,68.2,55.6,24.4,0.8,8.8,14.2,25.4,24.2,47,40.4,60.2,63.8,43,27.4,24.6,15.6,11.4,0.2,17,42.4,49.8,58.4,35.4,8.8,0,0.6,19.6,18.8,32,30.4,41.6,61.4,48.2,29.2,23.6,16.8,12.6,45.2,42.2,64.8,54.6,66,54.2,23.4,0.6,4.2,20.2,23.4,28.2,46.4,43.8,54,45.4,30.8,40.4,53.6,42.2,27.2,17.6,37.8,46.8,46,56.2,42,39.4,29.4,28.2,29.6,20.4,42.4,44.2,41.6,41.8,31.6,38.2,50,49.8,31.8,11.2,23.8,36.6,38,53.8,48.6,38.4,31.8,32.6,25,10.6,24.2,40.2,40.4,49.4,40.6,35.4,40.8,43,32,12,9.4,33.8,41.4,42,44.8,29.8,36.2,32.4,32,27.4,33.6,48.8,49.2,50.8,56.4,42,48.4,49.2,38.8,23.8,32.6,48.8,52,56.4,52.4,64.4,62.6,51.2,39.6,32,22.8,28,22,20.2,44,39.6,32.4,19.4,5.8,26.6,25.2,26.2,34.4,28.8,47.6,41.2,39.8,45,32,24.6,24,17.4,34.2,28.6,34.8,33.6,27.4,30,32,24.4,16.8,11.8,29.4,39.4,50,54.8,51.4,42.8,26.6,24.2,26.2,34.2,32.6,40.6,44,43.8,34,42.8,39.4,42,40.6,19.6,23.2,30.4,45,65.8,57.4,46.8,39.4,32.4,38.8,36.4,37,42.6,41.8,50.8,49.4,38.6,41],"p3":[0,0,0,0,0,0,0,0,0,0,0,0,0,0,0,0,0,0,0,0,0,0,0,0,0,0,0,0,0,0,0,0,0,0,0,0,0,0,0,0,0,0,0,0,0,0,0,0,0,0,0,0,0,0,0,0,6,14,18,13,8,8,4,3,0,0,0,0,0,2,26,29,31,36,45,42,43,38,34,42,44,48,43,37,33,27,24,18,22,30,7.6,35.8,20.4,27.4,40.2,58.8,52.6,46.8,49.4,46.6,23.4,0.8,0,0,0,0,0,0,0,4.4,0,0,0,0,0,0,0,0,0,19.4,13.4,0,0,0,0,0,0,0,0,0.4,0,0,0,0,0,0,0,0,0,3.8,19.6,3.4,0,0,0,0,0,0,0,0,0,0,0,0,0,0,0,0,0,0,5.6,0,0,0,0,0,0,0,0,0,13,9.6,0,0,0,0,4.4,2,5.8,1.8,2.4,1.4,0,0,0,1.2,0,0,0,0.4,4,9.2,1.2,0,0,0,0,0,0,0,3,14,4,5.8,8.2,0,0,0,9.6,20.2,3.6,21.4,13.2,2.4,1.2,0,0,0,0,0,0,8.8,12,0,3.4,1.4,1,0,0,0,0,8.6,14.6,1.8,4.4,0,0,0,0,0,0,2.4,14.8,3.6,5,3.8,0,0,0,3.6,8.2,4,34.2,16.8,7,3.4,0,0,9.4,9.2,15.8,4.8,20.4,9.8,4,2,8,22.8,15.6,4.4,24,28.2,37.6,24.4,29.4,44,49,53,57.6,50,50.4,55.2,50.8,48.8,22.4,0.4,0,0,17.8,6.2,22.6,36.8,47.6,45.8,39,44.2,52.4,52.4,62.4,62.4,61.6,65,59,66.2,53.2,22.6,0.6,17.6,26.4,22.4,15.2,38.4,48.6,53.4,38.8,41.6,53,44.8,56.4,61.2,60,61,60.4,57.8,56.8,33,8.2,0,5.2,20.8,10.6,21.6,44.2,51.8,48.4,45.8,47.4,48.2,48.2,64,63.6,52.8,58.4,51.2,59.8,42.6,12.2,0,13.6,17,6.6,11.6,16.4,4.2,43.2,32,12.4,2.6,0,0,0,0,4,0.6,28.8,23.6,5.8,13.2,0.4,0,3.4,0.8,17,12.8,13.2,26.4,7.6,9.8,4.4,0,0,0,11.2,3.4,7.6,17.6,5.8,6,0,20.8,12.2,2.2,3.4,6.8,0.4,27.2,15.6,3,0,0,0,0,0,0,0,18.2,17.4,3.4,6,0,0.2,4.6,2.8,8,3.4,22.8,31.6,14.4,6,0,0,4.6,15,33.6,16.4,32.4,50.2,44.4,33.4,37.6,33.6,20.4,20.8,35,37,27.8,31.6,39.2,30.4,26,40.6,22,5,3.4,32,25.6,40,46.4,43.6,50.6,33.2,11.6,8.4,26,36,45.4,46,31.6,20.8,31.8,30.6,24.8,18.6,0.4,12,24.4,27.2,24.4,8.8,6,13,13.6,7.2,8.8,20.2,32.4,32.4,29.2,10.6,9.8,6.4,18.8,29.6,6.6,3.8,17.6,28,36.8,39.8,34.4,30.2,15.4,19.2,23.2,29.4,38.6,30,36,36.8,24,12.2],"p4":[0,0,0,0,0,0,0,0,0,0,0,0,0,0,0,0,0,0,0,0,0,0,0,0,0,0,0,0,0,0,0,0,0,0,0,0,0,0,0,0,0,0,0,0,0,0,0,0,0,0,0,0,0,0,0,0,13,17,22,20,14,15,13,6,2,0,0,18,19,17,21,31,38,39,49,52,57,55,49,46,41,39,34,40,49,46,48,52,52,51,10.2,51.6,50.2,53.6,51.2,50.2,48.8,32.8,33,22.6,25.8,7.4,0,0,0,0,0,0,0,0,0,0,0,0,0,0,0,0,0,0,0,0,0,0,0,0,0,0,0,0,1.2,0,0,0,0,0,0,0,0,0.8,12,3.4,0,0,0,0,0,0,0,0,0,0,2.6,0,0,0,0,0,0,0,10,1.6,0,0.4,0,0,0,0,0,0,0.2,0,0,0,0,0,0,0,0,0,0,0,0,0,0,0,0,0,0.2,0,0,0,0,1.6,0,0,0,0,0,0,0,0.4,0,0.6,0.2,0,0,0,1.2,0.8,0,0,0,0,0.6,0,0,0,0,0,0,0,0,0,0,0,0,0,0,1.2,0,0,0,0,0,0,0,0,0,0,0,0,0,0,0,0,0,0,0,3.4,2,0,0,0,4.2,1.8,0,0,0.8,0,0,0,0,0,0.2,5,0,3.4,10.4,1.6,20.4,37.4,51.6,43.6,40.6,41.4,42.8,47,56,52.4,49.4,45.6,42.8,46.2,29,2.2,0,0.4,32.4,26,22,33.8,43.6,43.4,35.8,52,52.2,50.6,50.6,45.6,47.4,40.4,44.8,44.4,35.6,11.4,0,0,11.4,21.6,20.4,32.8,37,47.4,46.6,49.8,53.4,50.4,47.8,45.8,50.2,42,46,45.2,40.4,21.6,1.6,0,4.6,25,20.6,34.6,35.2,31.8,39.4,36,52.8,55.8,54.6,45.4,41.4,43.2,40.2,46,45.6,33.6,6.8,0,0,0,0,2.6,5.4,0,0.4,0,3.2,4.4,0,0,0,0,0,0,0,0,0,4,0,0,0,1.6,20,6,0,0,0,0.2,0.8,0,0,0,2.2,0,0,1.4,1.2,0,0,0,0,0,4.4,4,0,0,0,7.8,5.4,0,0,0,0,0,0,1.6,0,0,0,0,0,0,0,8,0,0,0,1.6,3.8,0,0,0.4,0.6,3.6,4.8,12,26.8,16.8,8.2,2,0.2,0,0,1.2,6.2,1,0.6,0,0,4.6,0.6,0,0,0,0.8,4.4,11.2,8.6,12.4,30.6,12.6,1.4,0,0,0,0,0,0,0,0,0,0,0,0,0,0,1.2,1,1.8,3.8,1.8,1.6,3,2.4,0.6,1,3.6,1,7.2,9.4,4.8,0,0,0,1,1.6,0,0,0,7.4,9.2,0,0,7.2,4.4,11.8,2.4,0,0,0,0],"timeseconds":[0.9000000953674316,1,1,1,1.0999999046325684,1.0999999046325684,1.0999999046325684,1.2000000476837158,1.2000000476837158,1.2000000476837158,1.2999999523162842,1.2999999523162842,1.2999999523162842,1.4000000953674316,1.4000000953674316,1.4000000953674316,1.5,1.5,1.5,1.5999999046325684,1.5999999046325684,1.5999999046325684,1.7000000476837158,1.7000000476837158,1.7000000476837158,1.7999999523162842,1.7999999523162842,1.7999999523162842,1.9000000953674316,1.9000000953674316,1.9000000953674316,2,2,2,2.0999999046325684,2.0999999046325684,2.200000047683716,2.200000047683716,2.200000047683716,2.299999952316284,2.299999952316284,2.299999952316284,2.4000000953674316,2.4000000953674316,2.4000000953674316,2.5,2.5,2.5,2.5999999046325684,2.5999999046325684,2.5999999046325684,2.700000047683716,2.700000047683716,2.700000047683716,2.799999952316284,2.799999952316284,2.799999952316284,2.9000000953674316,2.9000000953674316,2.9000000953674316,3,3,3,3.0999999046325684,3.0999999046325684,3.0999999046325684,3.200000047683716,3.200000047683716,3.200000047683716,3.299999952316284,3.299999952316284,3.299999952316284,3.4000000953674316,3.4000000953674316,3.4000000953674316,3.5,3.5,3.5,3.5999999046325684,3.5999999046325684,3.5999999046325684,3.700000047683716,3.700000047683716,3.700000047683716,3.799999952316284,3.799999952316284,3.799999952316284,3.9000000953674316,3.9000000953674316,3.9000000953674316,4,4.099999904632568,4.299999952316284,4.5,4.599999904632568,4.799999952316284,5,5.099999904632568,5.299999952316284,5.5,5.599999904632568,5.799999952316284,6,6.099999904632568,6.299999952316284,6.5,6.599999904632568,6.799999952316284,7,7.099999904632568,7.299999952316284,7.5,7.599999904632568,7.799999952316284,8,8.099999904632568,8.299999952316284,8.5,8.599999904632568,8.799999952316284,9,9.099999904632568,9.299999952316284,9.5,9.599999904632568,9.799999952316284,10,10.099999904632568,10.299999952316284,10.5,10.599999904632568,10.799999952316284,11,11.099999904632568,11.299999952316284,11.5,11.599999904632568,11.799999952316284,12,12.099999904632568,12.299999952316284,12.5,12.599999904632568,12.799999952316284,13,13.200000047683716,13.299999952316284,13.5,13.700000047683716,13.799999952316284,14,14.200000047683716,14.299999952316284,14.5,14.700000047683716,14.799999952316284,15,15.200000047683716,15.299999952316284,15.5,15.700000047683716,15.799999952316284,16,16.200000047683716,16.299999952316284,16.5,16.700000047683716,16.799999952316284,17,17.200000047683716,17.299999952316284,17.5,17.700000047683716,17.799999952316284,18,18.200000047683716,18.299999952316284,18.5,18.700000047683716,18.799999952316284,19,19.200000047683716,19.299999952316284,19.5,19.700000047683716,19.799999952316284,20,20.200000047683716,20.299999952316284,20.5,20.700000047683716,20.799999952316284,21,21.200000047683716,21.299999952316284,21.5,21.700000047683716,21.799999952316284,22,22.200000047683716,22.299999952316284,22.5,22.700000047683716,22.799999952316284,23,23.200000047683716,23.299999952316284,23.5,23.700000047683716,23.799999952316284,24,24.200000047683716,24.299999952316284,24.5,24.700000047683716,24.799999952316284,25,25.200000047683716,25.299999952316284,25.5,25.700000047683716,25.799999952316284,26,26.200000047683716,26.299999952316284,26.5,26.700000047683716,26.799999952316284,27,27.200000047683716,27.299999952316284,27.5,27.700000047683716,27.799999952316284,28,28.200000047683716,28.299999952316284,28.5,28.700000047683716,28.799999952316284,29,29.200000047683716,29.299999952316284,29.5,29.700000047683716,29.799999952316284,30,30.200000047683716,30.299999952316284,30.5,30.700000047683716,30.799999952316284,31,31.200000047683716,31.299999952316284,31.5,31.700000047683716,31.799999952316284,32,32.200000047683716,32.299999952316284,32.5,32.700000047683716,32.799999952316284,33,33.200000047683716,33.299999952316284,33.5,33.700000047683716,33.799999952316284,34,34.200000047683716,34.299999952316284,34.5,34.700000047683716,34.799999952316284,35,35.200000047683716,35.299999952316284,35.5,35.700000047683716,35.799999952316284,36,36.200000047683716,36.299999952316284,36.5,36.700000047683716,36.799999952316284,37,37.200000047683716,37.299999952316284,37.5,37.700000047683716,37.799999952316284,38,38.200000047683716,38.299999952316284,38.5,38.700000047683716,38.799999952316284,39,39.200000047683716,39.299999952316284,39.5,39.700000047683716,39.799999952316284,40,40.200000047683716,40.299999952316284,40.5,40.700000047683716,40.799999952316284,41,41.200000047683716,41.299999952316284,41.5,41.700000047683716,41.799999952316284,42,42.200000047683716,42.299999952316284,42.5,42.700000047683716,42.799999952316284,43,43.200000047683716,43.299999952316284,43.5,43.700000047683716,43.799999952316284,44,44.200000047683716,44.299999952316284,44.5,44.700000047683716,44.799999952316284,45,45.200000047683716,45.299999952316284,45.5,45.700000047683716,45.799999952316284,46,46.200000047683716,46.299999952316284,46.5,46.700000047683716,46.799999952316284,47,47.200000047683716,47.299999952316284,47.5,47.700000047683716,47.799999952316284,48,48.200000047683716,48.299999952316284,48.5,48.700000047683716,48.799999952316284,49,49.200000047683716,49.299999952316284,49.5,49.700000047683716,49.799999952316284,50,50.200000047683716,50.299999952316284,50.5,50.700000047683716,50.799999952316284,51,51.200000047683716,51.299999952316284,51.5,51.700000047683716,51.799999952316284,52,52.200000047683716,52.299999952316284,52.5,52.700000047683716,52.799999952316284,53,53.200000047683716,53.299999952316284,53.5,53.700000047683716,53.799999952316284,54,54.200000047683716,54.299999952316284,54.5,54.700000047683716,54.799999952316284,55,55.200000047683716,55.299999952316284,55.5,55.700000047683716,55.799999952316284,56,56.200000047683716,56.299999952316284,56.5,56.700000047683716,56.799999952316284,57,57.200000047683716,57.299999952316284,57.5,57.700000047683716,57.799999952316284,58,58.200000047683716,58.299999952316284,58.5,58.700000047683716,58.799999952316284,59,59.200000047683716,59.299999952316284,59.5,59.700000047683716,59.799999952316284,60,60.200000047683716,60.299999952316284,60.5,60.700000047683716,60.799999952316284,61,61.200000047683716,61.299999952316284,61.5,61.700000047683716,61.799999952316284,62,62.200000047683716,62.299999952316284,62.5,62.700000047683716,62.799999952316284,63,63.200000047683716,63.299999952316284,63.5,63.700000047683716,63.799999952316284,64,64.20000004768372,64.29999995231628,64.5,64.70000004768372,64.79999995231628,65,65.20000004768372,65.29999995231628,65.5,65.70000004768372,65.79999995231628,66,66.20000004768372,66.29999995231628,66.5,66.70000004768372,66.79999995231628,67,67.20000004768372,67.29999995231628,67.5,67.70000004768372,67.79999995231628,68,68.20000004768372,68.29999995231628,68.5,68.70000004768372,68.79999995231628,69,69.20000004768372,69.29999995231628,69.5,69.70000004768372,69.79999995231628,70,70.20000004768372,70.29999995231628,70.5,70.70000004768372,70.79999995231628,71,71.20000004768372,71.29999995231628,71.5,71.70000004768372,71.79999995231628,72,72.20000004768372,72.40000009536743]}</json>-->
<path d = "M0 437.5 L1 437.5 L2 437.5 L3 437.5 L4 437.5 L5 437.5 L6 437.5 L7 437.5 L8 437.5 L9 437.5 L10 437.5 L11 437.5 L12 437.5 L13 437.5 L14 437.5 L15 437.5 L16 437.5 L17 437.5 L18 437.5 L19 437.5 L20 437.5 L21 437.5 L22 437.5 L23 437.5 L24 437.5 L25 437.5 L26 437.5 L27 437.5 L28 437.5 L29 437.5 L30 437.5 L31 430.6372549019608 L32 427.20588235294116 L33 430.6372549019608 L34 430.6372549019608 L35 384.3137254901961 L36 375.7352941176471 L37 375.7352941176471 L38 363.72549019607845 L39 360.2941176470588 L40 367.156862745098 L41 368.87254901960785 L42 367.156862745098 L43 370.5882352941176 L44 346.5686274509804 L45 296.8137254901961 L46 259.0686274509804 L47 236.76470588235296 L48 223.03921568627453 L49 214.4607843137255 L50 221.3235294117647 L51 231.61764705882354 L52 241.91176470588235 L53 252.2058823529412 L54 264.21568627450984 L55 276.22549019607845 L56 288.2352941176471 L57 298.52941176470586 L58 310.5392156862745 L59 319.11764705882354 L60 329.4117647058823 L61 337.9901960784314 L62 343.1372549019608 L63 344.8529411764706 L64 351.71568627450984 L65 355.1470588235294 L66 362.0098039215686 L67 374.01960784313724 L68 380.88235294117646 L69 392.8921568627451 L70 404.9019607843137 L71 415.19607843137254 L72 423.77450980392155 L73 432.3529411764706 L74 437.5 L75 437.5 L76 437.5 L77 437.5 L78 437.5 L79 437.5 L80 437.5 L81 437.5 L82 437.5 L83 437.5 L84 437.5 L85 437.5 L86 437.5 L87 437.5 L88 437.5 L89 437.5 L90 437.5 L91 437.5 L92 437.5 L93 437.5 L94 437.5 L95 437.5 L96 437.5 L97 437.5 L98 392.20588235294116 L99 403.1862745098039 L100 425.8333333333333 L101 437.5 L102 437.5 L103 434.4117647058824 L104 429.95098039215685 L105 419.3137254901961 L106 433.38235294117646 L107 434.0686274509804 L108 437.5 L109 431.6666666666667 L110 381.22549019607845 L111 323.2352941176471 L112 226.81372549019608 L113 208.97058823529412 L114 203.1372549019608 L115 200.04901960784315 L116 196.9607843137255 L117 190.78431372549016 L118 186.6666666666667 L119 185.98039215686276 L120 184.60784313725492 L121 184.60784313725492 L122 185.29411764705884 L123 183.578431372549 L124 183.23529411764707 L125 182.20588235294113 L126 181.8627450980392 L127 181.8627450980392 L128 180.1470588235294 L129 180.49019607843132 L130 181.17647058823525 L131 181.51960784313727 L132 182.20588235294113 L133 181.8627450980392 L134 183.23529411764707 L135 182.89215686274508 L136 183.578431372549 L137 182.54901960784312 L138 183.578431372549 L139 183.578431372549 L140 183.578431372549 L141 183.578431372549 L142 183.578431372549 L143 183.578431372549 L144 183.578431372549 L145 183.23529411764707 L146 182.54901960784312 L147 183.578431372549 L148 183.23529411764707 L149 183.578431372549 L150 182.54901960784312 L151 181.8627450980392 L152 182.89215686274508 L153 183.92156862745094 L154 183.578431372549 L155 183.578431372549 L156 183.578431372549 L157 183.23529411764707 L158 183.578431372549 L159 183.92156862745094 L160 182.89215686274508 L161 183.578431372549 L162 184.26470588235293 L163 184.9509803921569 L164 185.29411764705884 L165 184.9509803921569 L166 185.29411764705884 L167 184.60784313725492 L168 183.578431372549 L169 183.578431372549 L170 184.26470588235293 L171 183.578431372549 L172 183.578431372549 L173 183.578431372549 L174 183.92156862745094 L175 185.29411764705884 L176 185.29411764705884 L177 183.578431372549 L178 182.89215686274508 L179 184.26470588235293 L180 185.29411764705884 L181 184.60784313725492 L182 184.60784313725492 L183 185.29411764705884 L184 185.63725490196077 L185 185.29411764705884 L186 184.26470588235293 L187 183.92156862745094 L188 183.578431372549 L189 183.92156862745094 L190 185.29411764705884 L191 183.578431372549 L192 184.26470588235293 L193 184.26470588235293 L194 185.29411764705884 L195 183.578431372549 L196 183.578431372549 L197 183.578431372549 L198 183.578431372549 L199 183.92156862745094 L200 184.60784313725492 L201 183.578431372549 L202 184.9509803921569 L203 182.89215686274508 L204 183.23529411764707 L205 183.578431372549 L206 184.26470588235293 L207 184.60784313725492 L208 183.23529411764707 L209 181.8627450980392 L210 181.8627450980392 L211 182.54901960784312 L212 183.23529411764707 L213 182.20588235294113 L214 182.20588235294113 L215 183.578431372549 L216 183.578431372549 L217 183.578431372549 L218 183.578431372549 L219 182.89215686274508 L220 182.20588235294113 L221 182.89215686274508 L222 181.8627450980392 L223 183.578431372549 L224 182.54901960784312 L225 182.20588235294113 L226 183.578431372549 L227 182.20588235294113 L228 183.23529411764707 L229 183.23529411764707 L230 183.578431372549 L231 182.89215686274508 L232 182.20588235294113 L233 183.578431372549 L234 183.578431372549 L235 183.578431372549 L236 183.578431372549 L237 183.578431372549 L238 183.578431372549 L239 183.578431372549 L240 183.92156862745094 L241 182.54901960784312 L242 181.51960784313727 L243 181.8627450980392 L244 182.54901960784312 L245 183.578431372549 L246 183.578431372549 L247 184.60784313725492 L248 184.60784313725492 L249 184.26470588235293 L250 183.578431372549 L251 183.578431372549 L252 184.26470588235293 L253 183.578431372549 L254 183.578431372549 L255 183.578431372549 L256 183.578431372549 L257 183.578431372549 L258 183.23529411764707 L259 183.578431372549 L260 182.54901960784312 L261 183.578431372549 L262 183.23529411764707 L263 183.578431372549 L264 183.578431372549 L265 183.578431372549 L266 183.578431372549 L267 184.60784313725492 L268 185.29411764705884 L269 185.29411764705884 L270 183.578431372549 L271 183.578431372549 L272 183.578431372549 L273 182.89215686274508 L274 185.29411764705884 L275 187.69607843137257 L276 188.72549019607845 L277 188.72549019607845 L278 190.44117647058823 L279 190.44117647058823 L280 190.0980392156863 L281 190.0980392156863 L282 190.78431372549016 L283 190.44117647058823 L284 191.12745098039215 L285 192.15686274509804 L286 192.15686274509804 L287 192.15686274509804 L288 192.15686274509804 L289 192.15686274509804 L290 191.47058823529412 L291 190.44117647058823 L292 189.7549019607843 L293 188.0392156862745 L294 188.72549019607845 L295 189.7549019607843 L296 190.44117647058823 L297 190.44117647058823 L298 190.44117647058823 L299 189.7549019607843 L300 189.41176470588238 L301 189.41176470588238 L302 189.41176470588238 L303 188.72549019607845 L304 188.72549019607845 L305 188.72549019607845 L306 188.72549019607845 L307 189.0686274509804 L308 189.0686274509804 L309 189.41176470588238 L310 190.0980392156863 L311 189.41176470588238 L312 188.72549019607845 L313 189.7549019607843 L314 190.0980392156863 L315 189.0686274509804 L316 188.72549019607845 L317 188.72549019607845 L318 188.72549019607845 L319 189.0686274509804 L320 190.44117647058823 L321 190.0980392156863 L322 190.44117647058823 L323 190.0980392156863 L324 190.44117647058823 L325 190.44117647058823 L326 189.41176470588238 L327 188.72549019607845 L328 188.72549019607845 L329 188.72549019607845 L330 188.72549019607845 L331 188.72549019607845 L332 188.72549019607845 L333 188.72549019607845 L334 189.41176470588238 L335 188.72549019607845 L336 188.72549019607845 L337 188.72549019607845 L338 188.72549019607845 L339 188.72549019607845 L340 189.7549019607843 L341 189.41176470588238 L342 188.72549019607845 L343 188.72549019607845 L344 188.72549019607845 L345 188.72549019607845 L346 190.44117647058823 L347 191.8137254901961 L348 193.87254901960785 L349 195.2450980392157 L350 195.58823529411762 L351 194.9019607843137 L352 195.2450980392157 L353 194.9019607843137 L354 187.35294117647058 L355 181.8627450980392 L356 184.60784313725492 L357 183.92156862745094 L358 185.29411764705884 L359 184.9509803921569 L360 183.578431372549 L361 184.60784313725492 L362 186.32352941176472 L363 184.9509803921569 L364 180.83333333333331 L365 179.46078431372547 L366 178.4313725490196 L367 178.4313725490196 L368 179.11764705882354 L369 178.77450980392155 L370 179.46078431372547 L371 180.1470588235294 L372 180.1470588235294 L373 180.1470588235294 L374 180.1470588235294 L375 180.49019607843132 L376 180.49019607843132 L377 180.83333333333331 L378 180.83333333333331 L379 180.1470588235294 L380 180.1470588235294 L381 180.49019607843132 L382 181.17647058823525 L383 180.83333333333331 L384 181.8627450980392 L385 181.51960784313727 L386 181.8627450980392 L387 181.17647058823525 L388 181.51960784313727 L389 180.83333333333331 L390 180.49019607843132 L391 181.8627450980392 L392 181.8627450980392 L393 181.8627450980392 L394 181.8627450980392 L395 180.49019607843132 L396 179.80392156862746 L397 180.1470588235294 L398 180.1470588235294 L399 179.46078431372547 L400 178.4313725490196 L401 176.71568627450984 L402 176.02941176470586 L403 175.68627450980392 L404 176.02941176470586 L405 177.05882352941177 L406 178.77450980392155 L407 180.1470588235294 L408 180.1470588235294 L409 180.1470588235294 L410 180.1470588235294 L411 180.1470588235294 L412 180.1470588235294 L413 180.1470588235294 L414 180.1470588235294 L415 180.49019607843132 L416 181.17647058823525 L417 180.1470588235294 L418 181.8627450980392 L419 181.8627450980392 L420 181.17647058823525 L421 180.1470588235294 L422 181.17647058823525 L423 181.17647058823525 L424 180.49019607843132 L425 181.17647058823525 L426 181.8627450980392 L427 182.54901960784312 L428 181.51960784313727 L429 181.51960784313727 L430 181.8627450980392 L431 182.54901960784312 L432 182.89215686274508 L433 181.51960784313727 L434 181.8627450980392 L435 181.17647058823525 L436 180.83333333333331 L437 181.17647058823525 L438 181.17647058823525 L439 181.51960784313727 L440 179.46078431372547 L441 178.77450980392155 L442 177.7450980392157 L443 178.4313725490196 L444 179.80392156862746 L445 181.17647058823525 L446 178.4313725490196 L447 179.46078431372547 L448 180.1470588235294 L449 180.1470588235294 L450 180.1470588235294 L451 178.77450980392155 L452 177.05882352941177 L453 176.71568627450984 L454 175 L455 175 L456 175.34313725490193 L457 175.34313725490193 L458 172.9411764705883 L459 175.68627450980392 L460 175.34313725490193 L461 176.02941176470586 L462 175 L463 178.4313725490196 L464 179.80392156862746 L465 182.89215686274508 L466 184.60784313725492 L467 181.17647058823525 L468 183.23529411764707 L469 185.29411764705884 L470 185.29411764705884 L471 183.92156862745094 L472 184.60784313725492 L473 187.35294117647058 L474 185.98039215686276 L475 184.9509803921569 L476 183.92156862745094 L477 183.92156862745094 L478 183.92156862745094 L479 185.63725490196077 L480 184.60784313725492 L481 186.6666666666667 L482 184.26470588235293 L483 184.60784313725492 L484 186.6666666666667 L485 188.72549019607845 L486 188.0392156862745 L487 188.0392156862745 L488 190.0980392156863 L489 190.44117647058823 L490 191.12745098039215 L491 191.12745098039215 L492 191.8137254901961 L493 191.47058823529412 L494 192.49999999999997 L495 189.7549019607843 L496 188.72549019607845 L497 188.0392156862745 L498 187.35294117647058 L499 183.578431372549 L500 185.63725490196077" stroke = "red"  stroke-width = "4" fill = "none" />
<path d = "M0 437.5 L1 437.5 L2 437.5 L3 437.5 L4 437.5 L5 437.5 L6 437.5 L7 437.5 L8 437.5 L9 437.5 L10 437.5 L11 437.5 L12 437.5 L13 437.5 L14 437.5 L15 437.5 L16 437.5 L17 437.5 L18 437.5 L19 437.5 L20 437.5 L21 437.5 L22 437.5 L23 437.5 L24 437.5 L25 437.5 L26 437.5 L27 437.5 L28 437.5 L29 437.5 L30 437.5 L31 437.5 L32 437.5 L33 437.5 L34 437.5 L35 437.5 L36 437.5 L37 437.5 L38 437.5 L39 437.5 L40 437.5 L41 437.5 L42 427.20588235294116 L43 432.3529411764706 L44 434.0686274509804 L45 437.5 L46 437.5 L47 437.5 L48 437.5 L49 437.5 L50 437.5 L51 437.5 L52 437.5 L53 437.5 L54 437.5 L55 437.5 L56 437.5 L57 437.5 L58 437.5 L59 437.5 L60 437.5 L61 437.5 L62 437.5 L63 437.5 L64 437.5 L65 437.5 L66 437.5 L67 437.5 L68 437.5 L69 437.5 L70 437.5 L71 437.5 L72 437.5 L73 437.5 L74 437.5 L75 437.5 L76 437.5 L77 437.5 L78 437.5 L79 437.5 L80 432.3529411764706 L81 430.6372549019608 L82 420.343137254902 L83 423.77450980392155 L84 401.47058823529414 L85 406.61764705882354 L86 398.03921568627453 L87 403.1862745098039 L88 398.03921568627453 L89 408.3333333333333 L90 431.6666666666667 L91 403.87254901960785 L92 407.30392156862746 L93 398.38235294117646 L94 406.61764705882354 L95 377.1078431372549 L96 383.62745098039215 L97 387.7450980392157 L98 410.3921568627451 L99 394.95098039215685 L100 407.6470588235294 L101 433.38235294117646 L102 437.5 L103 437.5 L104 437.5 L105 437.5 L106 437.5 L107 432.3529411764706 L108 423.77450980392155 L109 405.2450980392157 L110 408.3333333333333 L111 427.54901960784315 L112 427.8921568627451 L113 396.6666666666667 L114 423.77450980392155 L115 437.5 L116 437.5 L117 437.5 L118 405.2450980392157 L119 380.19607843137254 L120 335.9313725490196 L121 376.421568627451 L122 359.95098039215685 L123 382.2549019607843 L124 420.343137254902 L125 436.12745098039215 L126 437.5 L127 419.3137254901961 L128 393.2352941176471 L129 404.9019607843137 L130 391.8627450980392 L131 418.62745098039215 L132 413.48039215686276 L133 408.3333333333333 L134 391.51960784313724 L135 425.8333333333333 L136 437.5 L137 437.5 L138 433.03921568627453 L139 412.45098039215685 L140 363.0392156862745 L141 370.9313725490196 L142 389.46078431372547 L143 391.51960784313724 L144 416.9117647058824 L145 437.15686274509807 L146 437.5 L147 427.20588235294116 L148 381.22549019607845 L149 382.94117647058823 L150 372.6470588235294 L151 396.6666666666667 L152 384.3137254901961 L153 372.6470588235294 L154 385.6862745098039 L155 422.4019607843137 L156 437.5 L157 437.5 L158 436.8137254901961 L159 408.6764705882353 L160 375.04901960784315 L161 356.51960784313724 L162 394.6078431372549 L163 381.5686274509804 L164 405.2450980392157 L165 435.0980392156863 L166 437.5 L167 433.38235294117646 L168 378.48039215686276 L169 383.28431372549016 L170 371.96078431372547 L171 379.5098039215686 L172 409.01960784313724 L173 375.3921568627451 L174 369.9019607843137 L175 386.7156862745098 L176 405.2450980392157 L177 386.7156862745098 L178 359.6078431372549 L179 353.0882352941176 L180 378.48039215686276 L181 360.98039215686276 L182 394.6078431372549 L183 379.1666666666667 L184 402.5 L185 409.3627450980392 L186 416.5686274509804 L187 435.0980392156863 L188 359.95098039215685 L189 343.8235294117647 L190 362.3529411764706 L191 364.7549019607843 L192 382.5980392156863 L193 359.6078431372549 L194 355.8333333333333 L195 357.2058823529412 L196 391.8627450980392 L197 433.72549019607845 L198 437.5 L199 404.21568627450984 L200 383.28431372549016 L201 347.94117647058823 L202 352.7450980392157 L203 374.70588235294116 L204 353.4313725490196 L205 391.1764705882353 L206 422.7450980392157 L207 433.38235294117646 L208 398.38235294117646 L209 337.30392156862746 L210 346.22549019607845 L211 362.0098039215686 L212 347.2549019607843 L213 368.1862745098039 L214 339.3627450980392 L215 337.9901960784314 L216 367.843137254902 L217 414.5098039215686 L218 437.15686274509807 L219 431.6666666666667 L220 370.2450980392157 L221 363.0392156862745 L222 325.6372549019608 L223 360.98039215686276 L224 355.4901960784314 L225 377.79411764705884 L226 409.3627450980392 L227 425.8333333333333 L228 434.0686274509804 L229 350.6862745098039 L230 353.4313725490196 L231 355.1470588235294 L232 340.3921568627451 L233 360.2941176470588 L234 352.05882352941177 L235 350.343137254902 L236 355.1470588235294 L237 400.7843137254902 L238 436.12745098039215 L239 430.98039215686276 L240 402.5 L241 374.3627450980392 L242 336.27450980392155 L243 347.94117647058823 L244 351.71568627450984 L245 360.6372549019608 L246 402.5 L247 430.98039215686276 L248 429.2647058823529 L249 388.4313725490196 L250 340.04901960784315 L251 348.28431372549016 L252 346.5686274509804 L253 364.7549019607843 L254 367.156862745098 L255 348.97058823529414 L256 344.1666666666667 L257 375.7352941176471 L258 379.5098039215686 L259 362.3529411764706 L260 346.9117647058823 L261 345.19607843137254 L262 336.27450980392155 L263 339.70588235294116 L264 369.9019607843137 L265 360.6372549019608 L266 377.1078431372549 L267 415.53921568627453 L268 436.47058823529414 L269 437.5 L270 436.47058823529414 L271 432.69607843137254 L272 394.6078431372549 L273 357.2058823529412 L274 401.12745098039215 L275 436.47058823529414 L276 437.5 L277 437.5 L278 437.5 L279 437.5 L280 437.5 L281 436.8137254901961 L282 413.1372549019608 L283 356.1764705882353 L284 387.7450980392157 L285 433.72549019607845 L286 437.5 L287 437.5 L288 425.1470588235294 L289 427.54901960784315 L290 399.7549019607843 L291 369.9019607843137 L292 352.7450980392157 L293 321.51960784313724 L294 346.22549019607845 L295 382.94117647058823 L296 403.87254901960785 L297 417.5980392156863 L298 434.0686274509804 L299 433.38235294117646 L300 421.37254901960785 L301 371.27450980392155 L302 364.4117647058824 L303 320.4901960784314 L304 342.1078431372549 L305 395.6372549019608 L306 436.12745098039215 L307 422.4019607843137 L308 413.1372549019608 L309 393.921568627451 L310 395.98039215686276 L311 356.8627450980392 L312 368.1862745098039 L313 334.21568627450984 L314 328.03921568627453 L315 363.72549019607845 L316 390.4901960784314 L317 395.29411764705884 L318 410.7352941176471 L319 417.94117647058823 L320 437.15686274509807 L321 408.3333333333333 L322 364.7549019607843 L323 352.05882352941177 L324 337.30392156862746 L325 376.7647058823529 L326 422.4019607843137 L327 437.5 L328 436.47058823529414 L329 403.87254901960785 L330 405.2450980392157 L331 382.5980392156863 L332 385.343137254902 L333 366.12745098039215 L334 332.156862745098 L335 354.80392156862746 L336 387.4019607843137 L337 397.0098039215686 L338 408.6764705882353 L339 415.88235294117646 L340 359.95098039215685 L341 365.0980392156863 L342 326.3235294117647 L343 343.8235294117647 L344 324.2647058823529 L345 344.5098039215686 L346 397.3529411764706 L347 436.47058823529414 L348 430.29411764705884 L349 402.843137254902 L350 397.3529411764706 L351 389.11764705882354 L352 357.8921568627451 L353 362.3529411764706 L354 344.8529411764706 L355 359.6078431372549 L356 384.656862745098 L357 368.1862745098039 L358 345.5392156862745 L359 365.0980392156863 L360 390.8333333333333 L361 407.30392156862746 L362 372.6470588235294 L363 357.2058823529412 L364 358.578431372549 L365 341.078431372549 L366 365.44117647058823 L367 369.9019607843137 L368 387.05882352941177 L369 389.11764705882354 L370 386.7156862745098 L371 402.5 L372 364.7549019607843 L373 361.66666666666663 L374 366.12745098039215 L375 365.7843137254902 L376 383.28431372549016 L377 371.96078431372547 L378 351.71568627450984 L379 352.05882352941177 L380 382.94117647058823 L381 418.2843137254902 L382 396.6666666666667 L383 374.70588235294116 L384 372.30392156862746 L385 345.19607843137254 L386 354.11764705882354 L387 371.61764705882354 L388 382.94117647058823 L389 381.5686274509804 L390 394.6078431372549 L391 419.3137254901961 L392 395.98039215686276 L393 368.52941176470586 L394 368.1862745098039 L395 352.7450980392157 L396 367.843137254902 L397 376.7647058823529 L398 367.5 L399 363.72549019607845 L400 382.5980392156863 L401 416.9117647058824 L402 421.37254901960785 L403 379.5098039215686 L404 366.47058823529414 L405 365.44117647058823 L406 360.6372549019608 L407 386.37254901960785 L408 375.3921568627451 L409 381.9117647058824 L410 382.5980392156863 L411 390.4901960784314 L412 379.8529411764706 L413 353.77450980392155 L414 353.0882352941176 L415 350.343137254902 L416 340.7352941176471 L417 365.44117647058823 L418 354.4607843137255 L419 353.0882352941176 L420 370.9313725490196 L421 396.6666666666667 L422 381.5686274509804 L423 353.77450980392155 L424 348.28431372549016 L425 340.7352941176471 L426 347.5980392156863 L427 327.0098039215686 L428 330.0980392156863 L429 349.656862745098 L430 369.55882352941177 L431 382.5980392156863 L432 398.38235294117646 L433 389.46078431372547 L434 399.7549019607843 L435 402.843137254902 L436 362.0098039215686 L437 369.55882352941177 L438 381.9117647058824 L439 404.21568627450984 L440 427.54901960784315 L441 391.8627450980392 L442 394.2647058823529 L443 392.54901960784315 L444 378.48039215686276 L445 388.0882352941176 L446 355.8333333333333 L447 366.8137254901961 L448 369.21568627450984 L449 360.2941176470588 L450 382.5980392156863 L451 395.29411764705884 L452 396.3235294117647 L453 407.6470588235294 L454 378.8235294117647 L455 388.4313725490196 L456 377.79411764705884 L457 379.8529411764706 L458 390.4901960784314 L459 386.02941176470586 L460 382.5980392156863 L461 395.6372549019608 L462 408.6764705882353 L463 417.2549019607843 L464 387.05882352941177 L465 369.9019607843137 L466 351.71568627450984 L467 343.48039215686276 L468 349.3137254901961 L469 364.0686274509804 L470 391.8627450980392 L471 395.98039215686276 L472 392.54901960784315 L473 378.8235294117647 L474 381.5686274509804 L475 367.843137254902 L476 362.0098039215686 L477 362.3529411764706 L478 379.1666666666667 L479 364.0686274509804 L480 369.9019607843137 L481 365.44117647058823 L482 367.843137254902 L483 403.87254901960785 L484 397.69607843137254 L485 385.343137254902 L486 360.2941176470588 L487 324.6078431372549 L488 339.01960784313724 L489 357.2058823529412 L490 369.9019607843137 L491 381.9117647058824 L492 370.9313725490196 L493 375.04901960784315 L494 374.01960784313724 L495 364.4117647058824 L496 365.7843137254902 L497 350.343137254902 L498 352.7450980392157 L499 371.27450980392155 L500 367.156862745098" stroke = "green"  stroke-width = "4" fill = "none" />
<path d = "M0 437.5 L1 437.5 L2 437.5 L3 437.5 L4 437.5 L5 437.5 L6 437.5 L7 437.5 L8 437.5 L9 437.5 L10 437.5 L11 437.5 L12 437.5 L13 437.5 L14 437.5 L15 437.5 L16 437.5 L17 437.5 L18 437.5 L19 437.5 L20 437.5 L21 437.5 L22 437.5 L23 437.5 L24 437.5 L25 437.5 L26 437.5 L27 437.5 L28 437.5 L29 437.5 L30 437.5 L31 437.5 L32 437.5 L33 437.5 L34 437.5 L35 437.5 L36 437.5 L37 437.5 L38 437.5 L39 437.5 L40 437.5 L41 437.5 L42 437.5 L43 437.5 L44 437.5 L45 437.5 L46 437.5 L47 437.5 L48 437.5 L49 437.5 L50 437.5 L51 437.5 L52 437.5 L53 437.5 L54 437.5 L55 437.5 L56 427.20588235294116 L57 413.48039215686276 L58 406.61764705882354 L59 415.19607843137254 L60 423.77450980392155 L61 423.77450980392155 L62 430.6372549019608 L63 432.3529411764706 L64 437.5 L65 437.5 L66 437.5 L67 437.5 L68 437.5 L69 434.0686274509804 L70 392.8921568627451 L71 387.7450980392157 L72 384.3137254901961 L73 375.7352941176471 L74 360.2941176470588 L75 365.44117647058823 L76 363.72549019607845 L77 372.30392156862746 L78 379.1666666666667 L79 365.44117647058823 L80 362.0098039215686 L81 355.1470588235294 L82 363.72549019607845 L83 374.01960784313724 L84 380.88235294117646 L85 391.1764705882353 L86 396.3235294117647 L87 406.61764705882354 L88 399.7549019607843 L89 386.02941176470586 L90 424.46078431372547 L91 376.078431372549 L92 402.5 L93 390.4901960784314 L94 368.52941176470586 L95 336.61764705882354 L96 347.2549019607843 L97 357.2058823529412 L98 352.7450980392157 L99 357.54901960784315 L100 397.3529411764706 L101 436.12745098039215 L102 437.5 L103 437.5 L104 437.5 L105 437.5 L106 437.5 L107 437.5 L108 437.5 L109 429.95098039215685 L110 437.5 L111 437.5 L112 437.5 L113 437.5 L114 437.5 L115 437.5 L116 437.5 L117 437.5 L118 437.5 L119 404.21568627450984 L120 414.5098039215686 L121 437.5 L122 437.5 L123 437.5 L124 437.5 L125 437.5 L126 437.5 L127 437.5 L128 437.5 L129 436.8137254901961 L130 437.5 L131 437.5 L132 437.5 L133 437.5 L134 437.5 L135 437.5 L136 437.5 L137 437.5 L138 437.5 L139 430.98039215686276 L140 403.87254901960785 L141 431.6666666666667 L142 437.5 L143 437.5 L144 437.5 L145 437.5 L146 437.5 L147 437.5 L148 437.5 L149 437.5 L150 437.5 L151 437.5 L152 437.5 L153 437.5 L154 437.5 L155 437.5 L156 437.5 L157 437.5 L158 437.5 L159 437.5 L160 427.8921568627451 L161 437.5 L162 437.5 L163 437.5 L164 437.5 L165 437.5 L166 437.5 L167 437.5 L168 437.5 L169 437.5 L170 415.19607843137254 L171 421.02941176470586 L172 437.5 L173 437.5 L174 437.5 L175 437.5 L176 429.95098039215685 L177 434.0686274509804 L178 427.54901960784315 L179 434.4117647058824 L180 433.38235294117646 L181 435.0980392156863 L182 437.5 L183 437.5 L184 437.5 L185 435.44117647058823 L186 437.5 L187 437.5 L188 437.5 L189 436.8137254901961 L190 430.6372549019608 L191 421.71568627450984 L192 435.44117647058823 L193 437.5 L194 437.5 L195 437.5 L196 437.5 L197 437.5 L198 437.5 L199 437.5 L200 432.3529411764706 L201 413.48039215686276 L202 430.6372549019608 L203 427.54901960784315 L204 423.4313725490196 L205 437.5 L206 437.5 L207 437.5 L208 421.02941176470586 L209 402.843137254902 L210 431.3235294117647 L211 400.7843137254902 L212 414.8529411764706 L213 433.38235294117646 L214 435.44117647058823 L215 437.5 L216 437.5 L217 437.5 L218 437.5 L219 437.5 L220 437.5 L221 422.4019607843137 L222 416.9117647058824 L223 437.5 L224 431.6666666666667 L225 435.0980392156863 L226 435.7843137254902 L227 437.5 L228 437.5 L229 437.5 L230 437.5 L231 422.7450980392157 L232 412.45098039215685 L233 434.4117647058824 L234 429.95098039215685 L235 437.5 L236 437.5 L237 437.5 L238 437.5 L239 437.5 L240 437.5 L241 433.38235294117646 L242 412.1078431372549 L243 431.3235294117647 L244 428.921568627451 L245 430.98039215686276 L246 437.5 L247 437.5 L248 437.5 L249 431.3235294117647 L250 423.4313725490196 L251 430.6372549019608 L252 378.8235294117647 L253 408.6764705882353 L254 425.4901960784314 L255 431.6666666666667 L256 437.5 L257 437.5 L258 421.37254901960785 L259 421.71568627450984 L260 410.3921568627451 L261 429.2647058823529 L262 402.5 L263 420.6862745098039 L264 430.6372549019608 L265 434.0686274509804 L266 423.77450980392155 L267 398.38235294117646 L268 410.7352941176471 L269 429.95098039215685 L270 396.3235294117647 L271 389.11764705882354 L272 372.9901960784314 L273 395.6372549019608 L274 387.05882352941177 L275 362.0098039215686 L276 353.4313725490196 L277 346.5686274509804 L278 338.6764705882353 L279 351.71568627450984 L280 351.02941176470586 L281 342.7941176470588 L282 350.343137254902 L283 353.77450980392155 L284 399.0686274509804 L285 436.8137254901961 L286 437.5 L287 437.5 L288 406.96078431372547 L289 426.8627450980392 L290 398.72549019607845 L291 374.3627450980392 L292 355.8333333333333 L293 358.921568627451 L294 370.5882352941176 L295 361.66666666666663 L296 347.5980392156863 L297 347.5980392156863 L298 330.44117647058823 L299 330.44117647058823 L300 331.8137254901961 L301 325.98039215686276 L302 336.27450980392155 L303 323.92156862745094 L304 346.22549019607845 L305 398.72549019607845 L306 436.47058823529414 L307 407.30392156862746 L308 392.20588235294116 L309 399.0686274509804 L310 411.421568627451 L311 371.61764705882354 L312 354.11764705882354 L313 345.88235294117646 L314 370.9313725490196 L315 366.12745098039215 L316 346.5686274509804 L317 360.6372549019608 L318 340.7352941176471 L319 332.5 L320 334.55882352941177 L321 332.843137254902 L322 333.87254901960785 L323 338.33333333333337 L324 340.04901960784315 L325 380.88235294117646 L326 423.4313725490196 L327 437.5 L328 428.578431372549 L329 401.8137254901961 L330 419.3137254901961 L331 400.44117647058823 L332 361.66666666666663 L333 348.62745098039215 L334 354.4607843137255 L335 358.921568627451 L336 356.1764705882353 L337 354.80392156862746 L338 354.80392156862746 L339 327.69607843137254 L340 328.38235294117646 L341 346.9117647058823 L342 337.30392156862746 L343 349.656862745098 L344 334.9019607843137 L345 364.4117647058824 L346 416.5686274509804 L347 437.5 L348 414.1666666666667 L349 408.3333333333333 L350 426.1764705882353 L351 417.5980392156863 L352 409.3627450980392 L353 430.29411764705884 L354 363.38235294117646 L355 382.5980392156863 L356 416.22549019607845 L357 433.03921568627453 L358 437.5 L359 437.5 L360 437.5 L361 437.5 L362 430.6372549019608 L363 436.47058823529414 L364 388.0882352941176 L365 397.0098039215686 L366 427.54901960784315 L367 414.8529411764706 L368 436.8137254901961 L369 437.5 L370 431.6666666666667 L371 436.12745098039215 L372 408.3333333333333 L373 415.53921568627453 L374 414.8529411764706 L375 392.20588235294116 L376 424.46078431372547 L377 420.6862745098039 L378 429.95098039215685 L379 437.5 L380 437.5 L381 437.5 L382 418.2843137254902 L383 431.6666666666667 L384 424.46078431372547 L385 407.30392156862746 L386 427.54901960784315 L387 427.20588235294116 L388 437.5 L389 401.8137254901961 L390 416.5686274509804 L391 433.72549019607845 L392 431.6666666666667 L393 425.8333333333333 L394 436.8137254901961 L395 390.8333333333333 L396 410.7352941176471 L397 432.3529411764706 L398 437.5 L399 437.5 L400 437.5 L401 437.5 L402 437.5 L403 437.5 L404 437.5 L405 406.27450980392155 L406 407.6470588235294 L407 431.6666666666667 L408 427.20588235294116 L409 437.5 L410 437.15686274509807 L411 429.6078431372549 L412 432.69607843137254 L413 423.77450980392155 L414 431.6666666666667 L415 398.38235294117646 L416 383.28431372549016 L417 412.79411764705884 L418 427.20588235294116 L419 437.5 L420 437.5 L421 429.6078431372549 L422 411.7647058823529 L423 379.8529411764706 L424 409.3627450980392 L425 381.9117647058824 L426 351.37254901960785 L427 361.3235294117647 L428 380.19607843137254 L429 372.9901960784314 L430 379.8529411764706 L431 402.5 L432 401.8137254901961 L433 377.45098039215685 L434 374.01960784313724 L435 389.80392156862746 L436 383.28431372549016 L437 370.2450980392157 L438 385.343137254902 L439 392.8921568627451 L440 367.843137254902 L441 399.7549019607843 L442 428.921568627451 L443 431.6666666666667 L444 382.5980392156863 L445 393.578431372549 L446 368.87254901960785 L447 357.8921568627451 L448 362.69607843137254 L449 350.6862745098039 L450 380.5392156862745 L451 417.5980392156863 L452 423.0882352941176 L453 392.8921568627451 L454 375.7352941176471 L455 359.6078431372549 L456 358.578431372549 L457 383.28431372549016 L458 401.8137254901961 L459 382.94117647058823 L460 385 L461 394.95098039215685 L462 405.5882352941176 L463 436.8137254901961 L464 416.9117647058824 L465 395.6372549019608 L466 390.8333333333333 L467 395.6372549019608 L468 422.4019607843137 L469 427.20588235294116 L470 415.19607843137254 L471 414.1666666666667 L472 425.1470588235294 L473 422.4019607843137 L474 402.843137254902 L475 381.9117647058824 L476 381.9117647058824 L477 387.4019607843137 L478 419.3137254901961 L479 420.6862745098039 L480 426.51960784313724 L481 405.2450980392157 L482 386.7156862745098 L483 426.1764705882353 L484 430.98039215686276 L485 407.30392156862746 L486 389.46078431372547 L487 374.3627450980392 L488 369.21568627450984 L489 378.48039215686276 L490 385.6862745098039 L491 411.078431372549 L492 404.55882352941177 L493 397.69607843137254 L494 387.05882352941177 L495 371.27450980392155 L496 386.02941176470586 L497 375.7352941176471 L498 374.3627450980392 L499 396.3235294117647 L500 416.5686274509804" stroke = "blue"  stroke-width = "4" fill = "none" />
<path d = "M0 437.5 L1 437.5 L2 437.5 L3 437.5 L4 437.5 L5 437.5 L6 437.5 L7 437.5 L8 437.5 L9 437.5 L10 437.5 L11 437.5 L12 437.5 L13 437.5 L14 437.5 L15 437.5 L16 437.5 L17 437.5 L18 437.5 L19 437.5 L20 437.5 L21 437.5 L22 437.5 L23 437.5 L24 437.5 L25 437.5 L26 437.5 L27 437.5 L28 437.5 L29 437.5 L30 437.5 L31 437.5 L32 437.5 L33 437.5 L34 437.5 L35 437.5 L36 437.5 L37 437.5 L38 437.5 L39 437.5 L40 437.5 L41 437.5 L42 437.5 L43 437.5 L44 437.5 L45 437.5 L46 437.5 L47 437.5 L48 437.5 L49 437.5 L50 437.5 L51 437.5 L52 437.5 L53 437.5 L54 437.5 L55 437.5 L56 415.19607843137254 L57 408.3333333333333 L58 399.7549019607843 L59 403.1862745098039 L60 413.48039215686276 L61 411.7647058823529 L62 415.19607843137254 L63 427.20588235294116 L64 434.0686274509804 L65 437.5 L66 437.5 L67 406.61764705882354 L68 404.9019607843137 L69 408.3333333333333 L70 401.47058823529414 L71 384.3137254901961 L72 372.30392156862746 L73 370.5882352941176 L74 353.4313725490196 L75 348.28431372549016 L76 339.70588235294116 L77 343.1372549019608 L78 353.4313725490196 L79 358.578431372549 L80 367.156862745098 L81 370.5882352941176 L82 379.1666666666667 L83 368.87254901960785 L84 353.4313725490196 L85 358.578431372549 L86 355.1470588235294 L87 348.28431372549016 L88 348.28431372549016 L89 350 L90 420 L91 348.97058823529414 L92 351.37254901960785 L93 345.5392156862745 L94 349.656862745098 L95 351.37254901960785 L96 353.77450980392155 L97 381.22549019607845 L98 380.88235294117646 L99 398.72549019607845 L100 393.2352941176471 L101 424.80392156862746 L102 437.5 L103 437.5 L104 437.5 L105 437.5 L106 437.5 L107 437.5 L108 437.5 L109 437.5 L110 437.5 L111 437.5 L112 437.5 L113 437.5 L114 437.5 L115 437.5 L116 437.5 L117 437.5 L118 437.5 L119 437.5 L120 437.5 L121 437.5 L122 437.5 L123 437.5 L124 437.5 L125 437.5 L126 437.5 L127 437.5 L128 437.5 L129 437.5 L130 435.44117647058823 L131 437.5 L132 437.5 L133 437.5 L134 437.5 L135 437.5 L136 437.5 L137 437.5 L138 437.5 L139 436.12745098039215 L140 416.9117647058824 L141 431.6666666666667 L142 437.5 L143 437.5 L144 437.5 L145 437.5 L146 437.5 L147 437.5 L148 437.5 L149 437.5 L150 437.5 L151 437.5 L152 433.03921568627453 L153 437.5 L154 437.5 L155 437.5 L156 437.5 L157 437.5 L158 437.5 L159 437.5 L160 420.343137254902 L161 434.7549019607843 L162 437.5 L163 436.8137254901961 L164 437.5 L165 437.5 L166 437.5 L167 437.5 L168 437.5 L169 437.5 L170 437.15686274509807 L171 437.5 L172 437.5 L173 437.5 L174 437.5 L175 437.5 L176 437.5 L177 437.5 L178 437.5 L179 437.5 L180 437.5 L181 437.5 L182 437.5 L183 437.5 L184 437.5 L185 437.5 L186 437.5 L187 437.5 L188 437.15686274509807 L189 437.5 L190 437.5 L191 437.5 L192 437.5 L193 434.7549019607843 L194 437.5 L195 437.5 L196 437.5 L197 437.5 L198 437.5 L199 437.5 L200 437.5 L201 436.8137254901961 L202 437.5 L203 436.47058823529414 L204 437.15686274509807 L205 437.5 L206 437.5 L207 437.5 L208 435.44117647058823 L209 436.12745098039215 L210 437.5 L211 437.5 L212 437.5 L213 437.5 L214 436.47058823529414 L215 437.5 L216 437.5 L217 437.5 L218 437.5 L219 437.5 L220 437.5 L221 437.5 L222 437.5 L223 437.5 L224 437.5 L225 437.5 L226 437.5 L227 437.5 L228 437.5 L229 435.44117647058823 L230 437.5 L231 437.5 L232 437.5 L233 437.5 L234 437.5 L235 437.5 L236 437.5 L237 437.5 L238 437.5 L239 437.5 L240 437.5 L241 437.5 L242 437.5 L243 437.5 L244 437.5 L245 437.5 L246 437.5 L247 437.5 L248 437.5 L249 431.6666666666667 L250 434.0686274509804 L251 437.5 L252 437.5 L253 437.5 L254 430.29411764705884 L255 434.4117647058824 L256 437.5 L257 437.5 L258 436.12745098039215 L259 437.5 L260 437.5 L261 437.5 L262 437.5 L263 437.5 L264 437.15686274509807 L265 428.921568627451 L266 437.5 L267 431.6666666666667 L268 419.656862745098 L269 434.7549019607843 L270 402.5 L271 373.3333333333333 L272 348.97058823529414 L273 362.69607843137254 L274 367.843137254902 L275 366.47058823529414 L276 364.0686274509804 L277 356.8627450980392 L278 341.421568627451 L279 347.5980392156863 L280 352.7450980392157 L281 359.2647058823529 L282 364.0686274509804 L283 358.2352941176471 L284 387.7450980392157 L285 433.72549019607845 L286 437.5 L287 436.8137254901961 L288 381.9117647058824 L289 392.8921568627451 L290 399.7549019607843 L291 379.5098039215686 L292 362.69607843137254 L293 363.0392156862745 L294 376.078431372549 L295 348.28431372549016 L296 347.94117647058823 L297 350.6862745098039 L298 350.6862745098039 L299 359.2647058823529 L300 356.1764705882353 L301 368.1862745098039 L302 360.6372549019608 L303 361.3235294117647 L304 376.421568627451 L305 417.94117647058823 L306 437.5 L307 437.5 L308 417.94117647058823 L309 400.44117647058823 L310 402.5 L311 381.22549019607845 L312 374.01960784313724 L313 356.1764705882353 L314 357.54901960784315 L315 352.05882352941177 L316 345.88235294117646 L317 351.02941176470586 L318 355.4901960784314 L319 358.921568627451 L320 351.37254901960785 L321 365.44117647058823 L322 358.578431372549 L323 359.95098039215685 L324 368.1862745098039 L325 400.44117647058823 L326 434.7549019607843 L327 437.5 L328 429.6078431372549 L329 394.6078431372549 L330 402.156862745098 L331 378.1372549019608 L332 377.1078431372549 L333 382.94117647058823 L334 369.9019607843137 L335 375.7352941176471 L336 346.9117647058823 L337 341.7647058823529 L338 343.8235294117647 L339 359.6078431372549 L340 366.47058823529414 L341 363.38235294117646 L342 368.52941176470586 L343 358.578431372549 L344 359.2647058823529 L345 379.8529411764706 L346 425.8333333333333 L347 437.5 L348 437.5 L349 437.5 L350 437.5 L351 433.03921568627453 L352 428.2352941176471 L353 437.5 L354 436.8137254901961 L355 437.5 L356 432.0098039215686 L357 429.95098039215685 L358 437.5 L359 437.5 L360 437.5 L361 437.5 L362 437.5 L363 437.5 L364 437.5 L365 437.5 L366 437.5 L367 430.6372549019608 L368 437.5 L369 437.5 L370 437.5 L371 434.7549019607843 L372 403.1862745098039 L373 427.20588235294116 L374 437.5 L375 437.5 L376 437.5 L377 437.15686274509807 L378 436.12745098039215 L379 437.5 L380 437.5 L381 437.5 L382 433.72549019607845 L383 437.5 L384 437.5 L385 435.0980392156863 L386 435.44117647058823 L387 437.5 L388 437.5 L389 437.5 L390 437.5 L391 437.5 L392 429.95098039215685 L393 430.6372549019608 L394 437.5 L395 437.5 L396 437.5 L397 424.11764705882354 L398 428.2352941176471 L399 437.5 L400 437.5 L401 437.5 L402 437.5 L403 437.5 L404 437.5 L405 434.7549019607843 L406 437.5 L407 437.5 L408 437.5 L409 437.5 L410 437.5 L411 437.5 L412 437.5 L413 423.77450980392155 L414 437.5 L415 437.5 L416 437.5 L417 434.7549019607843 L418 430.98039215686276 L419 437.5 L420 437.5 L421 436.8137254901961 L422 436.47058823529414 L423 431.3235294117647 L424 429.2647058823529 L425 416.9117647058824 L426 391.51960784313724 L427 408.6764705882353 L428 423.4313725490196 L429 434.0686274509804 L430 437.15686274509807 L431 437.5 L432 437.5 L433 435.44117647058823 L434 426.8627450980392 L435 435.7843137254902 L436 436.47058823529414 L437 437.5 L438 437.5 L439 429.6078431372549 L440 436.47058823529414 L441 437.5 L442 437.5 L443 437.5 L444 436.12745098039215 L445 429.95098039215685 L446 418.2843137254902 L447 422.7450980392157 L448 416.22549019607845 L449 385 L450 415.88235294117646 L451 435.0980392156863 L452 437.5 L453 437.5 L454 437.5 L455 437.5 L456 437.5 L457 437.5 L458 437.5 L459 437.5 L460 437.5 L461 437.5 L462 437.5 L463 437.5 L464 437.5 L465 437.5 L466 435.44117647058823 L467 435.7843137254902 L468 434.4117647058824 L469 430.98039215686276 L470 434.4117647058824 L471 434.7549019607843 L472 432.3529411764706 L473 433.38235294117646 L474 436.47058823529414 L475 435.7843137254902 L476 431.3235294117647 L477 435.7843137254902 L478 425.1470588235294 L479 421.37254901960785 L480 429.2647058823529 L481 437.5 L482 437.5 L483 437.5 L484 435.7843137254902 L485 434.7549019607843 L486 437.5 L487 437.5 L488 437.5 L489 424.80392156862746 L490 421.71568627450984 L491 437.5 L492 437.5 L493 425.1470588235294 L494 429.95098039215685 L495 417.2549019607843 L496 433.38235294117646 L497 437.5 L498 437.5 L499 437.5 L500 437.5" stroke = "purple"  stroke-width = "4" fill = "none" />
</svg>