<svg width="1440" height="438" viewbox = "0 0 1440 438"  xmlns="http://www.w3.org/2000/svg">
<!--<json>{"starttime":1741660112,"startdate":"Mon Mar 10 2025 20:28:32 GMT-0600 (Mountain Daylight Time)","f1":1000,"f2":2000,"f3":3000,"f4":4000,"notes":"this is just a test run of some random noise, this is not real data but what is real data? what makes data more real?\nwhat even is real?","p1":[0,0,0,0,0,4.8,10.9,47.6,135.3,142.4,142,1143,144,143,143,143,143,143,143,143,143,143,143,143,144,144,144,143,143,143,143,143,143,142,142,142,142,142,142,142,142,142,142,142,142,142,142,142,142,142,142,142,142,142,143,143,143,143,142,142,142,142,145,146,146,145,146,146,146,145,146,145,144,144,144,143,144,143,143,143,143,143,143,142,142,142,143,143,143,142,142,142,142,143,143,142,141,142,142,142,142,142,142,142,142,142,142,142,143,142,142,142,142,142,144,143,141,142,142,142,142,142,142,142,143,143,143,143,143,143,142,142,142,142,143,143,143,143,143,143,143,143,143,143,143,143,144,144,144,143,143,143,143,143,143,142,136,130,124,117,110,104,117,123,127,130,133,136,138,139,140,142,143,143,144,145,145,146,146,147,146,147,147,147,148,148,148,149,149,149,149,149,148,148,148,149,149,150,150,150,150],"p2":[0,0,0,0,0,4.1,13.8,14.6,14.4,43.6,10.9,281,62,69,65,62,57,53,55,49,43,37,31,24,28,22,18,26,20,14,10,5,8,14,8,3,0,0,3,18,14,11,29,25,41,35,29,22,16,10,4,0,0,0,0,0,0,0,0,0,0,0,0,0,0,34,29,32,28,26,29,30,23,24,21,16,11,8,6,10,30,31,34,57,58,54,48,41,35,30,70,85,82,81,77,73,69,71,67,64,57,51,53,67,63,59,53,53,68,65,66,60,53,51,47,42,36,29,22,15,9,3,2,4,14,17,28,25,22,16,12,40,50,43,58,66,65,61,54,49,45,43,53,49,49,53,70,70,71,67,61,55,53,56,66,63,57,50,77,76,75,71,64,70,67,63,58,51,44,37,30,25,33,29,25,32,35,34,56,61,59,67,73,71,65,71,67,66,60,53,59,58,63,81,79,74,72,67,62,56,54],"p3":[0,0,0,0,0,0,0,0,19.4,46,43.2,354,47,46,53,47,40,39,38,33,28,21,15,8,2,0,0,0,0,0,0,0,0,12,13,8,3,0,38,32,26,20,26,23,19,13,6,0,1,0,0,0,0,0,0,0,0,0,0,0,0,0,0,0,0,0,0,0,0,0,18,13,10,4,2,0,11,54,49,43,37,33,27,31,37,33,26,20,13,6,2,0,1,2,4,3,23,30,25,20,13,6,4,1,0,0,0,0,0,0,0,0,0,0,0,3,0,0,0,0,0,0,0,0,0,0,0,0,0,0,0,0,0,0,12,20,26,23,17,11,18,48,44,42,36,33,33,27,29,23,16,23,27,37,32,26,20,13,31,34,31,25,19,14,16,41,36,31,25,19,12,8,4,0,0,0,0,13,45,45,42,37,49,45,43,48,55,54,49,42,39,51,58,62,60,57,52,46,40,33,26],"p4":[0,0,0,0,0,0,0,0,12.3,6.1,7.2,67,23,29,23,18,20,18,13,13,12,8,2,4,0,0,0,0,0,0,0,0,0,0,0,0,0,0,0,0,0,0,0,0,0,0,0,0,0,0,0,0,0,0,0,0,0,0,0,0,0,0,0,0,0,0,0,0,0,0,0,0,0,0,0,0,0,0,0,0,0,0,0,1,7,6,2,0,0,0,0,0,0,0,0,0,0,0,0,0,0,0,0,0,0,0,0,0,0,0,0,0,0,0,0,0,0,0,0,0,0,0,0,0,0,0,0,0,0,0,0,0,0,0,0,0,4,0,0,0,0,0,0,0,0,0,0,0,0,0,0,0,0,0,0,0,0,0,0,0,0,0,0,0,0,0,0,0,0,0,0,0,0,0,0,0,0,0,58,52,46,40,38,33,28,27,32,33,27,20,14,8,1,0,0,0,0,0,0,0,0],"timeseconds":[0.7000000476837158,1,1.4000000953674316,1.7000000476837158,2,2.4000000953674316,2.799999952316284,3.0999999046325684,3.4000000953674316,3.799999952316284,4.099999904632568,4.400000095367432,4.400000095367432,4.5,4.5,4.5,4.599999904632568,4.599999904632568,4.599999904632568,4.700000047683716,4.700000047683716,4.700000047683716,4.799999952316284,4.799999952316284,4.799999952316284,4.900000095367432,4.900000095367432,4.900000095367432,5,5,5,5.099999904632568,5.099999904632568,5.099999904632568,5.200000047683716,5.200000047683716,5.200000047683716,5.299999952316284,5.299999952316284,5.299999952316284,5.400000095367432,5.400000095367432,5.400000095367432,5.5,5.5,5.5,5.599999904632568,5.599999904632568,5.599999904632568,5.700000047683716,5.700000047683716,5.700000047683716,5.799999952316284,5.799999952316284,5.799999952316284,5.900000095367432,5.900000095367432,5.900000095367432,6,6,6,6.099999904632568,6.099999904632568,6.099999904632568,6.200000047683716,6.200000047683716,6.200000047683716,6.299999952316284,6.299999952316284,6.299999952316284,6.400000095367432,6.400000095367432,6.400000095367432,6.5,6.5,6.5,6.599999904632568,6.599999904632568,6.599999904632568,6.700000047683716,6.700000047683716,6.700000047683716,6.799999952316284,6.799999952316284,6.799999952316284,6.900000095367432,6.900000095367432,6.900000095367432,7,7,7,7.099999904632568,7.099999904632568,7.099999904632568,7.200000047683716,7.200000047683716,7.200000047683716,7.299999952316284,7.299999952316284,7.299999952316284,7.400000095367432,7.400000095367432,7.400000095367432,7.5,7.5,7.5,7.599999904632568,7.599999904632568,7.599999904632568,7.700000047683716,7.700000047683716,7.700000047683716,7.799999952316284,7.799999952316284,7.799999952316284,7.900000095367432,7.900000095367432,7.900000095367432,8,8,8,8.099999904632568,8.099999904632568,8.099999904632568,8.200000047683716,8.200000047683716,8.200000047683716,8.299999952316284,8.299999952316284,8.299999952316284,8.400000095367432,8.400000095367432,8.400000095367432,8.5,8.5,8.5,8.599999904632568,8.599999904632568,8.599999904632568,8.700000047683716,8.700000047683716,8.700000047683716,8.799999952316284,8.799999952316284,8.799999952316284,8.900000095367432,8.900000095367432,8.900000095367432,9,9,9,9.099999904632568,9.099999904632568,9.099999904632568,9.200000047683716,9.200000047683716,9.200000047683716,9.299999952316284,9.299999952316284,9.299999952316284,9.400000095367432,9.400000095367432,9.400000095367432,9.5,9.5,9.5,9.599999904632568,9.599999904632568,9.599999904632568,9.700000047683716,9.700000047683716,9.700000047683716,9.799999952316284,9.799999952316284,9.799999952316284,9.900000095367432,9.900000095367432,9.900000095367432,10,10,10,10.099999904632568,10.099999904632568,10.099999904632568,10.200000047683716,10.200000047683716,10.200000047683716,10.299999952316284,10.299999952316284,10.299999952316284,10.400000095367432,10.400000095367432,10.400000095367432,10.5,10.5,10.5,10.599999904632568,10.599999904632568,10.599999904632568,10.700000047683716,10.700000047683716]}</json>-->
<path d = "M0 437.5 L1 437.5 L2 437.5 L3 437.5 L4 437.5 L5 429.2647058823529 L6 418.79901960784315 L7 355.8333333333333 L8 205.3676470588235 L9 193.1862745098039 L10 193.87254901960785 L11 -1523.5294117647059 L12 190.44117647058823 L13 192.15686274509804 L14 192.15686274509804 L15 192.15686274509804 L16 192.15686274509804 L17 192.15686274509804 L18 192.15686274509804 L19 192.15686274509804 L20 192.15686274509804 L21 192.15686274509804 L22 192.15686274509804 L23 192.15686274509804 L24 190.44117647058823 L25 190.44117647058823 L26 190.44117647058823 L27 192.15686274509804 L28 192.15686274509804 L29 192.15686274509804 L30 192.15686274509804 L31 192.15686274509804 L32 192.15686274509804 L33 193.87254901960785 L34 193.87254901960785 L35 193.87254901960785 L36 193.87254901960785 L37 193.87254901960785 L38 193.87254901960785 L39 193.87254901960785 L40 193.87254901960785 L41 193.87254901960785 L42 193.87254901960785 L43 193.87254901960785 L44 193.87254901960785 L45 193.87254901960785 L46 193.87254901960785 L47 193.87254901960785 L48 193.87254901960785 L49 193.87254901960785 L50 193.87254901960785 L51 193.87254901960785 L52 193.87254901960785 L53 193.87254901960785 L54 192.15686274509804 L55 192.15686274509804 L56 192.15686274509804 L57 192.15686274509804 L58 193.87254901960785 L59 193.87254901960785 L60 193.87254901960785 L61 193.87254901960785 L62 188.72549019607845 L63 187.00980392156865 L64 187.00980392156865 L65 188.72549019607845 L66 187.00980392156865 L67 187.00980392156865 L68 187.00980392156865 L69 188.72549019607845 L70 187.00980392156865 L71 188.72549019607845 L72 190.44117647058823 L73 190.44117647058823 L74 190.44117647058823 L75 192.15686274509804 L76 190.44117647058823 L77 192.15686274509804 L78 192.15686274509804 L79 192.15686274509804 L80 192.15686274509804 L81 192.15686274509804 L82 192.15686274509804 L83 193.87254901960785 L84 193.87254901960785 L85 193.87254901960785 L86 192.15686274509804 L87 192.15686274509804 L88 192.15686274509804 L89 193.87254901960785 L90 193.87254901960785 L91 193.87254901960785 L92 193.87254901960785 L93 192.15686274509804 L94 192.15686274509804 L95 193.87254901960785 L96 195.58823529411762 L97 193.87254901960785 L98 193.87254901960785 L99 193.87254901960785 L100 193.87254901960785 L101 193.87254901960785 L102 193.87254901960785 L103 193.87254901960785 L104 193.87254901960785 L105 193.87254901960785 L106 193.87254901960785 L107 193.87254901960785 L108 192.15686274509804 L109 193.87254901960785 L110 193.87254901960785 L111 193.87254901960785 L112 193.87254901960785 L113 193.87254901960785 L114 190.44117647058823 L115 192.15686274509804 L116 195.58823529411762 L117 193.87254901960785 L118 193.87254901960785 L119 193.87254901960785 L120 193.87254901960785 L121 193.87254901960785 L122 193.87254901960785 L123 193.87254901960785 L124 192.15686274509804 L125 192.15686274509804 L126 192.15686274509804 L127 192.15686274509804 L128 192.15686274509804 L129 192.15686274509804 L130 193.87254901960785 L131 193.87254901960785 L132 193.87254901960785 L133 193.87254901960785 L134 192.15686274509804 L135 192.15686274509804 L136 192.15686274509804 L137 192.15686274509804 L138 192.15686274509804 L139 192.15686274509804 L140 192.15686274509804 L141 192.15686274509804 L142 192.15686274509804 L143 192.15686274509804 L144 192.15686274509804 L145 192.15686274509804 L146 190.44117647058823 L147 190.44117647058823 L148 190.44117647058823 L149 192.15686274509804 L150 192.15686274509804 L151 192.15686274509804 L152 192.15686274509804 L153 192.15686274509804 L154 192.15686274509804 L155 193.87254901960785 L156 204.16666666666666 L157 214.4607843137255 L158 224.7549019607843 L159 236.76470588235296 L160 248.77450980392155 L161 259.0686274509804 L162 236.76470588235296 L163 226.47058823529412 L164 219.6078431372549 L165 214.4607843137255 L166 209.31372549019608 L167 204.16666666666666 L168 200.73529411764707 L169 199.01960784313727 L170 197.30392156862743 L171 193.87254901960785 L172 192.15686274509804 L173 192.15686274509804 L174 190.44117647058823 L175 188.72549019607845 L176 188.72549019607845 L177 187.00980392156865 L178 187.00980392156865 L179 185.29411764705884 L180 187.00980392156865 L181 185.29411764705884 L182 185.29411764705884 L183 185.29411764705884 L184 183.578431372549 L185 183.578431372549 L186 183.578431372549 L187 181.8627450980392 L188 181.8627450980392 L189 181.8627450980392 L190 181.8627450980392 L191 181.8627450980392 L192 183.578431372549 L193 183.578431372549 L194 183.578431372549 L195 181.8627450980392 L196 181.8627450980392 L197 180.1470588235294 L198 180.1470588235294 L199 180.1470588235294 L200 180.1470588235294" stroke = "red"  stroke-width = "4" fill = "none" />
<path d = "M0 437.5 L1 437.5 L2 437.5 L3 437.5 L4 437.5 L5 430.4656862745098 L6 413.8235294117647 L7 412.45098039215685 L8 412.79411764705884 L9 362.69607843137254 L10 418.79901960784315 L11 -44.60784313725492 L12 331.12745098039215 L13 319.11764705882354 L14 325.98039215686276 L15 331.12745098039215 L16 339.70588235294116 L17 346.5686274509804 L18 343.1372549019608 L19 353.4313725490196 L20 363.72549019607845 L21 374.01960784313724 L22 384.3137254901961 L23 396.3235294117647 L24 389.46078431372547 L25 399.7549019607843 L26 406.61764705882354 L27 392.8921568627451 L28 403.1862745098039 L29 413.48039215686276 L30 420.343137254902 L31 428.921568627451 L32 423.77450980392155 L33 413.48039215686276 L34 423.77450980392155 L35 432.3529411764706 L36 437.5 L37 437.5 L38 432.3529411764706 L39 406.61764705882354 L40 413.48039215686276 L41 418.62745098039215 L42 387.7450980392157 L43 394.6078431372549 L44 367.156862745098 L45 377.45098039215685 L46 387.7450980392157 L47 399.7549019607843 L48 410.04901960784315 L49 420.343137254902 L50 430.6372549019608 L51 437.5 L52 437.5 L53 437.5 L54 437.5 L55 437.5 L56 437.5 L57 437.5 L58 437.5 L59 437.5 L60 437.5 L61 437.5 L62 437.5 L63 437.5 L64 437.5 L65 379.1666666666667 L66 387.7450980392157 L67 382.5980392156863 L68 389.46078431372547 L69 392.8921568627451 L70 387.7450980392157 L71 386.02941176470586 L72 398.03921568627453 L73 396.3235294117647 L74 401.47058823529414 L75 410.04901960784315 L76 418.62745098039215 L77 423.77450980392155 L78 427.20588235294116 L79 420.343137254902 L80 386.02941176470586 L81 384.3137254901961 L82 379.1666666666667 L83 339.70588235294116 L84 337.9901960784314 L85 344.8529411764706 L86 355.1470588235294 L87 367.156862745098 L88 377.45098039215685 L89 386.02941176470586 L90 317.4019607843137 L91 291.6666666666667 L92 296.8137254901961 L93 298.52941176470586 L94 305.3921568627451 L95 312.2549019607843 L96 319.11764705882354 L97 315.6862745098039 L98 322.54901960784315 L99 327.69607843137254 L100 339.70588235294116 L101 350 L102 346.5686274509804 L103 322.54901960784315 L104 329.4117647058823 L105 336.27450980392155 L106 346.5686274509804 L107 346.5686274509804 L108 320.8333333333333 L109 325.98039215686276 L110 324.2647058823529 L111 334.55882352941177 L112 346.5686274509804 L113 350 L114 356.8627450980392 L115 365.44117647058823 L116 375.7352941176471 L117 387.7450980392157 L118 399.7549019607843 L119 411.7647058823529 L120 422.05882352941177 L121 432.3529411764706 L122 434.0686274509804 L123 430.6372549019608 L124 413.48039215686276 L125 408.3333333333333 L126 389.46078431372547 L127 394.6078431372549 L128 399.7549019607843 L129 410.04901960784315 L130 416.9117647058824 L131 368.87254901960785 L132 351.71568627450984 L133 363.72549019607845 L134 337.9901960784314 L135 324.2647058823529 L136 325.98039215686276 L137 332.843137254902 L138 344.8529411764706 L139 353.4313725490196 L140 360.2941176470588 L141 363.72549019607845 L142 346.5686274509804 L143 353.4313725490196 L144 353.4313725490196 L145 346.5686274509804 L146 317.4019607843137 L147 317.4019607843137 L148 315.6862745098039 L149 322.54901960784315 L150 332.843137254902 L151 343.1372549019608 L152 346.5686274509804 L153 341.421568627451 L154 324.2647058823529 L155 329.4117647058823 L156 339.70588235294116 L157 351.71568627450984 L158 305.3921568627451 L159 307.1078431372549 L160 308.8235294117647 L161 315.6862745098039 L162 327.69607843137254 L163 317.4019607843137 L164 322.54901960784315 L165 329.4117647058823 L166 337.9901960784314 L167 350 L168 362.0098039215686 L169 374.01960784313724 L170 386.02941176470586 L171 394.6078431372549 L172 380.88235294117646 L173 387.7450980392157 L174 394.6078431372549 L175 382.5980392156863 L176 377.45098039215685 L177 379.1666666666667 L178 341.421568627451 L179 332.843137254902 L180 336.27450980392155 L181 322.54901960784315 L182 312.2549019607843 L183 315.6862745098039 L184 325.98039215686276 L185 315.6862745098039 L186 322.54901960784315 L187 324.2647058823529 L188 334.55882352941177 L189 346.5686274509804 L190 336.27450980392155 L191 337.9901960784314 L192 329.4117647058823 L193 298.52941176470586 L194 301.9607843137255 L195 310.5392156862745 L196 313.97058823529414 L197 322.54901960784315 L198 331.12745098039215 L199 341.421568627451 L200 344.8529411764706" stroke = "green"  stroke-width = "4" fill = "none" />
<path d = "M0 437.5 L1 437.5 L2 437.5 L3 437.5 L4 437.5 L5 437.5 L6 437.5 L7 437.5 L8 404.21568627450984 L9 358.578431372549 L10 363.38235294117646 L11 -169.8529411764706 L12 356.8627450980392 L13 358.578431372549 L14 346.5686274509804 L15 356.8627450980392 L16 368.87254901960785 L17 370.5882352941176 L18 372.30392156862746 L19 380.88235294117646 L20 389.46078431372547 L21 401.47058823529414 L22 411.7647058823529 L23 423.77450980392155 L24 434.0686274509804 L25 437.5 L26 437.5 L27 437.5 L28 437.5 L29 437.5 L30 437.5 L31 437.5 L32 437.5 L33 416.9117647058824 L34 415.19607843137254 L35 423.77450980392155 L36 432.3529411764706 L37 437.5 L38 372.30392156862746 L39 382.5980392156863 L40 392.8921568627451 L41 403.1862745098039 L42 392.8921568627451 L43 398.03921568627453 L44 404.9019607843137 L45 415.19607843137254 L46 427.20588235294116 L47 437.5 L48 435.7843137254902 L49 437.5 L50 437.5 L51 437.5 L52 437.5 L53 437.5 L54 437.5 L55 437.5 L56 437.5 L57 437.5 L58 437.5 L59 437.5 L60 437.5 L61 437.5 L62 437.5 L63 437.5 L64 437.5 L65 437.5 L66 437.5 L67 437.5 L68 437.5 L69 437.5 L70 406.61764705882354 L71 415.19607843137254 L72 420.343137254902 L73 430.6372549019608 L74 434.0686274509804 L75 437.5 L76 418.62745098039215 L77 344.8529411764706 L78 353.4313725490196 L79 363.72549019607845 L80 374.01960784313724 L81 380.88235294117646 L82 391.1764705882353 L83 384.3137254901961 L84 374.01960784313724 L85 380.88235294117646 L86 392.8921568627451 L87 403.1862745098039 L88 415.19607843137254 L89 427.20588235294116 L90 434.0686274509804 L91 437.5 L92 435.7843137254902 L93 434.0686274509804 L94 430.6372549019608 L95 432.3529411764706 L96 398.03921568627453 L97 386.02941176470586 L98 394.6078431372549 L99 403.1862745098039 L100 415.19607843137254 L101 427.20588235294116 L102 430.6372549019608 L103 435.7843137254902 L104 437.5 L105 437.5 L106 437.5 L107 437.5 L108 437.5 L109 437.5 L110 437.5 L111 437.5 L112 437.5 L113 437.5 L114 437.5 L115 432.3529411764706 L116 437.5 L117 437.5 L118 437.5 L119 437.5 L120 437.5 L121 437.5 L122 437.5 L123 437.5 L124 437.5 L125 437.5 L126 437.5 L127 437.5 L128 437.5 L129 437.5 L130 437.5 L131 437.5 L132 437.5 L133 437.5 L134 416.9117647058824 L135 403.1862745098039 L136 392.8921568627451 L137 398.03921568627453 L138 408.3333333333333 L139 418.62745098039215 L140 406.61764705882354 L141 355.1470588235294 L142 362.0098039215686 L143 365.44117647058823 L144 375.7352941176471 L145 380.88235294117646 L146 380.88235294117646 L147 391.1764705882353 L148 387.7450980392157 L149 398.03921568627453 L150 410.04901960784315 L151 398.03921568627453 L152 391.1764705882353 L153 374.01960784313724 L154 382.5980392156863 L155 392.8921568627451 L156 403.1862745098039 L157 415.19607843137254 L158 384.3137254901961 L159 379.1666666666667 L160 384.3137254901961 L161 394.6078431372549 L162 404.9019607843137 L163 413.48039215686276 L164 410.04901960784315 L165 367.156862745098 L166 375.7352941176471 L167 384.3137254901961 L168 394.6078431372549 L169 404.9019607843137 L170 416.9117647058824 L171 423.77450980392155 L172 430.6372549019608 L173 437.5 L174 437.5 L175 437.5 L176 437.5 L177 415.19607843137254 L178 360.2941176470588 L179 360.2941176470588 L180 365.44117647058823 L181 374.01960784313724 L182 353.4313725490196 L183 360.2941176470588 L184 363.72549019607845 L185 355.1470588235294 L186 343.1372549019608 L187 344.8529411764706 L188 353.4313725490196 L189 365.44117647058823 L190 370.5882352941176 L191 350 L192 337.9901960784314 L193 331.12745098039215 L194 334.55882352941177 L195 339.70588235294116 L196 348.28431372549016 L197 358.578431372549 L198 368.87254901960785 L199 380.88235294117646 L200 392.8921568627451" stroke = "blue"  stroke-width = "4" fill = "none" />
<path d = "M0 437.5 L1 437.5 L2 437.5 L3 437.5 L4 437.5 L5 437.5 L6 437.5 L7 437.5 L8 416.3970588235294 L9 427.0343137254902 L10 425.1470588235294 L11 322.54901960784315 L12 398.03921568627453 L13 387.7450980392157 L14 398.03921568627453 L15 406.61764705882354 L16 403.1862745098039 L17 406.61764705882354 L18 415.19607843137254 L19 415.19607843137254 L20 416.9117647058824 L21 423.77450980392155 L22 434.0686274509804 L23 430.6372549019608 L24 437.5 L25 437.5 L26 437.5 L27 437.5 L28 437.5 L29 437.5 L30 437.5 L31 437.5 L32 437.5 L33 437.5 L34 437.5 L35 437.5 L36 437.5 L37 437.5 L38 437.5 L39 437.5 L40 437.5 L41 437.5 L42 437.5 L43 437.5 L44 437.5 L45 437.5 L46 437.5 L47 437.5 L48 437.5 L49 437.5 L50 437.5 L51 437.5 L52 437.5 L53 437.5 L54 437.5 L55 437.5 L56 437.5 L57 437.5 L58 437.5 L59 437.5 L60 437.5 L61 437.5 L62 437.5 L63 437.5 L64 437.5 L65 437.5 L66 437.5 L67 437.5 L68 437.5 L69 437.5 L70 437.5 L71 437.5 L72 437.5 L73 437.5 L74 437.5 L75 437.5 L76 437.5 L77 437.5 L78 437.5 L79 437.5 L80 437.5 L81 437.5 L82 437.5 L83 435.7843137254902 L84 425.4901960784314 L85 427.20588235294116 L86 434.0686274509804 L87 437.5 L88 437.5 L89 437.5 L90 437.5 L91 437.5 L92 437.5 L93 437.5 L94 437.5 L95 437.5 L96 437.5 L97 437.5 L98 437.5 L99 437.5 L100 437.5 L101 437.5 L102 437.5 L103 437.5 L104 437.5 L105 437.5 L106 437.5 L107 437.5 L108 437.5 L109 437.5 L110 437.5 L111 437.5 L112 437.5 L113 437.5 L114 437.5 L115 437.5 L116 437.5 L117 437.5 L118 437.5 L119 437.5 L120 437.5 L121 437.5 L122 437.5 L123 437.5 L124 437.5 L125 437.5 L126 437.5 L127 437.5 L128 437.5 L129 437.5 L130 437.5 L131 437.5 L132 437.5 L133 437.5 L134 437.5 L135 437.5 L136 430.6372549019608 L137 437.5 L138 437.5 L139 437.5 L140 437.5 L141 437.5 L142 437.5 L143 437.5 L144 437.5 L145 437.5 L146 437.5 L147 437.5 L148 437.5 L149 437.5 L150 437.5 L151 437.5 L152 437.5 L153 437.5 L154 437.5 L155 437.5 L156 437.5 L157 437.5 L158 437.5 L159 437.5 L160 437.5 L161 437.5 L162 437.5 L163 437.5 L164 437.5 L165 437.5 L166 437.5 L167 437.5 L168 437.5 L169 437.5 L170 437.5 L171 437.5 L172 437.5 L173 437.5 L174 437.5 L175 437.5 L176 437.5 L177 437.5 L178 337.9901960784314 L179 348.28431372549016 L180 358.578431372549 L181 368.87254901960785 L182 372.30392156862746 L183 380.88235294117646 L184 389.46078431372547 L185 391.1764705882353 L186 382.5980392156863 L187 380.88235294117646 L188 391.1764705882353 L189 403.1862745098039 L190 413.48039215686276 L191 423.77450980392155 L192 435.7843137254902 L193 437.5 L194 437.5 L195 437.5 L196 437.5 L197 437.5 L198 437.5 L199 437.5 L200 437.5" stroke = "purple"  stroke-width = "4" fill = "none" />
</svg>