<svg width="200" height="438" viewbox = "0 0 200 438"  xmlns="http://www.w3.org/2000/svg">
<!--<json>{"starttime":1741660177,"startdate":"Mon Mar 10 2025 20:29:37 GMT-0600 (Mountain Daylight Time)","f1":1000,"f2":2000,"f3":3000,"f4":4000,"notes":"this is just a test run of some random noise, this is not real data but what is real data? what makes data more real?\nwhat even is real?","p1":[0,0,0,0,0,0,0,0,0,0,0,0,0,0,0,0,0,0,0,0,0,0,0,0,0,0,0,0,0,0,0,0,0,0,0,0,0,0,0,0,0,0,0,0,0,0,10,25,57,60,62,61,57,51,47,40,34,30,28,22,18,13,20,30,35,37,32,34,29,24,27,22,15,10,5,5,9,7,16,19,13,17,24,30,28,25,21,22,27,28,23,21,15,18,36,40,43,39,34,29,23,17,17,11,11,12,23,37,35,33,27,22,18,12,19,32,27,23,20,16,17,16,20,14,19,35,32,29,22,16,11,5,0,0,0,0,66,69,63,67,86,102,113,120,124,125,128,130,131,133,134,135,136,137,138,139,139,140,141,141,142,142,143,143,143,143,143,143,143,143,144,144,144,144,145,145,145,145,145,145,145,145,145,145,145,145,145,145,145,145,145,145,145,145,145,145,145,145,145,144,145],"p2":[0,0,0,0,0,0,0,0,0,0,0,0,0,0,0,0,0,0,0,0,0,0,0,0,0,0,0,0,0,0,0,0,0,0,0,0,0,0,0,0,0,0,0,0,0,0,7,3,6,4,1,0,0,0,0,0,0,0,0,0,0,0,0,0,0,0,0,0,0,2,4,10,13,8,5,5,2,0,0,0,0,0,45,44,40,34,27,21,15,9,2,1,1,1,8,15,21,17,11,6,10,8,3,3,0,0,2,3,0,0,0,0,0,0,0,0,0,0,0,0,0,0,0,0,0,0,0,0,0,0,0,0,0,0,0,0,0,0,0,0,0,0,0,0,0,32,50,47,42,36,32,29,32,35,34,36,38,43,50,44,38,32,27,30,25,22,19,32,32,25,27,34,29,25,25,66,67,66,62,55,49,44,38,36,38,38,33,27,21,15,40,39,34,28,29,44,38,34,35,43,39],"p3":[0,0,0,0,0,0,0,0,0,0,0,0,0,0,0,0,0,0,0,0,0,0,0,0,0,0,0,0,0,0,0,0,0,0,0,0,0,0,0,0,0,0,0,0,0,0,0,0,0,0,0,0,0,0,0,0,0,0,0,0,0,0,0,0,0,0,0,0,0,0,0,0,0,0,0,0,0,0,0,0,0,0,0,16,11,5,0,0,0,0,0,0,0,0,0,0,0,0,0,0,0,0,0,0,0,0,0,0,6,22,21,17,12,6,2,0,0,0,0,0,22,20,17,16,15,21,16,9,5,0,0,0,0,0,0,0,0,0,0,0,0,0,0,0,0,0,0,0,0,0,0,0,0,0,0,0,0,0,0,0,0,0,0,0,0,0,0,0,0,0,0,0,2,2,46,44,39,32,26,20,13,6,0,0,0,0,0,0,0,0,0,0,0,0,0,0,0,0,0,0,0],"p4":[0,0,0,0,0,0,0,0,0,0,0,0,0,0,0,0,0,0,0,0,0,0,0,0,0,0,0,0,0,0,0,0,0,0,0,0,0,0,0,0,0,0,0,0,0,9,5,0,0,0,0,0,0,0,0,0,0,0,0,0,0,0,0,0,0,0,0,0,0,0,0,8,6,0,0,0,0,0,0,0,0,0,0,0,0,0,0,0,0,0,0,0,0,0,0,0,0,0,0,0,0,0,0,0,0,0,0,0,0,0,0,0,0,0,0,0,0,0,0,0,0,0,0,0,0,0,0,0,0,0,0,0,0,0,0,0,0,0,0,0,0,0,0,0,0,0,0,0,0,0,0,0,0,0,0,0,0,0,0,0,0,0,0,0,0,0,0,0,0,0,0,0,6,9,8,2,0,0,0,0,0,0,0,0,0,0,0,0,0,0,0,0,0,0,0,0,0,0,0,0,0],"timeseconds":[0.9000000953674316,0.9000000953674316,1,1,1,1.0999999046325684,1.0999999046325684,1.0999999046325684,1.2000000476837158,1.2000000476837158,1.2000000476837158,1.2999999523162842,1.2999999523162842,1.2999999523162842,1.4000000953674316,1.4000000953674316,1.4000000953674316,1.5,1.5,1.5,1.5999999046325684,1.5999999046325684,1.5999999046325684,1.7000000476837158,1.7000000476837158,1.7000000476837158,1.7999999523162842,1.7999999523162842,1.7999999523162842,1.9000000953674316,1.9000000953674316,1.9000000953674316,2,2,2,2.0999999046325684,2.0999999046325684,2.0999999046325684,2.200000047683716,2.200000047683716,2.200000047683716,2.299999952316284,2.299999952316284,2.299999952316284,2.4000000953674316,2.4000000953674316,2.4000000953674316,2.5,2.5,2.5,2.5999999046325684,2.5999999046325684,2.5999999046325684,2.700000047683716,2.700000047683716,2.700000047683716,2.799999952316284,2.799999952316284,2.799999952316284,2.9000000953674316,2.9000000953674316,2.9000000953674316,3,3,3,3.0999999046325684,3.0999999046325684,3.0999999046325684,3.200000047683716,3.200000047683716,3.200000047683716,3.299999952316284,3.299999952316284,3.299999952316284,3.4000000953674316,3.4000000953674316,3.4000000953674316,3.5,3.5,3.5,3.5999999046325684,3.5999999046325684,3.5999999046325684,3.700000047683716,3.700000047683716,3.700000047683716,3.799999952316284,3.799999952316284,3.799999952316284,3.9000000953674316,3.9000000953674316,3.9000000953674316,4,4,4,4.099999904632568,4.099999904632568,4.099999904632568,4.200000047683716,4.200000047683716,4.200000047683716,4.299999952316284,4.299999952316284,4.299999952316284,4.400000095367432,4.400000095367432,4.400000095367432,4.5,4.5,4.5,4.599999904632568,4.599999904632568,4.599999904632568,4.700000047683716,4.700000047683716,4.700000047683716,4.799999952316284,4.799999952316284,4.799999952316284,4.900000095367432,4.900000095367432,4.900000095367432,5,5,5,5.099999904632568,5.099999904632568,5.099999904632568,5.200000047683716,5.200000047683716,5.200000047683716,5.299999952316284,5.299999952316284,5.299999952316284,5.400000095367432,5.400000095367432,5.400000095367432,5.5,5.5,5.5,5.599999904632568,5.599999904632568,5.599999904632568,5.700000047683716,5.700000047683716,5.700000047683716,5.799999952316284,5.799999952316284,5.799999952316284,5.900000095367432,5.900000095367432,5.900000095367432,6,6,6,6.099999904632568,6.099999904632568,6.099999904632568,6.200000047683716,6.200000047683716,6.200000047683716,6.299999952316284,6.299999952316284,6.299999952316284,6.400000095367432,6.400000095367432,6.400000095367432,6.5,6.5,6.5,6.599999904632568,6.599999904632568,6.599999904632568,6.700000047683716,6.700000047683716,6.700000047683716,6.799999952316284,6.799999952316284,6.799999952316284,6.900000095367432,6.900000095367432,6.900000095367432,7,7,7,7.099999904632568,7.099999904632568,7.099999904632568,7.200000047683716,7.200000047683716,7.200000047683716,7.299999952316284,7.299999952316284,7.299999952316284,7.400000095367432,7.400000095367432,7.400000095367432,7.5,7.5,7.5,7.599999904632568]}</json>-->
<path d = "M0 437.5 L1 437.5 L2 437.5 L3 437.5 L4 437.5 L5 437.5 L6 437.5 L7 437.5 L8 437.5 L9 437.5 L10 437.5 L11 437.5 L12 437.5 L13 437.5 L14 437.5 L15 437.5 L16 437.5 L17 437.5 L18 437.5 L19 437.5 L20 437.5 L21 437.5 L22 437.5 L23 437.5 L24 437.5 L25 437.5 L26 437.5 L27 437.5 L28 437.5 L29 437.5 L30 437.5 L31 437.5 L32 437.5 L33 437.5 L34 437.5 L35 437.5 L36 437.5 L37 437.5 L38 437.5 L39 437.5 L40 437.5 L41 437.5 L42 437.5 L43 437.5 L44 437.5 L45 437.5 L46 420.343137254902 L47 394.6078431372549 L48 339.70588235294116 L49 334.55882352941177 L50 331.12745098039215 L51 332.843137254902 L52 339.70588235294116 L53 350 L54 356.8627450980392 L55 368.87254901960785 L56 379.1666666666667 L57 386.02941176470586 L58 389.46078431372547 L59 399.7549019607843 L60 406.61764705882354 L61 415.19607843137254 L62 403.1862745098039 L63 386.02941176470586 L64 377.45098039215685 L65 374.01960784313724 L66 382.5980392156863 L67 379.1666666666667 L68 387.7450980392157 L69 396.3235294117647 L70 391.1764705882353 L71 399.7549019607843 L72 411.7647058823529 L73 420.343137254902 L74 428.921568627451 L75 428.921568627451 L76 422.05882352941177 L77 425.4901960784314 L78 410.04901960784315 L79 404.9019607843137 L80 415.19607843137254 L81 408.3333333333333 L82 396.3235294117647 L83 386.02941176470586 L84 389.46078431372547 L85 394.6078431372549 L86 401.47058823529414 L87 399.7549019607843 L88 391.1764705882353 L89 389.46078431372547 L90 398.03921568627453 L91 401.47058823529414 L92 411.7647058823529 L93 406.61764705882354 L94 375.7352941176471 L95 368.87254901960785 L96 363.72549019607845 L97 370.5882352941176 L98 379.1666666666667 L99 387.7450980392157 L100 398.03921568627453 L101 408.3333333333333 L102 408.3333333333333 L103 418.62745098039215 L104 418.62745098039215 L105 416.9117647058824 L106 398.03921568627453 L107 374.01960784313724 L108 377.45098039215685 L109 380.88235294117646 L110 391.1764705882353 L111 399.7549019607843 L112 406.61764705882354 L113 416.9117647058824 L114 404.9019607843137 L115 382.5980392156863 L116 391.1764705882353 L117 398.03921568627453 L118 403.1862745098039 L119 410.04901960784315 L120 408.3333333333333 L121 410.04901960784315 L122 403.1862745098039 L123 413.48039215686276 L124 404.9019607843137 L125 377.45098039215685 L126 382.5980392156863 L127 387.7450980392157 L128 399.7549019607843 L129 410.04901960784315 L130 418.62745098039215 L131 428.921568627451 L132 437.5 L133 437.5 L134 437.5 L135 437.5 L136 324.2647058823529 L137 319.11764705882354 L138 329.4117647058823 L139 322.54901960784315 L140 289.95098039215685 L141 262.5 L142 243.62745098039215 L143 231.61764705882354 L144 224.7549019607843 L145 223.03921568627453 L146 217.8921568627451 L147 214.4607843137255 L148 212.74509803921572 L149 209.31372549019608 L150 207.59803921568627 L151 205.88235294117646 L152 204.16666666666666 L153 202.45098039215688 L154 200.73529411764707 L155 199.01960784313727 L156 199.01960784313727 L157 197.30392156862743 L158 195.58823529411762 L159 195.58823529411762 L160 193.87254901960785 L161 193.87254901960785 L162 192.15686274509804 L163 192.15686274509804 L164 192.15686274509804 L165 192.15686274509804 L166 192.15686274509804 L167 192.15686274509804 L168 192.15686274509804 L169 192.15686274509804 L170 190.44117647058823 L171 190.44117647058823 L172 190.44117647058823 L173 190.44117647058823 L174 188.72549019607845 L175 188.72549019607845 L176 188.72549019607845 L177 188.72549019607845 L178 188.72549019607845 L179 188.72549019607845 L180 188.72549019607845 L181 188.72549019607845 L182 188.72549019607845 L183 188.72549019607845 L184 188.72549019607845 L185 188.72549019607845 L186 188.72549019607845 L187 188.72549019607845 L188 188.72549019607845 L189 188.72549019607845 L190 188.72549019607845 L191 188.72549019607845 L192 188.72549019607845 L193 188.72549019607845 L194 188.72549019607845 L195 188.72549019607845 L196 188.72549019607845 L197 188.72549019607845 L198 188.72549019607845 L199 190.44117647058823 L200 188.72549019607845" stroke = "red"  stroke-width = "4" fill = "none" />
<path d = "M0 437.5 L1 437.5 L2 437.5 L3 437.5 L4 437.5 L5 437.5 L6 437.5 L7 437.5 L8 437.5 L9 437.5 L10 437.5 L11 437.5 L12 437.5 L13 437.5 L14 437.5 L15 437.5 L16 437.5 L17 437.5 L18 437.5 L19 437.5 L20 437.5 L21 437.5 L22 437.5 L23 437.5 L24 437.5 L25 437.5 L26 437.5 L27 437.5 L28 437.5 L29 437.5 L30 437.5 L31 437.5 L32 437.5 L33 437.5 L34 437.5 L35 437.5 L36 437.5 L37 437.5 L38 437.5 L39 437.5 L40 437.5 L41 437.5 L42 437.5 L43 437.5 L44 437.5 L45 437.5 L46 425.4901960784314 L47 432.3529411764706 L48 427.20588235294116 L49 430.6372549019608 L50 435.7843137254902 L51 437.5 L52 437.5 L53 437.5 L54 437.5 L55 437.5 L56 437.5 L57 437.5 L58 437.5 L59 437.5 L60 437.5 L61 437.5 L62 437.5 L63 437.5 L64 437.5 L65 437.5 L66 437.5 L67 437.5 L68 437.5 L69 434.0686274509804 L70 430.6372549019608 L71 420.343137254902 L72 415.19607843137254 L73 423.77450980392155 L74 428.921568627451 L75 428.921568627451 L76 434.0686274509804 L77 437.5 L78 437.5 L79 437.5 L80 437.5 L81 437.5 L82 360.2941176470588 L83 362.0098039215686 L84 368.87254901960785 L85 379.1666666666667 L86 391.1764705882353 L87 401.47058823529414 L88 411.7647058823529 L89 422.05882352941177 L90 434.0686274509804 L91 435.7843137254902 L92 435.7843137254902 L93 435.7843137254902 L94 423.77450980392155 L95 411.7647058823529 L96 401.47058823529414 L97 408.3333333333333 L98 418.62745098039215 L99 427.20588235294116 L100 420.343137254902 L101 423.77450980392155 L102 432.3529411764706 L103 432.3529411764706 L104 437.5 L105 437.5 L106 434.0686274509804 L107 432.3529411764706 L108 437.5 L109 437.5 L110 437.5 L111 437.5 L112 437.5 L113 437.5 L114 437.5 L115 437.5 L116 437.5 L117 437.5 L118 437.5 L119 437.5 L120 437.5 L121 437.5 L122 437.5 L123 437.5 L124 437.5 L125 437.5 L126 437.5 L127 437.5 L128 437.5 L129 437.5 L130 437.5 L131 437.5 L132 437.5 L133 437.5 L134 437.5 L135 437.5 L136 437.5 L137 437.5 L138 437.5 L139 437.5 L140 437.5 L141 437.5 L142 437.5 L143 437.5 L144 437.5 L145 382.5980392156863 L146 351.71568627450984 L147 356.8627450980392 L148 365.44117647058823 L149 375.7352941176471 L150 382.5980392156863 L151 387.7450980392157 L152 382.5980392156863 L153 377.45098039215685 L154 379.1666666666667 L155 375.7352941176471 L156 372.30392156862746 L157 363.72549019607845 L158 351.71568627450984 L159 362.0098039215686 L160 372.30392156862746 L161 382.5980392156863 L162 391.1764705882353 L163 386.02941176470586 L164 394.6078431372549 L165 399.7549019607843 L166 404.9019607843137 L167 382.5980392156863 L168 382.5980392156863 L169 394.6078431372549 L170 391.1764705882353 L171 379.1666666666667 L172 387.7450980392157 L173 394.6078431372549 L174 394.6078431372549 L175 324.2647058823529 L176 322.54901960784315 L177 324.2647058823529 L178 331.12745098039215 L179 343.1372549019608 L180 353.4313725490196 L181 362.0098039215686 L182 372.30392156862746 L183 375.7352941176471 L184 372.30392156862746 L185 372.30392156862746 L186 380.88235294117646 L187 391.1764705882353 L188 401.47058823529414 L189 411.7647058823529 L190 368.87254901960785 L191 370.5882352941176 L192 379.1666666666667 L193 389.46078431372547 L194 387.7450980392157 L195 362.0098039215686 L196 372.30392156862746 L197 379.1666666666667 L198 377.45098039215685 L199 363.72549019607845 L200 370.5882352941176" stroke = "green"  stroke-width = "4" fill = "none" />
<path d = "M0 437.5 L1 437.5 L2 437.5 L3 437.5 L4 437.5 L5 437.5 L6 437.5 L7 437.5 L8 437.5 L9 437.5 L10 437.5 L11 437.5 L12 437.5 L13 437.5 L14 437.5 L15 437.5 L16 437.5 L17 437.5 L18 437.5 L19 437.5 L20 437.5 L21 437.5 L22 437.5 L23 437.5 L24 437.5 L25 437.5 L26 437.5 L27 437.5 L28 437.5 L29 437.5 L30 437.5 L31 437.5 L32 437.5 L33 437.5 L34 437.5 L35 437.5 L36 437.5 L37 437.5 L38 437.5 L39 437.5 L40 437.5 L41 437.5 L42 437.5 L43 437.5 L44 437.5 L45 437.5 L46 437.5 L47 437.5 L48 437.5 L49 437.5 L50 437.5 L51 437.5 L52 437.5 L53 437.5 L54 437.5 L55 437.5 L56 437.5 L57 437.5 L58 437.5 L59 437.5 L60 437.5 L61 437.5 L62 437.5 L63 437.5 L64 437.5 L65 437.5 L66 437.5 L67 437.5 L68 437.5 L69 437.5 L70 437.5 L71 437.5 L72 437.5 L73 437.5 L74 437.5 L75 437.5 L76 437.5 L77 437.5 L78 437.5 L79 437.5 L80 437.5 L81 437.5 L82 437.5 L83 410.04901960784315 L84 418.62745098039215 L85 428.921568627451 L86 437.5 L87 437.5 L88 437.5 L89 437.5 L90 437.5 L91 437.5 L92 437.5 L93 437.5 L94 437.5 L95 437.5 L96 437.5 L97 437.5 L98 437.5 L99 437.5 L100 437.5 L101 437.5 L102 437.5 L103 437.5 L104 437.5 L105 437.5 L106 437.5 L107 437.5 L108 427.20588235294116 L109 399.7549019607843 L110 401.47058823529414 L111 408.3333333333333 L112 416.9117647058824 L113 427.20588235294116 L114 434.0686274509804 L115 437.5 L116 437.5 L117 437.5 L118 437.5 L119 437.5 L120 399.7549019607843 L121 403.1862745098039 L122 408.3333333333333 L123 410.04901960784315 L124 411.7647058823529 L125 401.47058823529414 L126 410.04901960784315 L127 422.05882352941177 L128 428.921568627451 L129 437.5 L130 437.5 L131 437.5 L132 437.5 L133 437.5 L134 437.5 L135 437.5 L136 437.5 L137 437.5 L138 437.5 L139 437.5 L140 437.5 L141 437.5 L142 437.5 L143 437.5 L144 437.5 L145 437.5 L146 437.5 L147 437.5 L148 437.5 L149 437.5 L150 437.5 L151 437.5 L152 437.5 L153 437.5 L154 437.5 L155 437.5 L156 437.5 L157 437.5 L158 437.5 L159 437.5 L160 437.5 L161 437.5 L162 437.5 L163 437.5 L164 437.5 L165 437.5 L166 437.5 L167 437.5 L168 437.5 L169 437.5 L170 437.5 L171 437.5 L172 434.0686274509804 L173 434.0686274509804 L174 358.578431372549 L175 362.0098039215686 L176 370.5882352941176 L177 382.5980392156863 L178 392.8921568627451 L179 403.1862745098039 L180 415.19607843137254 L181 427.20588235294116 L182 437.5 L183 437.5 L184 437.5 L185 437.5 L186 437.5 L187 437.5 L188 437.5 L189 437.5 L190 437.5 L191 437.5 L192 437.5 L193 437.5 L194 437.5 L195 437.5 L196 437.5 L197 437.5 L198 437.5 L199 437.5 L200 437.5" stroke = "blue"  stroke-width = "4" fill = "none" />
<path d = "M0 437.5 L1 437.5 L2 437.5 L3 437.5 L4 437.5 L5 437.5 L6 437.5 L7 437.5 L8 437.5 L9 437.5 L10 437.5 L11 437.5 L12 437.5 L13 437.5 L14 437.5 L15 437.5 L16 437.5 L17 437.5 L18 437.5 L19 437.5 L20 437.5 L21 437.5 L22 437.5 L23 437.5 L24 437.5 L25 437.5 L26 437.5 L27 437.5 L28 437.5 L29 437.5 L30 437.5 L31 437.5 L32 437.5 L33 437.5 L34 437.5 L35 437.5 L36 437.5 L37 437.5 L38 437.5 L39 437.5 L40 437.5 L41 437.5 L42 437.5 L43 437.5 L44 437.5 L45 422.05882352941177 L46 428.921568627451 L47 437.5 L48 437.5 L49 437.5 L50 437.5 L51 437.5 L52 437.5 L53 437.5 L54 437.5 L55 437.5 L56 437.5 L57 437.5 L58 437.5 L59 437.5 L60 437.5 L61 437.5 L62 437.5 L63 437.5 L64 437.5 L65 437.5 L66 437.5 L67 437.5 L68 437.5 L69 437.5 L70 437.5 L71 423.77450980392155 L72 427.20588235294116 L73 437.5 L74 437.5 L75 437.5 L76 437.5 L77 437.5 L78 437.5 L79 437.5 L80 437.5 L81 437.5 L82 437.5 L83 437.5 L84 437.5 L85 437.5 L86 437.5 L87 437.5 L88 437.5 L89 437.5 L90 437.5 L91 437.5 L92 437.5 L93 437.5 L94 437.5 L95 437.5 L96 437.5 L97 437.5 L98 437.5 L99 437.5 L100 437.5 L101 437.5 L102 437.5 L103 437.5 L104 437.5 L105 437.5 L106 437.5 L107 437.5 L108 437.5 L109 437.5 L110 437.5 L111 437.5 L112 437.5 L113 437.5 L114 437.5 L115 437.5 L116 437.5 L117 437.5 L118 437.5 L119 437.5 L120 437.5 L121 437.5 L122 437.5 L123 437.5 L124 437.5 L125 437.5 L126 437.5 L127 437.5 L128 437.5 L129 437.5 L130 437.5 L131 437.5 L132 437.5 L133 437.5 L134 437.5 L135 437.5 L136 437.5 L137 437.5 L138 437.5 L139 437.5 L140 437.5 L141 437.5 L142 437.5 L143 437.5 L144 437.5 L145 437.5 L146 437.5 L147 437.5 L148 437.5 L149 437.5 L150 437.5 L151 437.5 L152 437.5 L153 437.5 L154 437.5 L155 437.5 L156 437.5 L157 437.5 L158 437.5 L159 437.5 L160 437.5 L161 437.5 L162 437.5 L163 437.5 L164 437.5 L165 437.5 L166 437.5 L167 437.5 L168 437.5 L169 437.5 L170 437.5 L171 437.5 L172 427.20588235294116 L173 422.05882352941177 L174 423.77450980392155 L175 434.0686274509804 L176 437.5 L177 437.5 L178 437.5 L179 437.5 L180 437.5 L181 437.5 L182 437.5 L183 437.5 L184 437.5 L185 437.5 L186 437.5 L187 437.5 L188 437.5 L189 437.5 L190 437.5 L191 437.5 L192 437.5 L193 437.5 L194 437.5 L195 437.5 L196 437.5 L197 437.5 L198 437.5 L199 437.5 L200 437.5" stroke = "purple"  stroke-width = "4" fill = "none" />
</svg>