<svg width="1440" height="438" viewbox = "0 0 1440 438"  xmlns="http://www.w3.org/2000/svg">
<!--<json>{"starttime":1741576968,"startdate":"Sun Mar 09 2025 21:22:48 GMT-0600 (Mountain Daylight Time)","f1":1000,"f2":2000,"f3":3000,"f4":4000,"notes":"experiment notes","p1":[52,52,52,52,52,52,52,53,53,52,52,52,52,52,52,51,51,51,52,52,52,51,52,52,52,52,52,52,51,51,51,52,52,52,52,52,52,52,52,51,52,52,52,52,52,50,52,52,52,52,52,52,52,52,52,52,51,51,51,51,52,51,51,51,51,51,51,51,51,51,51,51,51,51,51,51,51,51,51,51,51,52,52,52,52,52,51,52,52,52,51,51,51,51,51,51,51,51,52,51,51,51,51,51,51,51,51,52,52,52,52,52,52,52,52,52,52,52,52,52,52,52,52,53,52,53,53,53,54,54,53,53,53,52,53,53,52,52,52,52,52,52,52,52,51,51,51,52,51,52,51,52,52,52,52,51,52,52,52,52,51,51,51,51,51,51,51,51,51,51,51,51,51,51,51,52,52,52,51,51,51,51,51,51,50,50,51,51,51,51,51,50,51,51,51,51,52,52,52,52,52],"p2":[0,0,0,0,0,0,0,0,0,0,0,0,0,0,0,0,0,0,0,0,0,0,0,0,0,0,0,0,13,19,17,11,4,0,0,0,0,0,0,0,0,0,0,0,0,7,9,6,0,0,4,1,0,0,0,0,0,0,0,0,0,0,0,0,0,0,0,0,0,0,0,0,0,0,0,0,0,0,0,0,0,0,0,0,0,0,0,10,8,8,3,1,2,0,0,0,0,0,0,0,0,0,0,0,0,0,0,0,0,0,0,0,0,0,0,0,0,0,0,0,0,0,0,0,0,1,0,0,0,0,0,0,0,0,0,0,0,0,0,0,9,10,5,1,0,0,0,0,1,0,9,12,7,6,17,11,14,13,12,12,10,5,7,6,7,15,19,15,15,19,24,25,26,27,30,26,25,25,30,26,33,30,29,26,39,39,38,41,35,29,31,30,34,35,42,45,53,48,44,43,45],"p3":[0,0,0,0,0,0,0,0,0,0,0,0,0,0,0,0,0,0,0,0,0,0,0,0,0,0,0,0,0,0,0,0,0,0,0,0,0,0,0,0,0,0,0,0,0,0,0,0,0,0,0,0,0,0,0,0,0,0,0,0,0,0,0,0,0,0,0,0,0,0,0,0,0,0,0,0,0,0,0,0,0,0,0,0,0,0,0,0,0,0,0,0,0,0,0,0,0,0,0,0,0,0,0,0,0,0,0,0,0,0,0,0,0,0,0,0,0,0,0,0,0,0,0,0,0,0,0,0,0,0,0,0,0,0,0,0,0,0,0,0,0,0,0,0,0,0,0,0,0,0,0,0,0,0,0,0,0,0,0,0,0,0,0,0,0,0,0,0,0,0,0,0,0,0,0,0,7,3,0,0,0,0,0,0,0,0,0,0,0,0,0,3,16,17,14,14,8,4,6,12,8],"p4":[0,0,0,0,0,0,0,18,17,14,8,2,0,0,0,0,0,0,0,0,0,0,0,0,0,0,0,0,0,19,17,11,4,0,0,0,0,0,0,0,0,0,0,0,0,0,0,0,0,0,0,0,0,0,0,0,0,0,0,0,0,0,0,0,0,0,0,0,0,0,0,0,0,0,0,0,0,0,0,0,0,0,0,0,0,0,0,8,5,0,0,7,12,6,0,0,0,0,0,0,0,0,0,0,0,0,0,0,0,0,0,0,0,0,0,0,0,0,0,0,0,0,0,0,1,3,0,0,0,3,0,0,0,0,9,11,7,4,0,0,0,0,0,0,0,0,0,0,0,0,0,0,0,0,0,0,0,0,0,0,0,0,0,1,7,5,4,2,0,2,0,0,7,6,7,4,17,20,20,16,19,17,20,22,22,21,17,23,28,27,34,46,41,38,35,36,41,39,42,40,37],"timeseconds":[0.20000004768371582,0.20000004768371582,0.2999999523162842,0.2999999523162842,0.2999999523162842,0.40000009536743164,0.40000009536743164,0.40000009536743164,0.5,0.5,0.5,0.5999999046325684,0.5999999046325684,0.5999999046325684,0.7000000476837158,0.7000000476837158,0.7000000476837158,0.7999999523162842,0.7999999523162842,0.7999999523162842,0.9000000953674316,0.9000000953674316,0.9000000953674316,1,1,1,1.0999999046325684,1.0999999046325684,1.0999999046325684,1.2000000476837158,1.2000000476837158,1.2000000476837158,1.2999999523162842,1.2999999523162842,1.2999999523162842,1.4000000953674316,1.4000000953674316,1.4000000953674316,1.5,1.5,1.5,1.5999999046325684,1.5999999046325684,1.5999999046325684,1.7000000476837158,1.7000000476837158,1.7000000476837158,1.7999999523162842,1.7999999523162842,1.7999999523162842,1.9000000953674316,1.9000000953674316,1.9000000953674316,2,2,2,2.0999999046325684,2.0999999046325684,2.0999999046325684,2.200000047683716,2.200000047683716,2.200000047683716,2.299999952316284,2.299999952316284,2.299999952316284,2.4000000953674316,2.4000000953674316,2.4000000953674316,2.5,2.5,2.5,2.5999999046325684,2.5999999046325684,2.5999999046325684,2.700000047683716,2.700000047683716,2.700000047683716,2.700000047683716,2.799999952316284,2.799999952316284,2.9000000953674316,2.9000000953674316,2.9000000953674316,3,3,3,3.0999999046325684,3.0999999046325684,3.0999999046325684,3.200000047683716,3.200000047683716,3.200000047683716,3.299999952316284,3.299999952316284,3.299999952316284,3.4000000953674316,3.4000000953674316,3.4000000953674316,3.5,3.5,3.5,3.5999999046325684,3.5999999046325684,3.5999999046325684,3.700000047683716,3.700000047683716,3.700000047683716,3.799999952316284,3.799999952316284,3.799999952316284,3.9000000953674316,3.9000000953674316,3.9000000953674316,4,4,4,4.099999904632568,4.099999904632568,4.099999904632568,4.200000047683716,4.200000047683716,4.200000047683716,4.299999952316284,4.299999952316284,4.299999952316284,4.400000095367432,4.400000095367432,4.400000095367432,4.5,4.5,4.5,4.599999904632568,4.599999904632568,4.599999904632568,4.700000047683716,4.700000047683716,4.700000047683716,4.799999952316284,4.799999952316284,4.799999952316284,4.799999952316284,4.900000095367432,4.900000095367432,5,5,5,5.099999904632568,5.099999904632568,5.099999904632568,5.200000047683716,5.200000047683716,5.200000047683716,5.299999952316284,5.299999952316284,5.299999952316284,5.400000095367432,5.400000095367432,5.400000095367432,5.5,5.5,5.5,5.599999904632568,5.599999904632568,5.599999904632568,5.700000047683716,5.700000047683716,5.700000047683716,5.799999952316284,5.799999952316284,5.799999952316284,5.900000095367432,5.900000095367432,5.900000095367432,6,6,6,6.099999904632568,6.099999904632568,6.099999904632568,6.200000047683716,6.200000047683716,6.200000047683716,6.299999952316284,6.299999952316284,6.299999952316284,6.400000095367432,6.400000095367432,6.400000095367432,6.5,6.5,6.5,6.599999904632568,6.599999904632568,6.599999904632568,6.700000047683716,6.700000047683716,6.700000047683716,6.799999952316284,6.799999952316284,6.799999952316284,6.900000095367432]}</json>-->
<path d = "M0 348.28431372549016 L1 348.28431372549016 L2 348.28431372549016 L3 348.28431372549016 L4 348.28431372549016 L5 348.28431372549016 L6 348.28431372549016 L7 346.5686274509804 L8 346.5686274509804 L9 348.28431372549016 L10 348.28431372549016 L11 348.28431372549016 L12 348.28431372549016 L13 348.28431372549016 L14 348.28431372549016 L15 350 L16 350 L17 350 L18 348.28431372549016 L19 348.28431372549016 L20 348.28431372549016 L21 350 L22 348.28431372549016 L23 348.28431372549016 L24 348.28431372549016 L25 348.28431372549016 L26 348.28431372549016 L27 348.28431372549016 L28 350 L29 350 L30 350 L31 348.28431372549016 L32 348.28431372549016 L33 348.28431372549016 L34 348.28431372549016 L35 348.28431372549016 L36 348.28431372549016 L37 348.28431372549016 L38 348.28431372549016 L39 350 L40 348.28431372549016 L41 348.28431372549016 L42 348.28431372549016 L43 348.28431372549016 L44 348.28431372549016 L45 351.71568627450984 L46 348.28431372549016 L47 348.28431372549016 L48 348.28431372549016 L49 348.28431372549016 L50 348.28431372549016 L51 348.28431372549016 L52 348.28431372549016 L53 348.28431372549016 L54 348.28431372549016 L55 348.28431372549016 L56 350 L57 350 L58 350 L59 350 L60 348.28431372549016 L61 350 L62 350 L63 350 L64 350 L65 350 L66 350 L67 350 L68 350 L69 350 L70 350 L71 350 L72 350 L73 350 L74 350 L75 350 L76 350 L77 350 L78 350 L79 350 L80 350 L81 348.28431372549016 L82 348.28431372549016 L83 348.28431372549016 L84 348.28431372549016 L85 348.28431372549016 L86 350 L87 348.28431372549016 L88 348.28431372549016 L89 348.28431372549016 L90 350 L91 350 L92 350 L93 350 L94 350 L95 350 L96 350 L97 350 L98 348.28431372549016 L99 350 L100 350 L101 350 L102 350 L103 350 L104 350 L105 350 L106 350 L107 348.28431372549016 L108 348.28431372549016 L109 348.28431372549016 L110 348.28431372549016 L111 348.28431372549016 L112 348.28431372549016 L113 348.28431372549016 L114 348.28431372549016 L115 348.28431372549016 L116 348.28431372549016 L117 348.28431372549016 L118 348.28431372549016 L119 348.28431372549016 L120 348.28431372549016 L121 348.28431372549016 L122 348.28431372549016 L123 346.5686274509804 L124 348.28431372549016 L125 346.5686274509804 L126 346.5686274509804 L127 346.5686274509804 L128 344.8529411764706 L129 344.8529411764706 L130 346.5686274509804 L131 346.5686274509804 L132 346.5686274509804 L133 348.28431372549016 L134 346.5686274509804 L135 346.5686274509804 L136 348.28431372549016 L137 348.28431372549016 L138 348.28431372549016 L139 348.28431372549016 L140 348.28431372549016 L141 348.28431372549016 L142 348.28431372549016 L143 348.28431372549016 L144 350 L145 350 L146 350 L147 348.28431372549016 L148 350 L149 348.28431372549016 L150 350 L151 348.28431372549016 L152 348.28431372549016 L153 348.28431372549016 L154 348.28431372549016 L155 350 L156 348.28431372549016 L157 348.28431372549016 L158 348.28431372549016 L159 348.28431372549016 L160 350 L161 350 L162 350 L163 350 L164 350 L165 350 L166 350 L167 350 L168 350 L169 350 L170 350 L171 350 L172 350 L173 350 L174 350 L175 348.28431372549016 L176 348.28431372549016 L177 348.28431372549016 L178 350 L179 350 L180 350 L181 350 L182 350 L183 350 L184 351.71568627450984 L185 351.71568627450984 L186 350 L187 350 L188 350 L189 350 L190 350 L191 351.71568627450984 L192 350 L193 350 L194 350 L195 350 L196 348.28431372549016 L197 348.28431372549016 L198 348.28431372549016 L199 348.28431372549016 L200 348.28431372549016" stroke = "red"  stroke-width = "4" fill = "none" />
<path d = "M0 437.5 L1 437.5 L2 437.5 L3 437.5 L4 437.5 L5 437.5 L6 437.5 L7 437.5 L8 437.5 L9 437.5 L10 437.5 L11 437.5 L12 437.5 L13 437.5 L14 437.5 L15 437.5 L16 437.5 L17 437.5 L18 437.5 L19 437.5 L20 437.5 L21 437.5 L22 437.5 L23 437.5 L24 437.5 L25 437.5 L26 437.5 L27 437.5 L28 415.19607843137254 L29 404.9019607843137 L30 408.3333333333333 L31 418.62745098039215 L32 430.6372549019608 L33 437.5 L34 437.5 L35 437.5 L36 437.5 L37 437.5 L38 437.5 L39 437.5 L40 437.5 L41 437.5 L42 437.5 L43 437.5 L44 437.5 L45 425.4901960784314 L46 422.05882352941177 L47 427.20588235294116 L48 437.5 L49 437.5 L50 430.6372549019608 L51 435.7843137254902 L52 437.5 L53 437.5 L54 437.5 L55 437.5 L56 437.5 L57 437.5 L58 437.5 L59 437.5 L60 437.5 L61 437.5 L62 437.5 L63 437.5 L64 437.5 L65 437.5 L66 437.5 L67 437.5 L68 437.5 L69 437.5 L70 437.5 L71 437.5 L72 437.5 L73 437.5 L74 437.5 L75 437.5 L76 437.5 L77 437.5 L78 437.5 L79 437.5 L80 437.5 L81 437.5 L82 437.5 L83 437.5 L84 437.5 L85 437.5 L86 437.5 L87 420.343137254902 L88 423.77450980392155 L89 423.77450980392155 L90 432.3529411764706 L91 435.7843137254902 L92 434.0686274509804 L93 437.5 L94 437.5 L95 437.5 L96 437.5 L97 437.5 L98 437.5 L99 437.5 L100 437.5 L101 437.5 L102 437.5 L103 437.5 L104 437.5 L105 437.5 L106 437.5 L107 437.5 L108 437.5 L109 437.5 L110 437.5 L111 437.5 L112 437.5 L113 437.5 L114 437.5 L115 437.5 L116 437.5 L117 437.5 L118 437.5 L119 437.5 L120 437.5 L121 437.5 L122 437.5 L123 437.5 L124 437.5 L125 435.7843137254902 L126 437.5 L127 437.5 L128 437.5 L129 437.5 L130 437.5 L131 437.5 L132 437.5 L133 437.5 L134 437.5 L135 437.5 L136 437.5 L137 437.5 L138 437.5 L139 437.5 L140 422.05882352941177 L141 420.343137254902 L142 428.921568627451 L143 435.7843137254902 L144 437.5 L145 437.5 L146 437.5 L147 437.5 L148 435.7843137254902 L149 437.5 L150 422.05882352941177 L151 416.9117647058824 L152 425.4901960784314 L153 427.20588235294116 L154 408.3333333333333 L155 418.62745098039215 L156 413.48039215686276 L157 415.19607843137254 L158 416.9117647058824 L159 416.9117647058824 L160 420.343137254902 L161 428.921568627451 L162 425.4901960784314 L163 427.20588235294116 L164 425.4901960784314 L165 411.7647058823529 L166 404.9019607843137 L167 411.7647058823529 L168 411.7647058823529 L169 404.9019607843137 L170 396.3235294117647 L171 394.6078431372549 L172 392.8921568627451 L173 391.1764705882353 L174 386.02941176470586 L175 392.8921568627451 L176 394.6078431372549 L177 394.6078431372549 L178 386.02941176470586 L179 392.8921568627451 L180 380.88235294117646 L181 386.02941176470586 L182 387.7450980392157 L183 392.8921568627451 L184 370.5882352941176 L185 370.5882352941176 L186 372.30392156862746 L187 367.156862745098 L188 377.45098039215685 L189 387.7450980392157 L190 384.3137254901961 L191 386.02941176470586 L192 379.1666666666667 L193 377.45098039215685 L194 365.44117647058823 L195 360.2941176470588 L196 346.5686274509804 L197 355.1470588235294 L198 362.0098039215686 L199 363.72549019607845 L200 360.2941176470588" stroke = "green"  stroke-width = "4" fill = "none" />
<path d = "M0 437.5 L1 437.5 L2 437.5 L3 437.5 L4 437.5 L5 437.5 L6 437.5 L7 437.5 L8 437.5 L9 437.5 L10 437.5 L11 437.5 L12 437.5 L13 437.5 L14 437.5 L15 437.5 L16 437.5 L17 437.5 L18 437.5 L19 437.5 L20 437.5 L21 437.5 L22 437.5 L23 437.5 L24 437.5 L25 437.5 L26 437.5 L27 437.5 L28 437.5 L29 437.5 L30 437.5 L31 437.5 L32 437.5 L33 437.5 L34 437.5 L35 437.5 L36 437.5 L37 437.5 L38 437.5 L39 437.5 L40 437.5 L41 437.5 L42 437.5 L43 437.5 L44 437.5 L45 437.5 L46 437.5 L47 437.5 L48 437.5 L49 437.5 L50 437.5 L51 437.5 L52 437.5 L53 437.5 L54 437.5 L55 437.5 L56 437.5 L57 437.5 L58 437.5 L59 437.5 L60 437.5 L61 437.5 L62 437.5 L63 437.5 L64 437.5 L65 437.5 L66 437.5 L67 437.5 L68 437.5 L69 437.5 L70 437.5 L71 437.5 L72 437.5 L73 437.5 L74 437.5 L75 437.5 L76 437.5 L77 437.5 L78 437.5 L79 437.5 L80 437.5 L81 437.5 L82 437.5 L83 437.5 L84 437.5 L85 437.5 L86 437.5 L87 437.5 L88 437.5 L89 437.5 L90 437.5 L91 437.5 L92 437.5 L93 437.5 L94 437.5 L95 437.5 L96 437.5 L97 437.5 L98 437.5 L99 437.5 L100 437.5 L101 437.5 L102 437.5 L103 437.5 L104 437.5 L105 437.5 L106 437.5 L107 437.5 L108 437.5 L109 437.5 L110 437.5 L111 437.5 L112 437.5 L113 437.5 L114 437.5 L115 437.5 L116 437.5 L117 437.5 L118 437.5 L119 437.5 L120 437.5 L121 437.5 L122 437.5 L123 437.5 L124 437.5 L125 437.5 L126 437.5 L127 437.5 L128 437.5 L129 437.5 L130 437.5 L131 437.5 L132 437.5 L133 437.5 L134 437.5 L135 437.5 L136 437.5 L137 437.5 L138 437.5 L139 437.5 L140 437.5 L141 437.5 L142 437.5 L143 437.5 L144 437.5 L145 437.5 L146 437.5 L147 437.5 L148 437.5 L149 437.5 L150 437.5 L151 437.5 L152 437.5 L153 437.5 L154 437.5 L155 437.5 L156 437.5 L157 437.5 L158 437.5 L159 437.5 L160 437.5 L161 437.5 L162 437.5 L163 437.5 L164 437.5 L165 437.5 L166 437.5 L167 437.5 L168 437.5 L169 437.5 L170 437.5 L171 437.5 L172 437.5 L173 437.5 L174 437.5 L175 437.5 L176 425.4901960784314 L177 432.3529411764706 L178 437.5 L179 437.5 L180 437.5 L181 437.5 L182 437.5 L183 437.5 L184 437.5 L185 437.5 L186 437.5 L187 437.5 L188 437.5 L189 437.5 L190 437.5 L191 432.3529411764706 L192 410.04901960784315 L193 408.3333333333333 L194 413.48039215686276 L195 413.48039215686276 L196 423.77450980392155 L197 430.6372549019608 L198 427.20588235294116 L199 416.9117647058824 L200 423.77450980392155" stroke = "blue"  stroke-width = "4" fill = "none" />
<path d = "M0 437.5 L1 437.5 L2 437.5 L3 437.5 L4 437.5 L5 437.5 L6 437.5 L7 406.61764705882354 L8 408.3333333333333 L9 413.48039215686276 L10 423.77450980392155 L11 434.0686274509804 L12 437.5 L13 437.5 L14 437.5 L15 437.5 L16 437.5 L17 437.5 L18 437.5 L19 437.5 L20 437.5 L21 437.5 L22 437.5 L23 437.5 L24 437.5 L25 437.5 L26 437.5 L27 437.5 L28 437.5 L29 404.9019607843137 L30 408.3333333333333 L31 418.62745098039215 L32 430.6372549019608 L33 437.5 L34 437.5 L35 437.5 L36 437.5 L37 437.5 L38 437.5 L39 437.5 L40 437.5 L41 437.5 L42 437.5 L43 437.5 L44 437.5 L45 437.5 L46 437.5 L47 437.5 L48 437.5 L49 437.5 L50 437.5 L51 437.5 L52 437.5 L53 437.5 L54 437.5 L55 437.5 L56 437.5 L57 437.5 L58 437.5 L59 437.5 L60 437.5 L61 437.5 L62 437.5 L63 437.5 L64 437.5 L65 437.5 L66 437.5 L67 437.5 L68 437.5 L69 437.5 L70 437.5 L71 437.5 L72 437.5 L73 437.5 L74 437.5 L75 437.5 L76 437.5 L77 437.5 L78 437.5 L79 437.5 L80 437.5 L81 437.5 L82 437.5 L83 437.5 L84 437.5 L85 437.5 L86 437.5 L87 423.77450980392155 L88 428.921568627451 L89 437.5 L90 437.5 L91 425.4901960784314 L92 416.9117647058824 L93 427.20588235294116 L94 437.5 L95 437.5 L96 437.5 L97 437.5 L98 437.5 L99 437.5 L100 437.5 L101 437.5 L102 437.5 L103 437.5 L104 437.5 L105 437.5 L106 437.5 L107 437.5 L108 437.5 L109 437.5 L110 437.5 L111 437.5 L112 437.5 L113 437.5 L114 437.5 L115 437.5 L116 437.5 L117 437.5 L118 437.5 L119 437.5 L120 437.5 L121 437.5 L122 437.5 L123 437.5 L124 435.7843137254902 L125 432.3529411764706 L126 437.5 L127 437.5 L128 437.5 L129 432.3529411764706 L130 437.5 L131 437.5 L132 437.5 L133 437.5 L134 422.05882352941177 L135 418.62745098039215 L136 425.4901960784314 L137 430.6372549019608 L138 437.5 L139 437.5 L140 437.5 L141 437.5 L142 437.5 L143 437.5 L144 437.5 L145 437.5 L146 437.5 L147 437.5 L148 437.5 L149 437.5 L150 437.5 L151 437.5 L152 437.5 L153 437.5 L154 437.5 L155 437.5 L156 437.5 L157 437.5 L158 437.5 L159 437.5 L160 437.5 L161 437.5 L162 437.5 L163 435.7843137254902 L164 425.4901960784314 L165 428.921568627451 L166 430.6372549019608 L167 434.0686274509804 L168 437.5 L169 434.0686274509804 L170 437.5 L171 437.5 L172 425.4901960784314 L173 427.20588235294116 L174 425.4901960784314 L175 430.6372549019608 L176 408.3333333333333 L177 403.1862745098039 L178 403.1862745098039 L179 410.04901960784315 L180 404.9019607843137 L181 408.3333333333333 L182 403.1862745098039 L183 399.7549019607843 L184 399.7549019607843 L185 401.47058823529414 L186 408.3333333333333 L187 398.03921568627453 L188 389.46078431372547 L189 391.1764705882353 L190 379.1666666666667 L191 358.578431372549 L192 367.156862745098 L193 372.30392156862746 L194 377.45098039215685 L195 375.7352941176471 L196 367.156862745098 L197 370.5882352941176 L198 365.44117647058823 L199 368.87254901960785 L200 374.01960784313724" stroke = "purple"  stroke-width = "4" fill = "none" />
</svg>