<svg width="1440" height="438" viewbox = "0 0 1440 438"  xmlns="http://www.w3.org/2000/svg">
<!--<json>{"starttime":1741576899,"startdate":"Sun Mar 09 2025 21:21:39 GMT-0600 (Mountain Daylight Time)","f1":1000,"f2":2000,"f3":3000,"f4":4000,"notes":"experiment notes","p1":[0,0,0,0,0,0,0,0,0,0,0,0,0,0,0,0,0,0,0,0,0,0,0,0,0,0,0,0,0,0,0,0,0,0,0,0,0,0,0,0,0,0,0,0,0,0,0,0,0,51,81,99,110,118,123,127,130,132,134,135,136,137,138,139,139,139,140,140,140,140,140,140,140,140,140,141,141,141,141,141,141,141,141,141,141,142,142,142,142,142,142,142,142,142,141,140,140,140,140,140,140,140,140,140,140,140,140,141,141,141,141,141,142,142,141,141,141,141,141,141,141,141,141,141,141,142,142,141,141,141,142,142,142,142,144,143,143,143,142,142,142,142,142,142,142,142,142,141,141,141,141,141,141,142,142,142,142,142,143,142,142,143,142,143,142,142,143,142,143,143,142,142,143,142,142,142,142,142,142,142,141,141,141,141,141,141,141,142,142,142,142,142,143,143,143,143,143,142,142,142,143],"p2":[0,0,0,0,0,0,0,0,0,0,0,0,0,0,0,0,0,0,0,0,0,0,0,0,0,0,0,0,0,0,0,0,0,0,0,0,0,0,0,0,0,0,4,0,0,0,0,0,0,0,0,0,0,0,0,0,0,0,0,0,0,0,0,7,3,0,0,0,0,0,0,0,0,0,0,0,7,3,5,5,11,7,3,0,0,0,0,0,0,0,0,0,3,0,0,0,0,0,0,0,0,0,0,0,0,0,0,0,0,0,0,0,0,0,0,0,0,0,0,0,0,0,0,0,0,0,0,0,0,0,0,0,0,0,14,8,1,0,0,0,0,0,0,0,0,0,0,0,0,0,0,0,0,0,0,0,0,0,0,0,0,0,0,0,0,0,0,0,0,0,0,0,0,0,0,0,0,0,0,0,0,0,0,0,0,0,0,0,0,0,0,0,0,0,0,0,0,0,0,0,0],"p3":[0,0,0,0,0,0,0,0,0,0,0,0,0,0,0,0,0,0,0,0,0,0,0,0,0,0,0,0,0,0,0,0,0,0,0,0,0,0,0,0,0,0,0,0,0,0,0,0,0,0,0,0,0,0,0,0,0,0,0,0,0,0,0,12,14,13,10,4,0,0,0,0,0,0,0,0,0,0,0,0,0,0,0,0,0,0,0,4,6,11,19,22,21,17,12,6,2,0,0,0,0,0,0,0,0,0,0,0,0,0,0,0,0,0,0,0,0,0,0,0,0,0,0,0,0,0,0,0,0,11,7,4,0,0,16,15,11,4,0,0,0,0,0,0,0,0,0,0,0,0,0,0,0,0,0,0,0,0,0,0,0,0,0,0,0,0,0,0,0,0,0,0,0,0,0,0,0,0,0,0,0,0,0,0,0,0,0,0,0,0,0,0,0,0,0,0,0,0,0,0,0],"p4":[0,0,0,0,0,0,0,0,0,0,0,0,0,0,0,0,0,0,0,0,0,0,0,0,0,0,0,0,0,0,0,0,0,0,0,0,0,0,0,0,0,0,0,0,0,0,0,0,0,0,0,0,0,0,0,0,0,0,0,0,0,0,0,0,0,0,0,0,0,0,0,0,0,8,14,17,15,13,7,1,0,0,0,0,42,46,41,37,33,30,26,21,15,11,5,0,0,0,0,0,0,0,0,0,0,0,0,0,0,0,0,0,0,0,0,0,0,0,0,0,0,0,0,0,0,0,26,29,25,24,20,15,10,3,37,31,25,20,14,8,2,0,0,0,0,0,0,0,0,0,0,0,0,0,0,0,0,0,0,0,0,0,0,0,0,0,0,0,9,3,4,4,1,1,0,0,0,0,0,0,0,0,0,0,0,0,0,0,0,0,0,0,0,0,0,0,0,0,0,0,0],"timeseconds":[0.7000000476837158,0.7000000476837158,0.7999999523162842,0.7999999523162842,0.7999999523162842,0.9000000953674316,0.9000000953674316,0.9000000953674316,1,1,1,1.0999999046325684,1.0999999046325684,1.0999999046325684,1.2000000476837158,1.2000000476837158,1.2000000476837158,1.2999999523162842,1.2999999523162842,1.2999999523162842,1.4000000953674316,1.4000000953674316,1.4000000953674316,1.5,1.5,1.5,1.5999999046325684,1.5999999046325684,1.5999999046325684,1.7000000476837158,1.7000000476837158,1.7000000476837158,1.7999999523162842,1.7999999523162842,1.7999999523162842,1.9000000953674316,1.9000000953674316,1.9000000953674316,2,2,2,2.0999999046325684,2.0999999046325684,2.0999999046325684,2.200000047683716,2.200000047683716,2.200000047683716,2.299999952316284,2.299999952316284,2.299999952316284,2.4000000953674316,2.4000000953674316,2.4000000953674316,2.5,2.5,2.5,2.5999999046325684,2.5999999046325684,2.5999999046325684,2.700000047683716,2.700000047683716,2.700000047683716,2.799999952316284,2.799999952316284,2.799999952316284,2.9000000953674316,2.9000000953674316,2.9000000953674316,3,3,3,3.0999999046325684,3.0999999046325684,3.0999999046325684,3.200000047683716,3.200000047683716,3.200000047683716,3.299999952316284,3.299999952316284,3.299999952316284,3.4000000953674316,3.4000000953674316,3.4000000953674316,3.5,3.5,3.5,3.5999999046325684,3.5999999046325684,3.5999999046325684,3.700000047683716,3.700000047683716,3.700000047683716,3.799999952316284,3.799999952316284,3.799999952316284,3.9000000953674316,3.9000000953674316,3.9000000953674316,4,4,4,4.099999904632568,4.099999904632568,4.099999904632568,4.200000047683716,4.200000047683716,4.200000047683716,4.299999952316284,4.299999952316284,4.299999952316284,4.400000095367432,4.400000095367432,4.400000095367432,4.5,4.5,4.5,4.599999904632568,4.599999904632568,4.599999904632568,4.700000047683716,4.700000047683716,4.700000047683716,4.799999952316284,4.799999952316284,4.799999952316284,4.900000095367432,4.900000095367432,4.900000095367432,5,5,5,5.099999904632568,5.099999904632568,5.099999904632568,5.200000047683716,5.200000047683716,5.200000047683716,5.299999952316284,5.299999952316284,5.299999952316284,5.400000095367432,5.400000095367432,5.400000095367432,5.5,5.5,5.5,5.599999904632568,5.599999904632568,5.599999904632568,5.700000047683716,5.700000047683716,5.700000047683716,5.799999952316284,5.799999952316284,5.799999952316284,5.900000095367432,5.900000095367432,5.900000095367432,6,6,6,6.099999904632568,6.099999904632568,6.099999904632568,6.200000047683716,6.200000047683716,6.200000047683716,6.299999952316284,6.299999952316284,6.299999952316284,6.400000095367432,6.400000095367432,6.400000095367432,6.5,6.5,6.5,6.599999904632568,6.599999904632568,6.599999904632568,6.700000047683716,6.700000047683716,6.700000047683716,6.799999952316284,6.799999952316284,6.799999952316284,6.900000095367432,6.900000095367432,6.900000095367432,7,7,7,7.099999904632568,7.099999904632568,7.099999904632568,7.200000047683716,7.200000047683716,7.200000047683716,7.299999952316284,7.299999952316284,7.299999952316284,7.400000095367432]}</json>-->
<path d = "M0 437.5 L1 437.5 L2 437.5 L3 437.5 L4 437.5 L5 437.5 L6 437.5 L7 437.5 L8 437.5 L9 437.5 L10 437.5 L11 437.5 L12 437.5 L13 437.5 L14 437.5 L15 437.5 L16 437.5 L17 437.5 L18 437.5 L19 437.5 L20 437.5 L21 437.5 L22 437.5 L23 437.5 L24 437.5 L25 437.5 L26 437.5 L27 437.5 L28 437.5 L29 437.5 L30 437.5 L31 437.5 L32 437.5 L33 437.5 L34 437.5 L35 437.5 L36 437.5 L37 437.5 L38 437.5 L39 437.5 L40 437.5 L41 437.5 L42 437.5 L43 437.5 L44 437.5 L45 437.5 L46 437.5 L47 437.5 L48 437.5 L49 350 L50 298.52941176470586 L51 267.6470588235294 L52 248.77450980392155 L53 235.04901960784312 L54 226.47058823529412 L55 219.6078431372549 L56 214.4607843137255 L57 211.02941176470586 L58 207.59803921568627 L59 205.88235294117646 L60 204.16666666666666 L61 202.45098039215688 L62 200.73529411764707 L63 199.01960784313727 L64 199.01960784313727 L65 199.01960784313727 L66 197.30392156862743 L67 197.30392156862743 L68 197.30392156862743 L69 197.30392156862743 L70 197.30392156862743 L71 197.30392156862743 L72 197.30392156862743 L73 197.30392156862743 L74 197.30392156862743 L75 195.58823529411762 L76 195.58823529411762 L77 195.58823529411762 L78 195.58823529411762 L79 195.58823529411762 L80 195.58823529411762 L81 195.58823529411762 L82 195.58823529411762 L83 195.58823529411762 L84 195.58823529411762 L85 193.87254901960785 L86 193.87254901960785 L87 193.87254901960785 L88 193.87254901960785 L89 193.87254901960785 L90 193.87254901960785 L91 193.87254901960785 L92 193.87254901960785 L93 193.87254901960785 L94 195.58823529411762 L95 197.30392156862743 L96 197.30392156862743 L97 197.30392156862743 L98 197.30392156862743 L99 197.30392156862743 L100 197.30392156862743 L101 197.30392156862743 L102 197.30392156862743 L103 197.30392156862743 L104 197.30392156862743 L105 197.30392156862743 L106 197.30392156862743 L107 195.58823529411762 L108 195.58823529411762 L109 195.58823529411762 L110 195.58823529411762 L111 195.58823529411762 L112 193.87254901960785 L113 193.87254901960785 L114 195.58823529411762 L115 195.58823529411762 L116 195.58823529411762 L117 195.58823529411762 L118 195.58823529411762 L119 195.58823529411762 L120 195.58823529411762 L121 195.58823529411762 L122 195.58823529411762 L123 195.58823529411762 L124 195.58823529411762 L125 193.87254901960785 L126 193.87254901960785 L127 195.58823529411762 L128 195.58823529411762 L129 195.58823529411762 L130 193.87254901960785 L131 193.87254901960785 L132 193.87254901960785 L133 193.87254901960785 L134 190.44117647058823 L135 192.15686274509804 L136 192.15686274509804 L137 192.15686274509804 L138 193.87254901960785 L139 193.87254901960785 L140 193.87254901960785 L141 193.87254901960785 L142 193.87254901960785 L143 193.87254901960785 L144 193.87254901960785 L145 193.87254901960785 L146 193.87254901960785 L147 195.58823529411762 L148 195.58823529411762 L149 195.58823529411762 L150 195.58823529411762 L151 195.58823529411762 L152 195.58823529411762 L153 193.87254901960785 L154 193.87254901960785 L155 193.87254901960785 L156 193.87254901960785 L157 193.87254901960785 L158 192.15686274509804 L159 193.87254901960785 L160 193.87254901960785 L161 192.15686274509804 L162 193.87254901960785 L163 192.15686274509804 L164 193.87254901960785 L165 193.87254901960785 L166 192.15686274509804 L167 193.87254901960785 L168 192.15686274509804 L169 192.15686274509804 L170 193.87254901960785 L171 193.87254901960785 L172 192.15686274509804 L173 193.87254901960785 L174 193.87254901960785 L175 193.87254901960785 L176 193.87254901960785 L177 193.87254901960785 L178 193.87254901960785 L179 193.87254901960785 L180 195.58823529411762 L181 195.58823529411762 L182 195.58823529411762 L183 195.58823529411762 L184 195.58823529411762 L185 195.58823529411762 L186 195.58823529411762 L187 193.87254901960785 L188 193.87254901960785 L189 193.87254901960785 L190 193.87254901960785 L191 193.87254901960785 L192 192.15686274509804 L193 192.15686274509804 L194 192.15686274509804 L195 192.15686274509804 L196 192.15686274509804 L197 193.87254901960785 L198 193.87254901960785 L199 193.87254901960785 L200 192.15686274509804" stroke = "red"  stroke-width = "4" fill = "none" />
<path d = "M0 437.5 L1 437.5 L2 437.5 L3 437.5 L4 437.5 L5 437.5 L6 437.5 L7 437.5 L8 437.5 L9 437.5 L10 437.5 L11 437.5 L12 437.5 L13 437.5 L14 437.5 L15 437.5 L16 437.5 L17 437.5 L18 437.5 L19 437.5 L20 437.5 L21 437.5 L22 437.5 L23 437.5 L24 437.5 L25 437.5 L26 437.5 L27 437.5 L28 437.5 L29 437.5 L30 437.5 L31 437.5 L32 437.5 L33 437.5 L34 437.5 L35 437.5 L36 437.5 L37 437.5 L38 437.5 L39 437.5 L40 437.5 L41 437.5 L42 430.6372549019608 L43 437.5 L44 437.5 L45 437.5 L46 437.5 L47 437.5 L48 437.5 L49 437.5 L50 437.5 L51 437.5 L52 437.5 L53 437.5 L54 437.5 L55 437.5 L56 437.5 L57 437.5 L58 437.5 L59 437.5 L60 437.5 L61 437.5 L62 437.5 L63 425.4901960784314 L64 432.3529411764706 L65 437.5 L66 437.5 L67 437.5 L68 437.5 L69 437.5 L70 437.5 L71 437.5 L72 437.5 L73 437.5 L74 437.5 L75 437.5 L76 425.4901960784314 L77 432.3529411764706 L78 428.921568627451 L79 428.921568627451 L80 418.62745098039215 L81 425.4901960784314 L82 432.3529411764706 L83 437.5 L84 437.5 L85 437.5 L86 437.5 L87 437.5 L88 437.5 L89 437.5 L90 437.5 L91 437.5 L92 432.3529411764706 L93 437.5 L94 437.5 L95 437.5 L96 437.5 L97 437.5 L98 437.5 L99 437.5 L100 437.5 L101 437.5 L102 437.5 L103 437.5 L104 437.5 L105 437.5 L106 437.5 L107 437.5 L108 437.5 L109 437.5 L110 437.5 L111 437.5 L112 437.5 L113 437.5 L114 437.5 L115 437.5 L116 437.5 L117 437.5 L118 437.5 L119 437.5 L120 437.5 L121 437.5 L122 437.5 L123 437.5 L124 437.5 L125 437.5 L126 437.5 L127 437.5 L128 437.5 L129 437.5 L130 437.5 L131 437.5 L132 437.5 L133 437.5 L134 413.48039215686276 L135 423.77450980392155 L136 435.7843137254902 L137 437.5 L138 437.5 L139 437.5 L140 437.5 L141 437.5 L142 437.5 L143 437.5 L144 437.5 L145 437.5 L146 437.5 L147 437.5 L148 437.5 L149 437.5 L150 437.5 L151 437.5 L152 437.5 L153 437.5 L154 437.5 L155 437.5 L156 437.5 L157 437.5 L158 437.5 L159 437.5 L160 437.5 L161 437.5 L162 437.5 L163 437.5 L164 437.5 L165 437.5 L166 437.5 L167 437.5 L168 437.5 L169 437.5 L170 437.5 L171 437.5 L172 437.5 L173 437.5 L174 437.5 L175 437.5 L176 437.5 L177 437.5 L178 437.5 L179 437.5 L180 437.5 L181 437.5 L182 437.5 L183 437.5 L184 437.5 L185 437.5 L186 437.5 L187 437.5 L188 437.5 L189 437.5 L190 437.5 L191 437.5 L192 437.5 L193 437.5 L194 437.5 L195 437.5 L196 437.5 L197 437.5 L198 437.5 L199 437.5 L200 437.5" stroke = "green"  stroke-width = "4" fill = "none" />
<path d = "M0 437.5 L1 437.5 L2 437.5 L3 437.5 L4 437.5 L5 437.5 L6 437.5 L7 437.5 L8 437.5 L9 437.5 L10 437.5 L11 437.5 L12 437.5 L13 437.5 L14 437.5 L15 437.5 L16 437.5 L17 437.5 L18 437.5 L19 437.5 L20 437.5 L21 437.5 L22 437.5 L23 437.5 L24 437.5 L25 437.5 L26 437.5 L27 437.5 L28 437.5 L29 437.5 L30 437.5 L31 437.5 L32 437.5 L33 437.5 L34 437.5 L35 437.5 L36 437.5 L37 437.5 L38 437.5 L39 437.5 L40 437.5 L41 437.5 L42 437.5 L43 437.5 L44 437.5 L45 437.5 L46 437.5 L47 437.5 L48 437.5 L49 437.5 L50 437.5 L51 437.5 L52 437.5 L53 437.5 L54 437.5 L55 437.5 L56 437.5 L57 437.5 L58 437.5 L59 437.5 L60 437.5 L61 437.5 L62 437.5 L63 416.9117647058824 L64 413.48039215686276 L65 415.19607843137254 L66 420.343137254902 L67 430.6372549019608 L68 437.5 L69 437.5 L70 437.5 L71 437.5 L72 437.5 L73 437.5 L74 437.5 L75 437.5 L76 437.5 L77 437.5 L78 437.5 L79 437.5 L80 437.5 L81 437.5 L82 437.5 L83 437.5 L84 437.5 L85 437.5 L86 437.5 L87 430.6372549019608 L88 427.20588235294116 L89 418.62745098039215 L90 404.9019607843137 L91 399.7549019607843 L92 401.47058823529414 L93 408.3333333333333 L94 416.9117647058824 L95 427.20588235294116 L96 434.0686274509804 L97 437.5 L98 437.5 L99 437.5 L100 437.5 L101 437.5 L102 437.5 L103 437.5 L104 437.5 L105 437.5 L106 437.5 L107 437.5 L108 437.5 L109 437.5 L110 437.5 L111 437.5 L112 437.5 L113 437.5 L114 437.5 L115 437.5 L116 437.5 L117 437.5 L118 437.5 L119 437.5 L120 437.5 L121 437.5 L122 437.5 L123 437.5 L124 437.5 L125 437.5 L126 437.5 L127 437.5 L128 437.5 L129 418.62745098039215 L130 425.4901960784314 L131 430.6372549019608 L132 437.5 L133 437.5 L134 410.04901960784315 L135 411.7647058823529 L136 418.62745098039215 L137 430.6372549019608 L138 437.5 L139 437.5 L140 437.5 L141 437.5 L142 437.5 L143 437.5 L144 437.5 L145 437.5 L146 437.5 L147 437.5 L148 437.5 L149 437.5 L150 437.5 L151 437.5 L152 437.5 L153 437.5 L154 437.5 L155 437.5 L156 437.5 L157 437.5 L158 437.5 L159 437.5 L160 437.5 L161 437.5 L162 437.5 L163 437.5 L164 437.5 L165 437.5 L166 437.5 L167 437.5 L168 437.5 L169 437.5 L170 437.5 L171 437.5 L172 437.5 L173 437.5 L174 437.5 L175 437.5 L176 437.5 L177 437.5 L178 437.5 L179 437.5 L180 437.5 L181 437.5 L182 437.5 L183 437.5 L184 437.5 L185 437.5 L186 437.5 L187 437.5 L188 437.5 L189 437.5 L190 437.5 L191 437.5 L192 437.5 L193 437.5 L194 437.5 L195 437.5 L196 437.5 L197 437.5 L198 437.5 L199 437.5 L200 437.5" stroke = "blue"  stroke-width = "4" fill = "none" />
<path d = "M0 437.5 L1 437.5 L2 437.5 L3 437.5 L4 437.5 L5 437.5 L6 437.5 L7 437.5 L8 437.5 L9 437.5 L10 437.5 L11 437.5 L12 437.5 L13 437.5 L14 437.5 L15 437.5 L16 437.5 L17 437.5 L18 437.5 L19 437.5 L20 437.5 L21 437.5 L22 437.5 L23 437.5 L24 437.5 L25 437.5 L26 437.5 L27 437.5 L28 437.5 L29 437.5 L30 437.5 L31 437.5 L32 437.5 L33 437.5 L34 437.5 L35 437.5 L36 437.5 L37 437.5 L38 437.5 L39 437.5 L40 437.5 L41 437.5 L42 437.5 L43 437.5 L44 437.5 L45 437.5 L46 437.5 L47 437.5 L48 437.5 L49 437.5 L50 437.5 L51 437.5 L52 437.5 L53 437.5 L54 437.5 L55 437.5 L56 437.5 L57 437.5 L58 437.5 L59 437.5 L60 437.5 L61 437.5 L62 437.5 L63 437.5 L64 437.5 L65 437.5 L66 437.5 L67 437.5 L68 437.5 L69 437.5 L70 437.5 L71 437.5 L72 437.5 L73 423.77450980392155 L74 413.48039215686276 L75 408.3333333333333 L76 411.7647058823529 L77 415.19607843137254 L78 425.4901960784314 L79 435.7843137254902 L80 437.5 L81 437.5 L82 437.5 L83 437.5 L84 365.44117647058823 L85 358.578431372549 L86 367.156862745098 L87 374.01960784313724 L88 380.88235294117646 L89 386.02941176470586 L90 392.8921568627451 L91 401.47058823529414 L92 411.7647058823529 L93 418.62745098039215 L94 428.921568627451 L95 437.5 L96 437.5 L97 437.5 L98 437.5 L99 437.5 L100 437.5 L101 437.5 L102 437.5 L103 437.5 L104 437.5 L105 437.5 L106 437.5 L107 437.5 L108 437.5 L109 437.5 L110 437.5 L111 437.5 L112 437.5 L113 437.5 L114 437.5 L115 437.5 L116 437.5 L117 437.5 L118 437.5 L119 437.5 L120 437.5 L121 437.5 L122 437.5 L123 437.5 L124 437.5 L125 437.5 L126 392.8921568627451 L127 387.7450980392157 L128 394.6078431372549 L129 396.3235294117647 L130 403.1862745098039 L131 411.7647058823529 L132 420.343137254902 L133 432.3529411764706 L134 374.01960784313724 L135 384.3137254901961 L136 394.6078431372549 L137 403.1862745098039 L138 413.48039215686276 L139 423.77450980392155 L140 434.0686274509804 L141 437.5 L142 437.5 L143 437.5 L144 437.5 L145 437.5 L146 437.5 L147 437.5 L148 437.5 L149 437.5 L150 437.5 L151 437.5 L152 437.5 L153 437.5 L154 437.5 L155 437.5 L156 437.5 L157 437.5 L158 437.5 L159 437.5 L160 437.5 L161 437.5 L162 437.5 L163 437.5 L164 437.5 L165 437.5 L166 437.5 L167 437.5 L168 422.05882352941177 L169 432.3529411764706 L170 430.6372549019608 L171 430.6372549019608 L172 435.7843137254902 L173 435.7843137254902 L174 437.5 L175 437.5 L176 437.5 L177 437.5 L178 437.5 L179 437.5 L180 437.5 L181 437.5 L182 437.5 L183 437.5 L184 437.5 L185 437.5 L186 437.5 L187 437.5 L188 437.5 L189 437.5 L190 437.5 L191 437.5 L192 437.5 L193 437.5 L194 437.5 L195 437.5 L196 437.5 L197 437.5 L198 437.5 L199 437.5 L200 437.5" stroke = "purple"  stroke-width = "4" fill = "none" />
</svg>