<svg width="1440" height="438" viewbox = "0 0 1440 438"  xmlns="http://www.w3.org/2000/svg">
<!--<json>{"starttime":1741576961,"startdate":"Sun Mar 09 2025 21:22:41 GMT-0600 (Mountain Daylight Time)","f1":1000,"f2":2000,"f3":3000,"f4":4000,"notes":"experiment notes","p1":[49,49,49,49,49,49,49,49,50,50,50,50,50,50,50,50,50,50,50,50,50,49,50,49,49,49,49,49,49,49,50,50,50,49,50,49,49,49,49,49,49,49,49,50,50,52,50,51,50,50,50,49,50,50,49,49,49,49,49,50,49,50,49,50,50,50,50,50,50,50,50,50,51,51,51,50,50,50,50,50,50,49,49,49,49,49,49,49,50,50,50,50,50,49,50,50,50,50,50,50,50,50,50,50,50,50,50,50,52,51,50,50,50,50,51,50,50,50,51,51,51,52,52,51,52,52,52,52,52,51,51,51,51,51,52,51,51,51,52,51,51,51,51,51,51,51,51,51,51,51,52,52,52,52,52,52,53,53,53,53,53,53,53,53,52,52,54,53,53,53,53,53,53,53,53,52,53,52,52,53,53,52,52,52,52,52,52,51,52,52,52,52,52,52,52,52,52,52,52,52,52],"p2":[0,0,0,0,0,5,5,1,0,0,0,0,0,0,0,0,0,0,0,0,0,0,0,0,0,0,0,0,0,0,0,0,0,0,0,0,0,0,0,0,0,0,0,0,0,1,0,0,0,0,0,0,0,0,0,0,0,0,19,26,27,25,26,30,34,27,25,19,22,25,21,15,17,17,19,19,15,10,8,12,10,10,12,12,12,9,4,1,0,0,0,0,0,0,0,0,0,0,0,0,0,0,0,0,0,0,0,0,0,0,0,0,0,0,0,0,0,0,2,0,0,0,0,0,3,11,12,11,7,3,1,0,0,0,0,0,0,0,0,0,0,0,0,0,0,0,0,0,0,0,0,0,0,0,0,0,0,0,2,0,0,0,1,0,0,0,0,0,0,0,0,0,0,0,0,0,0,0,0,0,0,0,0,0,0,0,0,0,0,0,0,0,0,0,0,0,0,0,0,0,0],"p3":[0,0,0,0,0,0,0,0,0,0,0,0,0,0,0,0,0,0,0,0,0,0,0,0,0,0,0,0,0,0,0,0,0,0,0,0,0,0,0,0,0,0,0,0,0,0,0,0,0,0,0,0,0,0,0,0,0,0,34,50,47,47,41,46,41,44,41,46,42,42,37,38,38,32,27,24,21,17,21,23,20,15,9,8,5,7,7,3,0,0,0,0,0,0,0,0,0,0,0,0,0,0,0,0,0,0,0,0,0,0,0,0,18,11,6,3,0,0,0,0,0,0,0,0,0,0,0,0,0,4,2,0,4,4,0,0,4,0,0,0,0,0,0,0,0,0,0,0,0,0,0,5,2,0,0,0,0,0,0,0,0,0,0,0,0,0,0,0,0,0,0,0,0,0,0,0,0,0,0,0,0,0,0,0,0,0,0,0,0,0,0,0,0,0,0,0,0,0,0,0,0],"p4":[12,5,0,0,0,0,0,0,0,0,0,0,0,0,10,6,4,0,0,0,0,0,0,0,0,0,0,0,0,0,0,0,0,0,0,0,0,0,0,0,24,18,13,8,2,0,0,0,0,0,0,0,0,0,0,0,0,0,0,0,0,0,0,0,0,0,0,0,0,0,0,0,2,20,20,16,16,17,23,21,19,16,29,29,23,21,22,23,18,13,7,1,0,0,0,0,0,0,0,0,0,0,0,0,0,3,4,17,16,12,11,5,0,0,6,20,18,33,30,30,36,30,34,39,42,39,40,34,29,26,25,24,21,16,9,3,0,0,0,0,0,0,0,0,0,0,0,0,0,0,0,0,0,0,0,0,0,24,20,14,7,4,26,23,17,11,14,19,18,13,7,1,0,9,3,0,0,0,0,0,0,0,0,0,0,0,0,0,0,0,0,0,0,0,0,0,0,0,0,0,0],"timeseconds":[0.5,0.5,0.5999999046325684,0.5999999046325684,0.5999999046325684,0.7000000476837158,0.7000000476837158,0.7000000476837158,0.7000000476837158,0.7999999523162842,0.7999999523162842,0.9000000953674316,0.9000000953674316,0.9000000953674316,1,1,1,1,1.0999999046325684,1.0999999046325684,1.2000000476837158,1.2000000476837158,1.2000000476837158,1.2999999523162842,1.2999999523162842,1.2999999523162842,1.4000000953674316,1.4000000953674316,1.4000000953674316,1.5,1.5,1.5,1.5999999046325684,1.5999999046325684,1.5999999046325684,1.7000000476837158,1.7000000476837158,1.7000000476837158,1.7999999523162842,1.7999999523162842,1.7999999523162842,1.9000000953674316,1.9000000953674316,1.9000000953674316,2,2,2,2.0999999046325684,2.0999999046325684,2.0999999046325684,2.200000047683716,2.200000047683716,2.200000047683716,2.299999952316284,2.299999952316284,2.299999952316284,2.4000000953674316,2.4000000953674316,2.4000000953674316,2.5,2.5,2.5,2.5999999046325684,2.5999999046325684,2.5999999046325684,2.700000047683716,2.700000047683716,2.700000047683716,2.799999952316284,2.799999952316284,2.799999952316284,2.9000000953674316,2.9000000953674316,2.9000000953674316,3,3,3,3.0999999046325684,3.0999999046325684,3.0999999046325684,3.0999999046325684,3.200000047683716,3.200000047683716,3.299999952316284,3.299999952316284,3.299999952316284,3.4000000953674316,3.4000000953674316,3.4000000953674316,3.5,3.5,3.5,3.5999999046325684,3.5999999046325684,3.5999999046325684,3.700000047683716,3.700000047683716,3.700000047683716,3.799999952316284,3.799999952316284,3.799999952316284,3.799999952316284,3.9000000953674316,3.9000000953674316,4,4,4,4.099999904632568,4.099999904632568,4.099999904632568,4.200000047683716,4.200000047683716,4.200000047683716,4.299999952316284,4.299999952316284,4.299999952316284,4.400000095367432,4.400000095367432,4.400000095367432,4.5,4.5,4.5,4.599999904632568,4.599999904632568,4.599999904632568,4.700000047683716,4.700000047683716,4.700000047683716,4.799999952316284,4.799999952316284,4.799999952316284,4.900000095367432,4.900000095367432,4.900000095367432,5,5,5,5.099999904632568,5.099999904632568,5.099999904632568,5.200000047683716,5.200000047683716,5.200000047683716,5.299999952316284,5.299999952316284,5.299999952316284,5.299999952316284,5.400000095367432,5.400000095367432,5.5,5.5,5.5,5.599999904632568,5.599999904632568,5.599999904632568,5.700000047683716,5.700000047683716,5.700000047683716,5.799999952316284,5.799999952316284,5.799999952316284,5.900000095367432,5.900000095367432,5.900000095367432,6,6,6,6.099999904632568,6.099999904632568,6.099999904632568,6.200000047683716,6.200000047683716,6.200000047683716,6.299999952316284,6.299999952316284,6.299999952316284,6.400000095367432,6.400000095367432,6.400000095367432,6.5,6.5,6.5,6.599999904632568,6.599999904632568,6.599999904632568,6.700000047683716,6.700000047683716,6.700000047683716,6.799999952316284,6.799999952316284,6.799999952316284,6.900000095367432,6.900000095367432,6.900000095367432,6.900000095367432,7,7,7.099999904632568,7.099999904632568,7.099999904632568,7.200000047683716]}</json>-->
<path d = "M0 353.4313725490196 L1 353.4313725490196 L2 353.4313725490196 L3 353.4313725490196 L4 353.4313725490196 L5 353.4313725490196 L6 353.4313725490196 L7 353.4313725490196 L8 351.71568627450984 L9 351.71568627450984 L10 351.71568627450984 L11 351.71568627450984 L12 351.71568627450984 L13 351.71568627450984 L14 351.71568627450984 L15 351.71568627450984 L16 351.71568627450984 L17 351.71568627450984 L18 351.71568627450984 L19 351.71568627450984 L20 351.71568627450984 L21 353.4313725490196 L22 351.71568627450984 L23 353.4313725490196 L24 353.4313725490196 L25 353.4313725490196 L26 353.4313725490196 L27 353.4313725490196 L28 353.4313725490196 L29 353.4313725490196 L30 351.71568627450984 L31 351.71568627450984 L32 351.71568627450984 L33 353.4313725490196 L34 351.71568627450984 L35 353.4313725490196 L36 353.4313725490196 L37 353.4313725490196 L38 353.4313725490196 L39 353.4313725490196 L40 353.4313725490196 L41 353.4313725490196 L42 353.4313725490196 L43 351.71568627450984 L44 351.71568627450984 L45 348.28431372549016 L46 351.71568627450984 L47 350 L48 351.71568627450984 L49 351.71568627450984 L50 351.71568627450984 L51 353.4313725490196 L52 351.71568627450984 L53 351.71568627450984 L54 353.4313725490196 L55 353.4313725490196 L56 353.4313725490196 L57 353.4313725490196 L58 353.4313725490196 L59 351.71568627450984 L60 353.4313725490196 L61 351.71568627450984 L62 353.4313725490196 L63 351.71568627450984 L64 351.71568627450984 L65 351.71568627450984 L66 351.71568627450984 L67 351.71568627450984 L68 351.71568627450984 L69 351.71568627450984 L70 351.71568627450984 L71 351.71568627450984 L72 350 L73 350 L74 350 L75 351.71568627450984 L76 351.71568627450984 L77 351.71568627450984 L78 351.71568627450984 L79 351.71568627450984 L80 351.71568627450984 L81 353.4313725490196 L82 353.4313725490196 L83 353.4313725490196 L84 353.4313725490196 L85 353.4313725490196 L86 353.4313725490196 L87 353.4313725490196 L88 351.71568627450984 L89 351.71568627450984 L90 351.71568627450984 L91 351.71568627450984 L92 351.71568627450984 L93 353.4313725490196 L94 351.71568627450984 L95 351.71568627450984 L96 351.71568627450984 L97 351.71568627450984 L98 351.71568627450984 L99 351.71568627450984 L100 351.71568627450984 L101 351.71568627450984 L102 351.71568627450984 L103 351.71568627450984 L104 351.71568627450984 L105 351.71568627450984 L106 351.71568627450984 L107 351.71568627450984 L108 348.28431372549016 L109 350 L110 351.71568627450984 L111 351.71568627450984 L112 351.71568627450984 L113 351.71568627450984 L114 350 L115 351.71568627450984 L116 351.71568627450984 L117 351.71568627450984 L118 350 L119 350 L120 350 L121 348.28431372549016 L122 348.28431372549016 L123 350 L124 348.28431372549016 L125 348.28431372549016 L126 348.28431372549016 L127 348.28431372549016 L128 348.28431372549016 L129 350 L130 350 L131 350 L132 350 L133 350 L134 348.28431372549016 L135 350 L136 350 L137 350 L138 348.28431372549016 L139 350 L140 350 L141 350 L142 350 L143 350 L144 350 L145 350 L146 350 L147 350 L148 350 L149 350 L150 348.28431372549016 L151 348.28431372549016 L152 348.28431372549016 L153 348.28431372549016 L154 348.28431372549016 L155 348.28431372549016 L156 346.5686274509804 L157 346.5686274509804 L158 346.5686274509804 L159 346.5686274509804 L160 346.5686274509804 L161 346.5686274509804 L162 346.5686274509804 L163 346.5686274509804 L164 348.28431372549016 L165 348.28431372549016 L166 344.8529411764706 L167 346.5686274509804 L168 346.5686274509804 L169 346.5686274509804 L170 346.5686274509804 L171 346.5686274509804 L172 346.5686274509804 L173 346.5686274509804 L174 346.5686274509804 L175 348.28431372549016 L176 346.5686274509804 L177 348.28431372549016 L178 348.28431372549016 L179 346.5686274509804 L180 346.5686274509804 L181 348.28431372549016 L182 348.28431372549016 L183 348.28431372549016 L184 348.28431372549016 L185 348.28431372549016 L186 348.28431372549016 L187 350 L188 348.28431372549016 L189 348.28431372549016 L190 348.28431372549016 L191 348.28431372549016 L192 348.28431372549016 L193 348.28431372549016 L194 348.28431372549016 L195 348.28431372549016 L196 348.28431372549016 L197 348.28431372549016 L198 348.28431372549016 L199 348.28431372549016 L200 348.28431372549016" stroke = "red"  stroke-width = "4" fill = "none" />
<path d = "M0 437.5 L1 437.5 L2 437.5 L3 437.5 L4 437.5 L5 428.921568627451 L6 428.921568627451 L7 435.7843137254902 L8 437.5 L9 437.5 L10 437.5 L11 437.5 L12 437.5 L13 437.5 L14 437.5 L15 437.5 L16 437.5 L17 437.5 L18 437.5 L19 437.5 L20 437.5 L21 437.5 L22 437.5 L23 437.5 L24 437.5 L25 437.5 L26 437.5 L27 437.5 L28 437.5 L29 437.5 L30 437.5 L31 437.5 L32 437.5 L33 437.5 L34 437.5 L35 437.5 L36 437.5 L37 437.5 L38 437.5 L39 437.5 L40 437.5 L41 437.5 L42 437.5 L43 437.5 L44 437.5 L45 435.7843137254902 L46 437.5 L47 437.5 L48 437.5 L49 437.5 L50 437.5 L51 437.5 L52 437.5 L53 437.5 L54 437.5 L55 437.5 L56 437.5 L57 437.5 L58 404.9019607843137 L59 392.8921568627451 L60 391.1764705882353 L61 394.6078431372549 L62 392.8921568627451 L63 386.02941176470586 L64 379.1666666666667 L65 391.1764705882353 L66 394.6078431372549 L67 404.9019607843137 L68 399.7549019607843 L69 394.6078431372549 L70 401.47058823529414 L71 411.7647058823529 L72 408.3333333333333 L73 408.3333333333333 L74 404.9019607843137 L75 404.9019607843137 L76 411.7647058823529 L77 420.343137254902 L78 423.77450980392155 L79 416.9117647058824 L80 420.343137254902 L81 420.343137254902 L82 416.9117647058824 L83 416.9117647058824 L84 416.9117647058824 L85 422.05882352941177 L86 430.6372549019608 L87 435.7843137254902 L88 437.5 L89 437.5 L90 437.5 L91 437.5 L92 437.5 L93 437.5 L94 437.5 L95 437.5 L96 437.5 L97 437.5 L98 437.5 L99 437.5 L100 437.5 L101 437.5 L102 437.5 L103 437.5 L104 437.5 L105 437.5 L106 437.5 L107 437.5 L108 437.5 L109 437.5 L110 437.5 L111 437.5 L112 437.5 L113 437.5 L114 437.5 L115 437.5 L116 437.5 L117 437.5 L118 434.0686274509804 L119 437.5 L120 437.5 L121 437.5 L122 437.5 L123 437.5 L124 432.3529411764706 L125 418.62745098039215 L126 416.9117647058824 L127 418.62745098039215 L128 425.4901960784314 L129 432.3529411764706 L130 435.7843137254902 L131 437.5 L132 437.5 L133 437.5 L134 437.5 L135 437.5 L136 437.5 L137 437.5 L138 437.5 L139 437.5 L140 437.5 L141 437.5 L142 437.5 L143 437.5 L144 437.5 L145 437.5 L146 437.5 L147 437.5 L148 437.5 L149 437.5 L150 437.5 L151 437.5 L152 437.5 L153 437.5 L154 437.5 L155 437.5 L156 437.5 L157 437.5 L158 434.0686274509804 L159 437.5 L160 437.5 L161 437.5 L162 435.7843137254902 L163 437.5 L164 437.5 L165 437.5 L166 437.5 L167 437.5 L168 437.5 L169 437.5 L170 437.5 L171 437.5 L172 437.5 L173 437.5 L174 437.5 L175 437.5 L176 437.5 L177 437.5 L178 437.5 L179 437.5 L180 437.5 L181 437.5 L182 437.5 L183 437.5 L184 437.5 L185 437.5 L186 437.5 L187 437.5 L188 437.5 L189 437.5 L190 437.5 L191 437.5 L192 437.5 L193 437.5 L194 437.5 L195 437.5 L196 437.5 L197 437.5 L198 437.5 L199 437.5 L200 437.5" stroke = "green"  stroke-width = "4" fill = "none" />
<path d = "M0 437.5 L1 437.5 L2 437.5 L3 437.5 L4 437.5 L5 437.5 L6 437.5 L7 437.5 L8 437.5 L9 437.5 L10 437.5 L11 437.5 L12 437.5 L13 437.5 L14 437.5 L15 437.5 L16 437.5 L17 437.5 L18 437.5 L19 437.5 L20 437.5 L21 437.5 L22 437.5 L23 437.5 L24 437.5 L25 437.5 L26 437.5 L27 437.5 L28 437.5 L29 437.5 L30 437.5 L31 437.5 L32 437.5 L33 437.5 L34 437.5 L35 437.5 L36 437.5 L37 437.5 L38 437.5 L39 437.5 L40 437.5 L41 437.5 L42 437.5 L43 437.5 L44 437.5 L45 437.5 L46 437.5 L47 437.5 L48 437.5 L49 437.5 L50 437.5 L51 437.5 L52 437.5 L53 437.5 L54 437.5 L55 437.5 L56 437.5 L57 437.5 L58 379.1666666666667 L59 351.71568627450984 L60 356.8627450980392 L61 356.8627450980392 L62 367.156862745098 L63 358.578431372549 L64 367.156862745098 L65 362.0098039215686 L66 367.156862745098 L67 358.578431372549 L68 365.44117647058823 L69 365.44117647058823 L70 374.01960784313724 L71 372.30392156862746 L72 372.30392156862746 L73 382.5980392156863 L74 391.1764705882353 L75 396.3235294117647 L76 401.47058823529414 L77 408.3333333333333 L78 401.47058823529414 L79 398.03921568627453 L80 403.1862745098039 L81 411.7647058823529 L82 422.05882352941177 L83 423.77450980392155 L84 428.921568627451 L85 425.4901960784314 L86 425.4901960784314 L87 432.3529411764706 L88 437.5 L89 437.5 L90 437.5 L91 437.5 L92 437.5 L93 437.5 L94 437.5 L95 437.5 L96 437.5 L97 437.5 L98 437.5 L99 437.5 L100 437.5 L101 437.5 L102 437.5 L103 437.5 L104 437.5 L105 437.5 L106 437.5 L107 437.5 L108 437.5 L109 437.5 L110 437.5 L111 437.5 L112 406.61764705882354 L113 418.62745098039215 L114 427.20588235294116 L115 432.3529411764706 L116 437.5 L117 437.5 L118 437.5 L119 437.5 L120 437.5 L121 437.5 L122 437.5 L123 437.5 L124 437.5 L125 437.5 L126 437.5 L127 437.5 L128 437.5 L129 430.6372549019608 L130 434.0686274509804 L131 437.5 L132 430.6372549019608 L133 430.6372549019608 L134 437.5 L135 437.5 L136 430.6372549019608 L137 437.5 L138 437.5 L139 437.5 L140 437.5 L141 437.5 L142 437.5 L143 437.5 L144 437.5 L145 437.5 L146 437.5 L147 437.5 L148 437.5 L149 437.5 L150 437.5 L151 428.921568627451 L152 434.0686274509804 L153 437.5 L154 437.5 L155 437.5 L156 437.5 L157 437.5 L158 437.5 L159 437.5 L160 437.5 L161 437.5 L162 437.5 L163 437.5 L164 437.5 L165 437.5 L166 437.5 L167 437.5 L168 437.5 L169 437.5 L170 437.5 L171 437.5 L172 437.5 L173 437.5 L174 437.5 L175 437.5 L176 437.5 L177 437.5 L178 437.5 L179 437.5 L180 437.5 L181 437.5 L182 437.5 L183 437.5 L184 437.5 L185 437.5 L186 437.5 L187 437.5 L188 437.5 L189 437.5 L190 437.5 L191 437.5 L192 437.5 L193 437.5 L194 437.5 L195 437.5 L196 437.5 L197 437.5 L198 437.5 L199 437.5 L200 437.5" stroke = "blue"  stroke-width = "4" fill = "none" />
<path d = "M0 416.9117647058824 L1 428.921568627451 L2 437.5 L3 437.5 L4 437.5 L5 437.5 L6 437.5 L7 437.5 L8 437.5 L9 437.5 L10 437.5 L11 437.5 L12 437.5 L13 437.5 L14 420.343137254902 L15 427.20588235294116 L16 430.6372549019608 L17 437.5 L18 437.5 L19 437.5 L20 437.5 L21 437.5 L22 437.5 L23 437.5 L24 437.5 L25 437.5 L26 437.5 L27 437.5 L28 437.5 L29 437.5 L30 437.5 L31 437.5 L32 437.5 L33 437.5 L34 437.5 L35 437.5 L36 437.5 L37 437.5 L38 437.5 L39 437.5 L40 396.3235294117647 L41 406.61764705882354 L42 415.19607843137254 L43 423.77450980392155 L44 434.0686274509804 L45 437.5 L46 437.5 L47 437.5 L48 437.5 L49 437.5 L50 437.5 L51 437.5 L52 437.5 L53 437.5 L54 437.5 L55 437.5 L56 437.5 L57 437.5 L58 437.5 L59 437.5 L60 437.5 L61 437.5 L62 437.5 L63 437.5 L64 437.5 L65 437.5 L66 437.5 L67 437.5 L68 437.5 L69 437.5 L70 437.5 L71 437.5 L72 434.0686274509804 L73 403.1862745098039 L74 403.1862745098039 L75 410.04901960784315 L76 410.04901960784315 L77 408.3333333333333 L78 398.03921568627453 L79 401.47058823529414 L80 404.9019607843137 L81 410.04901960784315 L82 387.7450980392157 L83 387.7450980392157 L84 398.03921568627453 L85 401.47058823529414 L86 399.7549019607843 L87 398.03921568627453 L88 406.61764705882354 L89 415.19607843137254 L90 425.4901960784314 L91 435.7843137254902 L92 437.5 L93 437.5 L94 437.5 L95 437.5 L96 437.5 L97 437.5 L98 437.5 L99 437.5 L100 437.5 L101 437.5 L102 437.5 L103 437.5 L104 437.5 L105 432.3529411764706 L106 430.6372549019608 L107 408.3333333333333 L108 410.04901960784315 L109 416.9117647058824 L110 418.62745098039215 L111 428.921568627451 L112 437.5 L113 437.5 L114 427.20588235294116 L115 403.1862745098039 L116 406.61764705882354 L117 380.88235294117646 L118 386.02941176470586 L119 386.02941176470586 L120 375.7352941176471 L121 386.02941176470586 L122 379.1666666666667 L123 370.5882352941176 L124 365.44117647058823 L125 370.5882352941176 L126 368.87254901960785 L127 379.1666666666667 L128 387.7450980392157 L129 392.8921568627451 L130 394.6078431372549 L131 396.3235294117647 L132 401.47058823529414 L133 410.04901960784315 L134 422.05882352941177 L135 432.3529411764706 L136 437.5 L137 437.5 L138 437.5 L139 437.5 L140 437.5 L141 437.5 L142 437.5 L143 437.5 L144 437.5 L145 437.5 L146 437.5 L147 437.5 L148 437.5 L149 437.5 L150 437.5 L151 437.5 L152 437.5 L153 437.5 L154 437.5 L155 437.5 L156 437.5 L157 396.3235294117647 L158 403.1862745098039 L159 413.48039215686276 L160 425.4901960784314 L161 430.6372549019608 L162 392.8921568627451 L163 398.03921568627453 L164 408.3333333333333 L165 418.62745098039215 L166 413.48039215686276 L167 404.9019607843137 L168 406.61764705882354 L169 415.19607843137254 L170 425.4901960784314 L171 435.7843137254902 L172 437.5 L173 422.05882352941177 L174 432.3529411764706 L175 437.5 L176 437.5 L177 437.5 L178 437.5 L179 437.5 L180 437.5 L181 437.5 L182 437.5 L183 437.5 L184 437.5 L185 437.5 L186 437.5 L187 437.5 L188 437.5 L189 437.5 L190 437.5 L191 437.5 L192 437.5 L193 437.5 L194 437.5 L195 437.5 L196 437.5 L197 437.5 L198 437.5 L199 437.5 L200 437.5" stroke = "purple"  stroke-width = "4" fill = "none" />
</svg>