<svg width="1440" height="438" viewbox = "0 0 1440 438"  xmlns="http://www.w3.org/2000/svg">
<!--<json>{"starttime":1741657599,"startdate":"Mon Mar 10 2025 19:46:39 GMT-0600 (Mountain Daylight Time)","f1":1000,"f2":2000,"f3":3000,"f4":4000,"notes":"this is just a test run of some random noise, this is not real data but what is real data? what makes data more real?\nwhat even is real?","p1":[0,0,0,0,0,0,0,0,0,0,0,0,0,0,0,0,0,0,0,0,0,0,0,0,0,0,0,0,0,0,0,0,0,0,0,0,0,0,0,0,0,0,0,0,0,0,0,0,0,0,0,0,0,0,0,0,0,0,0,0,0,0,0,0,0,0,0,0,0,0,0,0,0,60,59,53,46,41,35,28,21,15,8,1,0,38,85,115,131,140,146,150,153,156,158,160,161,162,162,162,162,163,162,162,163,163,163,164,164,164,164,164,164,164,165,165,166,166,165,164,165,164,164,164,164,164,164,164,164,165,164,165,165,164,165,165,165,164,165,165,164,164,163,163,163,163,164,164,164,164,165,165,165,165,165,165,165,165,165,165,165,165,165,166,166,166,166,165,165,165,165,166,166,166,166,166,166,166,166,166,166,166,166,166,166,166,166,166,166,166,166,165,165,165,165,165,165,165,165,165,165,166,166,166,166,166,166,166,166,166,166,165,165,165,165,165,164,164,164,164,164,164,165,164,165,165,164,165,165,165,165,165,165,165,164,164,165,165,166,166,165,165,165,165,165,164,165,165,165,165,165,165,165,165,165,165,166,166,165,166,166,166,166,166,166,166,166,166,166,167,166,166,166,167,167,167,167,167,167,167,166,167,167,167,166,166,166,167,167,166,166,166,166,166,166,166,166,166,166,166,166,166,166,166,166,167,167,166,166,166,167,167,166,166,167,166,166,166,166,166,166,166,165,165,165,165,165,165,165,165,165,166,166,166,166,166,166,166,166,166,166,166,166,165,165,165,165,165,165,165,165,165,166,166,166,166,166,166,166,166,166,166,166,165,165,165,165,165,165,165,165,165,165,165,165,165,165,165,165,165,165,166,166,166,166,166,166,166,166,166,166,166,166,166,166,166,166,166,166,166,166,166,166,165,165,165,165,165,165,164,164,164,165,164,164,164,164,164,164,164,164,164,164,164,164,164,164,164,164,164,164,164,164,164,164,164,165,165,165,165,165,166,166,166,166,166,166,166,166,166,166,166,166,166,166,166,165,166,166,165,165,165,165,165,164,165,163,163,164,165,166,165,166,167,166,166,166,166,166,167,166,165,165,165,165,165,165,164,165,165,166,166,167,167,167,167,166,166,165,166,165,166,166,166,167,167,166,166,166,166,166,166,166,166,166,166,166,166,166,166,166,166,166,166,166,166,166,165,165,166,166,166,166,166,166,166,166,166,166,166,165,165,166,166,166,166,166,166,166,166,166,165,165,165,165,165,165,165,165,165,165,165,164,165,166,165,165,166,166,166,166,166,166,166,166,167,167,166,166,166,166,166,166,166,167,166,165,165,166,167,167,166,166,167,166,165,165,165,165,166,166,166,166,166,166,166,167,167,166,166,166,166,166,166,166,166,167,166,166,166,166,166,166,166,166,166,165,166,166,166,166,166,166,166,166,166,166,166,166,166,166,166,166,166,166,166,166,166,166,166,166,166,166,166,166,166,166,166,165,165,165,165,165,165,165,165,165,165,165,166,166,166,166,166,166,166,166,166,166,166,166,166,166,166,166,166,165,165,165,165,165,165,166,166,166,166,166,166,166,166,166,166,166,166,166,166,166,166,166,166,166,166,166,166,166,166,166,166,166,166,166],"p2":[0,0,0,0,0,0,0,0,0,0,0,0,0,0,0,0,0,0,0,0,0,0,0,0,0,0,0,0,0,0,0,0,0,0,0,0,0,0,0,0,0,0,0,0,0,0,0,8,4,0,0,0,0,0,0,2,0,0,0,0,0,0,0,0,0,0,0,11,16,10,6,1,0,62,57,51,45,40,33,27,20,14,7,1,0,0,0,0,27,31,25,20,15,16,24,30,29,24,23,18,15,11,6,2,4,0,5,9,8,7,6,6,8,18,23,34,30,26,32,53,55,49,45,54,53,52,56,50,45,44,52,59,57,55,50,45,50,46,44,46,45,46,40,38,41,42,45,47,43,49,48,48,41,35,36,36,34,30,32,26,31,33,36,32,28,23,20,17,18,17,17,13,12,10,9,9,5,4,6,6,8,8,8,3,0,0,1,0,0,4,10,15,13,13,26,22,16,17,14,13,12,13,13,28,29,26,21,19,18,13,14,9,8,14,14,13,18,20,15,12,8,4,2,5,13,25,27,23,23,21,27,23,20,15,20,23,23,30,39,37,34,28,24,23,17,24,20,14,12,9,11,7,11,5,8,4,19,19,26,26,23,21,26,23,16,16,14,17,19,33,28,26,23,22,19,16,12,9,4,6,7,7,4,0,0,0,0,0,0,0,0,0,0,0,0,0,0,0,0,0,0,0,0,0,0,0,0,0,0,0,0,0,0,0,0,0,0,0,0,0,0,0,0,0,8,5,0,0,0,0,0,0,0,0,5,11,18,14,12,10,5,0,0,0,0,0,0,0,0,0,0,0,0,0,0,0,0,0,0,0,0,0,0,0,0,0,0,0,0,0,0,0,0,0,0,0,0,3,13,18,14,12,6,1,0,0,0,0,0,0,0,0,0,0,0,0,0,0,0,0,0,0,0,0,0,0,0,0,0,0,0,0,0,0,0,0,0,0,0,0,0,0,0,9,6,0,0,0,0,0,0,0,0,0,0,0,0,0,0,0,0,0,0,0,0,0,0,0,0,0,0,0,0,0,0,7,7,4,4,8,16,16,29,29,35,36,50,66,65,64,58,58,62,63,66,74,72,73,75,71,70,68,66,62,60,62,59,59,53,47,49,53,51,52,51,54,57,57,56,58,55,51,52,47,47,44,41,35,36,37,37,42,36,36,34,31,25,30,38,41,40,39,37,33,29,27,23,24,22,21,22,21,21,23,21,21,24,29,27,24,32,37,34,31,31,30,26,29,28,26,32,32,40,38,36,39,35,29,26,24,21,33,31,30,30,31,28,27,24,19,17,15,32,37,41,44,40,40,39,34,32,34,28,28,29,33,43,39,39,41,37,31,27,22,20,29,38,46,42,41,37,33,33,32,28,39,44,39,45,42,39,40,35,29,25,25,34,40,41,39,38,36,32,29,23,17,12,17,15,13,12,10,12,11,5,4,0,0,0,0,0,0,0,0,0,0,0,0,0,0,0,0,0,0,0,0,0,0,0,0,0,0,0,0,0,0,0,0,0,0,0,0,6,26,21,15,8,2,0,0,0,2,12,15,10,6,0,0,0,0,0,0,0,0,0,11,10,4,0,0,0,0,0,0,0,0,0,0,0,0,0,0,0,0,0,0,0,0,0,0,0],"p3":[0,0,0,0,0,0,0,0,0,0,0,0,0,0,0,0,0,0,0,0,0,0,0,0,0,0,0,0,0,0,0,0,0,0,0,0,0,0,0,0,0,0,0,0,0,0,0,0,0,0,0,0,0,0,0,0,0,0,0,0,0,0,0,0,0,0,0,0,0,0,0,0,0,7,6,4,0,0,0,0,0,0,0,0,0,0,0,0,0,5,3,0,0,0,0,0,0,0,0,0,0,0,0,0,0,0,0,0,0,0,0,0,0,0,0,0,0,0,0,0,0,0,0,0,0,0,4,4,8,3,0,0,0,0,0,0,0,0,0,0,0,0,0,0,0,0,0,0,0,4,10,5,2,0,0,0,0,0,0,5,7,7,5,1,0,1,0,0,0,0,0,0,0,0,0,0,0,0,0,0,0,0,0,0,0,0,0,0,0,0,0,0,0,0,0,0,0,0,0,0,0,0,0,0,1,10,5,0,0,0,0,0,0,0,0,0,0,0,0,0,0,0,0,0,0,0,0,0,0,0,0,0,0,0,0,0,0,3,6,0,0,0,0,0,0,0,0,0,4,7,0,0,0,0,0,0,0,0,0,0,0,0,0,0,0,0,0,0,0,3,4,3,0,0,0,0,0,0,0,0,0,0,0,0,0,0,0,0,0,0,0,0,0,0,0,0,0,0,0,0,0,0,0,0,0,0,0,0,0,0,0,0,0,0,0,0,0,0,0,0,0,0,0,0,0,0,0,0,0,0,0,0,0,0,0,0,0,0,0,0,0,0,0,0,0,0,0,0,0,0,0,0,0,0,0,0,0,0,0,0,0,0,0,0,0,0,0,0,0,0,0,0,0,0,0,0,0,0,5,7,11,7,3,4,4,7,6,1,0,0,0,0,0,1,0,1,0,0,0,0,0,0,0,0,0,0,0,0,0,0,0,0,0,0,0,0,0,0,0,0,0,6,0,3,3,4,3,0,0,0,0,0,0,0,0,0,0,0,0,0,0,0,0,0,0,0,0,0,0,0,0,0,0,0,0,0,0,0,0,0,0,0,0,0,0,0,0,0,0,0,0,0,0,0,0,0,0,0,0,0,0,0,0,0,0,0,0,0,0,0,0,0,0,0,6,2,7,10,14,12,10,4,3,0,0,0,0,0,0,3,8,5,1,0,0,0,0,0,0,0,0,2,0,0,0,0,0,0,0,0,0,0,0,0,0,0,0,0,0,0,0,0,0,0,0,0,0,0,0,0,0,0,0,0,0,0,0,0,0,0,0,0,0,0,7,6,2,0,0,0,0,0,0,0,0,3,0,0,0,0,0,0,0,0,0,0,0,0,0,0,0,0,0,0,0,0,0,4,1,0,0,0,0,0,0,0,0,0,0,0,0,0,0,0,0,0,0,0,0,0,0,0,0,0,0,0,0,0,0,0,0,0,0,0,0,0,0,0,0,0,0,0,0,0,0,0,0,0,0,0,0,0,0,0,0,0,0,0,0,0,0,0,0,0,0,0,0,0,0,0,0,0,0,0,0,0,0,0,0,0,0,0,0,0,0,0,0,0,0,0,0,0,0,0,0,0,0,0,0,0,0,0,0,0,3,4,5,6,2,0,0,4,0,0,0,0,1,1,2,0,0],"p4":[0,0,0,0,0,0,0,0,0,0,0,0,0,0,0,0,0,0,0,0,0,0,0,0,0,0,0,0,0,0,0,0,0,0,0,0,0,0,0,0,0,0,0,0,0,0,0,0,0,0,0,0,0,0,0,0,0,0,0,0,0,0,0,0,0,0,0,0,0,0,0,0,0,40,34,29,22,17,11,5,0,0,0,0,0,0,0,0,0,0,0,0,0,0,0,0,0,0,0,0,0,0,0,0,0,0,0,0,0,0,0,0,0,0,0,0,0,0,0,0,0,0,0,0,0,0,0,0,0,0,0,0,0,0,0,0,0,0,0,0,0,0,0,0,0,0,0,0,0,0,0,0,0,0,0,0,0,0,0,0,0,0,0,0,0,0,0,0,0,0,0,0,0,0,0,0,0,0,0,0,0,0,0,0,0,0,0,0,0,0,0,0,0,1,0,0,0,0,0,0,0,0,0,0,0,0,0,0,0,0,0,0,0,0,0,0,0,0,0,0,0,0,0,0,0,0,0,0,0,0,0,0,0,0,0,0,0,0,0,0,0,0,0,0,0,0,0,0,0,0,0,1,0,0,0,0,0,0,0,0,0,0,0,0,0,0,0,0,0,0,0,0,0,0,0,0,0,0,0,0,0,0,0,0,0,0,0,0,0,0,0,0,0,0,0,0,0,0,0,0,0,0,0,0,0,0,0,0,0,0,0,0,0,0,0,0,0,0,0,0,0,0,0,0,0,0,0,0,0,0,0,0,0,0,2,12,20,14,11,11,7,1,0,0,0,0,0,0,0,0,0,0,0,0,0,0,0,0,1,0,0,0,0,6,4,4,8,12,12,7,2,2,7,4,6,4,0,0,1,0,0,0,0,0,0,0,0,0,6,13,9,8,3,9,8,11,12,9,6,3,7,7,5,1,3,0,0,1,0,0,0,0,0,0,0,2,0,3,2,2,2,7,13,12,11,9,7,9,11,9,3,4,5,1,0,0,0,0,0,0,0,0,0,6,10,14,9,3,0,0,0,0,0,0,0,0,0,0,0,0,0,0,0,0,0,0,0,0,0,0,0,0,0,0,0,0,0,0,0,0,0,0,0,0,0,0,0,0,0,0,0,0,0,0,0,0,0,0,0,0,0,0,0,0,0,0,0,0,0,0,0,0,0,0,6,5,0,0,1,11,6,11,6,1,0,0,0,0,0,0,0,0,10,3,0,3,0,0,0,0,0,9,6,1,0,0,0,0,0,0,0,3,0,0,1,0,0,0,0,0,0,0,0,7,14,16,11,8,11,10,10,9,9,11,12,15,8,2,0,0,0,0,0,0,0,0,0,0,0,0,0,0,0,0,0,0,0,0,0,0,0,9,12,9,3,8,6,9,8,4,0,0,1,1,0,0,0,0,0,3,1,0,0,0,0,0,0,0,0,0,0,1,1,0,0,0,0,0,0,0,0,0,0,0,0,0,0,0,0,0,0,0,0,0,0,0,0,0,0,0,0,0,0,0,0,0,0,0,0,0,0,0,0,0,0,0,0,0,0,0,0,0,0,0,0,0,0,0,0,0,0,0,0,0,0,0,0,0,0,0,0,0,0,0,0,0,0,0,0,0,0,0,0,0,0,0,0,0,0,0,0],"timeseconds":[0.20000004768371582,0.20000004768371582,0.20000004768371582,0.2999999523162842,0.2999999523162842,0.2999999523162842,0.40000009536743164,0.40000009536743164,0.40000009536743164,0.5,0.5,0.5,0.5999999046325684,0.5999999046325684,0.5999999046325684,0.7000000476837158,0.7000000476837158,0.7000000476837158,0.7999999523162842,0.7999999523162842,0.7999999523162842,0.9000000953674316,0.9000000953674316,0.9000000953674316,1,1,1,1.0999999046325684,1.0999999046325684,1.0999999046325684,1.2000000476837158,1.2000000476837158,1.2000000476837158,1.2999999523162842,1.2999999523162842,1.2999999523162842,1.4000000953674316,1.4000000953674316,1.4000000953674316,1.5,1.5,1.5,1.5999999046325684,1.5999999046325684,1.5999999046325684,1.7000000476837158,1.7000000476837158,1.7000000476837158,1.7999999523162842,1.7999999523162842,1.7999999523162842,1.9000000953674316,1.9000000953674316,1.9000000953674316,2,2,2,2.0999999046325684,2.0999999046325684,2.0999999046325684,2.200000047683716,2.200000047683716,2.200000047683716,2.299999952316284,2.299999952316284,2.299999952316284,2.4000000953674316,2.4000000953674316,2.4000000953674316,2.5,2.5,2.5,2.5999999046325684,2.5999999046325684,2.5999999046325684,2.700000047683716,2.700000047683716,2.700000047683716,2.799999952316284,2.799999952316284,2.799999952316284,2.9000000953674316,2.9000000953674316,2.9000000953674316,3,3,3,3.0999999046325684,3.0999999046325684,3.0999999046325684,3.200000047683716,3.200000047683716,3.200000047683716,3.299999952316284,3.299999952316284,3.299999952316284,3.4000000953674316,3.4000000953674316,3.4000000953674316,3.5,3.5,3.5,3.5999999046325684,3.5999999046325684,3.5999999046325684,3.700000047683716,3.700000047683716,3.700000047683716,3.799999952316284,3.799999952316284,3.799999952316284,3.9000000953674316,3.9000000953674316,4,4,4,4.099999904632568,4.099999904632568,4.099999904632568,4.200000047683716,4.200000047683716,4.200000047683716,4.299999952316284,4.299999952316284,4.299999952316284,4.400000095367432,4.400000095367432,4.400000095367432,4.5,4.5,4.5,4.599999904632568,4.599999904632568,4.599999904632568,4.700000047683716,4.700000047683716,4.700000047683716,4.799999952316284,4.799999952316284,4.799999952316284,4.900000095367432,4.900000095367432,4.900000095367432,5,5,5,5.099999904632568,5.099999904632568,5.099999904632568,5.200000047683716,5.200000047683716,5.200000047683716,5.299999952316284,5.299999952316284,5.299999952316284,5.400000095367432,5.400000095367432,5.400000095367432,5.5,5.5,5.5,5.599999904632568,5.599999904632568,5.599999904632568,5.700000047683716,5.700000047683716,5.700000047683716,5.799999952316284,5.799999952316284,5.799999952316284,5.900000095367432,5.900000095367432,5.900000095367432,6,6,6,6.099999904632568,6.099999904632568,6.099999904632568,6.200000047683716,6.200000047683716,6.200000047683716,6.299999952316284,6.299999952316284,6.299999952316284,6.400000095367432,6.400000095367432,6.400000095367432,6.5,6.5,6.5,6.599999904632568,6.599999904632568,6.599999904632568,6.700000047683716,6.700000047683716,6.700000047683716,6.799999952316284,6.799999952316284,6.799999952316284,6.900000095367432,6.900000095367432,6.900000095367432,7,7,7,7.099999904632568,7.099999904632568,7.099999904632568,7.200000047683716,7.200000047683716,7.200000047683716,7.299999952316284,7.299999952316284,7.299999952316284,7.400000095367432,7.400000095367432,7.400000095367432,7.5,7.5,7.5,7.599999904632568,7.599999904632568,7.599999904632568,7.700000047683716,7.700000047683716,7.700000047683716,7.799999952316284,7.799999952316284,7.799999952316284,7.900000095367432,7.900000095367432,7.900000095367432,8,8,8,8.099999904632568,8.099999904632568,8.099999904632568,8.200000047683716,8.200000047683716,8.200000047683716,8.299999952316284,8.299999952316284,8.299999952316284,8.400000095367432,8.400000095367432,8.400000095367432,8.5,8.5,8.5,8.599999904632568,8.599999904632568,8.599999904632568,8.700000047683716,8.700000047683716,8.700000047683716,8.799999952316284,8.799999952316284,8.799999952316284,8.900000095367432,8.900000095367432,8.900000095367432,9,9,9,9.099999904632568,9.099999904632568,9.099999904632568,9.200000047683716,9.200000047683716,9.200000047683716,9.299999952316284,9.299999952316284,9.299999952316284,9.400000095367432,9.400000095367432,9.400000095367432,9.5,9.5,9.5,9.599999904632568,9.599999904632568,9.599999904632568,9.700000047683716,9.700000047683716,9.700000047683716,9.799999952316284,9.799999952316284,9.799999952316284,9.900000095367432,9.900000095367432,9.900000095367432,10,10,10,10.099999904632568,10.099999904632568,10.099999904632568,10.200000047683716,10.200000047683716,10.200000047683716,10.299999952316284,10.299999952316284,10.299999952316284,10.400000095367432,10.400000095367432,10.400000095367432,10.5,10.5,10.5,10.599999904632568,10.599999904632568,10.599999904632568,10.700000047683716,10.700000047683716,10.700000047683716,10.799999952316284,10.799999952316284,10.799999952316284,10.900000095367432,10.900000095367432,10.900000095367432,11,11,11,11.099999904632568,11.099999904632568,11.099999904632568,11.200000047683716,11.200000047683716,11.200000047683716,11.299999952316284,11.299999952316284,11.299999952316284,11.400000095367432,11.400000095367432,11.400000095367432,11.5,11.5,11.5,11.599999904632568,11.599999904632568,11.599999904632568,11.700000047683716,11.700000047683716,11.700000047683716,11.799999952316284,11.799999952316284,11.799999952316284,11.900000095367432,11.900000095367432,11.900000095367432,12,12,12,12.099999904632568,12.099999904632568,12.099999904632568,12.200000047683716,12.200000047683716,12.200000047683716,12.299999952316284,12.299999952316284,12.299999952316284,12.400000095367432,12.400000095367432,12.400000095367432,12.5,12.5,12.5,12.599999904632568,12.599999904632568,12.599999904632568,12.700000047683716,12.700000047683716,12.700000047683716,12.799999952316284,12.799999952316284,12.799999952316284,12.900000095367432,12.900000095367432,12.900000095367432,13,13,13,13.099999904632568,13.099999904632568,13.099999904632568,13.200000047683716,13.200000047683716,13.200000047683716,13.299999952316284,13.299999952316284,13.299999952316284,13.400000095367432,13.400000095367432,13.400000095367432,13.5,13.5,13.5,13.599999904632568,13.599999904632568,13.599999904632568,13.700000047683716,13.700000047683716,13.700000047683716,13.799999952316284,13.799999952316284,13.799999952316284,13.900000095367432,13.900000095367432,13.900000095367432,14,14,14,14.099999904632568,14.099999904632568,14.099999904632568,14.200000047683716,14.200000047683716,14.200000047683716,14.299999952316284,14.299999952316284,14.299999952316284,14.400000095367432,14.400000095367432,14.400000095367432,14.5,14.5,14.5,14.599999904632568,14.599999904632568,14.599999904632568,14.700000047683716,14.700000047683716,14.700000047683716,14.799999952316284,14.799999952316284,14.799999952316284,14.900000095367432,14.900000095367432,14.900000095367432,15,15,15,15.099999904632568,15.099999904632568,15.099999904632568,15.200000047683716,15.200000047683716,15.200000047683716,15.299999952316284,15.299999952316284,15.299999952316284,15.400000095367432,15.400000095367432,15.400000095367432,15.5,15.5,15.5,15.599999904632568,15.599999904632568,15.599999904632568,15.700000047683716,15.700000047683716,15.700000047683716,15.799999952316284,15.799999952316284,15.799999952316284,15.900000095367432,15.900000095367432,15.900000095367432,16,16,16,16.09999990463257,16.09999990463257,16.09999990463257,16.200000047683716,16.200000047683716,16.200000047683716,16.299999952316284,16.299999952316284,16.299999952316284,16.40000009536743,16.40000009536743,16.40000009536743,16.5,16.5,16.5,16.59999990463257,16.59999990463257,16.59999990463257,16.700000047683716,16.700000047683716,16.799999952316284,16.799999952316284,16.799999952316284,16.90000009536743,16.90000009536743,16.90000009536743,17,17,17,17.09999990463257,17.09999990463257,17.09999990463257,17.200000047683716,17.200000047683716,17.200000047683716,17.299999952316284,17.299999952316284,17.299999952316284,17.40000009536743,17.40000009536743,17.40000009536743,17.5,17.5,17.5,17.59999990463257,17.59999990463257,17.59999990463257,17.700000047683716,17.700000047683716,17.700000047683716,17.799999952316284,17.799999952316284,17.799999952316284,17.90000009536743,17.90000009536743,17.90000009536743,18,18,18,18.09999990463257,18.09999990463257,18.09999990463257,18.200000047683716,18.200000047683716,18.200000047683716,18.299999952316284,18.299999952316284,18.299999952316284,18.40000009536743,18.40000009536743,18.40000009536743,18.5,18.5,18.5,18.59999990463257,18.59999990463257,18.59999990463257,18.700000047683716,18.700000047683716,18.700000047683716,18.799999952316284,18.799999952316284,18.799999952316284,18.90000009536743,18.90000009536743,18.90000009536743,19,19,19,19.09999990463257,19.09999990463257,19.09999990463257,19.200000047683716,19.200000047683716,19.200000047683716,19.299999952316284,19.299999952316284,19.299999952316284,19.40000009536743,19.40000009536743,19.40000009536743,19.5,19.5,19.5,19.59999990463257,19.59999990463257,19.59999990463257,19.700000047683716,19.700000047683716,19.700000047683716,19.799999952316284,19.799999952316284,19.799999952316284,19.90000009536743,19.90000009536743,19.90000009536743,20,20,20,20.09999990463257,20.09999990463257,20.09999990463257,20.200000047683716,20.200000047683716,20.200000047683716,20.299999952316284,20.299999952316284,20.299999952316284,20.40000009536743,20.40000009536743,20.40000009536743,20.5,20.5,20.5,20.59999990463257,20.59999990463257,20.59999990463257,20.700000047683716,20.700000047683716,20.700000047683716,20.799999952316284,20.799999952316284,20.799999952316284,20.90000009536743,20.90000009536743,20.90000009536743,21,21,21,21.09999990463257,21.09999990463257,21.09999990463257,21.200000047683716,21.200000047683716,21.200000047683716,21.299999952316284,21.299999952316284,21.299999952316284,21.40000009536743,21.40000009536743,21.40000009536743,21.5,21.5,21.5,21.59999990463257,21.59999990463257,21.59999990463257,21.700000047683716,21.700000047683716,21.700000047683716,21.799999952316284,21.799999952316284,21.799999952316284,21.90000009536743,21.90000009536743,21.90000009536743,22,22,22,22.09999990463257,22.09999990463257,22.09999990463257,22.200000047683716,22.200000047683716,22.200000047683716,22.299999952316284,22.299999952316284,22.299999952316284,22.40000009536743,22.40000009536743,22.40000009536743,22.5,22.5,22.5,22.59999990463257,22.59999990463257,22.59999990463257,22.700000047683716,22.700000047683716,22.700000047683716,22.799999952316284,22.799999952316284,22.799999952316284,22.90000009536743,22.90000009536743,22.90000009536743,23,23,23,23.09999990463257,23.09999990463257,23.09999990463257,23.200000047683716,23.200000047683716,23.200000047683716,23.299999952316284,23.299999952316284,23.299999952316284,23.40000009536743,23.40000009536743,23.40000009536743,23.5,23.5,23.5,23.59999990463257,23.59999990463257,23.59999990463257,23.700000047683716,23.700000047683716,23.700000047683716,23.799999952316284,23.799999952316284,23.799999952316284,23.90000009536743,23.90000009536743,23.90000009536743,24,24,24,24.09999990463257,24.09999990463257,24.09999990463257,24.200000047683716,24.200000047683716,24.200000047683716]}</json>-->
<path d = "M0 438 L1 438 L2 438 L3 438 L4 438 L5 438 L6 438 L7 438 L8 438 L9 438 L10 438 L11 438 L12 438 L13 438 L14 438 L15 438 L16 438 L17 438 L18 438 L19 438 L20 438 L21 438 L22 438 L23 438 L24 438 L25 438 L26 438 L27 438 L28 438 L29 438 L30 438 L31 438 L32 438 L33 438 L34 438 L35 438 L36 438 L37 438 L38 438 L39 438 L40 438 L41 438 L42 438 L43 438 L44 438 L45 438 L46 438 L47 438 L48 438 L49 438 L50 438 L51 438 L52 438 L53 438 L54 438 L55 438 L56 438 L57 438 L58 438 L59 438 L60 438 L61 438 L62 438 L63 438 L64 438 L65 438 L66 438 L67 438 L68 438 L69 438 L70 438 L71 438 L72 438 L73 334.94117647058823 L74 336.65882352941173 L75 346.9647058823529 L76 358.98823529411766 L77 367.5764705882353 L78 377.88235294117646 L79 389.90588235294115 L80 401.9294117647059 L81 412.2352941176471 L82 424.25882352941176 L83 436.2823529411765 L84 438 L85 372.7294117647059 L86 292 L87 240.47058823529412 L88 212.98823529411766 L89 197.52941176470586 L90 187.22352941176473 L91 180.35294117647055 L92 175.2 L93 170.04705882352937 L94 166.61176470588236 L95 163.1764705882353 L96 161.4588235294118 L97 159.74117647058824 L98 159.74117647058824 L99 159.74117647058824 L100 159.74117647058824 L101 158.02352941176474 L102 159.74117647058824 L103 159.74117647058824 L104 158.02352941176474 L105 158.02352941176474 L106 158.02352941176474 L107 156.30588235294118 L108 156.30588235294118 L109 156.30588235294118 L110 156.30588235294118 L111 156.30588235294118 L112 156.30588235294118 L113 156.30588235294118 L114 154.58823529411762 L115 154.58823529411762 L116 152.87058823529412 L117 152.87058823529412 L118 154.58823529411762 L119 156.30588235294118 L120 154.58823529411762 L121 156.30588235294118 L122 156.30588235294118 L123 156.30588235294118 L124 156.30588235294118 L125 156.30588235294118 L126 156.30588235294118 L127 156.30588235294118 L128 156.30588235294118 L129 154.58823529411762 L130 156.30588235294118 L131 154.58823529411762 L132 154.58823529411762 L133 156.30588235294118 L134 154.58823529411762 L135 154.58823529411762 L136 154.58823529411762 L137 156.30588235294118 L138 154.58823529411762 L139 154.58823529411762 L140 156.30588235294118 L141 156.30588235294118 L142 158.02352941176474 L143 158.02352941176474 L144 158.02352941176474 L145 158.02352941176474 L146 156.30588235294118 L147 156.30588235294118 L148 156.30588235294118 L149 156.30588235294118 L150 154.58823529411762 L151 154.58823529411762 L152 154.58823529411762 L153 154.58823529411762 L154 154.58823529411762 L155 154.58823529411762 L156 154.58823529411762 L157 154.58823529411762 L158 154.58823529411762 L159 154.58823529411762 L160 154.58823529411762 L161 154.58823529411762 L162 154.58823529411762 L163 152.87058823529412 L164 152.87058823529412 L165 152.87058823529412 L166 152.87058823529412 L167 154.58823529411762 L168 154.58823529411762 L169 154.58823529411762 L170 154.58823529411762 L171 152.87058823529412 L172 152.87058823529412 L173 152.87058823529412 L174 152.87058823529412 L175 152.87058823529412 L176 152.87058823529412 L177 152.87058823529412 L178 152.87058823529412 L179 152.87058823529412 L180 152.87058823529412 L181 152.87058823529412 L182 152.87058823529412 L183 152.87058823529412 L184 152.87058823529412 L185 152.87058823529412 L186 152.87058823529412 L187 152.87058823529412 L188 152.87058823529412 L189 152.87058823529412 L190 152.87058823529412 L191 154.58823529411762 L192 154.58823529411762 L193 154.58823529411762 L194 154.58823529411762 L195 154.58823529411762 L196 154.58823529411762 L197 154.58823529411762 L198 154.58823529411762 L199 154.58823529411762 L200 154.58823529411762 L201 152.87058823529412 L202 152.87058823529412 L203 152.87058823529412 L204 152.87058823529412 L205 152.87058823529412 L206 152.87058823529412 L207 152.87058823529412 L208 152.87058823529412 L209 152.87058823529412 L210 152.87058823529412 L211 154.58823529411762 L212 154.58823529411762 L213 154.58823529411762 L214 154.58823529411762 L215 154.58823529411762 L216 156.30588235294118 L217 156.30588235294118 L218 156.30588235294118 L219 156.30588235294118 L220 156.30588235294118 L221 156.30588235294118 L222 154.58823529411762 L223 156.30588235294118 L224 154.58823529411762 L225 154.58823529411762 L226 156.30588235294118 L227 154.58823529411762 L228 154.58823529411762 L229 154.58823529411762 L230 154.58823529411762 L231 154.58823529411762 L232 154.58823529411762 L233 154.58823529411762 L234 156.30588235294118 L235 156.30588235294118 L236 154.58823529411762 L237 154.58823529411762 L238 152.87058823529412 L239 152.87058823529412 L240 154.58823529411762 L241 154.58823529411762 L242 154.58823529411762 L243 154.58823529411762 L244 154.58823529411762 L245 156.30588235294118 L246 154.58823529411762 L247 154.58823529411762 L248 154.58823529411762 L249 154.58823529411762 L250 154.58823529411762 L251 154.58823529411762 L252 154.58823529411762 L253 154.58823529411762 L254 154.58823529411762 L255 154.58823529411762 L256 152.87058823529412 L257 152.87058823529412 L258 154.58823529411762 L259 152.87058823529412 L260 152.87058823529412 L261 152.87058823529412 L262 152.87058823529412 L263 152.87058823529412 L264 152.87058823529412 L265 152.87058823529412 L266 152.87058823529412 L267 152.87058823529412 L268 152.87058823529412 L269 151.15294117647056 L270 152.87058823529412 L271 152.87058823529412 L272 152.87058823529412 L273 151.15294117647056 L274 151.15294117647056 L275 151.15294117647056 L276 151.15294117647056 L277 151.15294117647056 L278 151.15294117647056 L279 151.15294117647056 L280 152.87058823529412 L281 151.15294117647056 L282 151.15294117647056 L283 151.15294117647056 L284 152.87058823529412 L285 152.87058823529412 L286 152.87058823529412 L287 151.15294117647056 L288 151.15294117647056 L289 152.87058823529412 L290 152.87058823529412 L291 152.87058823529412 L292 152.87058823529412 L293 152.87058823529412 L294 152.87058823529412 L295 152.87058823529412 L296 152.87058823529412 L297 152.87058823529412 L298 152.87058823529412 L299 152.87058823529412 L300 152.87058823529412 L301 152.87058823529412 L302 152.87058823529412 L303 152.87058823529412 L304 152.87058823529412 L305 151.15294117647056 L306 151.15294117647056 L307 152.87058823529412 L308 152.87058823529412 L309 152.87058823529412 L310 151.15294117647056 L311 151.15294117647056 L312 152.87058823529412 L313 152.87058823529412 L314 151.15294117647056 L315 152.87058823529412 L316 152.87058823529412 L317 152.87058823529412 L318 152.87058823529412 L319 152.87058823529412 L320 152.87058823529412 L321 152.87058823529412 L322 154.58823529411762 L323 154.58823529411762 L324 154.58823529411762 L325 154.58823529411762 L326 154.58823529411762 L327 154.58823529411762 L328 154.58823529411762 L329 154.58823529411762 L330 154.58823529411762 L331 152.87058823529412 L332 152.87058823529412 L333 152.87058823529412 L334 152.87058823529412 L335 152.87058823529412 L336 152.87058823529412 L337 152.87058823529412 L338 152.87058823529412 L339 152.87058823529412 L340 152.87058823529412 L341 152.87058823529412 L342 152.87058823529412 L343 154.58823529411762 L344 154.58823529411762 L345 154.58823529411762 L346 154.58823529411762 L347 154.58823529411762 L348 154.58823529411762 L349 154.58823529411762 L350 154.58823529411762 L351 154.58823529411762 L352 152.87058823529412 L353 152.87058823529412 L354 152.87058823529412 L355 152.87058823529412 L356 152.87058823529412 L357 152.87058823529412 L358 152.87058823529412 L359 152.87058823529412 L360 152.87058823529412 L361 152.87058823529412 L362 152.87058823529412 L363 154.58823529411762 L364 154.58823529411762 L365 154.58823529411762 L366 154.58823529411762 L367 154.58823529411762 L368 154.58823529411762 L369 154.58823529411762 L370 154.58823529411762 L371 154.58823529411762 L372 154.58823529411762 L373 154.58823529411762 L374 154.58823529411762 L375 154.58823529411762 L376 154.58823529411762 L377 154.58823529411762 L378 154.58823529411762 L379 154.58823529411762 L380 154.58823529411762 L381 152.87058823529412 L382 152.87058823529412 L383 152.87058823529412 L384 152.87058823529412 L385 152.87058823529412 L386 152.87058823529412 L387 152.87058823529412 L388 152.87058823529412 L389 152.87058823529412 L390 152.87058823529412 L391 152.87058823529412 L392 152.87058823529412 L393 152.87058823529412 L394 152.87058823529412 L395 152.87058823529412 L396 152.87058823529412 L397 152.87058823529412 L398 152.87058823529412 L399 152.87058823529412 L400 152.87058823529412 L401 152.87058823529412 L402 152.87058823529412 L403 154.58823529411762 L404 154.58823529411762 L405 154.58823529411762 L406 154.58823529411762 L407 154.58823529411762 L408 154.58823529411762 L409 156.30588235294118 L410 156.30588235294118 L411 156.30588235294118 L412 154.58823529411762 L413 156.30588235294118 L414 156.30588235294118 L415 156.30588235294118 L416 156.30588235294118 L417 156.30588235294118 L418 156.30588235294118 L419 156.30588235294118 L420 156.30588235294118 L421 156.30588235294118 L422 156.30588235294118 L423 156.30588235294118 L424 156.30588235294118 L425 156.30588235294118 L426 156.30588235294118 L427 156.30588235294118 L428 156.30588235294118 L429 156.30588235294118 L430 156.30588235294118 L431 156.30588235294118 L432 156.30588235294118 L433 156.30588235294118 L434 156.30588235294118 L435 156.30588235294118 L436 154.58823529411762 L437 154.58823529411762 L438 154.58823529411762 L439 154.58823529411762 L440 154.58823529411762 L441 152.87058823529412 L442 152.87058823529412 L443 152.87058823529412 L444 152.87058823529412 L445 152.87058823529412 L446 152.87058823529412 L447 152.87058823529412 L448 152.87058823529412 L449 152.87058823529412 L450 152.87058823529412 L451 152.87058823529412 L452 152.87058823529412 L453 152.87058823529412 L454 152.87058823529412 L455 152.87058823529412 L456 154.58823529411762 L457 152.87058823529412 L458 152.87058823529412 L459 154.58823529411762 L460 154.58823529411762 L461 154.58823529411762 L462 154.58823529411762 L463 154.58823529411762 L464 156.30588235294118 L465 154.58823529411762 L466 158.02352941176474 L467 158.02352941176474 L468 156.30588235294118 L469 154.58823529411762 L470 152.87058823529412 L471 154.58823529411762 L472 152.87058823529412 L473 151.15294117647056 L474 152.87058823529412 L475 152.87058823529412 L476 152.87058823529412 L477 152.87058823529412 L478 152.87058823529412 L479 151.15294117647056 L480 152.87058823529412 L481 154.58823529411762 L482 154.58823529411762 L483 154.58823529411762 L484 154.58823529411762 L485 154.58823529411762 L486 154.58823529411762 L487 156.30588235294118 L488 154.58823529411762 L489 154.58823529411762 L490 152.87058823529412 L491 152.87058823529412 L492 151.15294117647056 L493 151.15294117647056 L494 151.15294117647056 L495 151.15294117647056 L496 152.87058823529412 L497 152.87058823529412 L498 154.58823529411762 L499 152.87058823529412 L500 154.58823529411762 L501 152.87058823529412 L502 152.87058823529412 L503 152.87058823529412 L504 151.15294117647056 L505 151.15294117647056 L506 152.87058823529412 L507 152.87058823529412 L508 152.87058823529412 L509 152.87058823529412 L510 152.87058823529412 L511 152.87058823529412 L512 152.87058823529412 L513 152.87058823529412 L514 152.87058823529412 L515 152.87058823529412 L516 152.87058823529412 L517 152.87058823529412 L518 152.87058823529412 L519 152.87058823529412 L520 152.87058823529412 L521 152.87058823529412 L522 152.87058823529412 L523 152.87058823529412 L524 152.87058823529412 L525 152.87058823529412 L526 152.87058823529412 L527 154.58823529411762 L528 154.58823529411762 L529 152.87058823529412 L530 152.87058823529412 L531 152.87058823529412 L532 152.87058823529412 L533 152.87058823529412 L534 152.87058823529412 L535 152.87058823529412 L536 152.87058823529412 L537 152.87058823529412 L538 152.87058823529412 L539 152.87058823529412 L540 154.58823529411762 L541 154.58823529411762 L542 152.87058823529412 L543 152.87058823529412 L544 152.87058823529412 L545 152.87058823529412 L546 152.87058823529412 L547 152.87058823529412 L548 152.87058823529412 L549 152.87058823529412 L550 152.87058823529412 L551 154.58823529411762 L552 154.58823529411762 L553 154.58823529411762 L554 154.58823529411762 L555 154.58823529411762 L556 154.58823529411762 L557 154.58823529411762 L558 154.58823529411762 L559 154.58823529411762 L560 154.58823529411762 L561 154.58823529411762 L562 156.30588235294118 L563 154.58823529411762 L564 152.87058823529412 L565 154.58823529411762 L566 154.58823529411762 L567 152.87058823529412 L568 152.87058823529412 L569 152.87058823529412 L570 152.87058823529412 L571 152.87058823529412 L572 152.87058823529412 L573 152.87058823529412 L574 152.87058823529412 L575 151.15294117647056 L576 151.15294117647056 L577 152.87058823529412 L578 152.87058823529412 L579 152.87058823529412 L580 152.87058823529412 L581 152.87058823529412 L582 152.87058823529412 L583 152.87058823529412 L584 151.15294117647056 L585 152.87058823529412 L586 154.58823529411762 L587 154.58823529411762 L588 152.87058823529412 L589 151.15294117647056 L590 151.15294117647056 L591 152.87058823529412 L592 152.87058823529412 L593 151.15294117647056 L594 152.87058823529412 L595 154.58823529411762 L596 154.58823529411762 L597 154.58823529411762 L598 154.58823529411762 L599 152.87058823529412 L600 152.87058823529412 L601 152.87058823529412 L602 152.87058823529412 L603 152.87058823529412 L604 152.87058823529412 L605 152.87058823529412 L606 151.15294117647056 L607 151.15294117647056 L608 152.87058823529412 L609 152.87058823529412 L610 152.87058823529412 L611 152.87058823529412 L612 152.87058823529412 L613 152.87058823529412 L614 152.87058823529412 L615 152.87058823529412 L616 151.15294117647056 L617 152.87058823529412 L618 152.87058823529412 L619 152.87058823529412 L620 152.87058823529412 L621 152.87058823529412 L622 152.87058823529412 L623 152.87058823529412 L624 152.87058823529412 L625 152.87058823529412 L626 154.58823529411762 L627 152.87058823529412 L628 152.87058823529412 L629 152.87058823529412 L630 152.87058823529412 L631 152.87058823529412 L632 152.87058823529412 L633 152.87058823529412 L634 152.87058823529412 L635 152.87058823529412 L636 152.87058823529412 L637 152.87058823529412 L638 152.87058823529412 L639 152.87058823529412 L640 152.87058823529412 L641 152.87058823529412 L642 152.87058823529412 L643 152.87058823529412 L644 152.87058823529412 L645 152.87058823529412 L646 152.87058823529412 L647 152.87058823529412 L648 152.87058823529412 L649 152.87058823529412 L650 152.87058823529412 L651 152.87058823529412 L652 152.87058823529412 L653 152.87058823529412 L654 152.87058823529412 L655 152.87058823529412 L656 152.87058823529412 L657 152.87058823529412 L658 154.58823529411762 L659 154.58823529411762 L660 154.58823529411762 L661 154.58823529411762 L662 154.58823529411762 L663 154.58823529411762 L664 154.58823529411762 L665 154.58823529411762 L666 154.58823529411762 L667 154.58823529411762 L668 154.58823529411762 L669 152.87058823529412 L670 152.87058823529412 L671 152.87058823529412 L672 152.87058823529412 L673 152.87058823529412 L674 152.87058823529412 L675 152.87058823529412 L676 152.87058823529412 L677 152.87058823529412 L678 152.87058823529412 L679 152.87058823529412 L680 152.87058823529412 L681 152.87058823529412 L682 152.87058823529412 L683 152.87058823529412 L684 152.87058823529412 L685 152.87058823529412 L686 154.58823529411762 L687 154.58823529411762 L688 154.58823529411762 L689 154.58823529411762 L690 154.58823529411762 L691 154.58823529411762 L692 152.87058823529412 L693 152.87058823529412 L694 152.87058823529412 L695 152.87058823529412 L696 152.87058823529412 L697 152.87058823529412 L698 152.87058823529412 L699 152.87058823529412 L700 152.87058823529412 L701 152.87058823529412 L702 152.87058823529412 L703 152.87058823529412 L704 152.87058823529412 L705 152.87058823529412 L706 152.87058823529412 L707 152.87058823529412 L708 152.87058823529412 L709 152.87058823529412 L710 152.87058823529412 L711 152.87058823529412 L712 152.87058823529412 L713 152.87058823529412 L714 152.87058823529412 L715 152.87058823529412 L716 152.87058823529412 L717 152.87058823529412 L718 152.87058823529412 L719 152.87058823529412 L720 152.87058823529412" stroke = "red"  stroke-width = "4" fill = "none" />
<path d = "M0 438 L1 438 L2 438 L3 438 L4 438 L5 438 L6 438 L7 438 L8 438 L9 438 L10 438 L11 438 L12 438 L13 438 L14 438 L15 438 L16 438 L17 438 L18 438 L19 438 L20 438 L21 438 L22 438 L23 438 L24 438 L25 438 L26 438 L27 438 L28 438 L29 438 L30 438 L31 438 L32 438 L33 438 L34 438 L35 438 L36 438 L37 438 L38 438 L39 438 L40 438 L41 438 L42 438 L43 438 L44 438 L45 438 L46 438 L47 424.25882352941176 L48 431.1294117647059 L49 438 L50 438 L51 438 L52 438 L53 438 L54 438 L55 434.56470588235294 L56 438 L57 438 L58 438 L59 438 L60 438 L61 438 L62 438 L63 438 L64 438 L65 438 L66 438 L67 419.1058823529412 L68 410.5176470588235 L69 420.8235294117647 L70 427.6941176470588 L71 436.2823529411765 L72 438 L73 331.50588235294117 L74 340.09411764705885 L75 350.4 L76 360.70588235294116 L77 369.29411764705884 L78 381.3176470588235 L79 391.6235294117647 L80 403.6470588235294 L81 413.9529411764706 L82 425.9764705882353 L83 436.2823529411765 L84 438 L85 438 L86 438 L87 438 L88 391.6235294117647 L89 384.7529411764706 L90 395.05882352941177 L91 403.6470588235294 L92 412.2352941176471 L93 410.5176470588235 L94 396.77647058823527 L95 386.47058823529414 L96 388.18823529411765 L97 396.77647058823527 L98 398.49411764705883 L99 407.08235294117645 L100 412.2352941176471 L101 419.1058823529412 L102 427.6941176470588 L103 434.56470588235294 L104 431.1294117647059 L105 438 L106 429.4117647058824 L107 422.54117647058825 L108 424.25882352941176 L109 425.9764705882353 L110 427.6941176470588 L111 427.6941176470588 L112 424.25882352941176 L113 407.08235294117645 L114 398.49411764705883 L115 379.6 L116 386.47058823529414 L117 393.34117647058827 L118 383.0352941176471 L119 346.9647058823529 L120 343.52941176470586 L121 353.83529411764704 L122 360.70588235294116 L123 345.2470588235294 L124 346.9647058823529 L125 348.6823529411765 L126 341.81176470588235 L127 352.11764705882354 L128 360.70588235294116 L129 362.4235294117647 L130 348.6823529411765 L131 336.65882352941173 L132 340.09411764705885 L133 343.52941176470586 L134 352.11764705882354 L135 360.70588235294116 L136 352.11764705882354 L137 358.98823529411766 L138 362.4235294117647 L139 358.98823529411766 L140 360.70588235294116 L141 358.98823529411766 L142 369.29411764705884 L143 372.7294117647059 L144 367.5764705882353 L145 365.8588235294118 L146 360.70588235294116 L147 357.2705882352941 L148 364.1411764705882 L149 353.83529411764704 L150 355.5529411764706 L151 355.5529411764706 L152 367.5764705882353 L153 377.88235294117646 L154 376.16470588235296 L155 376.16470588235296 L156 379.6 L157 386.47058823529414 L158 383.0352941176471 L159 393.34117647058827 L160 384.7529411764706 L161 381.3176470588235 L162 376.16470588235296 L163 383.0352941176471 L164 389.90588235294115 L165 398.49411764705883 L166 403.6470588235294 L167 408.8 L168 407.08235294117645 L169 408.8 L170 408.8 L171 415.67058823529413 L172 417.38823529411764 L173 420.8235294117647 L174 422.54117647058825 L175 422.54117647058825 L176 429.4117647058824 L177 431.1294117647059 L178 427.6941176470588 L179 427.6941176470588 L180 424.25882352941176 L181 424.25882352941176 L182 424.25882352941176 L183 432.84705882352944 L184 438 L185 438 L186 436.2823529411765 L187 438 L188 438 L189 431.1294117647059 L190 420.8235294117647 L191 412.2352941176471 L192 415.67058823529413 L193 415.67058823529413 L194 393.34117647058827 L195 400.21176470588233 L196 410.5176470588235 L197 408.8 L198 413.9529411764706 L199 415.67058823529413 L200 417.38823529411764 L201 415.67058823529413 L202 415.67058823529413 L203 389.90588235294115 L204 388.18823529411765 L205 393.34117647058827 L206 401.9294117647059 L207 405.36470588235295 L208 407.08235294117645 L209 415.67058823529413 L210 413.9529411764706 L211 422.54117647058825 L212 424.25882352941176 L213 413.9529411764706 L214 413.9529411764706 L215 415.67058823529413 L216 407.08235294117645 L217 403.6470588235294 L218 412.2352941176471 L219 417.38823529411764 L220 424.25882352941176 L221 431.1294117647059 L222 434.56470588235294 L223 429.4117647058824 L224 415.67058823529413 L225 395.05882352941177 L226 391.6235294117647 L227 398.49411764705883 L228 398.49411764705883 L229 401.9294117647059 L230 391.6235294117647 L231 398.49411764705883 L232 403.6470588235294 L233 412.2352941176471 L234 403.6470588235294 L235 398.49411764705883 L236 398.49411764705883 L237 386.47058823529414 L238 371.01176470588234 L239 374.4470588235294 L240 379.6 L241 389.90588235294115 L242 396.77647058823527 L243 398.49411764705883 L244 408.8 L245 396.77647058823527 L246 403.6470588235294 L247 413.9529411764706 L248 417.38823529411764 L249 422.54117647058825 L250 419.1058823529412 L251 425.9764705882353 L252 419.1058823529412 L253 429.4117647058824 L254 424.25882352941176 L255 431.1294117647059 L256 405.36470588235295 L257 405.36470588235295 L258 393.34117647058827 L259 393.34117647058827 L260 398.49411764705883 L261 401.9294117647059 L262 393.34117647058827 L263 398.49411764705883 L264 410.5176470588235 L265 410.5176470588235 L266 413.9529411764706 L267 408.8 L268 405.36470588235295 L269 381.3176470588235 L270 389.90588235294115 L271 393.34117647058827 L272 398.49411764705883 L273 400.21176470588233 L274 405.36470588235295 L275 410.5176470588235 L276 417.38823529411764 L277 422.54117647058825 L278 431.1294117647059 L279 427.6941176470588 L280 425.9764705882353 L281 425.9764705882353 L282 431.1294117647059 L283 438 L284 438 L285 438 L286 438 L287 438 L288 438 L289 438 L290 438 L291 438 L292 438 L293 438 L294 438 L295 438 L296 438 L297 438 L298 438 L299 438 L300 438 L301 438 L302 438 L303 438 L304 438 L305 438 L306 438 L307 438 L308 438 L309 438 L310 438 L311 438 L312 438 L313 438 L314 438 L315 438 L316 438 L317 438 L318 438 L319 438 L320 438 L321 438 L322 438 L323 438 L324 424.25882352941176 L325 429.4117647058824 L326 438 L327 438 L328 438 L329 438 L330 438 L331 438 L332 438 L333 438 L334 429.4117647058824 L335 419.1058823529412 L336 407.08235294117645 L337 413.9529411764706 L338 417.38823529411764 L339 420.8235294117647 L340 429.4117647058824 L341 438 L342 438 L343 438 L344 438 L345 438 L346 438 L347 438 L348 438 L349 438 L350 438 L351 438 L352 438 L353 438 L354 438 L355 438 L356 438 L357 438 L358 438 L359 438 L360 438 L361 438 L362 438 L363 438 L364 438 L365 438 L366 438 L367 438 L368 438 L369 438 L370 438 L371 438 L372 438 L373 438 L374 438 L375 438 L376 438 L377 432.84705882352944 L378 415.67058823529413 L379 407.08235294117645 L380 413.9529411764706 L381 417.38823529411764 L382 427.6941176470588 L383 436.2823529411765 L384 438 L385 438 L386 438 L387 438 L388 438 L389 438 L390 438 L391 438 L392 438 L393 438 L394 438 L395 438 L396 438 L397 438 L398 438 L399 438 L400 438 L401 438 L402 438 L403 438 L404 438 L405 438 L406 438 L407 438 L408 438 L409 438 L410 438 L411 438 L412 438 L413 438 L414 438 L415 438 L416 438 L417 438 L418 438 L419 438 L420 438 L421 438 L422 438 L423 422.54117647058825 L424 427.6941176470588 L425 438 L426 438 L427 438 L428 438 L429 438 L430 438 L431 438 L432 438 L433 438 L434 438 L435 438 L436 438 L437 438 L438 438 L439 438 L440 438 L441 438 L442 438 L443 438 L444 438 L445 438 L446 438 L447 438 L448 438 L449 438 L450 438 L451 438 L452 438 L453 438 L454 438 L455 425.9764705882353 L456 425.9764705882353 L457 431.1294117647059 L458 431.1294117647059 L459 424.25882352941176 L460 410.5176470588235 L461 410.5176470588235 L462 388.18823529411765 L463 388.18823529411765 L464 377.88235294117646 L465 376.16470588235296 L466 352.11764705882354 L467 324.63529411764705 L468 326.3529411764706 L469 328.0705882352941 L470 338.3764705882353 L471 338.3764705882353 L472 331.50588235294117 L473 329.7882352941176 L474 324.63529411764705 L475 310.8941176470588 L476 314.32941176470587 L477 312.61176470588236 L478 309.17647058823525 L479 316.0470588235294 L480 317.7647058823529 L481 321.2 L482 324.63529411764705 L483 331.50588235294117 L484 334.94117647058823 L485 331.50588235294117 L486 336.65882352941173 L487 336.65882352941173 L488 346.9647058823529 L489 357.2705882352941 L490 353.83529411764704 L491 346.9647058823529 L492 350.4 L493 348.6823529411765 L494 350.4 L495 345.2470588235294 L496 340.09411764705885 L497 340.09411764705885 L498 341.81176470588235 L499 338.3764705882353 L500 343.52941176470586 L501 350.4 L502 348.6823529411765 L503 357.2705882352941 L504 357.2705882352941 L505 362.4235294117647 L506 367.5764705882353 L507 377.88235294117646 L508 376.16470588235296 L509 374.4470588235294 L510 374.4470588235294 L511 365.8588235294118 L512 376.16470588235296 L513 376.16470588235296 L514 379.6 L515 384.7529411764706 L516 395.05882352941177 L517 386.47058823529414 L518 372.7294117647059 L519 367.5764705882353 L520 369.29411764705884 L521 371.01176470588234 L522 374.4470588235294 L523 381.3176470588235 L524 388.18823529411765 L525 391.6235294117647 L526 398.49411764705883 L527 396.77647058823527 L528 400.21176470588233 L529 401.9294117647059 L530 400.21176470588233 L531 401.9294117647059 L532 401.9294117647059 L533 398.49411764705883 L534 401.9294117647059 L535 401.9294117647059 L536 396.77647058823527 L537 388.18823529411765 L538 391.6235294117647 L539 396.77647058823527 L540 383.0352941176471 L541 374.4470588235294 L542 379.6 L543 384.7529411764706 L544 384.7529411764706 L545 386.47058823529414 L546 393.34117647058827 L547 388.18823529411765 L548 389.90588235294115 L549 393.34117647058827 L550 383.0352941176471 L551 383.0352941176471 L552 369.29411764705884 L553 372.7294117647059 L554 376.16470588235296 L555 371.01176470588234 L556 377.88235294117646 L557 388.18823529411765 L558 393.34117647058827 L559 396.77647058823527 L560 401.9294117647059 L561 381.3176470588235 L562 384.7529411764706 L563 386.47058823529414 L564 386.47058823529414 L565 384.7529411764706 L566 389.90588235294115 L567 391.6235294117647 L568 396.77647058823527 L569 405.36470588235295 L570 408.8 L571 412.2352941176471 L572 383.0352941176471 L573 374.4470588235294 L574 367.5764705882353 L575 362.4235294117647 L576 369.29411764705884 L577 369.29411764705884 L578 371.01176470588234 L579 379.6 L580 383.0352941176471 L581 379.6 L582 389.90588235294115 L583 389.90588235294115 L584 388.18823529411765 L585 381.3176470588235 L586 364.1411764705882 L587 371.01176470588234 L588 371.01176470588234 L589 367.5764705882353 L590 374.4470588235294 L591 384.7529411764706 L592 391.6235294117647 L593 400.21176470588233 L594 403.6470588235294 L595 388.18823529411765 L596 372.7294117647059 L597 358.98823529411766 L598 365.8588235294118 L599 367.5764705882353 L600 374.4470588235294 L601 381.3176470588235 L602 381.3176470588235 L603 383.0352941176471 L604 389.90588235294115 L605 371.01176470588234 L606 362.4235294117647 L607 371.01176470588234 L608 360.70588235294116 L609 365.8588235294118 L610 371.01176470588234 L611 369.29411764705884 L612 377.88235294117646 L613 388.18823529411765 L614 395.05882352941177 L615 395.05882352941177 L616 379.6 L617 369.29411764705884 L618 367.5764705882353 L619 371.01176470588234 L620 372.7294117647059 L621 376.16470588235296 L622 383.0352941176471 L623 388.18823529411765 L624 398.49411764705883 L625 408.8 L626 417.38823529411764 L627 408.8 L628 412.2352941176471 L629 415.67058823529413 L630 417.38823529411764 L631 420.8235294117647 L632 417.38823529411764 L633 419.1058823529412 L634 429.4117647058824 L635 431.1294117647059 L636 438 L637 438 L638 438 L639 438 L640 438 L641 438 L642 438 L643 438 L644 438 L645 438 L646 438 L647 438 L648 438 L649 438 L650 438 L651 438 L652 438 L653 438 L654 438 L655 438 L656 438 L657 438 L658 438 L659 438 L660 438 L661 438 L662 438 L663 438 L664 438 L665 438 L666 438 L667 438 L668 438 L669 438 L670 438 L671 438 L672 427.6941176470588 L673 393.34117647058827 L674 401.9294117647059 L675 412.2352941176471 L676 424.25882352941176 L677 434.56470588235294 L678 438 L679 438 L680 438 L681 434.56470588235294 L682 417.38823529411764 L683 412.2352941176471 L684 420.8235294117647 L685 427.6941176470588 L686 438 L687 438 L688 438 L689 438 L690 438 L691 438 L692 438 L693 438 L694 438 L695 419.1058823529412 L696 420.8235294117647 L697 431.1294117647059 L698 438 L699 438 L700 438 L701 438 L702 438 L703 438 L704 438 L705 438 L706 438 L707 438 L708 438 L709 438 L710 438 L711 438 L712 438 L713 438 L714 438 L715 438 L716 438 L717 438 L718 438 L719 438 L720 438" stroke = "green"  stroke-width = "4" fill = "none" />
<path d = "M0 438 L1 438 L2 438 L3 438 L4 438 L5 438 L6 438 L7 438 L8 438 L9 438 L10 438 L11 438 L12 438 L13 438 L14 438 L15 438 L16 438 L17 438 L18 438 L19 438 L20 438 L21 438 L22 438 L23 438 L24 438 L25 438 L26 438 L27 438 L28 438 L29 438 L30 438 L31 438 L32 438 L33 438 L34 438 L35 438 L36 438 L37 438 L38 438 L39 438 L40 438 L41 438 L42 438 L43 438 L44 438 L45 438 L46 438 L47 438 L48 438 L49 438 L50 438 L51 438 L52 438 L53 438 L54 438 L55 438 L56 438 L57 438 L58 438 L59 438 L60 438 L61 438 L62 438 L63 438 L64 438 L65 438 L66 438 L67 438 L68 438 L69 438 L70 438 L71 438 L72 438 L73 425.9764705882353 L74 427.6941176470588 L75 431.1294117647059 L76 438 L77 438 L78 438 L79 438 L80 438 L81 438 L82 438 L83 438 L84 438 L85 438 L86 438 L87 438 L88 438 L89 429.4117647058824 L90 432.84705882352944 L91 438 L92 438 L93 438 L94 438 L95 438 L96 438 L97 438 L98 438 L99 438 L100 438 L101 438 L102 438 L103 438 L104 438 L105 438 L106 438 L107 438 L108 438 L109 438 L110 438 L111 438 L112 438 L113 438 L114 438 L115 438 L116 438 L117 438 L118 438 L119 438 L120 438 L121 438 L122 438 L123 438 L124 438 L125 438 L126 431.1294117647059 L127 431.1294117647059 L128 424.25882352941176 L129 432.84705882352944 L130 438 L131 438 L132 438 L133 438 L134 438 L135 438 L136 438 L137 438 L138 438 L139 438 L140 438 L141 438 L142 438 L143 438 L144 438 L145 438 L146 438 L147 438 L148 438 L149 431.1294117647059 L150 420.8235294117647 L151 429.4117647058824 L152 434.56470588235294 L153 438 L154 438 L155 438 L156 438 L157 438 L158 438 L159 429.4117647058824 L160 425.9764705882353 L161 425.9764705882353 L162 429.4117647058824 L163 436.2823529411765 L164 438 L165 436.2823529411765 L166 438 L167 438 L168 438 L169 438 L170 438 L171 438 L172 438 L173 438 L174 438 L175 438 L176 438 L177 438 L178 438 L179 438 L180 438 L181 438 L182 438 L183 438 L184 438 L185 438 L186 438 L187 438 L188 438 L189 438 L190 438 L191 438 L192 438 L193 438 L194 438 L195 438 L196 438 L197 438 L198 438 L199 438 L200 438 L201 438 L202 438 L203 438 L204 436.2823529411765 L205 420.8235294117647 L206 429.4117647058824 L207 438 L208 438 L209 438 L210 438 L211 438 L212 438 L213 438 L214 438 L215 438 L216 438 L217 438 L218 438 L219 438 L220 438 L221 438 L222 438 L223 438 L224 438 L225 438 L226 438 L227 438 L228 438 L229 438 L230 438 L231 438 L232 438 L233 438 L234 438 L235 438 L236 438 L237 432.84705882352944 L238 427.6941176470588 L239 438 L240 438 L241 438 L242 438 L243 438 L244 438 L245 438 L246 438 L247 438 L248 431.1294117647059 L249 425.9764705882353 L250 438 L251 438 L252 438 L253 438 L254 438 L255 438 L256 438 L257 438 L258 438 L259 438 L260 438 L261 438 L262 438 L263 438 L264 438 L265 438 L266 438 L267 438 L268 438 L269 432.84705882352944 L270 431.1294117647059 L271 432.84705882352944 L272 438 L273 438 L274 438 L275 438 L276 438 L277 438 L278 438 L279 438 L280 438 L281 438 L282 438 L283 438 L284 438 L285 438 L286 438 L287 438 L288 438 L289 438 L290 438 L291 438 L292 438 L293 438 L294 438 L295 438 L296 438 L297 438 L298 438 L299 438 L300 438 L301 438 L302 438 L303 438 L304 438 L305 438 L306 438 L307 438 L308 438 L309 438 L310 438 L311 438 L312 438 L313 438 L314 438 L315 438 L316 438 L317 438 L318 438 L319 438 L320 438 L321 438 L322 438 L323 438 L324 438 L325 438 L326 438 L327 438 L328 438 L329 438 L330 438 L331 438 L332 438 L333 438 L334 438 L335 438 L336 438 L337 438 L338 438 L339 438 L340 438 L341 438 L342 438 L343 438 L344 438 L345 438 L346 438 L347 438 L348 438 L349 438 L350 438 L351 438 L352 438 L353 438 L354 438 L355 438 L356 438 L357 438 L358 438 L359 438 L360 438 L361 438 L362 438 L363 438 L364 438 L365 438 L366 438 L367 438 L368 438 L369 438 L370 438 L371 438 L372 438 L373 438 L374 438 L375 438 L376 438 L377 438 L378 429.4117647058824 L379 425.9764705882353 L380 419.1058823529412 L381 425.9764705882353 L382 432.84705882352944 L383 431.1294117647059 L384 431.1294117647059 L385 425.9764705882353 L386 427.6941176470588 L387 436.2823529411765 L388 438 L389 438 L390 438 L391 438 L392 438 L393 436.2823529411765 L394 438 L395 436.2823529411765 L396 438 L397 438 L398 438 L399 438 L400 438 L401 438 L402 438 L403 438 L404 438 L405 438 L406 438 L407 438 L408 438 L409 438 L410 438 L411 438 L412 438 L413 438 L414 438 L415 438 L416 438 L417 438 L418 438 L419 438 L420 438 L421 427.6941176470588 L422 438 L423 432.84705882352944 L424 432.84705882352944 L425 431.1294117647059 L426 432.84705882352944 L427 438 L428 438 L429 438 L430 438 L431 438 L432 438 L433 438 L434 438 L435 438 L436 438 L437 438 L438 438 L439 438 L440 438 L441 438 L442 438 L443 438 L444 438 L445 438 L446 438 L447 438 L448 438 L449 438 L450 438 L451 438 L452 438 L453 438 L454 438 L455 438 L456 438 L457 438 L458 438 L459 438 L460 438 L461 438 L462 438 L463 438 L464 438 L465 438 L466 438 L467 438 L468 438 L469 438 L470 438 L471 438 L472 438 L473 438 L474 438 L475 438 L476 438 L477 438 L478 438 L479 438 L480 438 L481 438 L482 438 L483 438 L484 438 L485 438 L486 438 L487 438 L488 438 L489 438 L490 438 L491 438 L492 438 L493 438 L494 427.6941176470588 L495 434.56470588235294 L496 425.9764705882353 L497 420.8235294117647 L498 413.9529411764706 L499 417.38823529411764 L500 420.8235294117647 L501 431.1294117647059 L502 432.84705882352944 L503 438 L504 438 L505 438 L506 438 L507 438 L508 438 L509 432.84705882352944 L510 424.25882352941176 L511 429.4117647058824 L512 436.2823529411765 L513 438 L514 438 L515 438 L516 438 L517 438 L518 438 L519 438 L520 438 L521 434.56470588235294 L522 438 L523 438 L524 438 L525 438 L526 438 L527 438 L528 438 L529 438 L530 438 L531 438 L532 438 L533 438 L534 438 L535 438 L536 438 L537 438 L538 438 L539 438 L540 438 L541 438 L542 438 L543 438 L544 438 L545 438 L546 438 L547 438 L548 438 L549 438 L550 438 L551 438 L552 438 L553 438 L554 438 L555 438 L556 438 L557 438 L558 438 L559 438 L560 438 L561 438 L562 438 L563 438 L564 425.9764705882353 L565 427.6941176470588 L566 434.56470588235294 L567 438 L568 438 L569 438 L570 438 L571 438 L572 438 L573 438 L574 438 L575 432.84705882352944 L576 438 L577 438 L578 438 L579 438 L580 438 L581 438 L582 438 L583 438 L584 438 L585 438 L586 438 L587 438 L588 438 L589 438 L590 438 L591 438 L592 438 L593 438 L594 438 L595 438 L596 438 L597 431.1294117647059 L598 436.2823529411765 L599 438 L600 438 L601 438 L602 438 L603 438 L604 438 L605 438 L606 438 L607 438 L608 438 L609 438 L610 438 L611 438 L612 438 L613 438 L614 438 L615 438 L616 438 L617 438 L618 438 L619 438 L620 438 L621 438 L622 438 L623 438 L624 438 L625 438 L626 438 L627 438 L628 438 L629 438 L630 438 L631 438 L632 438 L633 438 L634 438 L635 438 L636 438 L637 438 L638 438 L639 438 L640 438 L641 438 L642 438 L643 438 L644 438 L645 438 L646 438 L647 438 L648 438 L649 438 L650 438 L651 438 L652 438 L653 438 L654 438 L655 438 L656 438 L657 438 L658 438 L659 438 L660 438 L661 438 L662 438 L663 438 L664 438 L665 438 L666 438 L667 438 L668 438 L669 438 L670 438 L671 438 L672 438 L673 438 L674 438 L675 438 L676 438 L677 438 L678 438 L679 438 L680 438 L681 438 L682 438 L683 438 L684 438 L685 438 L686 438 L687 438 L688 438 L689 438 L690 438 L691 438 L692 438 L693 438 L694 438 L695 438 L696 438 L697 438 L698 438 L699 438 L700 438 L701 438 L702 438 L703 438 L704 432.84705882352944 L705 431.1294117647059 L706 429.4117647058824 L707 427.6941176470588 L708 434.56470588235294 L709 438 L710 438 L711 431.1294117647059 L712 438 L713 438 L714 438 L715 438 L716 436.2823529411765 L717 436.2823529411765 L718 434.56470588235294 L719 438 L720 438" stroke = "blue"  stroke-width = "4" fill = "none" />
<path d = "M0 438 L1 438 L2 438 L3 438 L4 438 L5 438 L6 438 L7 438 L8 438 L9 438 L10 438 L11 438 L12 438 L13 438 L14 438 L15 438 L16 438 L17 438 L18 438 L19 438 L20 438 L21 438 L22 438 L23 438 L24 438 L25 438 L26 438 L27 438 L28 438 L29 438 L30 438 L31 438 L32 438 L33 438 L34 438 L35 438 L36 438 L37 438 L38 438 L39 438 L40 438 L41 438 L42 438 L43 438 L44 438 L45 438 L46 438 L47 438 L48 438 L49 438 L50 438 L51 438 L52 438 L53 438 L54 438 L55 438 L56 438 L57 438 L58 438 L59 438 L60 438 L61 438 L62 438 L63 438 L64 438 L65 438 L66 438 L67 438 L68 438 L69 438 L70 438 L71 438 L72 438 L73 369.29411764705884 L74 379.6 L75 388.18823529411765 L76 400.21176470588233 L77 408.8 L78 419.1058823529412 L79 429.4117647058824 L80 438 L81 438 L82 438 L83 438 L84 438 L85 438 L86 438 L87 438 L88 438 L89 438 L90 438 L91 438 L92 438 L93 438 L94 438 L95 438 L96 438 L97 438 L98 438 L99 438 L100 438 L101 438 L102 438 L103 438 L104 438 L105 438 L106 438 L107 438 L108 438 L109 438 L110 438 L111 438 L112 438 L113 438 L114 438 L115 438 L116 438 L117 438 L118 438 L119 438 L120 438 L121 438 L122 438 L123 438 L124 438 L125 438 L126 438 L127 438 L128 438 L129 438 L130 438 L131 438 L132 438 L133 438 L134 438 L135 438 L136 438 L137 438 L138 438 L139 438 L140 438 L141 438 L142 438 L143 438 L144 438 L145 438 L146 438 L147 438 L148 438 L149 438 L150 438 L151 438 L152 438 L153 438 L154 438 L155 438 L156 438 L157 438 L158 438 L159 438 L160 438 L161 438 L162 438 L163 438 L164 438 L165 438 L166 438 L167 438 L168 438 L169 438 L170 438 L171 438 L172 438 L173 438 L174 438 L175 438 L176 438 L177 438 L178 438 L179 438 L180 438 L181 438 L182 438 L183 438 L184 438 L185 438 L186 438 L187 438 L188 438 L189 438 L190 438 L191 438 L192 438 L193 436.2823529411765 L194 438 L195 438 L196 438 L197 438 L198 438 L199 438 L200 438 L201 438 L202 438 L203 438 L204 438 L205 438 L206 438 L207 438 L208 438 L209 438 L210 438 L211 438 L212 438 L213 438 L214 438 L215 438 L216 438 L217 438 L218 438 L219 438 L220 438 L221 438 L222 438 L223 438 L224 438 L225 438 L226 438 L227 438 L228 438 L229 438 L230 438 L231 438 L232 438 L233 438 L234 438 L235 438 L236 438 L237 438 L238 438 L239 438 L240 438 L241 438 L242 438 L243 438 L244 438 L245 438 L246 438 L247 438 L248 438 L249 438 L250 438 L251 436.2823529411765 L252 438 L253 438 L254 438 L255 438 L256 438 L257 438 L258 438 L259 438 L260 438 L261 438 L262 438 L263 438 L264 438 L265 438 L266 438 L267 438 L268 438 L269 438 L270 438 L271 438 L272 438 L273 438 L274 438 L275 438 L276 438 L277 438 L278 438 L279 438 L280 438 L281 438 L282 438 L283 438 L284 438 L285 438 L286 438 L287 438 L288 438 L289 438 L290 438 L291 438 L292 438 L293 438 L294 438 L295 438 L296 438 L297 438 L298 438 L299 438 L300 438 L301 438 L302 438 L303 438 L304 438 L305 438 L306 438 L307 438 L308 438 L309 438 L310 438 L311 438 L312 438 L313 438 L314 438 L315 438 L316 438 L317 438 L318 438 L319 438 L320 438 L321 438 L322 438 L323 438 L324 438 L325 438 L326 438 L327 438 L328 438 L329 438 L330 438 L331 438 L332 438 L333 438 L334 434.56470588235294 L335 417.38823529411764 L336 403.6470588235294 L337 413.9529411764706 L338 419.1058823529412 L339 419.1058823529412 L340 425.9764705882353 L341 436.2823529411765 L342 438 L343 438 L344 438 L345 438 L346 438 L347 438 L348 438 L349 438 L350 438 L351 438 L352 438 L353 438 L354 438 L355 438 L356 438 L357 438 L358 436.2823529411765 L359 438 L360 438 L361 438 L362 438 L363 427.6941176470588 L364 431.1294117647059 L365 431.1294117647059 L366 424.25882352941176 L367 417.38823529411764 L368 417.38823529411764 L369 425.9764705882353 L370 434.56470588235294 L371 434.56470588235294 L372 425.9764705882353 L373 431.1294117647059 L374 427.6941176470588 L375 431.1294117647059 L376 438 L377 438 L378 436.2823529411765 L379 438 L380 438 L381 438 L382 438 L383 438 L384 438 L385 438 L386 438 L387 438 L388 427.6941176470588 L389 415.67058823529413 L390 422.54117647058825 L391 424.25882352941176 L392 432.84705882352944 L393 422.54117647058825 L394 424.25882352941176 L395 419.1058823529412 L396 417.38823529411764 L397 422.54117647058825 L398 427.6941176470588 L399 432.84705882352944 L400 425.9764705882353 L401 425.9764705882353 L402 429.4117647058824 L403 436.2823529411765 L404 432.84705882352944 L405 438 L406 438 L407 436.2823529411765 L408 438 L409 438 L410 438 L411 438 L412 438 L413 438 L414 438 L415 434.56470588235294 L416 438 L417 432.84705882352944 L418 434.56470588235294 L419 434.56470588235294 L420 434.56470588235294 L421 425.9764705882353 L422 415.67058823529413 L423 417.38823529411764 L424 419.1058823529412 L425 422.54117647058825 L426 425.9764705882353 L427 422.54117647058825 L428 419.1058823529412 L429 422.54117647058825 L430 432.84705882352944 L431 431.1294117647059 L432 429.4117647058824 L433 436.2823529411765 L434 438 L435 438 L436 438 L437 438 L438 438 L439 438 L440 438 L441 438 L442 438 L443 427.6941176470588 L444 420.8235294117647 L445 413.9529411764706 L446 422.54117647058825 L447 432.84705882352944 L448 438 L449 438 L450 438 L451 438 L452 438 L453 438 L454 438 L455 438 L456 438 L457 438 L458 438 L459 438 L460 438 L461 438 L462 438 L463 438 L464 438 L465 438 L466 438 L467 438 L468 438 L469 438 L470 438 L471 438 L472 438 L473 438 L474 438 L475 438 L476 438 L477 438 L478 438 L479 438 L480 438 L481 438 L482 438 L483 438 L484 438 L485 438 L486 438 L487 438 L488 438 L489 438 L490 438 L491 438 L492 438 L493 438 L494 438 L495 438 L496 438 L497 438 L498 438 L499 438 L500 438 L501 438 L502 438 L503 438 L504 438 L505 438 L506 438 L507 438 L508 438 L509 438 L510 438 L511 438 L512 438 L513 438 L514 427.6941176470588 L515 429.4117647058824 L516 438 L517 438 L518 436.2823529411765 L519 419.1058823529412 L520 427.6941176470588 L521 419.1058823529412 L522 427.6941176470588 L523 436.2823529411765 L524 438 L525 438 L526 438 L527 438 L528 438 L529 438 L530 438 L531 438 L532 420.8235294117647 L533 432.84705882352944 L534 438 L535 432.84705882352944 L536 438 L537 438 L538 438 L539 438 L540 438 L541 422.54117647058825 L542 427.6941176470588 L543 436.2823529411765 L544 438 L545 438 L546 438 L547 438 L548 438 L549 438 L550 438 L551 432.84705882352944 L552 438 L553 438 L554 436.2823529411765 L555 438 L556 438 L557 438 L558 438 L559 438 L560 438 L561 438 L562 438 L563 425.9764705882353 L564 413.9529411764706 L565 410.5176470588235 L566 419.1058823529412 L567 424.25882352941176 L568 419.1058823529412 L569 420.8235294117647 L570 420.8235294117647 L571 422.54117647058825 L572 422.54117647058825 L573 419.1058823529412 L574 417.38823529411764 L575 412.2352941176471 L576 424.25882352941176 L577 434.56470588235294 L578 438 L579 438 L580 438 L581 438 L582 438 L583 438 L584 438 L585 438 L586 438 L587 438 L588 438 L589 438 L590 438 L591 438 L592 438 L593 438 L594 438 L595 438 L596 438 L597 438 L598 438 L599 438 L600 438 L601 422.54117647058825 L602 417.38823529411764 L603 422.54117647058825 L604 432.84705882352944 L605 424.25882352941176 L606 427.6941176470588 L607 422.54117647058825 L608 424.25882352941176 L609 431.1294117647059 L610 438 L611 438 L612 436.2823529411765 L613 436.2823529411765 L614 438 L615 438 L616 438 L617 438 L618 438 L619 432.84705882352944 L620 436.2823529411765 L621 438 L622 438 L623 438 L624 438 L625 438 L626 438 L627 438 L628 438 L629 438 L630 438 L631 436.2823529411765 L632 436.2823529411765 L633 438 L634 438 L635 438 L636 438 L637 438 L638 438 L639 438 L640 438 L641 438 L642 438 L643 438 L644 438 L645 438 L646 438 L647 438 L648 438 L649 438 L650 438 L651 438 L652 438 L653 438 L654 438 L655 438 L656 438 L657 438 L658 438 L659 438 L660 438 L661 438 L662 438 L663 438 L664 438 L665 438 L666 438 L667 438 L668 438 L669 438 L670 438 L671 438 L672 438 L673 438 L674 438 L675 438 L676 438 L677 438 L678 438 L679 438 L680 438 L681 438 L682 438 L683 438 L684 438 L685 438 L686 438 L687 438 L688 438 L689 438 L690 438 L691 438 L692 438 L693 438 L694 438 L695 438 L696 438 L697 438 L698 438 L699 438 L700 438 L701 438 L702 438 L703 438 L704 438 L705 438 L706 438 L707 438 L708 438 L709 438 L710 438 L711 438 L712 438 L713 438 L714 438 L715 438 L716 438 L717 438 L718 438 L719 438 L720 438" stroke = "purple"  stroke-width = "4" fill = "none" />
</svg>