<svg width="1440" height="438" viewbox = "0 0 1440 438"  xmlns="http://www.w3.org/2000/svg">
<!--<json>{"starttime":1741576906,"startdate":"Sun Mar 09 2025 21:21:46 GMT-0600 (Mountain Daylight Time)","f1":1000,"f2":2000,"f3":3000,"f4":4000,"notes":"experiment notes","p1":[143,143,143,143,142,142,142,142,142,141,142,141,141,141,141,141,141,142,142,142,143,142,143,143,143,143,143,143,143,144,144,144,144,144,144,144,144,144,144,145,144,143,144,144,144,145,145,144,144,144,144,144,144,145,145,145,145,144,145,144,144,144,144,144,144,144,144,144,138,131,125,118,112,106,101,95,90,85,81,77,73,70,67,65,62,61,59,58,57,56,55,55,54,54,54,53,53,53,53,53,52,52,52,52,51,51,51,51,51,51,51,51,51,51,51,51,51,50,50,51,51,51,51,51,51,51,50,50,50,50,50,51,51,51,51,51,51,50,50,50,50,50,50,50,50,50,50,50,49,49,49,49,49,49,50,50,50,50,50,50,50,51,49,51,51,51,50,51,51,51,50,50,50,50,50,50,50,50,50,50,50,50,50,50,50,50,50,50,49,50,50,50,50,50,50,50,50,50,50,50,49],"p2":[0,0,0,0,0,0,0,0,0,0,0,0,0,0,0,0,0,0,0,0,0,0,0,0,0,0,0,0,0,0,0,0,0,0,0,0,0,0,0,0,0,0,0,0,0,0,0,0,0,0,0,0,0,0,0,0,0,0,0,0,0,0,0,1,0,0,0,0,0,0,0,0,0,1,7,9,5,1,0,0,0,0,0,0,0,0,0,0,0,0,0,0,0,0,0,0,0,0,0,0,0,0,0,0,0,3,0,0,0,0,0,0,0,0,0,0,0,0,0,0,0,0,0,0,0,0,0,0,0,0,0,0,0,0,0,0,0,11,5,0,0,0,0,0,0,0,0,0,0,0,0,0,0,0,0,0,0,0,0,0,0,0,0,0,0,0,0,0,0,0,0,0,0,0,0,0,0,0,0,0,0,0,0,0,0,0,0,0,0,0,0,0,0,0,0,0,0,0,0,0,0],"p3":[0,0,0,0,0,0,0,0,0,0,0,0,0,0,0,0,0,0,0,0,0,0,0,0,0,0,0,0,0,0,0,0,0,0,0,0,0,0,0,0,2,0,0,0,0,0,3,1,0,0,0,0,0,0,0,0,0,0,0,0,0,0,0,0,0,0,0,0,0,0,0,0,0,0,0,0,0,0,0,0,0,0,0,0,0,0,0,0,0,0,0,0,0,0,0,0,0,0,0,0,0,0,0,0,0,0,0,0,0,0,0,0,0,0,0,0,0,0,0,0,0,0,0,0,0,0,0,0,0,0,0,0,0,0,0,0,0,0,0,0,0,0,0,0,0,0,0,0,0,0,0,0,0,0,0,0,0,0,0,0,0,0,0,0,0,0,0,0,0,0,0,0,0,0,0,0,0,0,0,0,0,0,0,0,0,0,0,0,0,0,0,0,0,0,0,0,0,0,0,0,0],"p4":[0,0,0,0,0,0,0,0,0,3,17,16,12,8,4,2,0,0,0,0,0,0,0,0,0,0,0,0,0,0,0,0,0,0,0,0,0,2,7,12,26,20,22,16,13,11,7,5,0,0,0,0,0,4,6,5,0,0,0,0,0,0,0,0,0,0,0,0,0,0,0,0,0,12,20,19,13,6,0,0,0,0,0,0,0,0,0,0,0,0,0,0,0,0,0,0,0,0,0,0,0,0,0,0,0,5,0,0,0,0,6,7,3,0,0,7,5,0,0,0,0,0,0,0,0,0,0,0,0,0,0,0,0,0,0,0,0,0,0,0,0,0,0,0,0,0,0,0,0,0,0,0,0,0,0,0,0,0,0,0,0,0,0,0,0,0,0,0,0,0,0,0,0,0,0,0,0,0,0,0,0,0,0,0,0,0,0,0,0,0,0,0,0,0,0,5,2,0,0,13,17],"timeseconds":[0.40000009536743164,0.40000009536743164,0.5,0.5,0.5,0.5999999046325684,0.5999999046325684,0.5999999046325684,0.7000000476837158,0.7000000476837158,0.7000000476837158,0.7999999523162842,0.7999999523162842,0.7999999523162842,0.9000000953674316,0.9000000953674316,0.9000000953674316,1,1,1,1.0999999046325684,1.0999999046325684,1.0999999046325684,1.2000000476837158,1.2000000476837158,1.2000000476837158,1.2999999523162842,1.2999999523162842,1.2999999523162842,1.4000000953674316,1.4000000953674316,1.4000000953674316,1.5,1.5,1.5,1.5999999046325684,1.5999999046325684,1.5999999046325684,1.7000000476837158,1.7000000476837158,1.7000000476837158,1.7999999523162842,1.7999999523162842,1.7999999523162842,1.9000000953674316,1.9000000953674316,1.9000000953674316,2,2,2,2.0999999046325684,2.0999999046325684,2.0999999046325684,2.200000047683716,2.200000047683716,2.200000047683716,2.299999952316284,2.299999952316284,2.299999952316284,2.4000000953674316,2.4000000953674316,2.4000000953674316,2.5,2.5,2.5,2.5999999046325684,2.5999999046325684,2.799999952316284,51,51.09999990463257,51.09999990463257,51.09999990463257,51.200000047683716,51.200000047683716,51.200000047683716,51.299999952316284,51.299999952316284,51.299999952316284,51.40000009536743,51.40000009536743,51.40000009536743,51.5,51.5,51.5,51.59999990463257,51.59999990463257,51.59999990463257,51.700000047683716,51.700000047683716,51.700000047683716,51.799999952316284,51.799999952316284,51.90000009536743,51.90000009536743,51.90000009536743,52,52,52,52.09999990463257,52.09999990463257,52.09999990463257,52.200000047683716,52.200000047683716,52.200000047683716,52.299999952316284,52.299999952316284,52.299999952316284,52.40000009536743,52.40000009536743,52.40000009536743,52.5,52.5,52.5,52.59999990463257,52.59999990463257,52.59999990463257,52.700000047683716,52.700000047683716,52.700000047683716,52.799999952316284,52.799999952316284,52.799999952316284,52.90000009536743,52.90000009536743,52.90000009536743,53,53,53,53,53.09999990463257,53.09999990463257,53.200000047683716,53.200000047683716,53.200000047683716,53.299999952316284,53.299999952316284,53.299999952316284,53.40000009536743,53.40000009536743,53.40000009536743,53.5,53.5,53.5,53.59999990463257,53.59999990463257,53.59999990463257,53.700000047683716,53.700000047683716,53.700000047683716,53.799999952316284,53.799999952316284,53.799999952316284,53.90000009536743,53.90000009536743,53.90000009536743,54,54,54,54.09999990463257,54.09999990463257,54.09999990463257,54.200000047683716,54.200000047683716,54.200000047683716,54.200000047683716,54.299999952316284,54.299999952316284,54.40000009536743,54.40000009536743,54.40000009536743,54.5,54.5,54.5,54.59999990463257,54.59999990463257,54.59999990463257,54.700000047683716,54.700000047683716,54.700000047683716,54.799999952316284,54.799999952316284,54.799999952316284,54.90000009536743,54.90000009536743,54.90000009536743,55,55,55,55.09999990463257,55.09999990463257,55.09999990463257,55.200000047683716,55.200000047683716,55.200000047683716,55.299999952316284,55.299999952316284,55.299999952316284,55.40000009536743,55.40000009536743,55.40000009536743,55.5]}</json>-->
<path d = "M0 192.15686274509804 L1 192.15686274509804 L2 192.15686274509804 L3 192.15686274509804 L4 193.87254901960785 L5 193.87254901960785 L6 193.87254901960785 L7 193.87254901960785 L8 193.87254901960785 L9 195.58823529411762 L10 193.87254901960785 L11 195.58823529411762 L12 195.58823529411762 L13 195.58823529411762 L14 195.58823529411762 L15 195.58823529411762 L16 195.58823529411762 L17 193.87254901960785 L18 193.87254901960785 L19 193.87254901960785 L20 192.15686274509804 L21 193.87254901960785 L22 192.15686274509804 L23 192.15686274509804 L24 192.15686274509804 L25 192.15686274509804 L26 192.15686274509804 L27 192.15686274509804 L28 192.15686274509804 L29 190.44117647058823 L30 190.44117647058823 L31 190.44117647058823 L32 190.44117647058823 L33 190.44117647058823 L34 190.44117647058823 L35 190.44117647058823 L36 190.44117647058823 L37 190.44117647058823 L38 190.44117647058823 L39 188.72549019607845 L40 190.44117647058823 L41 192.15686274509804 L42 190.44117647058823 L43 190.44117647058823 L44 190.44117647058823 L45 188.72549019607845 L46 188.72549019607845 L47 190.44117647058823 L48 190.44117647058823 L49 190.44117647058823 L50 190.44117647058823 L51 190.44117647058823 L52 190.44117647058823 L53 188.72549019607845 L54 188.72549019607845 L55 188.72549019607845 L56 188.72549019607845 L57 190.44117647058823 L58 188.72549019607845 L59 190.44117647058823 L60 190.44117647058823 L61 190.44117647058823 L62 190.44117647058823 L63 190.44117647058823 L64 190.44117647058823 L65 190.44117647058823 L66 190.44117647058823 L67 190.44117647058823 L68 200.73529411764707 L69 212.74509803921572 L70 223.03921568627453 L71 235.04901960784312 L72 245.34313725490196 L73 255.63725490196077 L74 264.21568627450984 L75 274.5098039215686 L76 283.0882352941176 L77 291.6666666666667 L78 298.52941176470586 L79 305.3921568627451 L80 312.2549019607843 L81 317.4019607843137 L82 322.54901960784315 L83 325.98039215686276 L84 331.12745098039215 L85 332.843137254902 L86 336.27450980392155 L87 337.9901960784314 L88 339.70588235294116 L89 341.421568627451 L90 343.1372549019608 L91 343.1372549019608 L92 344.8529411764706 L93 344.8529411764706 L94 344.8529411764706 L95 346.5686274509804 L96 346.5686274509804 L97 346.5686274509804 L98 346.5686274509804 L99 346.5686274509804 L100 348.28431372549016 L101 348.28431372549016 L102 348.28431372549016 L103 348.28431372549016 L104 350 L105 350 L106 350 L107 350 L108 350 L109 350 L110 350 L111 350 L112 350 L113 350 L114 350 L115 350 L116 350 L117 351.71568627450984 L118 351.71568627450984 L119 350 L120 350 L121 350 L122 350 L123 350 L124 350 L125 350 L126 351.71568627450984 L127 351.71568627450984 L128 351.71568627450984 L129 351.71568627450984 L130 351.71568627450984 L131 350 L132 350 L133 350 L134 350 L135 350 L136 350 L137 351.71568627450984 L138 351.71568627450984 L139 351.71568627450984 L140 351.71568627450984 L141 351.71568627450984 L142 351.71568627450984 L143 351.71568627450984 L144 351.71568627450984 L145 351.71568627450984 L146 351.71568627450984 L147 351.71568627450984 L148 353.4313725490196 L149 353.4313725490196 L150 353.4313725490196 L151 353.4313725490196 L152 353.4313725490196 L153 353.4313725490196 L154 351.71568627450984 L155 351.71568627450984 L156 351.71568627450984 L157 351.71568627450984 L158 351.71568627450984 L159 351.71568627450984 L160 351.71568627450984 L161 350 L162 353.4313725490196 L163 350 L164 350 L165 350 L166 351.71568627450984 L167 350 L168 350 L169 350 L170 351.71568627450984 L171 351.71568627450984 L172 351.71568627450984 L173 351.71568627450984 L174 351.71568627450984 L175 351.71568627450984 L176 351.71568627450984 L177 351.71568627450984 L178 351.71568627450984 L179 351.71568627450984 L180 351.71568627450984 L181 351.71568627450984 L182 351.71568627450984 L183 351.71568627450984 L184 351.71568627450984 L185 351.71568627450984 L186 351.71568627450984 L187 351.71568627450984 L188 353.4313725490196 L189 351.71568627450984 L190 351.71568627450984 L191 351.71568627450984 L192 351.71568627450984 L193 351.71568627450984 L194 351.71568627450984 L195 351.71568627450984 L196 351.71568627450984 L197 351.71568627450984 L198 351.71568627450984 L199 351.71568627450984 L200 353.4313725490196" stroke = "red"  stroke-width = "4" fill = "none" />
<path d = "M0 437.5 L1 437.5 L2 437.5 L3 437.5 L4 437.5 L5 437.5 L6 437.5 L7 437.5 L8 437.5 L9 437.5 L10 437.5 L11 437.5 L12 437.5 L13 437.5 L14 437.5 L15 437.5 L16 437.5 L17 437.5 L18 437.5 L19 437.5 L20 437.5 L21 437.5 L22 437.5 L23 437.5 L24 437.5 L25 437.5 L26 437.5 L27 437.5 L28 437.5 L29 437.5 L30 437.5 L31 437.5 L32 437.5 L33 437.5 L34 437.5 L35 437.5 L36 437.5 L37 437.5 L38 437.5 L39 437.5 L40 437.5 L41 437.5 L42 437.5 L43 437.5 L44 437.5 L45 437.5 L46 437.5 L47 437.5 L48 437.5 L49 437.5 L50 437.5 L51 437.5 L52 437.5 L53 437.5 L54 437.5 L55 437.5 L56 437.5 L57 437.5 L58 437.5 L59 437.5 L60 437.5 L61 437.5 L62 437.5 L63 435.7843137254902 L64 437.5 L65 437.5 L66 437.5 L67 437.5 L68 437.5 L69 437.5 L70 437.5 L71 437.5 L72 437.5 L73 435.7843137254902 L74 425.4901960784314 L75 422.05882352941177 L76 428.921568627451 L77 435.7843137254902 L78 437.5 L79 437.5 L80 437.5 L81 437.5 L82 437.5 L83 437.5 L84 437.5 L85 437.5 L86 437.5 L87 437.5 L88 437.5 L89 437.5 L90 437.5 L91 437.5 L92 437.5 L93 437.5 L94 437.5 L95 437.5 L96 437.5 L97 437.5 L98 437.5 L99 437.5 L100 437.5 L101 437.5 L102 437.5 L103 437.5 L104 437.5 L105 432.3529411764706 L106 437.5 L107 437.5 L108 437.5 L109 437.5 L110 437.5 L111 437.5 L112 437.5 L113 437.5 L114 437.5 L115 437.5 L116 437.5 L117 437.5 L118 437.5 L119 437.5 L120 437.5 L121 437.5 L122 437.5 L123 437.5 L124 437.5 L125 437.5 L126 437.5 L127 437.5 L128 437.5 L129 437.5 L130 437.5 L131 437.5 L132 437.5 L133 437.5 L134 437.5 L135 437.5 L136 437.5 L137 418.62745098039215 L138 428.921568627451 L139 437.5 L140 437.5 L141 437.5 L142 437.5 L143 437.5 L144 437.5 L145 437.5 L146 437.5 L147 437.5 L148 437.5 L149 437.5 L150 437.5 L151 437.5 L152 437.5 L153 437.5 L154 437.5 L155 437.5 L156 437.5 L157 437.5 L158 437.5 L159 437.5 L160 437.5 L161 437.5 L162 437.5 L163 437.5 L164 437.5 L165 437.5 L166 437.5 L167 437.5 L168 437.5 L169 437.5 L170 437.5 L171 437.5 L172 437.5 L173 437.5 L174 437.5 L175 437.5 L176 437.5 L177 437.5 L178 437.5 L179 437.5 L180 437.5 L181 437.5 L182 437.5 L183 437.5 L184 437.5 L185 437.5 L186 437.5 L187 437.5 L188 437.5 L189 437.5 L190 437.5 L191 437.5 L192 437.5 L193 437.5 L194 437.5 L195 437.5 L196 437.5 L197 437.5 L198 437.5 L199 437.5 L200 437.5" stroke = "green"  stroke-width = "4" fill = "none" />
<path d = "M0 437.5 L1 437.5 L2 437.5 L3 437.5 L4 437.5 L5 437.5 L6 437.5 L7 437.5 L8 437.5 L9 437.5 L10 437.5 L11 437.5 L12 437.5 L13 437.5 L14 437.5 L15 437.5 L16 437.5 L17 437.5 L18 437.5 L19 437.5 L20 437.5 L21 437.5 L22 437.5 L23 437.5 L24 437.5 L25 437.5 L26 437.5 L27 437.5 L28 437.5 L29 437.5 L30 437.5 L31 437.5 L32 437.5 L33 437.5 L34 437.5 L35 437.5 L36 437.5 L37 437.5 L38 437.5 L39 437.5 L40 434.0686274509804 L41 437.5 L42 437.5 L43 437.5 L44 437.5 L45 437.5 L46 432.3529411764706 L47 435.7843137254902 L48 437.5 L49 437.5 L50 437.5 L51 437.5 L52 437.5 L53 437.5 L54 437.5 L55 437.5 L56 437.5 L57 437.5 L58 437.5 L59 437.5 L60 437.5 L61 437.5 L62 437.5 L63 437.5 L64 437.5 L65 437.5 L66 437.5 L67 437.5 L68 437.5 L69 437.5 L70 437.5 L71 437.5 L72 437.5 L73 437.5 L74 437.5 L75 437.5 L76 437.5 L77 437.5 L78 437.5 L79 437.5 L80 437.5 L81 437.5 L82 437.5 L83 437.5 L84 437.5 L85 437.5 L86 437.5 L87 437.5 L88 437.5 L89 437.5 L90 437.5 L91 437.5 L92 437.5 L93 437.5 L94 437.5 L95 437.5 L96 437.5 L97 437.5 L98 437.5 L99 437.5 L100 437.5 L101 437.5 L102 437.5 L103 437.5 L104 437.5 L105 437.5 L106 437.5 L107 437.5 L108 437.5 L109 437.5 L110 437.5 L111 437.5 L112 437.5 L113 437.5 L114 437.5 L115 437.5 L116 437.5 L117 437.5 L118 437.5 L119 437.5 L120 437.5 L121 437.5 L122 437.5 L123 437.5 L124 437.5 L125 437.5 L126 437.5 L127 437.5 L128 437.5 L129 437.5 L130 437.5 L131 437.5 L132 437.5 L133 437.5 L134 437.5 L135 437.5 L136 437.5 L137 437.5 L138 437.5 L139 437.5 L140 437.5 L141 437.5 L142 437.5 L143 437.5 L144 437.5 L145 437.5 L146 437.5 L147 437.5 L148 437.5 L149 437.5 L150 437.5 L151 437.5 L152 437.5 L153 437.5 L154 437.5 L155 437.5 L156 437.5 L157 437.5 L158 437.5 L159 437.5 L160 437.5 L161 437.5 L162 437.5 L163 437.5 L164 437.5 L165 437.5 L166 437.5 L167 437.5 L168 437.5 L169 437.5 L170 437.5 L171 437.5 L172 437.5 L173 437.5 L174 437.5 L175 437.5 L176 437.5 L177 437.5 L178 437.5 L179 437.5 L180 437.5 L181 437.5 L182 437.5 L183 437.5 L184 437.5 L185 437.5 L186 437.5 L187 437.5 L188 437.5 L189 437.5 L190 437.5 L191 437.5 L192 437.5 L193 437.5 L194 437.5 L195 437.5 L196 437.5 L197 437.5 L198 437.5 L199 437.5 L200 437.5" stroke = "blue"  stroke-width = "4" fill = "none" />
<path d = "M0 437.5 L1 437.5 L2 437.5 L3 437.5 L4 437.5 L5 437.5 L6 437.5 L7 437.5 L8 437.5 L9 432.3529411764706 L10 408.3333333333333 L11 410.04901960784315 L12 416.9117647058824 L13 423.77450980392155 L14 430.6372549019608 L15 434.0686274509804 L16 437.5 L17 437.5 L18 437.5 L19 437.5 L20 437.5 L21 437.5 L22 437.5 L23 437.5 L24 437.5 L25 437.5 L26 437.5 L27 437.5 L28 437.5 L29 437.5 L30 437.5 L31 437.5 L32 437.5 L33 437.5 L34 437.5 L35 437.5 L36 437.5 L37 434.0686274509804 L38 425.4901960784314 L39 416.9117647058824 L40 392.8921568627451 L41 403.1862745098039 L42 399.7549019607843 L43 410.04901960784315 L44 415.19607843137254 L45 418.62745098039215 L46 425.4901960784314 L47 428.921568627451 L48 437.5 L49 437.5 L50 437.5 L51 437.5 L52 437.5 L53 430.6372549019608 L54 427.20588235294116 L55 428.921568627451 L56 437.5 L57 437.5 L58 437.5 L59 437.5 L60 437.5 L61 437.5 L62 437.5 L63 437.5 L64 437.5 L65 437.5 L66 437.5 L67 437.5 L68 437.5 L69 437.5 L70 437.5 L71 437.5 L72 437.5 L73 416.9117647058824 L74 403.1862745098039 L75 404.9019607843137 L76 415.19607843137254 L77 427.20588235294116 L78 437.5 L79 437.5 L80 437.5 L81 437.5 L82 437.5 L83 437.5 L84 437.5 L85 437.5 L86 437.5 L87 437.5 L88 437.5 L89 437.5 L90 437.5 L91 437.5 L92 437.5 L93 437.5 L94 437.5 L95 437.5 L96 437.5 L97 437.5 L98 437.5 L99 437.5 L100 437.5 L101 437.5 L102 437.5 L103 437.5 L104 437.5 L105 428.921568627451 L106 437.5 L107 437.5 L108 437.5 L109 437.5 L110 427.20588235294116 L111 425.4901960784314 L112 432.3529411764706 L113 437.5 L114 437.5 L115 425.4901960784314 L116 428.921568627451 L117 437.5 L118 437.5 L119 437.5 L120 437.5 L121 437.5 L122 437.5 L123 437.5 L124 437.5 L125 437.5 L126 437.5 L127 437.5 L128 437.5 L129 437.5 L130 437.5 L131 437.5 L132 437.5 L133 437.5 L134 437.5 L135 437.5 L136 437.5 L137 437.5 L138 437.5 L139 437.5 L140 437.5 L141 437.5 L142 437.5 L143 437.5 L144 437.5 L145 437.5 L146 437.5 L147 437.5 L148 437.5 L149 437.5 L150 437.5 L151 437.5 L152 437.5 L153 437.5 L154 437.5 L155 437.5 L156 437.5 L157 437.5 L158 437.5 L159 437.5 L160 437.5 L161 437.5 L162 437.5 L163 437.5 L164 437.5 L165 437.5 L166 437.5 L167 437.5 L168 437.5 L169 437.5 L170 437.5 L171 437.5 L172 437.5 L173 437.5 L174 437.5 L175 437.5 L176 437.5 L177 437.5 L178 437.5 L179 437.5 L180 437.5 L181 437.5 L182 437.5 L183 437.5 L184 437.5 L185 437.5 L186 437.5 L187 437.5 L188 437.5 L189 437.5 L190 437.5 L191 437.5 L192 437.5 L193 437.5 L194 437.5 L195 428.921568627451 L196 434.0686274509804 L197 437.5 L198 437.5 L199 415.19607843137254 L200 408.3333333333333" stroke = "purple"  stroke-width = "4" fill = "none" />
</svg>