<svg width="500" height="438" viewbox = "0 0 500 438"  xmlns="http://www.w3.org/2000/svg">
<!--<json>{"starttime":1741738515.784,"startdate":"Tue Mar 11 2025 18:15:15 GMT-0600 (Mountain Daylight Time)","f1":1000,"f2":2000,"f3":3000,"f4":4000,"notes":"this is just a test run of some random noise, this is not real data but what is real data? what makes data more real?\nwhat even is real?","p1":[79,80,80,80,80,80,80,80,80,80.33333333333333,80.33333333333333,80,79,78,79,79,78.33333333333333,79.66666666666667,80,80,80.33333333333333,79.33333333333333,78.66666666666667,78.66666666666667,80,80,80,80,80,80,80,80,80,80,79.33333333333333,78.66666666666667,79.33333333333333,80,80,80,79,77.66666666666667,80,82,81.66666666666667,79.66666666666667,77.33333333333333,80.33333333333333,80.33333333333333,80.66666666666667,80.66666666666667,80.33333333333333,80,80.66666666666667,80,79,78.66666666666667,79,79,79,79,79,79,79,78.66666666666667,79,79,79.33333333333333,79.66666666666667,80,80,80,80,79.33333333333333,79.33333333333333,80,80,80,80,80,80,80,80,79.66666666666667,78.66666666666667,79,79.66666666666667,79.33333333333333,80.33333333333333,80,80,79.66666666666667,78.66666666666667,79,79,79,79.33333333333333,76.66666666666667,78.66666666666667,79,78.33333333333333,79,79.66666666666667,76.66666666666667,77,78.33333333333333,79,79.66666666666667,80,80,80.66666666666667,80,79.33333333333333,79.33333333333333,79.66666666666667,80,80,80,79.66666666666667,79.66666666666667,79.33333333333333,79,78,77,76.33333333333333,77.66666666666667,78,79,78,78.66666666666667,78.66666666666667,78.66666666666667,79.66666666666667,79.33333333333333,79,79.66666666666667,80,80,80,79.33333333333333,79,77.33333333333333,78.33333333333333,78.66666666666667,79,79.33333333333333,77,77.66666666666667,78,78.66666666666667,79,79,79,79,79.33333333333333,79.66666666666667,79,79,79.66666666666667,79.66666666666667,79.33333333333333,79,79,79.66666666666667,80,79,79.33333333333333,80.33333333333333,79,79.33333333333333,79.33333333333333,78.66666666666667,80,80,80.33333333333333,80.33333333333333,80,80,79.33333333333333,79,79,78.33333333333333,79,80,80,79.33333333333333,79,79,79.33333333333333,79.33333333333333,80,80,79.66666666666667,79,77.33333333333333,77.33333333333333,79,79,80,80,79.33333333333333,80,80,80,80,79.33333333333333,79,80.66666666666667,80.33333333333333,80,80,78.66666666666667,77.66666666666667,78,77.66666666666667,78,79,80.33333333333333,80,79.66666666666667,78.66666666666667,78.33333333333333,80,81,82,81.66666666666667,80.33333333333333,78.33333333333333,78,79,79,77.66666666666667,79,79,78.66666666666667,79.33333333333333,78.66666666666667,78,79,79,79,79,78.66666666666667,79,79,79,79,79.66666666666667,80,79.66666666666667,77.66666666666667,79,79,79.33333333333333,79.66666666666667,79.66666666666667,79,79,79.33333333333333,79.33333333333333,80,79,79,80,80,80.33333333333333,80,80,80,80,80,79.66666666666667,79.66666666666667,80,80.33333333333333,81,80,79.66666666666667,79.33333333333333,79,79,80,79,79,79,79,79.33333333333333,79,79.66666666666667,79.66666666666667,80,79.33333333333333,79,79,79.33333333333333,79.33333333333333,79.66666666666667,80,80,79,78,78.66666666666667,79,80,80,80,79.66666666666667,81.33333333333333,81.33333333333333,80.33333333333333,80,80,80,80,80,80,80,80,80,80,80,79.66666666666667,77.66666666666667,78.66666666666667,79.66666666666667,79.66666666666667,79,79,79.33333333333333,79.66666666666667,80,80,80,80,79,77,77.66666666666667,79,79,79.66666666666667,81,82,80.66666666666667,81,80.66666666666667,80,79.66666666666667,79,79.66666666666667,80,79.33333333333333,79,79,79,79,80,80,80,79.33333333333333,79,79.66666666666667,79.33333333333333,79.66666666666667,79.33333333333333,78,79,79,79,79,79.33333333333333,79.33333333333333,80,79.33333333333333,79,79,79.33333333333333,80,79.66666666666667,80,80,80,80,80,80,80,79.33333333333333,80,80,80,79.66666666666667,79,79,79,79.66666666666667,80,79.33333333333333,78.66666666666667,79,79,80,80,80,80,79.66666666666667,79.66666666666667,79.33333333333333,78.33333333333333,80,80,80,80,82.33333333333333,81,80.33333333333333,80.33333333333333,80,80,79,79.66666666666667,79.33333333333333,79.66666666666667,79.33333333333333,78.33333333333333,78,79,79,80,80,80,80,80,80,80,80,79.33333333333333,79,80,79.66666666666667,80,80,80,80,79.33333333333333,79.66666666666667,79,79,79,78.66666666666667,78.33333333333333,78.66666666666667,79,79,78.33333333333333,78,78,78,78,78,78.33333333333333,79,78.33333333333333,78,78,78,76.66666666666667,76,77,77,77,78,77.66666666666667,78,77.66666666666667,77,77.33333333333333,77.66666666666667,77,77.33333333333333,78,78.33333333333333,77.66666666666667,77.66666666666667,77.66666666666667,77.33333333333333,78,78,78,79.33333333333333,79,79,78,78,78,78,78,78,78,78,78,79,78],"p2":[3,10,11,0,2.3333333333333335,0.6666666666666666,5,2.3333333333333335,11,52.666666666666664,85.33333333333333,72,69,74,64,63.666666666666664,75,64.33333333333333,61.333333333333336,65.66666666666667,56,40.666666666666664,31,25.333333333333332,19.666666666666668,16.333333333333332,8.333333333333334,5.666666666666667,5.666666666666667,0,17.666666666666668,21.666666666666668,14.666666666666666,7.666666666666667,0,3,23.333333333333332,15.333333333333334,3,22.333333333333332,49.333333333333336,50.333333333333336,44.666666666666664,55,50.333333333333336,41.666666666666664,50.666666666666664,44.666666666666664,52,57,65.33333333333333,52.333333333333336,50.333333333333336,76.33333333333333,93,91,81.66666666666667,62.333333333333336,52.333333333333336,47,41.666666666666664,71.33333333333333,77,63,47.666666666666664,32.666666666666664,16.333333333333332,29.333333333333332,59.666666666666664,55.333333333333336,40.333333333333336,28,19,17.666666666666668,17.333333333333332,28.666666666666668,22.666666666666668,8,0,0,0,19.333333333333332,54,59.666666666666664,56.666666666666664,40.333333333333336,37.333333333333336,29.666666666666668,28.333333333333332,34.333333333333336,32.333333333333336,51,60.666666666666664,52.666666666666664,48,44,35.333333333333336,55,52.333333333333336,51,67,61,53.666666666666664,57,48.666666666666664,51,54,47,39.333333333333336,33.666666666666664,62.666666666666664,68.66666666666667,55.333333333333336,37.333333333333336,29.666666666666668,21.666666666666668,8.333333333333334,3,55,45,32.666666666666664,18.333333333333332,27.333333333333332,44.333333333333336,31.666666666666668,15.333333333333334,21,13,1.3333333333333333,0,22,42.666666666666664,32.666666666666664,21.333333333333332,18.333333333333332,29.333333333333332,52.333333333333336,58,50,62,52.333333333333336,65.66666666666667,65,53,48.666666666666664,53.333333333333336,45.666666666666664,46.666666666666664,43,28.666666666666668,30,42.333333333333336,29,30.666666666666668,27.666666666666668,15.333333333333334,24,33,19.666666666666668,6.333333333333333,0.3333333333333333,5,12.333333333333334,0.3333333333333333,11.333333333333334,39,57.666666666666664,63.333333333333336,70.33333333333333,69.66666666666667,59,53,56.666666666666664,60.666666666666664,62,54.666666666666664,46,49.333333333333336,36.666666666666664,37,31.666666666666668,27.333333333333332,20,22.333333333333332,22.666666666666668,31,18.333333333333332,21.666666666666668,16.333333333333332,27.333333333333332,32.666666666666664,25.666666666666668,15.333333333333334,19.666666666666668,38.333333333333336,35.666666666666664,26.666666666666668,31,20,27.333333333333332,34,55.333333333333336,46.666666666666664,31,45.333333333333336,60,71.66666666666667,63,47.666666666666664,45.333333333333336,35.666666666666664,43,35.666666666666664,31.666666666666668,44.666666666666664,40.333333333333336,48,52.333333333333336,47.333333333333336,38.333333333333336,45.666666666666664,33,28.666666666666668,40.333333333333336,58,63.333333333333336,59.333333333333336,53.666666666666664,46.666666666666664,39.666666666666664,30.333333333333332,35.666666666666664,29.333333333333332,14.333333333333334,9,1,0.3333333333333333,0,0,0,10.666666666666666,1.3333333333333333,7,19.333333333333332,15,4,5.666666666666667,11,14,31,42.333333333333336,34,19.666666666666668,11.666666666666666,3.3333333333333335,0,12.333333333333334,1.6666666666666667,3.3333333333333335,12,42.666666666666664,59.333333333333336,66.33333333333333,59.666666666666664,71.33333333333333,77.33333333333333,68.66666666666667,77.33333333333333,83.66666666666667,71.33333333333333,63,56,42.666666666666664,44,34,34,34.333333333333336,23.333333333333332,32,32.666666666666664,14.666666666666666,0.6666666666666666,2.3333333333333335,16,5.666666666666667,0,0,0,16.333333333333332,32,20.333333333333332,10.666666666666666,46.333333333333336,49.666666666666664,53,64.66666666666667,61.333333333333336,43.666666666666664,23,9.666666666666666,0,0,0,22.666666666666668,8.666666666666666,0,9.666666666666666,26.333333333333332,9.666666666666666,0,0,10.333333333333334,33.333333333333336,31,22,13,1.3333333333333333,0.6666666666666666,0,0,0,0,0,0,0,0,12.333333333333334,8.666666666666666,0,0,19,19.666666666666668,3.3333333333333335,0,33.666666666666664,56.666666666666664,42.666666666666664,26.666666666666668,15.333333333333334,3,0,0,0.6666666666666666,0,0,0,63.666666666666664,68.33333333333333,51,34,22,6.333333333333333,0,0,8.333333333333334,9.333333333333334,0.6666666666666666,0,30.333333333333332,26.333333333333332,13,10.666666666666666,11,22,52.333333333333336,40.666666666666664,35,27.333333333333332,13.666666666666666,10.333333333333334,15.666666666666666,4,56,75,69,49,28.333333333333332,11.333333333333334,0.6666666666666666,0,7.333333333333333,55,49,36.666666666666664,25.666666666666668,28.666666666666668,25.666666666666668,11.666666666666666,0,37.333333333333336,50,34.666666666666664,20,23,20.666666666666668,8.666666666666666,23.666666666666668,38,28.666666666666668,18.666666666666668,9.666666666666666,37,18.666666666666668,6.666666666666667,15,34.333333333333336,38.333333333333336,25.333333333333332,17.666666666666668,4.666666666666667,0,0,0,0,11,40.333333333333336,38.666666666666664,26.333333333333332,7.333333333333333,0,3.6666666666666665,8,15.333333333333334,2.6666666666666665,12,29,11.333333333333334,0,3.3333333333333335,3.6666666666666665,0,0,5.666666666666667,10.333333333333334,31.666666666666668,42,42.333333333333336,34.666666666666664,20,6,23.333333333333332,26,14.333333333333334,10.666666666666666,7.333333333333333,1,0,0,0,5.666666666666667,0,0,0,0,0,0,0,0,14.666666666666666,54,54.333333333333336,38,24.333333333333332,22.666666666666668,16,4,0,0,0,0,3,6,24,13.333333333333334,1,25,52,37,25.333333333333332,28,34.333333333333336,22.666666666666668,13.666666666666666,20.666666666666668,20.333333333333332,3.6666666666666665,0,2.3333333333333335,1,0,0,38.333333333333336,35.666666666666664,18,1.6666666666666667,0,0,0,0,0.3333333333333333,2.6666666666666665],"p3":[0,0,0,0.6666666666666666,0,0,0,0,1.6666666666666667,1.3333333333333333,4.666666666666667,6.333333333333333,16,7,16.333333333333332,8.333333333333334,0.3333333333333333,0,4.333333333333333,17.333333333333332,6.666666666666667,4.666666666666667,10.333333333333334,9,9.666666666666666,3.3333333333333335,2,0,0,0,0,0,0,0,0,1,0,0,0,0,0,0,0,0.3333333333333333,0.3333333333333333,0,0,0,0,0,0,0,0,0,0,0,0,3,2,9.666666666666666,21.333333333333332,10.333333333333334,10.333333333333334,24.333333333333332,17.666666666666668,11.333333333333334,14.666666666666666,3,2,1,11,15.666666666666666,5.666666666666667,2,0,0,0,0,0,0,0,14.333333333333334,28.666666666666668,23.666666666666668,18,14.666666666666666,16,15.666666666666666,2.6666666666666665,2,7.666666666666667,8.333333333333334,0,0,5.333333333333333,1,1,12.333333333333334,12,9.333333333333334,7.666666666666667,0.3333333333333333,0,0,0,0,0,0,0,0,0,0,0,0,7,6.666666666666667,0,0,9.666666666666666,0.3333333333333333,3.6666666666666665,4,9.666666666666666,7,0,3.6666666666666665,17.333333333333332,16,17,28.333333333333332,15,15.333333333333334,29,39,40.333333333333336,28.333333333333332,13.333333333333334,8,5.333333333333333,0,0,0,0,0,1,0.3333333333333333,0.6666666666666666,1,3,14,8,1,0,0,0,0,0,0,0,0,0,0,0,0,0,0,0,0,0,1.3333333333333333,0,0,0,0,0,0,0,0,0,0,0,0,0,0,0,2.6666666666666665,6.333333333333333,0.3333333333333333,5.666666666666667,22,13.666666666666666,12,7,1.6666666666666667,5.666666666666667,9,3.3333333333333335,10,0,0,0,0,0,0,0,0,0,0,0,0,0.6666666666666666,0,12,8.666666666666666,26.666666666666668,32,21.666666666666668,14.333333333333334,10.333333333333334,8,8,0,0,0,0,9,17.666666666666668,17.333333333333332,9.333333333333334,0,0,0,0,0,0,0,0,0,0,0,1,0,0,5.333333333333333,9.333333333333334,11.666666666666666,2,0,0.3333333333333333,5,0,3.3333333333333335,4,0,5,6,3.6666666666666665,16,22,25.666666666666668,28,21.666666666666668,17.333333333333332,21,8.666666666666666,9.666666666666666,14.333333333333334,2,0,0,18.333333333333332,23.666666666666668,26.333333333333332,41.333333333333336,39.333333333333336,33.333333333333336,30,29.666666666666668,22.333333333333332,5.666666666666667,0,0,0,0,0,0,0,0,0,0,0,1,8.666666666666666,11,18.666666666666668,28.666666666666668,22,5.333333333333333,0,0,0,0,0,0,0,0,0,0,0,0,0,0,0,0,0,0,0,0,0,0,0,0,0,0,0,0,0,0,0,0,0,0,0,0,4.666666666666667,2,0,0,0,0,0,0,0,0,0,0,0,0,0,0,0,0,0,0,0,0,0,0,0,0,0,0,0,0,0,1.6666666666666667,0,0,0,0,0,0,0,2,0,0,0,0,0,0,0,0,9.333333333333334,7.333333333333333,0,0,0,0,0,0,0,0,0,0,0,0,0,0,0,0,0,0,0,0,0,0,0,0,0,0,0,0,0,0,0,0,0,0,0,0,0,0,0,0,0,0,0,0,0,0,0,0,0,0,0,0,0,0,0,0,0,0,0,0,0,0,0,0,0,0,0,0,0,0,0,0,0,0,0,6.666666666666667,1,0,0,0,0,0,0,0,0,0,0,0,0,0,0,0,0,15,7,8,3,0,0,0,0,0,0,0,0,0,0,0,0,0,0,0,0,0,0,0,0],"p4":[0,0,0,0,0,0,0,0,0,0,0,0,0,0,0,0,0,0,0,0,0,0,0,0,3.3333333333333335,5.333333333333333,2.6666666666666665,0.6666666666666666,0,0,0,0,0,0,0,0,0,0,0,0,0,0,0,0.3333333333333333,0,0,0,0,0,0,0,0,0,0,6.333333333333333,8.333333333333334,3.3333333333333335,0,0,0,0,0,0,0,0,0,0,0,0,0,0,0,0,0,0,0,0,0,0,0,0,0,0,0,0,0,0,0,0,0,0,0,0,0,5.333333333333333,0.3333333333333333,0,1.6666666666666667,0,0,0.6666666666666666,4.333333333333333,3,19,4.666666666666667,0.6666666666666666,1.3333333333333333,0,0,0,0,0,0,0,0,0,0,0,0,0,0,0,0,0,0,0,0,0,0,0,0,0,0,0,0,0,0,0,3.3333333333333335,1,0,1.6666666666666667,1,0,0,0,0,0,0,0,0,0,0,0,0,0,0,0,0,0,0,0,0,0,0,0,0,3.3333333333333335,12.333333333333334,4,0,0,0,0,0,0,0,0,0,0,0,0,0,0,0,0,0,0,0,0,0,0,0,0,0,0,0,0,0,0,0,0,0,0,0,0,0,0,1.6666666666666667,0,0,0,0,0,0,13.666666666666666,19.333333333333332,15,2,0,0,0,0,0,2.3333333333333335,1,0,0.3333333333333333,9,28.666666666666668,24,23.333333333333332,15.666666666666666,2.3333333333333335,2,5,0,0.3333333333333333,0,0,0,0,0,0,0,0,0,0,0,0,0,0,0,0,0,0,0,0,0,0,0,0,0,0,0,0,0,0,0,0,0,0,0,0,0,0,0,0,0,0,0,0,0,0,0,0,0,0,0,0,0,0,0,0,0,0,0,0,0,0,0,0,0,0,0,0,0,0,0,0,0,0,0,0,0,0,0,0,0,0,0,0,0,0,0,0,0,0,0,0,0,0,0,0,0,0,0,0,0,0,0,0,0,0,0,0,0,0,0,0,0,0,0,0,0,0,0,0,0,0,0,0,0,0,0,7,10.666666666666666,0.6666666666666666,0,0,0,0,0,0,0,0,0,0,0,0,0,0,0,0,0,0,0,0,0,0,0,0,0,0,0,0,0,0,0,0,0,0,0,0,2.3333333333333335,0.3333333333333333,2.6666666666666665,1,0,0,0,0,0,0,0,0,0,0,0,0,0,0,0,0,0,0,0,0,0,0,0,0,0,0,0,0,0,0,0,0,0,0,0,0,0,0,0,0,0,0,0,0,0,0,0,0,0,0,0,0,0,0,0,0,0,0,0,0,0,0,0,0,0,0,0,0,0,0,0,0,0,0,0,0,0,0,0,0,0,0,0,0,0,0,0,0,0,0,0,0,0],"timeseconds":[0.08599996566772461,0.18600010871887207,0.28600001335144043,0.38499999046325684,0.48600006103515625,0.5859999656677246,0.6860001087188721,0.7860000133514404,0.8860001564025879,0.9869999885559082,1.0870001316070557,1.186000108718872,1.2860000133514404,1.386000156402588,1.4850001335144043,1.5859999656677246,1.686000108718872,1.7860000133514404,1.886000156402588,1.9860000610351562,2.0859999656677246,2.186000108718872,2.2860000133514404,2.38700008392334,2.4860000610351562,2.5859999656677246,2.687000036239624,2.7870001792907715,2.886000156402588,2.9860000610351562,3.0859999656677246,3.186000108718872,3.2870001792907715,3.386000156402588,3.4850001335144043,3.5859999656677246,3.686000108718872,3.7860000133514404,3.886000156402588,3.9860000610351562,4.087000131607056,4.186000108718872,4.2850000858306885,4.38700008392334,4.486999988555908,4.585999965667725,4.68500018119812,4.78600001335144,4.886000156402588,4.986000061035156,5.085999965667725,5.186000108718872,5.2870001792907715,5.386000156402588,5.486999988555908,5.585999965667725,5.686000108718872,5.7870001792907715,5.886000156402588,5.986999988555908,6.085999965667725,6.18500018119812,6.2870001792907715,6.386000156402588,6.486000061035156,6.585999965667725,6.686000108718872,6.78600001335144,6.886000156402588,6.986000061035156,7.085999965667725,7.186000108718872,7.28600001335144,7.386000156402588,7.486000061035156,7.585999965667725,7.686000108718872,7.78600001335144,7.886000156402588,7.986000061035156,8.085999965667725,8.186000108718872,8.28600001335144,8.384999990463257,8.486000061035156,8.585999965667725,8.686000108718872,8.78600001335144,8.886000156402588,8.986000061035156,9.085999965667725,9.186000108718872,9.28600001335144,9.386000156402588,9.486000061035156,9.587000131607056,9.68500018119812,9.787000179290771,9.886000156402588,9.986999988555908,10.085999965667725,10.186000108718872,10.28600001335144,10.386000156402588,10.486000061035156,10.585999965667725,10.686000108718872,10.78600001335144,10.88700008392334,10.986000061035156,11.085999965667725,11.186000108718872,11.28600001335144,11.38700008392334,11.486999988555908,11.585999965667725,11.686000108718872,11.787000179290771,11.886000156402588,11.985000133514404,12.085000038146973,12.187000036239624,12.28600001335144,12.386000156402588,12.486000061035156,12.585999965667725,12.687000036239624,12.78600001335144,12.886000156402588,12.985000133514404,13.085999965667725,13.186000108718872,13.28600001335144,13.38700008392334,13.486000061035156,13.587000131607056,13.686000108718872,13.787000179290771,13.88700008392334,13.986000061035156,14.085999965667725,14.186000108718872,14.285000085830688,14.386000156402588,14.485000133514404,14.585999965667725,14.686000108718872,14.78600001335144,14.88700008392334,14.986000061035156,15.085999965667725,15.186000108718872,15.28600001335144,15.386000156402588,15.486000061035156,15.585999965667725,15.68500018119812,15.78600001335144,15.886000156402588,15.986000061035156,16.085999965667725,16.186000108718872,16.28500008583069,16.386000156402588,16.486000061035156,16.587000131607056,16.686000108718872,16.78600001335144,16.886000156402588,16.986000061035156,17.085999965667725,17.186000108718872,17.28600001335144,17.386000156402588,17.486999988555908,17.587000131607056,17.68500018119812,17.78600001335144,17.886000156402588,17.986999988555908,18.085999965667725,18.187000036239624,18.28700017929077,18.386000156402588,18.486000061035156,18.585999965667725,18.686000108718872,18.78600001335144,18.886000156402588,18.985000133514404,19.085999965667725,19.186000108718872,19.28600001335144,19.386000156402588,19.486000061035156,19.585999965667725,19.686000108718872,19.78600001335144,19.886000156402588,19.985000133514404,20.087000131607056,20.186000108718872,20.28700017929077,20.386000156402588,20.486000061035156,20.585999965667725,20.686000108718872,20.78600001335144,20.886000156402588,20.986000061035156,21.085999965667725,21.186000108718872,21.28700017929077,21.386000156402588,21.486999988555908,21.585999965667725,21.686000108718872,21.78600001335144,21.884999990463257,21.986000061035156,22.085999965667725,22.186000108718872,22.28700017929077,22.386000156402588,22.486000061035156,22.585999965667725,22.68500018119812,22.784000158309937,22.884000062942505,22.983999967575073,23.085000038146973,23.18500018119812,23.28600001335144,23.386000156402588,23.486000061035156,23.585999965667725,23.68500018119812,23.78600001335144,23.886000156402588,23.986999988555908,24.087000131607056,24.187000036239624,24.28600001335144,24.386000156402588,24.486000061035156,24.585999965667725,24.686000108718872,24.78600001335144,24.886000156402588,24.986000061035156,25.085999965667725,25.186000108718872,25.28700017929077,25.386000156402588,25.486000061035156,25.585000038146973,25.686000108718872,25.78600001335144,25.886000156402588,25.986000061035156,26.087000131607056,26.186000108718872,26.28500008583069,26.384999990463257,26.485000133514404,26.585999965667725,26.687000036239624,26.78600001335144,26.886000156402588,26.986000061035156,27.085999965667725,27.186000108718872,27.28500008583069,27.386000156402588,27.486000061035156,27.585999965667725,27.686000108718872,27.78600001335144,27.884999990463257,27.986000061035156,28.087000131607056,28.186000108718872,28.28600001335144,28.38700008392334,28.486000061035156,28.585999965667725,28.686000108718872,28.78600001335144,28.88700008392334,28.986000061035156,29.085999965667725,29.186000108718872,29.28600001335144,29.386000156402588,29.486000061035156,29.585999965667725,29.687000036239624,29.78700017929077,29.88700008392334,29.986000061035156,30.085999965667725,30.186000108718872,30.28600001335144,30.386000156402588,30.485000133514404,30.585000038146973,30.686000108718872,30.78600001335144,30.884999990463257,30.986000061035156,31.085999965667725,31.186000108718872,31.28600001335144,31.386000156402588,31.486000061035156,31.585999965667725,31.686000108718872,31.78600001335144,31.886000156402588,31.986000061035156,32.087000131607056,32.18600010871887,32.28700017929077,32.38600015640259,32.486000061035156,32.585999965667725,32.68600010871887,32.78500008583069,32.88600015640259,32.986000061035156,33.085999965667725,33.18500018119812,33.28700017929077,33.38700008392334,33.486000061035156,33.585999965667725,33.68500018119812,33.78600001335144,33.88600015640259,33.986000061035156,34.085999965667725,34.187000036239624,34.28600001335144,34.38600015640259,34.486000061035156,34.585999965667725,34.68600010871887,34.78500008583069,34.88600015640259,34.98800015449524,35.085999965667725,35.18600010871887,35.28700017929077,35.38600015640259,35.486000061035156,35.585999965667725,35.687000036239624,35.78600001335144,35.88499999046326,35.98699998855591,36.085999965667725,36.18600010871887,36.28500008583069,36.38499999046326,36.486000061035156,36.585999965667725,36.68500018119812,36.78600001335144,36.88600015640259,36.985000133514404,37.085999965667725,37.18600010871887,37.28600001335144,37.38600015640259,37.486000061035156,37.585999965667725,37.68600010871887,37.78600001335144,37.88600015640259,37.986000061035156,38.08500003814697,38.18500018119812,38.28600001335144,38.38600015640259,38.486000061035156,38.587000131607056,38.68600010871887,38.78600001335144,38.88499999046326,38.98699998855591,39.087000131607056,39.18600010871887,39.28700017929077,39.38600015640259,39.486000061035156,39.585999965667725,39.68600010871887,39.78500008583069,39.88499999046326,39.986000061035156,40.08500003814697,40.18600010871887,40.28600001335144,40.38600015640259,40.486000061035156,40.585999965667725,40.68600010871887,40.78500008583069,40.88600015640259,40.98699998855591,41.085999965667725,41.18600010871887,41.28500008583069,41.38499999046326,41.486000061035156,41.585999965667725,41.687000036239624,41.78600001335144,41.88600015640259,41.986000061035156,42.085999965667725,42.187000036239624,42.28600001335144,42.38600015640259,42.486000061035156,42.585999965667725,42.68600010871887,42.78600001335144,42.88700008392334,42.985000133514404,43.085999965667725,43.18500018119812,43.28500008583069,43.38499999046326,43.486000061035156,43.585999965667725,43.68600010871887,43.78600001335144,43.88600015640259,43.985000133514404,44.085999965667725,44.18600010871887,44.28700017929077,44.38600015640259,44.486000061035156,44.585999965667725,44.68600010871887,44.78600001335144,44.88600015640259,44.986000061035156,45.085999965667725,45.18600010871887,45.28600001335144,45.38600015640259,45.486000061035156,45.585999965667725,45.687000036239624,45.78600001335144,45.88600015640259,45.986000061035156,46.085999965667725,46.18600010871887,46.28600001335144,46.38600015640259,46.485000133514404,46.585999965667725,46.687000036239624,46.78600001335144,46.88600015640259,46.986000061035156,47.087000131607056,47.18500018119812,47.28600001335144,47.38600015640259,47.486000061035156,47.587000131607056,47.68600010871887,47.78600001335144,47.88600015640259,47.986000061035156,48.08500003814697,48.18600010871887,48.28600001335144,48.38600015640259,48.48699998855591,48.585999965667725,48.68600010871887,48.78600001335144,48.88499999046326,48.986000061035156,49.085999965667725,49.18600010871887,49.28600001335144,49.38600015640259,49.486000061035156,49.58500003814697,49.68500018119812,49.78600001335144,49.88600015640259,49.98800015449524,50.085999965667725]}</json>-->
<path d = "M0 302.3058823529412 L1 300.5882352941177 L2 300.5882352941177 L3 300.5882352941177 L4 300.5882352941177 L5 300.5882352941177 L6 300.5882352941177 L7 300.5882352941177 L8 300.5882352941177 L9 300.0156862745098 L10 300.0156862745098 L11 300.5882352941177 L12 302.3058823529412 L13 304.0235294117647 L14 302.3058823529412 L15 302.3058823529412 L16 303.4509803921569 L17 301.16078431372546 L18 300.5882352941177 L19 300.5882352941177 L20 300.0156862745098 L21 301.73333333333335 L22 302.878431372549 L23 302.878431372549 L24 300.5882352941177 L25 300.5882352941177 L26 300.5882352941177 L27 300.5882352941177 L28 300.5882352941177 L29 300.5882352941177 L30 300.5882352941177 L31 300.5882352941177 L32 300.5882352941177 L33 300.5882352941177 L34 301.73333333333335 L35 302.878431372549 L36 301.73333333333335 L37 300.5882352941177 L38 300.5882352941177 L39 300.5882352941177 L40 302.3058823529412 L41 304.5960784313726 L42 300.5882352941177 L43 297.15294117647056 L44 297.72549019607845 L45 301.16078431372546 L46 305.1686274509804 L47 300.0156862745098 L48 300.0156862745098 L49 299.44313725490196 L50 299.44313725490196 L51 300.0156862745098 L52 300.5882352941177 L53 299.44313725490196 L54 300.5882352941177 L55 302.3058823529412 L56 302.878431372549 L57 302.3058823529412 L58 302.3058823529412 L59 302.3058823529412 L60 302.3058823529412 L61 302.3058823529412 L62 302.3058823529412 L63 302.3058823529412 L64 302.878431372549 L65 302.3058823529412 L66 302.3058823529412 L67 301.73333333333335 L68 301.16078431372546 L69 300.5882352941177 L70 300.5882352941177 L71 300.5882352941177 L72 300.5882352941177 L73 301.73333333333335 L74 301.73333333333335 L75 300.5882352941177 L76 300.5882352941177 L77 300.5882352941177 L78 300.5882352941177 L79 300.5882352941177 L80 300.5882352941177 L81 300.5882352941177 L82 300.5882352941177 L83 301.16078431372546 L84 302.878431372549 L85 302.3058823529412 L86 301.16078431372546 L87 301.73333333333335 L88 300.0156862745098 L89 300.5882352941177 L90 300.5882352941177 L91 301.16078431372546 L92 302.878431372549 L93 302.3058823529412 L94 302.3058823529412 L95 302.3058823529412 L96 301.73333333333335 L97 306.313725490196 L98 302.878431372549 L99 302.3058823529412 L100 303.4509803921569 L101 302.3058823529412 L102 301.16078431372546 L103 306.313725490196 L104 305.74117647058824 L105 303.4509803921569 L106 302.3058823529412 L107 301.16078431372546 L108 300.5882352941177 L109 300.5882352941177 L110 299.44313725490196 L111 300.5882352941177 L112 301.73333333333335 L113 301.73333333333335 L114 301.16078431372546 L115 300.5882352941177 L116 300.5882352941177 L117 300.5882352941177 L118 301.16078431372546 L119 301.16078431372546 L120 301.73333333333335 L121 302.3058823529412 L122 304.0235294117647 L123 305.74117647058824 L124 306.8862745098039 L125 304.5960784313726 L126 304.0235294117647 L127 302.3058823529412 L128 304.0235294117647 L129 302.878431372549 L130 302.878431372549 L131 302.878431372549 L132 301.16078431372546 L133 301.73333333333335 L134 302.3058823529412 L135 301.16078431372546 L136 300.5882352941177 L137 300.5882352941177 L138 300.5882352941177 L139 301.73333333333335 L140 302.3058823529412 L141 305.1686274509804 L142 303.4509803921569 L143 302.878431372549 L144 302.3058823529412 L145 301.73333333333335 L146 305.74117647058824 L147 304.5960784313726 L148 304.0235294117647 L149 302.878431372549 L150 302.3058823529412 L151 302.3058823529412 L152 302.3058823529412 L153 302.3058823529412 L154 301.73333333333335 L155 301.16078431372546 L156 302.3058823529412 L157 302.3058823529412 L158 301.16078431372546 L159 301.16078431372546 L160 301.73333333333335 L161 302.3058823529412 L162 302.3058823529412 L163 301.16078431372546 L164 300.5882352941177 L165 302.3058823529412 L166 301.73333333333335 L167 300.0156862745098 L168 302.3058823529412 L169 301.73333333333335 L170 301.73333333333335 L171 302.878431372549 L172 300.5882352941177 L173 300.5882352941177 L174 300.0156862745098 L175 300.0156862745098 L176 300.5882352941177 L177 300.5882352941177 L178 301.73333333333335 L179 302.3058823529412 L180 302.3058823529412 L181 303.4509803921569 L182 302.3058823529412 L183 300.5882352941177 L184 300.5882352941177 L185 301.73333333333335 L186 302.3058823529412 L187 302.3058823529412 L188 301.73333333333335 L189 301.73333333333335 L190 300.5882352941177 L191 300.5882352941177 L192 301.16078431372546 L193 302.3058823529412 L194 305.1686274509804 L195 305.1686274509804 L196 302.3058823529412 L197 302.3058823529412 L198 300.5882352941177 L199 300.5882352941177 L200 301.73333333333335 L201 300.5882352941177 L202 300.5882352941177 L203 300.5882352941177 L204 300.5882352941177 L205 301.73333333333335 L206 302.3058823529412 L207 299.44313725490196 L208 300.0156862745098 L209 300.5882352941177 L210 300.5882352941177 L211 302.878431372549 L212 304.5960784313726 L213 304.0235294117647 L214 304.5960784313726 L215 304.0235294117647 L216 302.3058823529412 L217 300.0156862745098 L218 300.5882352941177 L219 301.16078431372546 L220 302.878431372549 L221 303.4509803921569 L222 300.5882352941177 L223 298.8705882352941 L224 297.15294117647056 L225 297.72549019607845 L226 300.0156862745098 L227 303.4509803921569 L228 304.0235294117647 L229 302.3058823529412 L230 302.3058823529412 L231 304.5960784313726 L232 302.3058823529412 L233 302.3058823529412 L234 302.878431372549 L235 301.73333333333335 L236 302.878431372549 L237 304.0235294117647 L238 302.3058823529412 L239 302.3058823529412 L240 302.3058823529412 L241 302.3058823529412 L242 302.878431372549 L243 302.3058823529412 L244 302.3058823529412 L245 302.3058823529412 L246 302.3058823529412 L247 301.16078431372546 L248 300.5882352941177 L249 301.16078431372546 L250 304.5960784313726 L251 302.3058823529412 L252 302.3058823529412 L253 301.73333333333335 L254 301.16078431372546 L255 301.16078431372546 L256 302.3058823529412 L257 302.3058823529412 L258 301.73333333333335 L259 301.73333333333335 L260 300.5882352941177 L261 302.3058823529412 L262 302.3058823529412 L263 300.5882352941177 L264 300.5882352941177 L265 300.0156862745098 L266 300.5882352941177 L267 300.5882352941177 L268 300.5882352941177 L269 300.5882352941177 L270 300.5882352941177 L271 301.16078431372546 L272 301.16078431372546 L273 300.5882352941177 L274 300.0156862745098 L275 298.8705882352941 L276 300.5882352941177 L277 301.16078431372546 L278 301.73333333333335 L279 302.3058823529412 L280 302.3058823529412 L281 300.5882352941177 L282 302.3058823529412 L283 302.3058823529412 L284 302.3058823529412 L285 302.3058823529412 L286 301.73333333333335 L287 302.3058823529412 L288 301.16078431372546 L289 301.16078431372546 L290 300.5882352941177 L291 301.73333333333335 L292 302.3058823529412 L293 302.3058823529412 L294 301.73333333333335 L295 301.73333333333335 L296 301.16078431372546 L297 300.5882352941177 L298 300.5882352941177 L299 302.3058823529412 L300 304.0235294117647 L301 302.878431372549 L302 302.3058823529412 L303 300.5882352941177 L304 300.5882352941177 L305 300.5882352941177 L306 301.16078431372546 L307 298.2980392156863 L308 298.2980392156863 L309 300.0156862745098 L310 300.5882352941177 L311 300.5882352941177 L312 300.5882352941177 L313 300.5882352941177 L314 300.5882352941177 L315 300.5882352941177 L316 300.5882352941177 L317 300.5882352941177 L318 300.5882352941177 L319 300.5882352941177 L320 300.5882352941177 L321 301.16078431372546 L322 304.5960784313726 L323 302.878431372549 L324 301.16078431372546 L325 301.16078431372546 L326 302.3058823529412 L327 302.3058823529412 L328 301.73333333333335 L329 301.16078431372546 L330 300.5882352941177 L331 300.5882352941177 L332 300.5882352941177 L333 300.5882352941177 L334 302.3058823529412 L335 305.74117647058824 L336 304.5960784313726 L337 302.3058823529412 L338 302.3058823529412 L339 301.16078431372546 L340 298.8705882352941 L341 297.15294117647056 L342 299.44313725490196 L343 298.8705882352941 L344 299.44313725490196 L345 300.5882352941177 L346 301.16078431372546 L347 302.3058823529412 L348 301.16078431372546 L349 300.5882352941177 L350 301.73333333333335 L351 302.3058823529412 L352 302.3058823529412 L353 302.3058823529412 L354 302.3058823529412 L355 300.5882352941177 L356 300.5882352941177 L357 300.5882352941177 L358 301.73333333333335 L359 302.3058823529412 L360 301.16078431372546 L361 301.73333333333335 L362 301.16078431372546 L363 301.73333333333335 L364 304.0235294117647 L365 302.3058823529412 L366 302.3058823529412 L367 302.3058823529412 L368 302.3058823529412 L369 301.73333333333335 L370 301.73333333333335 L371 300.5882352941177 L372 301.73333333333335 L373 302.3058823529412 L374 302.3058823529412 L375 301.73333333333335 L376 300.5882352941177 L377 301.16078431372546 L378 300.5882352941177 L379 300.5882352941177 L380 300.5882352941177 L381 300.5882352941177 L382 300.5882352941177 L383 300.5882352941177 L384 300.5882352941177 L385 301.73333333333335 L386 300.5882352941177 L387 300.5882352941177 L388 300.5882352941177 L389 301.16078431372546 L390 302.3058823529412 L391 302.3058823529412 L392 302.3058823529412 L393 301.16078431372546 L394 300.5882352941177 L395 301.73333333333335 L396 302.878431372549 L397 302.3058823529412 L398 302.3058823529412 L399 300.5882352941177 L400 300.5882352941177 L401 300.5882352941177 L402 300.5882352941177 L403 301.16078431372546 L404 301.16078431372546 L405 301.73333333333335 L406 303.4509803921569 L407 300.5882352941177 L408 300.5882352941177 L409 300.5882352941177 L410 300.5882352941177 L411 296.5803921568628 L412 298.8705882352941 L413 300.0156862745098 L414 300.0156862745098 L415 300.5882352941177 L416 300.5882352941177 L417 302.3058823529412 L418 301.16078431372546 L419 301.73333333333335 L420 301.16078431372546 L421 301.73333333333335 L422 303.4509803921569 L423 304.0235294117647 L424 302.3058823529412 L425 302.3058823529412 L426 300.5882352941177 L427 300.5882352941177 L428 300.5882352941177 L429 300.5882352941177 L430 300.5882352941177 L431 300.5882352941177 L432 300.5882352941177 L433 300.5882352941177 L434 301.73333333333335 L435 302.3058823529412 L436 300.5882352941177 L437 301.16078431372546 L438 300.5882352941177 L439 300.5882352941177 L440 300.5882352941177 L441 300.5882352941177 L442 301.73333333333335 L443 301.16078431372546 L444 302.3058823529412 L445 302.3058823529412 L446 302.3058823529412 L447 302.878431372549 L448 303.4509803921569 L449 302.878431372549 L450 302.3058823529412 L451 302.3058823529412 L452 303.4509803921569 L453 304.0235294117647 L454 304.0235294117647 L455 304.0235294117647 L456 304.0235294117647 L457 304.0235294117647 L458 303.4509803921569 L459 302.3058823529412 L460 303.4509803921569 L461 304.0235294117647 L462 304.0235294117647 L463 304.0235294117647 L464 306.313725490196 L465 307.4588235294118 L466 305.74117647058824 L467 305.74117647058824 L468 305.74117647058824 L469 304.0235294117647 L470 304.5960784313726 L471 304.0235294117647 L472 304.5960784313726 L473 305.74117647058824 L474 305.1686274509804 L475 304.5960784313726 L476 305.74117647058824 L477 305.1686274509804 L478 304.0235294117647 L479 303.4509803921569 L480 304.5960784313726 L481 304.5960784313726 L482 304.5960784313726 L483 305.1686274509804 L484 304.0235294117647 L485 304.0235294117647 L486 304.0235294117647 L487 301.73333333333335 L488 302.3058823529412 L489 302.3058823529412 L490 304.0235294117647 L491 304.0235294117647 L492 304.0235294117647 L493 304.0235294117647 L494 304.0235294117647 L495 304.0235294117647 L496 304.0235294117647 L497 304.0235294117647 L498 304.0235294117647 L499 302.3058823529412 L500 304.0235294117647" stroke = "red"  stroke-width = "4" fill = "none" />
<path d = "M0 432.84705882352944 L1 420.8235294117647 L2 419.1058823529412 L3 438 L4 433.9921568627451 L5 436.85490196078433 L6 429.4117647058824 L7 433.9921568627451 L8 419.1058823529412 L9 347.5372549019608 L10 291.42745098039217 L11 314.32941176470587 L12 319.4823529411765 L13 310.8941176470588 L14 328.0705882352941 L15 328.64313725490194 L16 309.17647058823525 L17 327.4980392156863 L18 332.65098039215684 L19 325.2078431372549 L20 341.81176470588235 L21 368.1490196078431 L22 384.7529411764706 L23 394.48627450980393 L24 404.2196078431373 L25 409.9450980392157 L26 423.6862745098039 L27 428.26666666666665 L28 428.26666666666665 L29 438 L30 407.6549019607843 L31 400.78431372549016 L32 412.8078431372549 L33 424.8313725490196 L34 438 L35 432.84705882352944 L36 397.921568627451 L37 411.66274509803924 L38 432.84705882352944 L39 399.6392156862745 L40 353.2627450980392 L41 351.54509803921565 L42 361.278431372549 L43 343.52941176470586 L44 351.54509803921565 L45 366.4313725490196 L46 350.97254901960787 L47 361.278431372549 L48 348.6823529411765 L49 340.09411764705885 L50 325.7803921568628 L51 348.10980392156864 L52 351.54509803921565 L53 306.8862745098039 L54 278.25882352941176 L55 281.6941176470588 L56 297.72549019607845 L57 330.93333333333334 L58 348.10980392156864 L59 357.2705882352941 L60 366.4313725490196 L61 315.4745098039216 L62 305.74117647058824 L63 329.7882352941176 L64 356.12549019607843 L65 381.89019607843136 L66 409.9450980392157 L67 387.6156862745098 L68 335.51372549019607 L69 342.956862745098 L70 368.721568627451 L71 389.90588235294115 L72 405.36470588235295 L73 407.6549019607843 L74 408.2274509803922 L75 388.7607843137255 L76 399.06666666666666 L77 424.25882352941176 L78 438 L79 438 L80 438 L81 404.7921568627451 L82 345.2470588235294 L83 335.51372549019607 L84 340.6666666666667 L85 368.721568627451 L86 373.87450980392157 L87 387.043137254902 L88 389.3333333333333 L89 379.02745098039213 L90 382.4627450980392 L91 350.4 L92 333.79607843137256 L93 347.5372549019608 L94 355.5529411764706 L95 362.4235294117647 L96 377.30980392156863 L97 343.52941176470586 L98 348.10980392156864 L99 350.4 L100 322.9176470588235 L101 333.22352941176473 L102 345.81960784313725 L103 340.09411764705885 L104 354.4078431372549 L105 350.4 L106 345.2470588235294 L107 357.2705882352941 L108 370.4392156862745 L109 380.17254901960786 L110 330.3607843137255 L111 320.05490196078426 L112 342.956862745098 L113 373.87450980392157 L114 387.043137254902 L115 400.78431372549016 L116 423.6862745098039 L117 432.84705882352944 L118 343.52941176470586 L119 360.70588235294116 L120 381.89019607843136 L121 406.5098039215686 L122 391.0509803921569 L123 361.8509803921569 L124 383.6078431372549 L125 411.66274509803924 L126 401.9294117647059 L127 415.67058823529413 L128 435.7098039215686 L129 438 L130 400.21176470588233 L131 364.7137254901961 L132 381.89019607843136 L133 401.35686274509806 L134 406.5098039215686 L135 387.6156862745098 L136 348.10980392156864 L137 338.3764705882353 L138 352.11764705882354 L139 331.50588235294117 L140 348.10980392156864 L141 325.2078431372549 L142 326.3529411764706 L143 346.9647058823529 L144 354.4078431372549 L145 346.3921568627451 L146 359.5607843137255 L147 357.843137254902 L148 364.1411764705882 L149 388.7607843137255 L150 386.47058823529414 L151 365.2862745098039 L152 388.18823529411765 L153 385.3254901960784 L154 390.47843137254904 L155 411.66274509803924 L156 396.77647058823527 L157 381.3176470588235 L158 404.2196078431373 L159 427.121568627451 L160 437.42745098039217 L161 429.4117647058824 L162 416.8156862745098 L163 437.42745098039217 L164 418.5333333333333 L165 371.01176470588234 L166 338.9490196078431 L167 329.21568627450984 L168 317.1921568627451 L169 318.33725490196076 L170 336.65882352941173 L171 346.9647058823529 L172 340.6666666666667 L173 333.79607843137256 L174 331.50588235294117 L175 344.10196078431375 L176 358.98823529411766 L177 353.2627450980392 L178 375.01960784313724 L179 374.4470588235294 L180 383.6078431372549 L181 391.0509803921569 L182 403.6470588235294 L183 399.6392156862745 L184 399.06666666666666 L185 384.7529411764706 L186 406.5098039215686 L187 400.78431372549016 L188 409.9450980392157 L189 391.0509803921569 L190 381.89019607843136 L191 393.9137254901961 L192 411.66274509803924 L193 404.2196078431373 L194 372.156862745098 L195 376.7372549019608 L196 392.19607843137254 L197 384.7529411764706 L198 403.6470588235294 L199 391.0509803921569 L200 379.6 L201 342.956862745098 L202 357.843137254902 L203 384.7529411764706 L204 360.1333333333333 L205 334.94117647058823 L206 314.9019607843137 L207 329.7882352941176 L208 356.12549019607843 L209 360.1333333333333 L210 376.7372549019608 L211 364.1411764705882 L212 376.7372549019608 L213 383.6078431372549 L214 361.278431372549 L215 368.721568627451 L216 355.5529411764706 L217 348.10980392156864 L218 356.69803921568626 L219 372.156862745098 L220 359.5607843137255 L221 381.3176470588235 L222 388.7607843137255 L223 368.721568627451 L224 338.3764705882353 L225 329.21568627450984 L226 336.0862745098039 L227 345.81960784313725 L228 357.843137254902 L229 369.8666666666667 L230 385.89803921568625 L231 376.7372549019608 L232 387.6156862745098 L233 413.38039215686274 L234 422.54117647058825 L235 436.2823529411765 L236 437.42745098039217 L237 438 L238 438 L239 438 L240 419.678431372549 L241 435.7098039215686 L242 425.9764705882353 L243 404.7921568627451 L244 412.2352941176471 L245 431.1294117647059 L246 428.26666666666665 L247 419.1058823529412 L248 413.9529411764706 L249 384.7529411764706 L250 365.2862745098039 L251 379.6 L252 404.2196078431373 L253 417.96078431372547 L254 432.27450980392155 L255 438 L256 416.8156862745098 L257 435.1372549019608 L258 432.27450980392155 L259 417.38823529411764 L260 364.7137254901961 L261 336.0862745098039 L262 324.0627450980392 L263 335.51372549019607 L264 315.4745098039216 L265 305.1686274509804 L266 320.05490196078426 L267 305.1686274509804 L268 294.29019607843134 L269 315.4745098039216 L270 329.7882352941176 L271 341.81176470588235 L272 364.7137254901961 L273 362.4235294117647 L274 379.6 L275 379.6 L276 379.02745098039213 L277 397.921568627451 L278 383.0352941176471 L279 381.89019607843136 L280 412.8078431372549 L281 436.85490196078433 L282 433.9921568627451 L283 410.5176470588235 L284 428.26666666666665 L285 438 L286 438 L287 438 L288 409.9450980392157 L289 383.0352941176471 L290 403.07450980392156 L291 419.678431372549 L292 358.41568627450977 L293 352.69019607843137 L294 346.9647058823529 L295 326.9254901960784 L296 332.65098039215684 L297 362.99607843137255 L298 398.49411764705883 L299 421.39607843137253 L300 438 L301 438 L302 438 L303 399.06666666666666 L304 423.1137254901961 L305 438 L306 421.39607843137253 L307 392.7686274509804 L308 421.39607843137253 L309 438 L310 438 L311 420.25098039215686 L312 380.7450980392157 L313 384.7529411764706 L314 400.21176470588233 L315 415.67058823529413 L316 435.7098039215686 L317 436.85490196078433 L318 438 L319 438 L320 438 L321 438 L322 438 L323 438 L324 438 L325 438 L326 416.8156862745098 L327 423.1137254901961 L328 438 L329 438 L330 405.36470588235295 L331 404.2196078431373 L332 432.27450980392155 L333 438 L334 380.17254901960786 L335 340.6666666666667 L336 364.7137254901961 L337 392.19607843137254 L338 411.66274509803924 L339 432.84705882352944 L340 438 L341 438 L342 436.85490196078433 L343 438 L344 438 L345 438 L346 328.64313725490194 L347 320.62745098039215 L348 350.4 L349 379.6 L350 400.21176470588233 L351 427.121568627451 L352 438 L353 438 L354 423.6862745098039 L355 421.9686274509804 L356 436.85490196078433 L357 438 L358 385.89803921568625 L359 392.7686274509804 L360 415.67058823529413 L361 419.678431372549 L362 419.1058823529412 L363 400.21176470588233 L364 348.10980392156864 L365 368.1490196078431 L366 377.88235294117646 L367 391.0509803921569 L368 414.5254901960784 L369 420.25098039215686 L370 411.09019607843135 L371 431.1294117647059 L372 341.81176470588235 L373 309.17647058823525 L374 319.4823529411765 L375 353.83529411764704 L376 389.3333333333333 L377 418.5333333333333 L378 436.85490196078433 L379 438 L380 425.4039215686274 L381 343.52941176470586 L382 353.83529411764704 L383 375.01960784313724 L384 393.9137254901961 L385 388.7607843137255 L386 393.9137254901961 L387 417.96078431372547 L388 438 L389 373.87450980392157 L390 352.11764705882354 L391 378.4549019607843 L392 403.6470588235294 L393 398.49411764705883 L394 402.5019607843137 L395 423.1137254901961 L396 397.34901960784316 L397 372.7294117647059 L398 388.7607843137255 L399 405.9372549019608 L400 421.39607843137253 L401 374.4470588235294 L402 405.9372549019608 L403 426.54901960784315 L404 412.2352941176471 L405 379.02745098039213 L406 372.156862745098 L407 394.48627450980393 L408 407.6549019607843 L409 429.9843137254902 L410 438 L411 438 L412 438 L413 438 L414 419.1058823529412 L415 368.721568627451 L416 371.58431372549023 L417 392.7686274509804 L418 425.4039215686274 L419 438 L420 431.7019607843137 L421 424.25882352941176 L422 411.66274509803924 L423 433.41960784313727 L424 417.38823529411764 L425 388.18823529411765 L426 418.5333333333333 L427 438 L428 432.27450980392155 L429 431.7019607843137 L430 438 L431 438 L432 428.26666666666665 L433 420.25098039215686 L434 383.6078431372549 L435 365.8588235294118 L436 365.2862745098039 L437 378.4549019607843 L438 403.6470588235294 L439 427.6941176470588 L440 397.921568627451 L441 393.34117647058827 L442 413.38039215686274 L443 419.678431372549 L444 425.4039215686274 L445 436.2823529411765 L446 438 L447 438 L448 438 L449 428.26666666666665 L450 438 L451 438 L452 438 L453 438 L454 438 L455 438 L456 438 L457 438 L458 412.8078431372549 L459 345.2470588235294 L460 344.6745098039216 L461 372.7294117647059 L462 396.20392156862744 L463 399.06666666666666 L464 410.5176470588235 L465 431.1294117647059 L466 438 L467 438 L468 438 L469 438 L470 432.84705882352944 L471 427.6941176470588 L472 396.77647058823527 L473 415.0980392156863 L474 436.2823529411765 L475 395.05882352941177 L476 348.6823529411765 L477 374.4470588235294 L478 394.48627450980393 L479 389.90588235294115 L480 379.02745098039213 L481 399.06666666666666 L482 414.5254901960784 L483 402.5019607843137 L484 403.07450980392156 L485 431.7019607843137 L486 438 L487 433.9921568627451 L488 436.2823529411765 L489 438 L490 438 L491 372.156862745098 L492 376.7372549019608 L493 407.08235294117645 L494 435.1372549019608 L495 438 L496 438 L497 438 L498 438 L499 437.42745098039217 L500 433.41960784313727" stroke = "green"  stroke-width = "4" fill = "none" />
<path d = "M0 438 L1 438 L2 438 L3 436.85490196078433 L4 438 L5 438 L6 438 L7 438 L8 435.1372549019608 L9 435.7098039215686 L10 429.9843137254902 L11 427.121568627451 L12 410.5176470588235 L13 425.9764705882353 L14 409.9450980392157 L15 423.6862745098039 L16 437.42745098039217 L17 438 L18 430.55686274509804 L19 408.2274509803922 L20 426.54901960784315 L21 429.9843137254902 L22 420.25098039215686 L23 422.54117647058825 L24 421.39607843137253 L25 432.27450980392155 L26 434.56470588235294 L27 438 L28 438 L29 438 L30 438 L31 438 L32 438 L33 438 L34 438 L35 436.2823529411765 L36 438 L37 438 L38 438 L39 438 L40 438 L41 438 L42 438 L43 437.42745098039217 L44 437.42745098039217 L45 438 L46 438 L47 438 L48 438 L49 438 L50 438 L51 438 L52 438 L53 438 L54 438 L55 438 L56 438 L57 432.84705882352944 L58 434.56470588235294 L59 421.39607843137253 L60 401.35686274509806 L61 420.25098039215686 L62 420.25098039215686 L63 396.20392156862744 L64 407.6549019607843 L65 418.5333333333333 L66 412.8078431372549 L67 432.84705882352944 L68 434.56470588235294 L69 436.2823529411765 L70 419.1058823529412 L71 411.09019607843135 L72 428.26666666666665 L73 434.56470588235294 L74 438 L75 438 L76 438 L77 438 L78 438 L79 438 L80 438 L81 413.38039215686274 L82 388.7607843137255 L83 397.34901960784316 L84 407.08235294117645 L85 412.8078431372549 L86 410.5176470588235 L87 411.09019607843135 L88 433.41960784313727 L89 434.56470588235294 L90 424.8313725490196 L91 423.6862745098039 L92 438 L93 438 L94 428.8392156862745 L95 436.2823529411765 L96 436.2823529411765 L97 416.8156862745098 L98 417.38823529411764 L99 421.9686274509804 L100 424.8313725490196 L101 437.42745098039217 L102 438 L103 438 L104 438 L105 438 L106 438 L107 438 L108 438 L109 438 L110 438 L111 438 L112 438 L113 438 L114 425.9764705882353 L115 426.54901960784315 L116 438 L117 438 L118 421.39607843137253 L119 437.42745098039217 L120 431.7019607843137 L121 431.1294117647059 L122 421.39607843137253 L123 425.9764705882353 L124 438 L125 431.7019607843137 L126 408.2274509803922 L127 410.5176470588235 L128 408.8 L129 389.3333333333333 L130 412.2352941176471 L131 411.66274509803924 L132 388.18823529411765 L133 371.01176470588234 L134 368.721568627451 L135 389.3333333333333 L136 415.0980392156863 L137 424.25882352941176 L138 428.8392156862745 L139 438 L140 438 L141 438 L142 438 L143 438 L144 436.2823529411765 L145 437.42745098039217 L146 436.85490196078433 L147 436.2823529411765 L148 432.84705882352944 L149 413.9529411764706 L150 424.25882352941176 L151 436.2823529411765 L152 438 L153 438 L154 438 L155 438 L156 438 L157 438 L158 438 L159 438 L160 438 L161 438 L162 438 L163 438 L164 438 L165 438 L166 438 L167 438 L168 438 L169 435.7098039215686 L170 438 L171 438 L172 438 L173 438 L174 438 L175 438 L176 438 L177 438 L178 438 L179 438 L180 438 L181 438 L182 438 L183 438 L184 438 L185 433.41960784313727 L186 427.121568627451 L187 437.42745098039217 L188 428.26666666666665 L189 400.21176470588233 L190 414.5254901960784 L191 417.38823529411764 L192 425.9764705882353 L193 435.1372549019608 L194 428.26666666666665 L195 422.54117647058825 L196 432.27450980392155 L197 420.8235294117647 L198 438 L199 438 L200 438 L201 438 L202 438 L203 438 L204 438 L205 438 L206 438 L207 438 L208 438 L209 438 L210 436.85490196078433 L211 438 L212 417.38823529411764 L213 423.1137254901961 L214 392.19607843137254 L215 383.0352941176471 L216 400.78431372549016 L217 413.38039215686274 L218 420.25098039215686 L219 424.25882352941176 L220 424.25882352941176 L221 438 L222 438 L223 438 L224 438 L225 422.54117647058825 L226 407.6549019607843 L227 408.2274509803922 L228 421.9686274509804 L229 438 L230 438 L231 438 L232 438 L233 438 L234 438 L235 438 L236 438 L237 438 L238 438 L239 438 L240 436.2823529411765 L241 438 L242 438 L243 428.8392156862745 L244 421.9686274509804 L245 417.96078431372547 L246 434.56470588235294 L247 438 L248 437.42745098039217 L249 429.4117647058824 L250 438 L251 432.27450980392155 L252 431.1294117647059 L253 438 L254 429.4117647058824 L255 427.6941176470588 L256 431.7019607843137 L257 410.5176470588235 L258 400.21176470588233 L259 393.9137254901961 L260 389.90588235294115 L261 400.78431372549016 L262 408.2274509803922 L263 401.9294117647059 L264 423.1137254901961 L265 421.39607843137253 L266 413.38039215686274 L267 434.56470588235294 L268 438 L269 438 L270 406.5098039215686 L271 397.34901960784316 L272 392.7686274509804 L273 367.00392156862745 L274 370.4392156862745 L275 380.7450980392157 L276 386.47058823529414 L277 387.043137254902 L278 399.6392156862745 L279 428.26666666666665 L280 438 L281 438 L282 438 L283 438 L284 438 L285 438 L286 438 L287 438 L288 438 L289 438 L290 438 L291 436.2823529411765 L292 423.1137254901961 L293 419.1058823529412 L294 405.9372549019608 L295 388.7607843137255 L296 400.21176470588233 L297 428.8392156862745 L298 438 L299 438 L300 438 L301 438 L302 438 L303 438 L304 438 L305 438 L306 438 L307 438 L308 438 L309 438 L310 438 L311 438 L312 438 L313 438 L314 438 L315 438 L316 438 L317 438 L318 438 L319 438 L320 438 L321 438 L322 438 L323 438 L324 438 L325 438 L326 438 L327 438 L328 438 L329 438 L330 438 L331 438 L332 438 L333 438 L334 429.9843137254902 L335 434.56470588235294 L336 438 L337 438 L338 438 L339 438 L340 438 L341 438 L342 438 L343 438 L344 438 L345 438 L346 438 L347 438 L348 438 L349 438 L350 438 L351 438 L352 438 L353 438 L354 438 L355 438 L356 438 L357 438 L358 438 L359 438 L360 438 L361 438 L362 438 L363 438 L364 438 L365 435.1372549019608 L366 438 L367 438 L368 438 L369 438 L370 438 L371 438 L372 438 L373 434.56470588235294 L374 438 L375 438 L376 438 L377 438 L378 438 L379 438 L380 438 L381 438 L382 421.9686274509804 L383 425.4039215686274 L384 438 L385 438 L386 438 L387 438 L388 438 L389 438 L390 438 L391 438 L392 438 L393 438 L394 438 L395 438 L396 438 L397 438 L398 438 L399 438 L400 438 L401 438 L402 438 L403 438 L404 438 L405 438 L406 438 L407 438 L408 438 L409 438 L410 438 L411 438 L412 438 L413 438 L414 438 L415 438 L416 438 L417 438 L418 438 L419 438 L420 438 L421 438 L422 438 L423 438 L424 438 L425 438 L426 438 L427 438 L428 438 L429 438 L430 438 L431 438 L432 438 L433 438 L434 438 L435 438 L436 438 L437 438 L438 438 L439 438 L440 438 L441 438 L442 438 L443 438 L444 438 L445 438 L446 438 L447 438 L448 438 L449 438 L450 438 L451 438 L452 438 L453 438 L454 438 L455 438 L456 438 L457 438 L458 438 L459 426.54901960784315 L460 436.2823529411765 L461 438 L462 438 L463 438 L464 438 L465 438 L466 438 L467 438 L468 438 L469 438 L470 438 L471 438 L472 438 L473 438 L474 438 L475 438 L476 438 L477 412.2352941176471 L478 425.9764705882353 L479 424.25882352941176 L480 432.84705882352944 L481 438 L482 438 L483 438 L484 438 L485 438 L486 438 L487 438 L488 438 L489 438 L490 438 L491 438 L492 438 L493 438 L494 438 L495 438 L496 438 L497 438 L498 438 L499 438 L500 438" stroke = "blue"  stroke-width = "4" fill = "none" />
<path d = "M0 438 L1 438 L2 438 L3 438 L4 438 L5 438 L6 438 L7 438 L8 438 L9 438 L10 438 L11 438 L12 438 L13 438 L14 438 L15 438 L16 438 L17 438 L18 438 L19 438 L20 438 L21 438 L22 438 L23 438 L24 432.27450980392155 L25 428.8392156862745 L26 433.41960784313727 L27 436.85490196078433 L28 438 L29 438 L30 438 L31 438 L32 438 L33 438 L34 438 L35 438 L36 438 L37 438 L38 438 L39 438 L40 438 L41 438 L42 438 L43 437.42745098039217 L44 438 L45 438 L46 438 L47 438 L48 438 L49 438 L50 438 L51 438 L52 438 L53 438 L54 427.121568627451 L55 423.6862745098039 L56 432.27450980392155 L57 438 L58 438 L59 438 L60 438 L61 438 L62 438 L63 438 L64 438 L65 438 L66 438 L67 438 L68 438 L69 438 L70 438 L71 438 L72 438 L73 438 L74 438 L75 438 L76 438 L77 438 L78 438 L79 438 L80 438 L81 438 L82 438 L83 438 L84 438 L85 438 L86 438 L87 438 L88 438 L89 438 L90 438 L91 438 L92 438 L93 438 L94 428.8392156862745 L95 437.42745098039217 L96 438 L97 435.1372549019608 L98 438 L99 438 L100 436.85490196078433 L101 430.55686274509804 L102 432.84705882352944 L103 405.36470588235295 L104 429.9843137254902 L105 436.85490196078433 L106 435.7098039215686 L107 438 L108 438 L109 438 L110 438 L111 438 L112 438 L113 438 L114 438 L115 438 L116 438 L117 438 L118 438 L119 438 L120 438 L121 438 L122 438 L123 438 L124 438 L125 438 L126 438 L127 438 L128 438 L129 438 L130 438 L131 438 L132 438 L133 438 L134 438 L135 438 L136 438 L137 438 L138 432.27450980392155 L139 436.2823529411765 L140 438 L141 435.1372549019608 L142 436.2823529411765 L143 438 L144 438 L145 438 L146 438 L147 438 L148 438 L149 438 L150 438 L151 438 L152 438 L153 438 L154 438 L155 438 L156 438 L157 438 L158 438 L159 438 L160 438 L161 438 L162 438 L163 438 L164 438 L165 438 L166 438 L167 432.27450980392155 L168 416.8156862745098 L169 431.1294117647059 L170 438 L171 438 L172 438 L173 438 L174 438 L175 438 L176 438 L177 438 L178 438 L179 438 L180 438 L181 438 L182 438 L183 438 L184 438 L185 438 L186 438 L187 438 L188 438 L189 438 L190 438 L191 438 L192 438 L193 438 L194 438 L195 438 L196 438 L197 438 L198 438 L199 438 L200 438 L201 438 L202 438 L203 438 L204 438 L205 438 L206 438 L207 438 L208 435.1372549019608 L209 438 L210 438 L211 438 L212 438 L213 438 L214 438 L215 414.5254901960784 L216 404.7921568627451 L217 412.2352941176471 L218 434.56470588235294 L219 438 L220 438 L221 438 L222 438 L223 438 L224 433.9921568627451 L225 436.2823529411765 L226 438 L227 437.42745098039217 L228 422.54117647058825 L229 388.7607843137255 L230 396.77647058823527 L231 397.921568627451 L232 411.09019607843135 L233 433.9921568627451 L234 434.56470588235294 L235 429.4117647058824 L236 438 L237 437.42745098039217 L238 438 L239 438 L240 438 L241 438 L242 438 L243 438 L244 438 L245 438 L246 438 L247 438 L248 438 L249 438 L250 438 L251 438 L252 438 L253 438 L254 438 L255 438 L256 438 L257 438 L258 438 L259 438 L260 438 L261 438 L262 438 L263 438 L264 438 L265 438 L266 438 L267 438 L268 438 L269 438 L270 438 L271 438 L272 438 L273 438 L274 438 L275 438 L276 438 L277 438 L278 438 L279 438 L280 438 L281 438 L282 438 L283 438 L284 438 L285 438 L286 438 L287 438 L288 438 L289 438 L290 438 L291 438 L292 438 L293 438 L294 438 L295 438 L296 438 L297 438 L298 438 L299 438 L300 438 L301 438 L302 438 L303 438 L304 438 L305 438 L306 438 L307 438 L308 438 L309 438 L310 438 L311 438 L312 438 L313 438 L314 438 L315 438 L316 438 L317 438 L318 438 L319 438 L320 438 L321 438 L322 438 L323 438 L324 438 L325 438 L326 438 L327 438 L328 438 L329 438 L330 438 L331 438 L332 438 L333 438 L334 438 L335 438 L336 438 L337 438 L338 438 L339 438 L340 438 L341 438 L342 438 L343 438 L344 438 L345 438 L346 438 L347 438 L348 438 L349 438 L350 438 L351 438 L352 438 L353 438 L354 438 L355 438 L356 438 L357 438 L358 438 L359 438 L360 438 L361 438 L362 438 L363 438 L364 438 L365 425.9764705882353 L366 419.678431372549 L367 436.85490196078433 L368 438 L369 438 L370 438 L371 438 L372 438 L373 438 L374 438 L375 438 L376 438 L377 438 L378 438 L379 438 L380 438 L381 438 L382 438 L383 438 L384 438 L385 438 L386 438 L387 438 L388 438 L389 438 L390 438 L391 438 L392 438 L393 438 L394 438 L395 438 L396 438 L397 438 L398 438 L399 438 L400 438 L401 438 L402 438 L403 438 L404 433.9921568627451 L405 437.42745098039217 L406 433.41960784313727 L407 436.2823529411765 L408 438 L409 438 L410 438 L411 438 L412 438 L413 438 L414 438 L415 438 L416 438 L417 438 L418 438 L419 438 L420 438 L421 438 L422 438 L423 438 L424 438 L425 438 L426 438 L427 438 L428 438 L429 438 L430 438 L431 438 L432 438 L433 438 L434 438 L435 438 L436 438 L437 438 L438 438 L439 438 L440 438 L441 438 L442 438 L443 438 L444 438 L445 438 L446 438 L447 438 L448 438 L449 438 L450 438 L451 438 L452 438 L453 438 L454 438 L455 438 L456 438 L457 438 L458 438 L459 438 L460 438 L461 438 L462 438 L463 438 L464 438 L465 438 L466 438 L467 438 L468 438 L469 438 L470 438 L471 438 L472 438 L473 438 L474 438 L475 438 L476 438 L477 438 L478 438 L479 438 L480 438 L481 438 L482 438 L483 438 L484 438 L485 438 L486 438 L487 438 L488 438 L489 438 L490 438 L491 438 L492 438 L493 438 L494 438 L495 438 L496 438 L497 438 L498 438 L499 438 L500 438" stroke = "purple"  stroke-width = "4" fill = "none" />
</svg>