<svg width="200" height="438" viewbox = "0 0 200 438"  xmlns="http://www.w3.org/2000/svg">
<!--<json>{"starttime":1741738322.412,"startdate":"Tue Mar 11 2025 18:12:02 GMT-0600 (Mountain Daylight Time)","f1":1000,"f2":2000,"f3":3000,"f4":4000,"notes":"this is just a test run of some random noise, this is not real data but what is real data? what makes data more real?\nwhat even is real?","p1":[0,0,0,0,0,0,0,0,0,0,0,0,0,0,0,0,0,0,0,0,0,0,0,0,0,0,0,12,16,14,13,16,13,13,9,9,10,10,5,10,12,17,18,16,14,15,9,2,0,1,2,1,4,7,2,0,0,0,0,0,0,0,0,52,97,122,142,150,157,160,163,164,165,165,166,166,165,166,166,166,166,166,166,165,165,167,166,167,166,167,168,167,167,166,166,165,164,165,164,163,164,163,163,163,164,164,166,166,167,167,166,167,167,166,166,166,167,167,168,168,168,167,167,167,166,167,167,168,168,167,168,169,170,171,171,171,170,170,170,170,170,170,170,169,170,169,170,170,170,170,169,169,169,169,169,169,170,170,170,170,170,169,169,168,167,167,167,166,166,166,166,166,166,165,165,165,164,164,163,163,163,163,164,163,163,163,163,163,163,163,164,163,163,163,162,164,163,163,163,163,163],"p2":[0,0,0,0,0,0,0,0,0,0,0,0,0,0,0,0,0,0,0,0,0,0,0,0,0,0,0,0,0,0,0,0,0,0,0,0,0,0,0,0,0,0,0,0,0,0,0,0,0,0,0,0,0,0,0,0,0,0,0,0,0,19,17,15,9,6,1,0,34,35,31,27,37,42,46,48,60,71,74,71,67,61,56,50,50,48,55,64,74,84,79,74,69,63,61,55,52,50,69,68,73,78,73,68,62,61,57,59,61,54,52,61,65,63,66,62,57,51,47,44,40,35,32,26,23,17,11,6,5,9,4,10,24,23,17,12,16,12,7,3,0,0,0,0,0,0,0,0,0,1,0,0,0,0,0,0,0,0,0,0,0,1,20,20,14,11,5,2,0,0,0,0,17,22,23,18,18,14,11,5,7,4,3,2,1,0,0,0,5,0,0,0,0,0,0,0,5,10,10,5,2],"p3":[0,0,0,0,0,0,0,0,0,0,0,0,0,0,0,0,0,0,0,0,0,0,0,0,0,0,0,0,0,0,0,0,0,0,0,0,0,0,0,0,0,0,0,0,0,0,0,0,0,0,0,0,0,0,0,0,0,0,0,0,0,0,0,0,0,0,0,0,0,0,0,0,0,0,0,0,0,0,0,0,0,0,0,0,0,0,0,0,0,0,0,0,0,0,0,0,0,0,0,10,14,17,13,14,12,8,1,0,0,0,0,0,15,22,23,21,15,12,7,4,11,12,9,3,2,2,0,0,0,0,0,0,0,0,0,0,0,0,0,0,0,0,0,0,2,0,0,0,0,0,0,0,0,0,0,0,0,0,0,0,0,0,0,0,0,0,0,0,0,0,0,0,0,0,0,0,0,0,0,0,0,0,0,0,0,0,0,0,0,0,0,0,0,3,5,4,0,0,0,0,0],"p4":[0,0,0,0,0,0,0,0,0,0,0,0,0,0,0,0,0,0,0,0,0,0,0,0,0,0,0,0,0,0,0,0,0,0,0,0,0,0,0,0,0,0,0,0,0,0,0,0,0,0,0,0,0,0,0,0,0,0,0,0,0,0,0,0,0,0,0,0,0,0,0,0,0,0,0,0,0,0,0,0,0,0,0,0,0,0,0,0,0,0,0,0,0,3,0,8,3,4,6,5,0,0,0,0,0,0,0,0,0,0,0,0,0,0,0,0,0,0,0,0,0,0,0,0,0,0,0,0,0,0,0,0,0,0,0,0,0,0,0,0,0,0,0,0,0,0,0,0,0,0,0,0,0,0,0,0,0,0,0,0,0,0,0,0,0,0,0,0,0,0,0,0,0,0,0,0,0,0,0,0,0,0,0,0,0,0,0,0,0,0,0,0,0,0,0,0,0,0,0,0,0],"timeseconds":[0.21700000762939453,0.24500012397766113,0.27500009536743164,0.30900001525878906,0.3410000801086426,0.37400007247924805,0.40799999237060547,0.44099998474121094,0.4739999771118164,0.5080001354217529,0.5410001277923584,0.5770001411437988,0.6089999675750732,0.6449999809265137,0.6760001182556152,0.7100000381469727,0.7439999580383301,0.7769999504089355,0.8080000877380371,0.8410000801086426,0.874000072479248,0.9070000648498535,0.940000057220459,0.9739999771118164,1.008000135421753,1.0410001277923584,1.0740001201629639,1.1070001125335693,1.1410000324249268,1.1730000972747803,1.2070000171661377,1.2410001754760742,1.2740001678466797,1.308000087738037,1.3410000801086426,1.374000072479248,1.4090001583099365,1.442000150680542,1.4739999771118164,1.508000135421753,1.5410001277923584,1.5750000476837158,1.6070001125335693,1.6410000324249268,1.6740000247955322,1.7079999446868896,1.7400000095367432,1.7730000019073486,1.8070001602172852,1.8400001525878906,1.874000072479248,1.9090001583099365,1.942000150680542,1.9750001430511475,2.009000062942505,2.0420000553131104,2.075000047683716,2.1110000610351562,2.1430001258850098,2.174999952316284,2.2079999446868896,2.241000175476074,2.2750000953674316,2.309000015258789,2.3410000801086426,2.375,2.4079999923706055,2.440999984741211,2.4760000705718994,2.508000135421753,2.5420000553131104,2.575000047683716,2.6070001125335693,2.6410000324249268,2.674999952316284,2.7090001106262207,2.741000175476074,2.7750000953674316,2.809000015258789,2.8420000076293945,2.876000165939331,2.9090001583099365,2.942000150680542,2.9750001430511475,3.009000062942505,3.0420000553131104,3.075000047683716,3.1089999675750732,3.1430001258850098,3.174999952316284,3.2090001106262207,3.241000175476074,3.2750000953674316,3.309000015258789,3.3420000076293945,3.375,3.4090001583099365,3.442000150680542,3.4750001430511475,3.509000062942505,3.5410001277923584,3.575000047683716,3.6089999675750732,3.6419999599456787,3.674999952316284,3.7090001106262207,3.742000102996826,3.7760000228881836,3.809000015258789,3.8410000801086426,3.875,3.9079999923706055,3.942000150680542,3.9750001430511475,4.008000135421753,4.041000127792358,4.075000047683716,4.108999967575073,4.141999959945679,4.174999952316284,4.209000110626221,4.241000175476074,4.275000095367432,4.309000015258789,4.3420000076293945,4.375,4.4090001583099365,4.442000150680542,4.473999977111816,4.506999969482422,4.541000127792358,4.575000047683716,4.608999967575073,4.641000032424927,4.674999952316284,4.70799994468689,4.741000175476074,4.775000095367432,4.808000087738037,4.841000080108643,4.875,4.9090001583099365,4.942000150680542,4.9750001430511475,5.009000062942505,5.041000127792358,5.075000047683716,5.110000133514404,5.14300012588501,5.176000118255615,5.209000110626221,5.242000102996826,5.275000095367432,5.309000015258789,5.3420000076293945,5.375,5.414000034332275,5.442000150680542,5.4750001430511475,5.508000135421753,5.541000127792358,5.575000047683716,5.608999967575073,5.641000032424927,5.676000118255615,5.709000110626221,5.742000102996826,5.775000095367432,5.809000015258789,5.8420000076293945,5.876000165939331,5.9090001583099365,5.942000150680542,5.9750001430511475,6.008000135421753,6.041000127792358,6.074000120162964,6.107000112533569,6.141000032424927,6.174999952316284,6.20799994468689,6.241000175476074,6.276000022888184,6.309000015258789,6.341000080108643,6.375,6.4090001583099365,6.442000150680542,6.4750001430511475,6.508000135421753,6.541000127792358,6.575000047683716,6.608999967575073,6.641000032424927,6.674999952316284,6.70799994468689,6.742000102996826,6.77400016784668,6.809000015258789,6.8420000076293945,6.875]}</json>-->
<path d = "M0 438 L1 438 L2 438 L3 438 L4 438 L5 438 L6 438 L7 438 L8 438 L9 438 L10 438 L11 438 L12 438 L13 438 L14 438 L15 438 L16 438 L17 438 L18 438 L19 438 L20 438 L21 438 L22 438 L23 438 L24 438 L25 438 L26 438 L27 417.38823529411764 L28 410.5176470588235 L29 413.9529411764706 L30 415.67058823529413 L31 410.5176470588235 L32 415.67058823529413 L33 415.67058823529413 L34 422.54117647058825 L35 422.54117647058825 L36 420.8235294117647 L37 420.8235294117647 L38 429.4117647058824 L39 420.8235294117647 L40 417.38823529411764 L41 408.8 L42 407.08235294117645 L43 410.5176470588235 L44 413.9529411764706 L45 412.2352941176471 L46 422.54117647058825 L47 434.56470588235294 L48 438 L49 436.2823529411765 L50 434.56470588235294 L51 436.2823529411765 L52 431.1294117647059 L53 425.9764705882353 L54 434.56470588235294 L55 438 L56 438 L57 438 L58 438 L59 438 L60 438 L61 438 L62 438 L63 348.6823529411765 L64 271.38823529411764 L65 228.4470588235294 L66 194.09411764705882 L67 180.35294117647055 L68 168.32941176470587 L69 163.1764705882353 L70 158.02352941176474 L71 156.30588235294118 L72 154.58823529411762 L73 154.58823529411762 L74 152.87058823529412 L75 152.87058823529412 L76 154.58823529411762 L77 152.87058823529412 L78 152.87058823529412 L79 152.87058823529412 L80 152.87058823529412 L81 152.87058823529412 L82 152.87058823529412 L83 154.58823529411762 L84 154.58823529411762 L85 151.15294117647056 L86 152.87058823529412 L87 151.15294117647056 L88 152.87058823529412 L89 151.15294117647056 L90 149.43529411764706 L91 151.15294117647056 L92 151.15294117647056 L93 152.87058823529412 L94 152.87058823529412 L95 154.58823529411762 L96 156.30588235294118 L97 154.58823529411762 L98 156.30588235294118 L99 158.02352941176474 L100 156.30588235294118 L101 158.02352941176474 L102 158.02352941176474 L103 158.02352941176474 L104 156.30588235294118 L105 156.30588235294118 L106 152.87058823529412 L107 152.87058823529412 L108 151.15294117647056 L109 151.15294117647056 L110 152.87058823529412 L111 151.15294117647056 L112 151.15294117647056 L113 152.87058823529412 L114 152.87058823529412 L115 152.87058823529412 L116 151.15294117647056 L117 151.15294117647056 L118 149.43529411764706 L119 149.43529411764706 L120 149.43529411764706 L121 151.15294117647056 L122 151.15294117647056 L123 151.15294117647056 L124 152.87058823529412 L125 151.15294117647056 L126 151.15294117647056 L127 149.43529411764706 L128 149.43529411764706 L129 151.15294117647056 L130 149.43529411764706 L131 147.71764705882356 L132 146 L133 144.2823529411765 L134 144.2823529411765 L135 144.2823529411765 L136 146 L137 146 L138 146 L139 146 L140 146 L141 146 L142 146 L143 147.71764705882356 L144 146 L145 147.71764705882356 L146 146 L147 146 L148 146 L149 146 L150 147.71764705882356 L151 147.71764705882356 L152 147.71764705882356 L153 147.71764705882356 L154 147.71764705882356 L155 147.71764705882356 L156 146 L157 146 L158 146 L159 146 L160 146 L161 147.71764705882356 L162 147.71764705882356 L163 149.43529411764706 L164 151.15294117647056 L165 151.15294117647056 L166 151.15294117647056 L167 152.87058823529412 L168 152.87058823529412 L169 152.87058823529412 L170 152.87058823529412 L171 152.87058823529412 L172 152.87058823529412 L173 154.58823529411762 L174 154.58823529411762 L175 154.58823529411762 L176 156.30588235294118 L177 156.30588235294118 L178 158.02352941176474 L179 158.02352941176474 L180 158.02352941176474 L181 158.02352941176474 L182 156.30588235294118 L183 158.02352941176474 L184 158.02352941176474 L185 158.02352941176474 L186 158.02352941176474 L187 158.02352941176474 L188 158.02352941176474 L189 158.02352941176474 L190 156.30588235294118 L191 158.02352941176474 L192 158.02352941176474 L193 158.02352941176474 L194 159.74117647058824 L195 156.30588235294118 L196 158.02352941176474 L197 158.02352941176474 L198 158.02352941176474 L199 158.02352941176474 L200 158.02352941176474" stroke = "red"  stroke-width = "4" fill = "none" />
<path d = "M0 438 L1 438 L2 438 L3 438 L4 438 L5 438 L6 438 L7 438 L8 438 L9 438 L10 438 L11 438 L12 438 L13 438 L14 438 L15 438 L16 438 L17 438 L18 438 L19 438 L20 438 L21 438 L22 438 L23 438 L24 438 L25 438 L26 438 L27 438 L28 438 L29 438 L30 438 L31 438 L32 438 L33 438 L34 438 L35 438 L36 438 L37 438 L38 438 L39 438 L40 438 L41 438 L42 438 L43 438 L44 438 L45 438 L46 438 L47 438 L48 438 L49 438 L50 438 L51 438 L52 438 L53 438 L54 438 L55 438 L56 438 L57 438 L58 438 L59 438 L60 438 L61 405.36470588235295 L62 408.8 L63 412.2352941176471 L64 422.54117647058825 L65 427.6941176470588 L66 436.2823529411765 L67 438 L68 379.6 L69 377.88235294117646 L70 384.7529411764706 L71 391.6235294117647 L72 374.4470588235294 L73 365.8588235294118 L74 358.98823529411766 L75 355.5529411764706 L76 334.94117647058823 L77 316.0470588235294 L78 310.8941176470588 L79 316.0470588235294 L80 322.9176470588235 L81 333.22352941176473 L82 341.81176470588235 L83 352.11764705882354 L84 352.11764705882354 L85 355.5529411764706 L86 343.52941176470586 L87 328.0705882352941 L88 310.8941176470588 L89 293.71764705882356 L90 302.3058823529412 L91 310.8941176470588 L92 319.4823529411765 L93 329.7882352941176 L94 333.22352941176473 L95 343.52941176470586 L96 348.6823529411765 L97 352.11764705882354 L98 319.4823529411765 L99 321.2 L100 312.61176470588236 L101 304.0235294117647 L102 312.61176470588236 L103 321.2 L104 331.50588235294117 L105 333.22352941176473 L106 340.09411764705885 L107 336.65882352941173 L108 333.22352941176473 L109 345.2470588235294 L110 348.6823529411765 L111 333.22352941176473 L112 326.3529411764706 L113 329.7882352941176 L114 324.63529411764705 L115 331.50588235294117 L116 340.09411764705885 L117 350.4 L118 357.2705882352941 L119 362.4235294117647 L120 369.29411764705884 L121 377.88235294117646 L122 383.0352941176471 L123 393.34117647058827 L124 398.49411764705883 L125 408.8 L126 419.1058823529412 L127 427.6941176470588 L128 429.4117647058824 L129 422.54117647058825 L130 431.1294117647059 L131 420.8235294117647 L132 396.77647058823527 L133 398.49411764705883 L134 408.8 L135 417.38823529411764 L136 410.5176470588235 L137 417.38823529411764 L138 425.9764705882353 L139 432.84705882352944 L140 438 L141 438 L142 438 L143 438 L144 438 L145 438 L146 438 L147 438 L148 438 L149 436.2823529411765 L150 438 L151 438 L152 438 L153 438 L154 438 L155 438 L156 438 L157 438 L158 438 L159 438 L160 438 L161 436.2823529411765 L162 403.6470588235294 L163 403.6470588235294 L164 413.9529411764706 L165 419.1058823529412 L166 429.4117647058824 L167 434.56470588235294 L168 438 L169 438 L170 438 L171 438 L172 408.8 L173 400.21176470588233 L174 398.49411764705883 L175 407.08235294117645 L176 407.08235294117645 L177 413.9529411764706 L178 419.1058823529412 L179 429.4117647058824 L180 425.9764705882353 L181 431.1294117647059 L182 432.84705882352944 L183 434.56470588235294 L184 436.2823529411765 L185 438 L186 438 L187 438 L188 429.4117647058824 L189 438 L190 438 L191 438 L192 438 L193 438 L194 438 L195 438 L196 429.4117647058824 L197 420.8235294117647 L198 420.8235294117647 L199 429.4117647058824 L200 434.56470588235294" stroke = "green"  stroke-width = "4" fill = "none" />
<path d = "M0 438 L1 438 L2 438 L3 438 L4 438 L5 438 L6 438 L7 438 L8 438 L9 438 L10 438 L11 438 L12 438 L13 438 L14 438 L15 438 L16 438 L17 438 L18 438 L19 438 L20 438 L21 438 L22 438 L23 438 L24 438 L25 438 L26 438 L27 438 L28 438 L29 438 L30 438 L31 438 L32 438 L33 438 L34 438 L35 438 L36 438 L37 438 L38 438 L39 438 L40 438 L41 438 L42 438 L43 438 L44 438 L45 438 L46 438 L47 438 L48 438 L49 438 L50 438 L51 438 L52 438 L53 438 L54 438 L55 438 L56 438 L57 438 L58 438 L59 438 L60 438 L61 438 L62 438 L63 438 L64 438 L65 438 L66 438 L67 438 L68 438 L69 438 L70 438 L71 438 L72 438 L73 438 L74 438 L75 438 L76 438 L77 438 L78 438 L79 438 L80 438 L81 438 L82 438 L83 438 L84 438 L85 438 L86 438 L87 438 L88 438 L89 438 L90 438 L91 438 L92 438 L93 438 L94 438 L95 438 L96 438 L97 438 L98 438 L99 420.8235294117647 L100 413.9529411764706 L101 408.8 L102 415.67058823529413 L103 413.9529411764706 L104 417.38823529411764 L105 424.25882352941176 L106 436.2823529411765 L107 438 L108 438 L109 438 L110 438 L111 438 L112 412.2352941176471 L113 400.21176470588233 L114 398.49411764705883 L115 401.9294117647059 L116 412.2352941176471 L117 417.38823529411764 L118 425.9764705882353 L119 431.1294117647059 L120 419.1058823529412 L121 417.38823529411764 L122 422.54117647058825 L123 432.84705882352944 L124 434.56470588235294 L125 434.56470588235294 L126 438 L127 438 L128 438 L129 438 L130 438 L131 438 L132 438 L133 438 L134 438 L135 438 L136 438 L137 438 L138 438 L139 438 L140 438 L141 438 L142 438 L143 438 L144 434.56470588235294 L145 438 L146 438 L147 438 L148 438 L149 438 L150 438 L151 438 L152 438 L153 438 L154 438 L155 438 L156 438 L157 438 L158 438 L159 438 L160 438 L161 438 L162 438 L163 438 L164 438 L165 438 L166 438 L167 438 L168 438 L169 438 L170 438 L171 438 L172 438 L173 438 L174 438 L175 438 L176 438 L177 438 L178 438 L179 438 L180 438 L181 438 L182 438 L183 438 L184 438 L185 438 L186 438 L187 438 L188 438 L189 438 L190 438 L191 438 L192 438 L193 432.84705882352944 L194 429.4117647058824 L195 431.1294117647059 L196 438 L197 438 L198 438 L199 438 L200 438" stroke = "blue"  stroke-width = "4" fill = "none" />
<path d = "M0 438 L1 438 L2 438 L3 438 L4 438 L5 438 L6 438 L7 438 L8 438 L9 438 L10 438 L11 438 L12 438 L13 438 L14 438 L15 438 L16 438 L17 438 L18 438 L19 438 L20 438 L21 438 L22 438 L23 438 L24 438 L25 438 L26 438 L27 438 L28 438 L29 438 L30 438 L31 438 L32 438 L33 438 L34 438 L35 438 L36 438 L37 438 L38 438 L39 438 L40 438 L41 438 L42 438 L43 438 L44 438 L45 438 L46 438 L47 438 L48 438 L49 438 L50 438 L51 438 L52 438 L53 438 L54 438 L55 438 L56 438 L57 438 L58 438 L59 438 L60 438 L61 438 L62 438 L63 438 L64 438 L65 438 L66 438 L67 438 L68 438 L69 438 L70 438 L71 438 L72 438 L73 438 L74 438 L75 438 L76 438 L77 438 L78 438 L79 438 L80 438 L81 438 L82 438 L83 438 L84 438 L85 438 L86 438 L87 438 L88 438 L89 438 L90 438 L91 438 L92 438 L93 432.84705882352944 L94 438 L95 424.25882352941176 L96 432.84705882352944 L97 431.1294117647059 L98 427.6941176470588 L99 429.4117647058824 L100 438 L101 438 L102 438 L103 438 L104 438 L105 438 L106 438 L107 438 L108 438 L109 438 L110 438 L111 438 L112 438 L113 438 L114 438 L115 438 L116 438 L117 438 L118 438 L119 438 L120 438 L121 438 L122 438 L123 438 L124 438 L125 438 L126 438 L127 438 L128 438 L129 438 L130 438 L131 438 L132 438 L133 438 L134 438 L135 438 L136 438 L137 438 L138 438 L139 438 L140 438 L141 438 L142 438 L143 438 L144 438 L145 438 L146 438 L147 438 L148 438 L149 438 L150 438 L151 438 L152 438 L153 438 L154 438 L155 438 L156 438 L157 438 L158 438 L159 438 L160 438 L161 438 L162 438 L163 438 L164 438 L165 438 L166 438 L167 438 L168 438 L169 438 L170 438 L171 438 L172 438 L173 438 L174 438 L175 438 L176 438 L177 438 L178 438 L179 438 L180 438 L181 438 L182 438 L183 438 L184 438 L185 438 L186 438 L187 438 L188 438 L189 438 L190 438 L191 438 L192 438 L193 438 L194 438 L195 438 L196 438 L197 438 L198 438 L199 438 L200 438" stroke = "purple"  stroke-width = "4" fill = "none" />
</svg>