<svg width="1440" height="438" viewbox = "0 0 1440 438"  xmlns="http://www.w3.org/2000/svg">
<!--<json>{"starttime":1741576974,"startdate":"Sun Mar 09 2025 21:22:54 GMT-0600 (Mountain Daylight Time)","f1":1000,"f2":2000,"f3":3000,"f4":4000,"notes":"experiment notes","p1":[51,52,51,51,51,51,52,52,52,52,52,52,52,52,52,52,52,52,52,52,52,52,52,52,52,51,54,53,52,52,52,52,52,52,52,51,51,51,51,51,52,52,52,51,52,51,51,51,51,51,51,51,51,51,50,51,51,51,51,51,51,51,51,51,51,51,51,51,51,50,51,51,51,51,51,51,51,51,51,50,51,51,51,51,51,51,51,51,51,51,51,51,51,51,52,51,51,51,51,51,51,51,51,51,51,50,50,51,51,51,52,52,52,52,52,52,52,52,52,52,52,52,52,53,47,42,35,29,23,17,11,9,8,4,0,0,0,0,0,0,0,0,0,0,0,0,0,0,0,0,0,0,0,0,0,0,0,0,0,0,0,0,0,0,4,7,1,100,93,86,79,72,66,59,52,45,39,32,25,18,13,6,0,0,0,0,0,0,0,0,0,0,0,0,0,0,0,0,0,0,0],"p2":[49,46,49,45,43,41,44,47,54,58,63,62,58,55,54,66,61,55,49,47,50,49,54,47,49,44,42,37,31,26,21,16,12,13,9,3,0,0,0,0,0,0,0,0,0,0,0,0,0,0,0,0,0,0,0,0,0,0,0,0,0,0,0,0,0,0,0,0,0,0,0,0,0,0,0,0,0,0,0,0,0,0,0,0,0,0,0,0,0,0,0,0,0,0,0,0,0,0,0,0,0,0,0,0,0,0,0,0,0,0,0,0,0,0,0,0,0,0,0,0,0,0,0,0,0,0,0,0,0,0,0,0,0,0,0,0,0,0,0,0,0,0,0,0,0,0,0,0,0,0,0,0,0,0,0,0,0,37,32,27,24,19,14,34,57,52,46,42,35,29,28,25,19,14,7,1,0,0,0,0,0,0,0,0,0,0,0,0,0,0,0,0,0,0,0,0,0,0,0,0,0],"p3":[8,7,11,7,8,4,0,7,4,2,0,0,0,0,0,0,0,0,0,0,0,0,0,0,0,0,0,0,0,0,0,0,0,0,0,0,0,0,0,0,0,0,0,0,0,0,0,0,0,0,0,0,0,0,0,0,0,0,0,0,0,0,0,0,0,0,0,0,0,0,0,0,0,0,0,0,0,0,0,0,0,0,0,0,0,0,0,0,0,0,0,0,0,0,0,0,0,0,0,0,0,0,0,0,0,0,0,0,0,0,0,0,0,0,0,0,0,0,0,0,0,0,0,0,0,0,0,0,0,0,0,0,0,0,0,0,0,0,0,0,0,0,0,0,0,0,0,0,0,0,0,0,0,0,0,0,0,24,19,13,7,1,0,0,34,33,28,34,28,22,15,9,3,0,0,0,0,0,0,0,0,0,0,0,0,0,0,0,0,0,0,0,0,0,0,0,0,0,0,0,0],"p4":[34,28,26,22,19,16,21,26,27,23,17,14,13,7,3,1,15,26,28,25,19,13,6,0,0,0,3,0,0,0,0,0,0,0,0,0,0,0,0,0,0,0,0,0,0,0,0,0,0,0,0,0,0,0,0,0,0,0,0,0,0,0,0,0,0,0,0,0,0,0,0,0,0,0,0,0,0,0,0,0,0,0,0,0,0,0,0,0,0,8,8,1,0,0,0,0,0,0,0,0,0,0,0,0,0,0,0,0,0,0,0,0,0,0,0,0,0,0,0,0,0,0,0,0,0,0,0,0,0,0,0,0,7,3,0,0,0,0,0,0,0,0,0,0,0,0,0,0,0,0,0,0,0,0,0,0,0,32,26,20,13,6,0,0,7,4,0,0,0,0,0,0,0,0,0,0,0,0,0,0,0,0,0,0,0,0,0,0,0,0,0,0,0,0,0,0,0,0,0,0,0],"timeseconds":[0.9000000953674316,0.9000000953674316,1,1,1,1.0999999046325684,1.0999999046325684,1.0999999046325684,1.2000000476837158,1.2000000476837158,1.2000000476837158,1.2999999523162842,1.2999999523162842,1.2999999523162842,1.2999999523162842,1.4000000953674316,1.4000000953674316,1.5,1.5,1.5,1.5999999046325684,1.5999999046325684,1.5999999046325684,1.7000000476837158,2.700000047683716,3.5,3.5,3.5999999046325684,3.5999999046325684,3.5999999046325684,3.700000047683716,3.700000047683716,3.700000047683716,3.799999952316284,3.799999952316284,3.799999952316284,3.9000000953674316,3.9000000953674316,3.9000000953674316,4,4,4,4.099999904632568,4.099999904632568,4.099999904632568,4.200000047683716,4.200000047683716,4.200000047683716,4.299999952316284,4.299999952316284,4.400000095367432,4.400000095367432,4.400000095367432,4.400000095367432,4.5,4.5,4.5,4.599999904632568,4.599999904632568,4.700000047683716,4.700000047683716,4.700000047683716,4.700000047683716,4.799999952316284,4.799999952316284,4.900000095367432,4.900000095367432,4.900000095367432,5,5,5,5.099999904632568,5.099999904632568,5.099999904632568,5.200000047683716,5.200000047683716,5.200000047683716,5.299999952316284,5.299999952316284,5.299999952316284,5.400000095367432,5.400000095367432,5.400000095367432,5.5,5.5,5.5,5.599999904632568,5.599999904632568,5.599999904632568,5.700000047683716,5.700000047683716,5.700000047683716,5.700000047683716,5.799999952316284,5.799999952316284,5.900000095367432,5.900000095367432,5.900000095367432,6,6,6,6.099999904632568,6.099999904632568,6.099999904632568,6.200000047683716,6.200000047683716,6.200000047683716,6.299999952316284,6.299999952316284,6.299999952316284,6.400000095367432,6.400000095367432,6.400000095367432,6.5,6.5,6.5,6.599999904632568,6.599999904632568,6.599999904632568,6.700000047683716,6.700000047683716,6.700000047683716,6.799999952316284,6.799999952316284,6.799999952316284,6.900000095367432,6.900000095367432,6.900000095367432,6.900000095367432,7,7,7.099999904632568,7.099999904632568,7.099999904632568,7.200000047683716,7.200000047683716,7.200000047683716,7.299999952316284,7.299999952316284,7.299999952316284,7.400000095367432,7.400000095367432,7.400000095367432,7.400000095367432,7.5,7.5,7.599999904632568,7.599999904632568,7.599999904632568,7.700000047683716,7.700000047683716,7.700000047683716,7.799999952316284,7.799999952316284,7.799999952316284,7.900000095367432,7.900000095367432,7.900000095367432,8,8,8,9,10.099999904632568,12.099999904632568,16.09999990463257,24.09999990463257,40.09999990463257,72.20000004768372,127.70000004768372,127.70000004768372,127.70000004768372,127.79999995231628,127.79999995231628,127.79999995231628,127.90000009536743,127.90000009536743,127.90000009536743,128,128,128,128.09999990463257,128.09999990463257,128.09999990463257,128.20000004768372,128.20000004768372,128.20000004768372,128.29999995231628,128.29999995231628,128.29999995231628,128.40000009536743,128.40000009536743,128.40000009536743,128.5,128.5,128.5,128.59999990463257,128.59999990463257,128.59999990463257,128.70000004768372,128.70000004768372,128.70000004768372]}</json>-->
<path d = "M0 350 L1 348.28431372549016 L2 350 L3 350 L4 350 L5 350 L6 348.28431372549016 L7 348.28431372549016 L8 348.28431372549016 L9 348.28431372549016 L10 348.28431372549016 L11 348.28431372549016 L12 348.28431372549016 L13 348.28431372549016 L14 348.28431372549016 L15 348.28431372549016 L16 348.28431372549016 L17 348.28431372549016 L18 348.28431372549016 L19 348.28431372549016 L20 348.28431372549016 L21 348.28431372549016 L22 348.28431372549016 L23 348.28431372549016 L24 348.28431372549016 L25 350 L26 344.8529411764706 L27 346.5686274509804 L28 348.28431372549016 L29 348.28431372549016 L30 348.28431372549016 L31 348.28431372549016 L32 348.28431372549016 L33 348.28431372549016 L34 348.28431372549016 L35 350 L36 350 L37 350 L38 350 L39 350 L40 348.28431372549016 L41 348.28431372549016 L42 348.28431372549016 L43 350 L44 348.28431372549016 L45 350 L46 350 L47 350 L48 350 L49 350 L50 350 L51 350 L52 350 L53 350 L54 351.71568627450984 L55 350 L56 350 L57 350 L58 350 L59 350 L60 350 L61 350 L62 350 L63 350 L64 350 L65 350 L66 350 L67 350 L68 350 L69 351.71568627450984 L70 350 L71 350 L72 350 L73 350 L74 350 L75 350 L76 350 L77 350 L78 350 L79 351.71568627450984 L80 350 L81 350 L82 350 L83 350 L84 350 L85 350 L86 350 L87 350 L88 350 L89 350 L90 350 L91 350 L92 350 L93 350 L94 348.28431372549016 L95 350 L96 350 L97 350 L98 350 L99 350 L100 350 L101 350 L102 350 L103 350 L104 350 L105 351.71568627450984 L106 351.71568627450984 L107 350 L108 350 L109 350 L110 348.28431372549016 L111 348.28431372549016 L112 348.28431372549016 L113 348.28431372549016 L114 348.28431372549016 L115 348.28431372549016 L116 348.28431372549016 L117 348.28431372549016 L118 348.28431372549016 L119 348.28431372549016 L120 348.28431372549016 L121 348.28431372549016 L122 348.28431372549016 L123 346.5686274509804 L124 356.8627450980392 L125 365.44117647058823 L126 377.45098039215685 L127 387.7450980392157 L128 398.03921568627453 L129 408.3333333333333 L130 418.62745098039215 L131 422.05882352941177 L132 423.77450980392155 L133 430.6372549019608 L134 437.5 L135 437.5 L136 437.5 L137 437.5 L138 437.5 L139 437.5 L140 437.5 L141 437.5 L142 437.5 L143 437.5 L144 437.5 L145 437.5 L146 437.5 L147 437.5 L148 437.5 L149 437.5 L150 437.5 L151 437.5 L152 437.5 L153 437.5 L154 437.5 L155 437.5 L156 437.5 L157 437.5 L158 437.5 L159 437.5 L160 437.5 L161 437.5 L162 437.5 L163 437.5 L164 430.6372549019608 L165 425.4901960784314 L166 435.7843137254902 L167 265.9313725490196 L168 277.94117647058823 L169 289.95098039215685 L170 301.9607843137255 L171 313.97058823529414 L172 324.2647058823529 L173 336.27450980392155 L174 348.28431372549016 L175 360.2941176470588 L176 370.5882352941176 L177 382.5980392156863 L178 394.6078431372549 L179 406.61764705882354 L180 415.19607843137254 L181 427.20588235294116 L182 437.5 L183 437.5 L184 437.5 L185 437.5 L186 437.5 L187 437.5 L188 437.5 L189 437.5 L190 437.5 L191 437.5 L192 437.5 L193 437.5 L194 437.5 L195 437.5 L196 437.5 L197 437.5 L198 437.5 L199 437.5 L200 437.5" stroke = "red"  stroke-width = "4" fill = "none" />
<path d = "M0 353.4313725490196 L1 358.578431372549 L2 353.4313725490196 L3 360.2941176470588 L4 363.72549019607845 L5 367.156862745098 L6 362.0098039215686 L7 356.8627450980392 L8 344.8529411764706 L9 337.9901960784314 L10 329.4117647058823 L11 331.12745098039215 L12 337.9901960784314 L13 343.1372549019608 L14 344.8529411764706 L15 324.2647058823529 L16 332.843137254902 L17 343.1372549019608 L18 353.4313725490196 L19 356.8627450980392 L20 351.71568627450984 L21 353.4313725490196 L22 344.8529411764706 L23 356.8627450980392 L24 353.4313725490196 L25 362.0098039215686 L26 365.44117647058823 L27 374.01960784313724 L28 384.3137254901961 L29 392.8921568627451 L30 401.47058823529414 L31 410.04901960784315 L32 416.9117647058824 L33 415.19607843137254 L34 422.05882352941177 L35 432.3529411764706 L36 437.5 L37 437.5 L38 437.5 L39 437.5 L40 437.5 L41 437.5 L42 437.5 L43 437.5 L44 437.5 L45 437.5 L46 437.5 L47 437.5 L48 437.5 L49 437.5 L50 437.5 L51 437.5 L52 437.5 L53 437.5 L54 437.5 L55 437.5 L56 437.5 L57 437.5 L58 437.5 L59 437.5 L60 437.5 L61 437.5 L62 437.5 L63 437.5 L64 437.5 L65 437.5 L66 437.5 L67 437.5 L68 437.5 L69 437.5 L70 437.5 L71 437.5 L72 437.5 L73 437.5 L74 437.5 L75 437.5 L76 437.5 L77 437.5 L78 437.5 L79 437.5 L80 437.5 L81 437.5 L82 437.5 L83 437.5 L84 437.5 L85 437.5 L86 437.5 L87 437.5 L88 437.5 L89 437.5 L90 437.5 L91 437.5 L92 437.5 L93 437.5 L94 437.5 L95 437.5 L96 437.5 L97 437.5 L98 437.5 L99 437.5 L100 437.5 L101 437.5 L102 437.5 L103 437.5 L104 437.5 L105 437.5 L106 437.5 L107 437.5 L108 437.5 L109 437.5 L110 437.5 L111 437.5 L112 437.5 L113 437.5 L114 437.5 L115 437.5 L116 437.5 L117 437.5 L118 437.5 L119 437.5 L120 437.5 L121 437.5 L122 437.5 L123 437.5 L124 437.5 L125 437.5 L126 437.5 L127 437.5 L128 437.5 L129 437.5 L130 437.5 L131 437.5 L132 437.5 L133 437.5 L134 437.5 L135 437.5 L136 437.5 L137 437.5 L138 437.5 L139 437.5 L140 437.5 L141 437.5 L142 437.5 L143 437.5 L144 437.5 L145 437.5 L146 437.5 L147 437.5 L148 437.5 L149 437.5 L150 437.5 L151 437.5 L152 437.5 L153 437.5 L154 437.5 L155 437.5 L156 437.5 L157 374.01960784313724 L158 382.5980392156863 L159 391.1764705882353 L160 396.3235294117647 L161 404.9019607843137 L162 413.48039215686276 L163 379.1666666666667 L164 339.70588235294116 L165 348.28431372549016 L166 358.578431372549 L167 365.44117647058823 L168 377.45098039215685 L169 387.7450980392157 L170 389.46078431372547 L171 394.6078431372549 L172 404.9019607843137 L173 413.48039215686276 L174 425.4901960784314 L175 435.7843137254902 L176 437.5 L177 437.5 L178 437.5 L179 437.5 L180 437.5 L181 437.5 L182 437.5 L183 437.5 L184 437.5 L185 437.5 L186 437.5 L187 437.5 L188 437.5 L189 437.5 L190 437.5 L191 437.5 L192 437.5 L193 437.5 L194 437.5 L195 437.5 L196 437.5 L197 437.5 L198 437.5 L199 437.5 L200 437.5" stroke = "green"  stroke-width = "4" fill = "none" />
<path d = "M0 423.77450980392155 L1 425.4901960784314 L2 418.62745098039215 L3 425.4901960784314 L4 423.77450980392155 L5 430.6372549019608 L6 437.5 L7 425.4901960784314 L8 430.6372549019608 L9 434.0686274509804 L10 437.5 L11 437.5 L12 437.5 L13 437.5 L14 437.5 L15 437.5 L16 437.5 L17 437.5 L18 437.5 L19 437.5 L20 437.5 L21 437.5 L22 437.5 L23 437.5 L24 437.5 L25 437.5 L26 437.5 L27 437.5 L28 437.5 L29 437.5 L30 437.5 L31 437.5 L32 437.5 L33 437.5 L34 437.5 L35 437.5 L36 437.5 L37 437.5 L38 437.5 L39 437.5 L40 437.5 L41 437.5 L42 437.5 L43 437.5 L44 437.5 L45 437.5 L46 437.5 L47 437.5 L48 437.5 L49 437.5 L50 437.5 L51 437.5 L52 437.5 L53 437.5 L54 437.5 L55 437.5 L56 437.5 L57 437.5 L58 437.5 L59 437.5 L60 437.5 L61 437.5 L62 437.5 L63 437.5 L64 437.5 L65 437.5 L66 437.5 L67 437.5 L68 437.5 L69 437.5 L70 437.5 L71 437.5 L72 437.5 L73 437.5 L74 437.5 L75 437.5 L76 437.5 L77 437.5 L78 437.5 L79 437.5 L80 437.5 L81 437.5 L82 437.5 L83 437.5 L84 437.5 L85 437.5 L86 437.5 L87 437.5 L88 437.5 L89 437.5 L90 437.5 L91 437.5 L92 437.5 L93 437.5 L94 437.5 L95 437.5 L96 437.5 L97 437.5 L98 437.5 L99 437.5 L100 437.5 L101 437.5 L102 437.5 L103 437.5 L104 437.5 L105 437.5 L106 437.5 L107 437.5 L108 437.5 L109 437.5 L110 437.5 L111 437.5 L112 437.5 L113 437.5 L114 437.5 L115 437.5 L116 437.5 L117 437.5 L118 437.5 L119 437.5 L120 437.5 L121 437.5 L122 437.5 L123 437.5 L124 437.5 L125 437.5 L126 437.5 L127 437.5 L128 437.5 L129 437.5 L130 437.5 L131 437.5 L132 437.5 L133 437.5 L134 437.5 L135 437.5 L136 437.5 L137 437.5 L138 437.5 L139 437.5 L140 437.5 L141 437.5 L142 437.5 L143 437.5 L144 437.5 L145 437.5 L146 437.5 L147 437.5 L148 437.5 L149 437.5 L150 437.5 L151 437.5 L152 437.5 L153 437.5 L154 437.5 L155 437.5 L156 437.5 L157 396.3235294117647 L158 404.9019607843137 L159 415.19607843137254 L160 425.4901960784314 L161 435.7843137254902 L162 437.5 L163 437.5 L164 379.1666666666667 L165 380.88235294117646 L166 389.46078431372547 L167 379.1666666666667 L168 389.46078431372547 L169 399.7549019607843 L170 411.7647058823529 L171 422.05882352941177 L172 432.3529411764706 L173 437.5 L174 437.5 L175 437.5 L176 437.5 L177 437.5 L178 437.5 L179 437.5 L180 437.5 L181 437.5 L182 437.5 L183 437.5 L184 437.5 L185 437.5 L186 437.5 L187 437.5 L188 437.5 L189 437.5 L190 437.5 L191 437.5 L192 437.5 L193 437.5 L194 437.5 L195 437.5 L196 437.5 L197 437.5 L198 437.5 L199 437.5 L200 437.5" stroke = "blue"  stroke-width = "4" fill = "none" />
<path d = "M0 379.1666666666667 L1 389.46078431372547 L2 392.8921568627451 L3 399.7549019607843 L4 404.9019607843137 L5 410.04901960784315 L6 401.47058823529414 L7 392.8921568627451 L8 391.1764705882353 L9 398.03921568627453 L10 408.3333333333333 L11 413.48039215686276 L12 415.19607843137254 L13 425.4901960784314 L14 432.3529411764706 L15 435.7843137254902 L16 411.7647058823529 L17 392.8921568627451 L18 389.46078431372547 L19 394.6078431372549 L20 404.9019607843137 L21 415.19607843137254 L22 427.20588235294116 L23 437.5 L24 437.5 L25 437.5 L26 432.3529411764706 L27 437.5 L28 437.5 L29 437.5 L30 437.5 L31 437.5 L32 437.5 L33 437.5 L34 437.5 L35 437.5 L36 437.5 L37 437.5 L38 437.5 L39 437.5 L40 437.5 L41 437.5 L42 437.5 L43 437.5 L44 437.5 L45 437.5 L46 437.5 L47 437.5 L48 437.5 L49 437.5 L50 437.5 L51 437.5 L52 437.5 L53 437.5 L54 437.5 L55 437.5 L56 437.5 L57 437.5 L58 437.5 L59 437.5 L60 437.5 L61 437.5 L62 437.5 L63 437.5 L64 437.5 L65 437.5 L66 437.5 L67 437.5 L68 437.5 L69 437.5 L70 437.5 L71 437.5 L72 437.5 L73 437.5 L74 437.5 L75 437.5 L76 437.5 L77 437.5 L78 437.5 L79 437.5 L80 437.5 L81 437.5 L82 437.5 L83 437.5 L84 437.5 L85 437.5 L86 437.5 L87 437.5 L88 437.5 L89 423.77450980392155 L90 423.77450980392155 L91 435.7843137254902 L92 437.5 L93 437.5 L94 437.5 L95 437.5 L96 437.5 L97 437.5 L98 437.5 L99 437.5 L100 437.5 L101 437.5 L102 437.5 L103 437.5 L104 437.5 L105 437.5 L106 437.5 L107 437.5 L108 437.5 L109 437.5 L110 437.5 L111 437.5 L112 437.5 L113 437.5 L114 437.5 L115 437.5 L116 437.5 L117 437.5 L118 437.5 L119 437.5 L120 437.5 L121 437.5 L122 437.5 L123 437.5 L124 437.5 L125 437.5 L126 437.5 L127 437.5 L128 437.5 L129 437.5 L130 437.5 L131 437.5 L132 425.4901960784314 L133 432.3529411764706 L134 437.5 L135 437.5 L136 437.5 L137 437.5 L138 437.5 L139 437.5 L140 437.5 L141 437.5 L142 437.5 L143 437.5 L144 437.5 L145 437.5 L146 437.5 L147 437.5 L148 437.5 L149 437.5 L150 437.5 L151 437.5 L152 437.5 L153 437.5 L154 437.5 L155 437.5 L156 437.5 L157 382.5980392156863 L158 392.8921568627451 L159 403.1862745098039 L160 415.19607843137254 L161 427.20588235294116 L162 437.5 L163 437.5 L164 425.4901960784314 L165 430.6372549019608 L166 437.5 L167 437.5 L168 437.5 L169 437.5 L170 437.5 L171 437.5 L172 437.5 L173 437.5 L174 437.5 L175 437.5 L176 437.5 L177 437.5 L178 437.5 L179 437.5 L180 437.5 L181 437.5 L182 437.5 L183 437.5 L184 437.5 L185 437.5 L186 437.5 L187 437.5 L188 437.5 L189 437.5 L190 437.5 L191 437.5 L192 437.5 L193 437.5 L194 437.5 L195 437.5 L196 437.5 L197 437.5 L198 437.5 L199 437.5 L200 437.5" stroke = "purple"  stroke-width = "4" fill = "none" />
</svg>