<svg width="500" height="438" viewbox = "0 0 500 438"  xmlns="http://www.w3.org/2000/svg">
<!--<json>{"starttime":1741738465.679,"startdate":"Tue Mar 11 2025 18:14:25 GMT-0600 (Mountain Daylight Time)","f1":1000,"f2":2000,"f3":3000,"f4":4000,"notes":"this is just a test run of some random noise, this is not real data but what is real data? what makes data more real?\nwhat even is real?","p1":[167.33333333333334,166.33333333333334,166,167,166.66666666666666,167,167,167.33333333333334,167,167,167,167,167,167,167,167,167,167,167,166.33333333333334,167,167,166.33333333333334,163.66666666666666,164.33333333333334,165.66666666666666,167,167,169,166.33333333333334,167,167,167,167,167.33333333333334,168,168,167.33333333333334,166.66666666666666,167,166.33333333333334,167.66666666666666,168,168,168,167.66666666666666,167.33333333333334,167,167,167,167,167,167.33333333333334,167,167,167,166.33333333333334,166,166.33333333333334,167,167,167,167,167,167,167,167,167,166.33333333333334,166.33333333333334,166.33333333333334,166.33333333333334,166.66666666666666,167,167,167,167,166,168,167.33333333333334,167,167,167,167,167,168,166.33333333333334,166,166.66666666666666,166.33333333333334,166,166.33333333333334,167.33333333333334,167.66666666666666,167.33333333333334,167.33333333333334,166.66666666666666,167,167.66666666666666,167.66666666666666,167.33333333333334,167.66666666666666,167.33333333333334,167.66666666666666,167,167,167,167,167,167,167.33333333333334,167.33333333333334,167,167,167.33333333333334,167.66666666666666,167,166.66666666666666,167,167,166.33333333333334,165.33333333333334,166.33333333333334,167,167.33333333333334,167,167,167,167,167,167,167.33333333333334,168,168.33333333333334,168,168,167.66666666666666,167,167,167,167,167,167,167,167,167,167.66666666666666,167,166.66666666666666,167.33333333333334,167,167.33333333333334,167,167,167.66666666666666,166,166,166.66666666666666,167,167,167,167,167,166.66666666666666,166,166.33333333333334,167.33333333333334,167.33333333333334,166.33333333333334,167.33333333333334,167,167,167,167.33333333333334,167,167,167,166.66666666666666,166,167,166.66666666666666,167.33333333333334,167.33333333333334,167.66666666666666,167.66666666666666,168.66666666666666,168.33333333333334,168,168,167,167,166.33333333333334,167,167.33333333333334,167,167,167,167,167,167,167,167,167,167,167,169.33333333333334,171,169.33333333333334,168,167.33333333333334,167,167.33333333333334,167,167,166.66666666666666,165.33333333333334,164.33333333333334,164.33333333333334,165.66666666666666,166.33333333333334,167.33333333333334,168.33333333333334,167.66666666666666,166.66666666666666,167.33333333333334,167.33333333333334,167.33333333333334,167.66666666666666,168.33333333333334,168.33333333333334,168.66666666666666,167.33333333333334,167,167.33333333333334,167,167,167,167,166.66666666666666,167,167,167,167,167,167,167,166.66666666666666,166.33333333333334,166.33333333333334,167,167,167,167,167,167,167.66666666666666,167,167,167,167,168,167.66666666666666,167,167,167,167,167,167,167,166.66666666666666,167,166.66666666666666,165.66666666666666,166,166.33333333333334,167.33333333333334,167.66666666666666,168,168,167.33333333333334,167.33333333333334,167,167,167,167,166.33333333333334,166,166,166.66666666666666,167,168.33333333333334,163.33333333333334,147,129,113.66666666666667,101,91.33333333333333,85.66666666666667,81.66666666666667,80,80.66666666666667,79.66666666666667,80,80.33333333333333,80,80,80,80.33333333333333,81,80,79,79,80.33333333333333,80.66666666666667,80.33333333333333,80.33333333333333,79.33333333333333,80,80.33333333333333,80.33333333333333,80,80,80,80,79.66666666666667,80,80,80.33333333333333,80.66666666666667,80,81,80.66666666666667,80.66666666666667,80,80.33333333333333,80.33333333333333,80.66666666666667,80,81,80.66666666666667,80.33333333333333,81,82,80.33333333333333,81,79.66666666666667,79,81,81,80,79,79,79.33333333333333,78,78.33333333333333,78,79,81.66666666666667,81,80.33333333333333,80,81,81,80.33333333333333,78.33333333333333,76.66666666666667,77,77,76,77.66666666666667,78.33333333333333,78.33333333333333,78.66666666666667,80,80,80,79,78,78,77.33333333333333,77,77,77,77,77.33333333333333,76.66666666666667,76,76,75.33333333333333,76.33333333333333,77.33333333333333,79.33333333333333,81.33333333333333,83.33333333333333,84,84.33333333333333,81,80.66666666666667,82,82,81.33333333333333,81,81,81.66666666666667,81,82,82.66666666666667,80,79,80.33333333333333,82.33333333333333,82.33333333333333,83,82,81.33333333333333,80.66666666666667,81.33333333333333,82,80.66666666666667,81.66666666666667,82,84.66666666666667,84,81.33333333333333,81,80.66666666666667,81,81,80.33333333333333,81,81.33333333333333,81,81,81.33333333333333,82,81,81.33333333333333,81,80.33333333333333,79.66666666666667,79,80,80,80.33333333333333,81.33333333333333,82,81.66666666666667,82,82,82,81.33333333333333,81,80,80,80,80,79.66666666666667,79.33333333333333,79.66666666666667,80,79.33333333333333,79,79,80.66666666666667,78.33333333333333,79.66666666666667,79.33333333333333,79.66666666666667,80,79.33333333333333,80.66666666666667,80.66666666666667,79,80,80,79.66666666666667,81,80.33333333333333,79,79.33333333333333,79.66666666666667,79,79.33333333333333,80,79.66666666666667,80,80,80,79.66666666666667,80,79.66666666666667,79,80,80,80,80,80,79,79,78.33333333333333,79],"p2":[7.333333333333333,0,0,0,0,8.666666666666666,29,18,33.333333333333336,76.33333333333333,68.66666666666667,54.333333333333336,38,19.666666666666668,3.3333333333333335,8,30.666666666666668,22,13.333333333333334,12,23.666666666666668,43,44.666666666666664,29.333333333333332,27.666666666666668,33,28,28,19,7,0,0,0,3.3333333333333335,52.333333333333336,75.33333333333333,69.66666666666667,53.666666666666664,40,37.666666666666664,24,12.666666666666666,35.333333333333336,49.333333333333336,42.333333333333336,43.666666666666664,27,7.333333333333333,0,27.333333333333332,12.666666666666666,8,1,9.333333333333334,17.666666666666668,18,18,3.3333333333333335,0,0,0,0,0,0,0,0,0,2.6666666666666665,42,58.666666666666664,70.66666666666667,70.66666666666667,76.33333333333333,75.33333333333333,84.66666666666667,86,83.66666666666667,70.33333333333333,57.333333333333336,46.666666666666664,34.666666666666664,17,14,39.333333333333336,49.333333333333336,44,43,62,80.66666666666667,75.66666666666667,67,61.666666666666664,56.333333333333336,60.666666666666664,58.333333333333336,61,80,82.33333333333333,70.66666666666667,65.66666666666667,57.666666666666664,46.333333333333336,39.666666666666664,33.666666666666664,74.66666666666667,89.66666666666667,81.33333333333333,70.33333333333333,71,63.333333333333336,51,41,39.666666666666664,40.666666666666664,61,95.33333333333333,78,68,51,62.666666666666664,73.66666666666667,73.33333333333333,62.666666666666664,51.333333333333336,51,67.66666666666667,63.666666666666664,51.666666666666664,49.333333333333336,46.333333333333336,73,72.33333333333333,63.666666666666664,74.33333333333333,72.33333333333333,72.66666666666667,86.66666666666667,90.33333333333333,81.33333333333333,83,80.33333333333333,74.66666666666667,69.66666666666667,63.666666666666664,50.333333333333336,57.333333333333336,68.66666666666667,69,75.33333333333333,70.33333333333333,61.666666666666664,69.66666666666667,71.66666666666667,62,57,47.333333333333336,46.333333333333336,43.666666666666664,37.333333333333336,44.666666666666664,51.666666666666664,58,49,46.666666666666664,68,62.333333333333336,61.333333333333336,59.666666666666664,52.666666666666664,43.333333333333336,31.666666666666668,56.333333333333336,71.66666666666667,71,60,52.666666666666664,49.333333333333336,46.666666666666664,44.666666666666664,45.333333333333336,33.333333333333336,27.333333333333332,27,14,3,4.333333333333333,10,24.333333333333332,50,68,58,48.666666666666664,64.66666666666667,59.333333333333336,45,36,28.666666666666668,18,14.666666666666666,7.666666666666667,1.3333333333333333,1.3333333333333333,6,35,44.333333333333336,42.666666666666664,39.333333333333336,49,56,59.333333333333336,58.333333333333336,58,59.333333333333336,59.666666666666664,69.66666666666667,72.33333333333333,64.33333333333333,61.333333333333336,69.33333333333333,62.666666666666664,61.666666666666664,66,71.33333333333333,82.66666666666667,87.66666666666667,80.33333333333333,76,73.66666666666667,61.333333333333336,54.666666666666664,55,59.666666666666664,55,51.666666666666664,60.666666666666664,56,55,54.333333333333336,50,48.666666666666664,48,49.666666666666664,50.333333333333336,63.333333333333336,53.666666666666664,48.333333333333336,37.333333333333336,41.666666666666664,43,39,39.333333333333336,34.666666666666664,39,63.333333333333336,58.333333333333336,51,54.333333333333336,47.666666666666664,49.666666666666664,69,76.66666666666667,77.66666666666667,81,83.66666666666667,77.33333333333333,83.33333333333333,83.66666666666667,79.66666666666667,83,81.66666666666667,72.66666666666667,70.33333333333333,63.666666666666664,61.333333333333336,61.666666666666664,52,43,59,61.666666666666664,52,48.333333333333336,41.333333333333336,44.666666666666664,44.666666666666664,44,54.333333333333336,54.666666666666664,44,60.666666666666664,75.66666666666667,86.66666666666667,91.66666666666667,78.66666666666667,62,45.333333333333336,29.333333333333332,16,4.333333333333333,0,7.666666666666667,72.66666666666667,86.66666666666667,90.66666666666667,78.33333333333333,59,39,19.666666666666668,2.6666666666666665,0,0,12,9.666666666666666,2,2.3333333333333335,0.6666666666666666,10,7,1.6666666666666667,0,0,0,0,0,0,0,40.666666666666664,73.33333333333333,56,36,17.666666666666668,5,20,65,74.33333333333333,76,103.66666666666667,108.66666666666667,97,108.33333333333333,110.33333333333333,101.66666666666667,86.66666666666667,85,84.33333333333333,85.66666666666667,72,68.33333333333333,69,60.333333333333336,56,54.333333333333336,42.666666666666664,35,18,3.3333333333333335,0,45.666666666666664,74.66666666666667,80.33333333333333,61.666666666666664,43.666666666666664,24,9,2.6666666666666665,31.333333333333332,31,16,5,0.3333333333333333,0,0,2,12.333333333333334,57.333333333333336,59.333333333333336,40,23.666666666666668,6.333333333333333,0,0,0,0,0.3333333333333333,6,7,46.666666666666664,60.333333333333336,52.666666666666664,46.666666666666664,38.333333333333336,53,66.66666666666667,56.333333333333336,48.333333333333336,37.666666666666664,38.333333333333336,52.333333333333336,47,33.333333333333336,25.333333333333332,50.333333333333336,44.333333333333336,38.666666666666664,38.666666666666664,22.333333333333332,22.333333333333332,28.666666666666668,46,59.666666666666664,50.666666666666664,37.333333333333336,29.333333333333332,20,6.666666666666667,13.333333333333334,27.333333333333332,39.333333333333336,47.666666666666664,62,59.666666666666664,54,48.666666666666664,52.333333333333336,53,42.666666666666664,29,23.333333333333332,21.333333333333332,18.666666666666668,21,15.333333333333334,11.333333333333334,5.666666666666667,5,29.333333333333332,27,13.333333333333334,6,1.6666666666666667,7.333333333333333,2,29.666666666666668,30.666666666666668,21.666666666666668,7.333333333333333,3,0,0,0,0,5.666666666666667,24,20,7.333333333333333,4,23,24.666666666666668,16.333333333333332,26,33,23.666666666666668,27,76.33333333333333,88.66666666666667,81.33333333333333,63,55.666666666666664,60,50.333333333333336,63,68.33333333333333,57.333333333333336,62.333333333333336,65.66666666666667,61,62.666666666666664,60.333333333333336,50,45.333333333333336,35.666666666666664,56.666666666666664,63.666666666666664,54.333333333333336,39,21.666666666666668,19.333333333333332,21.666666666666668,9.333333333333334,24.333333333333332,32.666666666666664,31.333333333333332,18.333333333333332,6.333333333333333,0,0,0,0,0,0,0.6666666666666666,0],"p3":[0,0,7,34.666666666666664,39.333333333333336,23.333333333333332,5.333333333333333,0,27.333333333333332,28,18.666666666666668,2,0,0,0,0,0,0,0,0,0,0,11.666666666666666,13.333333333333334,15,7.333333333333333,0,0,0,0,0,0,0,12,35,47,46.666666666666664,39.666666666666664,31,25,10,15,25.333333333333332,16.333333333333332,12.333333333333334,1,0,0,0,0,0,0,0,0,1,4.666666666666667,0,0,0,0,0,0,0,0,0,0,0,3.3333333333333335,25.333333333333332,37.333333333333336,38,32,31.666666666666668,30.666666666666668,36,27,19,11.666666666666666,13,14.333333333333334,2,0,0,33.333333333333336,49.666666666666664,51.333333333333336,38.666666666666664,44,39.666666666666664,24.666666666666668,8.333333333333334,4.333333333333333,15.333333333333334,13,13,7,0.3333333333333333,0,0.3333333333333333,11.333333333333334,25.666666666666668,27.666666666666668,20,12.666666666666666,8.666666666666666,7.666666666666667,1,0,0,0,0,4.666666666666667,20,24.333333333333332,29,35.333333333333336,25,23.333333333333332,17,13.666666666666666,36,48.666666666666664,42.666666666666664,34.666666666666664,28.666666666666668,23,26.666666666666668,22.666666666666668,37,50.666666666666664,55,61,61.333333333333336,56.666666666666664,48.333333333333336,50.666666666666664,57,52,58.666666666666664,53.666666666666664,55.666666666666664,47.333333333333336,49,41,39,40.333333333333336,50.333333333333336,59.666666666666664,53.666666666666664,52.666666666666664,47.666666666666664,38,31.333333333333332,25.666666666666668,19.666666666666668,16,12,9,3.6666666666666665,13.666666666666666,28.666666666666668,23.666666666666668,25.666666666666668,19,41,33.333333333333336,30.666666666666668,26.666666666666668,26.666666666666668,19.666666666666668,3.3333333333333335,5.333333333333333,10,7.333333333333333,0.6666666666666666,1,8.666666666666666,21.333333333333332,28.666666666666668,28.666666666666668,32.666666666666664,29.333333333333332,20,6,8,18.333333333333332,33.666666666666664,32.333333333333336,29.666666666666668,22.666666666666668,9.666666666666666,1.6666666666666667,0,0,0,0,0,0,0,0,0,0,0,14,46.333333333333336,45,50.333333333333336,48.333333333333336,41.666666666666664,32.666666666666664,47.333333333333336,50.333333333333336,35.666666666666664,44.666666666666664,43.333333333333336,30.666666666666668,19,12.666666666666666,11,21,42.666666666666664,39.666666666666664,32.333333333333336,35.333333333333336,33.666666666666664,33.666666666666664,26,23.666666666666668,22.333333333333332,18.333333333333332,6.666666666666667,32.666666666666664,38,35.333333333333336,38.666666666666664,47.666666666666664,40,35.666666666666664,42,36.333333333333336,39.333333333333336,47.666666666666664,48.666666666666664,47.666666666666664,44,42.666666666666664,49.666666666666664,46.666666666666664,39.333333333333336,54.333333333333336,55.333333333333336,51,60,58,47.333333333333336,45,40,47.333333333333336,51.333333333333336,46.333333333333336,44.666666666666664,50.333333333333336,48,43.666666666666664,32.333333333333336,33.333333333333336,32,27.666666666666668,31.333333333333332,34,39,48.333333333333336,42.333333333333336,38,33.666666666666664,28,24,20.666666666666668,16,17.666666666666668,16.666666666666668,9,0.3333333333333333,0,0,0,0,0,6.666666666666667,30.333333333333332,58.666666666666664,68.66666666666667,55.666666666666664,38.333333333333336,24,6.333333333333333,0,0,0,0,0,7.666666666666667,6.666666666666667,0,0,0,0,0,0,2.6666666666666665,16.333333333333332,10,6.666666666666667,1.6666666666666667,0,8.333333333333334,21,7,0.6666666666666666,0,7.333333333333333,0,0,0,0,0,0,0,0,0,0,41.666666666666664,66.33333333333333,77.66666666666667,75.66666666666667,73,67.33333333333333,60,56.666666666666664,46.666666666666664,46.333333333333336,36.333333333333336,33.333333333333336,65,79.66666666666667,65.33333333333333,47.666666666666664,33,15.333333333333334,0.6666666666666666,0,0,0,0,0,0,46,69.66666666666667,69,56.666666666666664,38,26,14,4.666666666666667,8.333333333333334,9,1.3333333333333333,8.666666666666666,2,29.333333333333332,29.666666666666668,26.333333333333332,31.333333333333332,31.666666666666668,23.333333333333332,25,30.333333333333332,17.333333333333332,15.666666666666666,12.333333333333334,11.666666666666666,15.333333333333334,13.333333333333334,34.666666666666664,25,35.333333333333336,51.333333333333336,39,25,15,4.333333333333333,0,0,0,2.3333333333333335,10,24.666666666666668,31,29,32,24,13,0.6666666666666666,0,0,0,0,0,9,2.6666666666666665,6.666666666666667,5,0,0,0,0,0,0,0,1.6666666666666667,0,2.6666666666666665,1,0,0,0,0,0,0,0,0,0,0,0,0,7.666666666666667,3.3333333333333335,1,6,2,3,9.333333333333334,5,0,6.333333333333333,7,27,20.333333333333332,8.333333333333334,0,0,0,0,0,2.3333333333333335,0,0,10.333333333333334,4.333333333333333,6,18.666666666666668,20,34,28,29.333333333333332,15.666666666666666,14,3,6.333333333333333,2.6666666666666665,0,0,0,0,0,0,0,8,3.3333333333333335,0,0,0,0,0,0,0,0,0,0,0,3.6666666666666665,1,2.3333333333333335,13.666666666666666,1.6666666666666667,6.666666666666667,11.333333333333334,11.666666666666666,8.333333333333334,0,0.6666666666666666],"p4":[0,0,0,0,0,0,0,0,0,0,0,0,0,0,0,0,0,0,0,0,0,2,6.666666666666667,10,12.333333333333334,8.333333333333334,3.3333333333333335,0,0,0,0,0,0,0,0,0,0,0,0,0,0,0,0,0,0,0,0,0,0,0,0,0,0,0,0,0,0,0,0,0,0,0,0,0,0,0,0,0,0,0,0,0,2.3333333333333335,11.333333333333334,3.6666666666666665,0,0,0,0,0,0,0,0,0,0,0,0,0,0,0,0,0,0,0,2,2.3333333333333335,0,0,0,17,28.333333333333332,22.333333333333332,11,7,0,0,1.6666666666666667,0,0,0,0,0,0,0,0,0,0,0,0,1.3333333333333333,9.666666666666666,3.3333333333333335,0,0,0,0,0,0,0,0,0,0,2,11.666666666666666,4,1.3333333333333333,29.333333333333332,24.333333333333332,22.333333333333332,16.333333333333332,10,0,0,0,0,0,3.3333333333333335,9,26.666666666666668,27,25.666666666666668,24.666666666666668,14,7.333333333333333,3.6666666666666665,0,0,0,0,0,0,0,0,0,0,0,0,0,0,0,0,0,0,0,0,0,0,0,0,0,0,0,0,0,0,0,0,0,0,0,0,0,0,0,0,0,0,0,0,0,0,0,0,0,0,0,0,0,0,0,0,1.3333333333333333,0.6666666666666666,1,0,0,0,0,0,0,0,0,0.6666666666666666,1.6666666666666667,2,1,7,1.6666666666666667,0,1,0,0,0,0,0,0,0,0,0,4,0,0,0,0,0,0,0,0,0,0,0,0,0,0,0,0,0,0,0,3,9,5.333333333333333,8,13.333333333333334,9,17.666666666666668,10.666666666666666,7.666666666666667,8.333333333333334,12,4.333333333333333,2,9.333333333333334,17.333333333333332,28.333333333333332,28.333333333333332,31,26.333333333333332,21.666666666666668,15.333333333333334,11.666666666666666,14.333333333333334,8.333333333333334,0.3333333333333333,4.333333333333333,12.333333333333334,3,3,19.333333333333332,63.333333333333336,84,88.66666666666667,70.33333333333333,50.666666666666664,30.666666666666668,12.666666666666666,0,0,0,0,0,0,0,0,0,0,0,0,0,0,0,0,0,0,0,0,0,0,0,0,0,0,0,0,0,0,0,0,0,0,0,5,20.666666666666668,10.666666666666666,4.333333333333333,3.3333333333333335,3.3333333333333335,5,19,5.666666666666667,0,0,2.3333333333333335,84.33333333333333,93.33333333333333,78,59.666666666666664,40,23.333333333333332,5.666666666666667,0,0,0,0,0,0.3333333333333333,32.666666666666664,54.666666666666664,56.333333333333336,43.666666666666664,26,7,0,0,0,0,0,0,0,0,0,0,0,0,0,0,0,0,0,0,0,0,0,0,0,0,2.3333333333333335,10.666666666666666,14,3,0,0,0,0,1.6666666666666667,0.6666666666666666,0,0,0,3.3333333333333335,8.333333333333334,5,1.6666666666666667,0,0,0,0,1.6666666666666667,10.333333333333334,7.666666666666667,7.666666666666667,0.3333333333333333,0,1.3333333333333333,0,0,0,0,0,0,0,0,0,0,0,0,0,0,0,0,0,0,0,0,0,0,0,0,0,0,0,0,0,0,0,0,0,0,0,0,0,0,0,0,0,0,0,0,0,0,3,5.666666666666667,10.666666666666666,11,4.333333333333333,0,1.6666666666666667,0,0,0,0,0,0,0,0,0,0,2,1,0.3333333333333333,0,6,2,0,0.6666666666666666,0,0,0,0,0,0,0,0,0,0,0,0,0,0,0,0],"timeseconds":[0.09200000762939453,0.19099998474121094,0.29200005531311035,0.39100003242492676,0.4910001754760742,0.5910000801086426,0.6909999847412109,0.7910001277923584,0.8910000324249268,0.9910001754760742,1.0910000801086426,1.190999984741211,1.2900002002716064,1.3910000324249268,1.4910001754760742,1.5889999866485596,1.690999984741211,1.7910001277923584,1.8910000324249268,1.9910001754760742,2.0910000801086426,2.190999984741211,2.2910001277923584,2.3910000324249268,2.490000009536743,2.5910000801086426,2.693000078201294,2.7910001277923584,2.892000198364258,2.992000102996826,3.0910000801086426,3.192000150680542,3.2910001277923584,3.392000198364258,3.491000175476074,3.5920000076293945,3.690999984741211,3.7920000553131104,3.8910000324249268,3.992000102996826,4.091000080108643,4.192000150680542,4.291000127792358,4.392000198364258,4.491000175476074,4.5920000076293945,4.690999984741211,4.791000127792358,4.892000198364258,4.991000175476074,5.091000080108643,5.190999984741211,5.29200005531311,5.392000198364258,5.490000009536743,5.591000080108643,5.692000150680542,5.79200005531311,5.891000032424927,5.992000102996826,6.091000080108643,6.192000150680542,6.291000127792358,6.391000032424927,6.491000175476074,6.591000080108643,6.690999984741211,6.79200005531311,6.892000198364258,6.991000175476074,7.091000080108643,7.190999984741211,7.291000127792358,7.391000032424927,7.491000175476074,7.591000080108643,7.690999984741211,7.791000127792358,7.891000032424927,7.991000175476074,8.091000080108643,8.190999984741211,8.29200005531311,8.391000032424927,8.492000102996826,8.591000080108643,8.692000150680542,8.79200005531311,8.892000198364258,8.991000175476074,9.091000080108643,9.192000150680542,9.291000127792358,9.391000032424927,9.491000175476074,9.592000007629395,9.690999984741211,9.790000200271606,9.891000032424927,9.991000175476074,10.091000080108643,10.190000057220459,10.291000127792358,10.391000032424927,10.491000175476074,10.591000080108643,10.692000150680542,10.791000127792358,10.892000198364258,10.992000102996826,11.092000007629395,11.190999984741211,11.291000127792358,11.391000032424927,11.491000175476074,11.592000007629395,11.692000150680542,11.79200005531311,11.891000032424927,11.992000102996826,12.091000080108643,12.190999984741211,12.291000127792358,12.391000032424927,12.491000175476074,12.591000080108643,12.692000150680542,12.791000127792358,12.891000032424927,12.991000175476074,13.092000007629395,13.190999984741211,13.291000127792358,13.391000032424927,13.491000175476074,13.591000080108643,13.690999984741211,13.791000127792358,13.891000032424927,13.991000175476074,14.091000080108643,14.190999984741211,14.291000127792358,14.392000198364258,14.491000175476074,14.592000007629395,14.692000150680542,14.791000127792358,14.892000198364258,14.990000009536743,15.09000015258789,15.190999984741211,15.290000200271606,15.391000032424927,15.491000175476074,15.592000007629395,15.690999984741211,15.791000127792358,15.891000032424927,15.992000102996826,16.09000015258789,16.19099998474121,16.29200005531311,16.392000198364258,16.490000009536743,16.591000080108643,16.69099998474121,16.79100012779236,16.891000032424927,16.992000102996826,17.091000080108643,17.19000005722046,17.290000200271606,17.390000104904175,17.491000175476074,17.591000080108643,17.69099998474121,17.79100012779236,17.892000198364258,17.991000175476074,18.091000080108643,18.19099998474121,18.29200005531311,18.391000032424927,18.492000102996826,18.592000007629395,18.69099998474121,18.790000200271606,18.891000032424927,18.992000102996826,19.092000007629395,19.19099998474121,19.29100012779236,19.390000104904175,19.491000175476074,19.591000080108643,19.692000150680542,19.790000200271606,19.891000032424927,19.991000175476074,20.092000007629395,20.19099998474121,20.29100012779236,20.391000032424927,20.491000175476074,20.591000080108643,20.692000150680542,20.79100012779236,20.892000198364258,20.992000102996826,21.092000007629395,21.192000150680542,21.29100012779236,21.390000104904175,21.491000175476074,21.592000007629395,21.69000005722046,21.789000034332275,21.891000032424927,21.992000102996826,22.091000080108643,22.19099998474121,22.29200005531311,22.392000198364258,22.491000175476074,22.592000007629395,22.692000150680542,22.79200005531311,22.891000032424927,22.991000175476074,23.091000080108643,23.19099998474121,23.29100012779236,23.392000198364258,23.491000175476074,23.591000080108643,23.69099998474121,23.79100012779236,23.891000032424927,23.991000175476074,24.092000007629395,24.19099998474121,24.29200005531311,24.391000032424927,24.491000175476074,24.591000080108643,24.69099998474121,24.79100012779236,24.891000032424927,24.991000175476074,25.091000080108643,25.19000005722046,25.29100012779236,25.391000032424927,25.491000175476074,25.592000007629395,25.692000150680542,25.79200005531311,25.891000032424927,25.991000175476074,26.091000080108643,26.19099998474121,26.29200005531311,26.392000198364258,26.491000175476074,26.591000080108643,26.69099998474121,26.79100012779236,26.891000032424927,26.991000175476074,27.092000007629395,27.19099998474121,27.29100012779236,27.392000198364258,27.492000102996826,27.592000007629395,27.69099998474121,27.79100012779236,27.891000032424927,27.991000175476074,28.091000080108643,28.19099998474121,28.29200005531311,28.391000032424927,28.491000175476074,28.591000080108643,28.69099998474121,28.79100012779236,28.891000032424927,28.991000175476074,29.091000080108643,29.19099998474121,29.292999982833862,29.392000198364258,29.491000175476074,29.593000173568726,29.69099998474121,29.79100012779236,29.891000032424927,29.992000102996826,30.091000080108643,30.19099998474121,30.29100012779236,30.391000032424927,30.490000009536743,30.592000007629395,30.692000150680542,30.79100012779236,30.891000032424927,30.991000175476074,31.091000080108643,31.19000005722046,31.29100012779236,31.391000032424927,31.491000175476074,31.591000080108643,31.69099998474121,31.79200005531311,31.892000198364258,31.992000102996826,32.09100008010864,32.19099998474121,32.29100012779236,32.390000104904175,32.492000102996826,32.59100008010864,32.69099998474121,32.79100012779236,32.89100003242493,32.992000102996826,33.09100008010864,33.19200015068054,33.29200005531311,33.39100003242493,33.491000175476074,33.59100008010864,33.69000005722046,33.790000200271606,33.89100003242493,33.991000175476074,34.09100008010864,34.19099998474121,34.29100012779236,34.3970000743866,34.491000175476074,34.59100008010864,34.69000005722046,34.790000200271606,34.89200019836426,34.991000175476074,35.09100008010864,35.19200015068054,35.29100012779236,35.390000104904175,35.49000000953674,35.59000015258789,35.69099998474121,35.79100012779236,35.89100003242493,35.991000175476074,36.09000015258789,36.19200015068054,36.29200005531311,36.39100003242493,36.491000175476074,36.59100008010864,36.69099998474121,36.79100012779236,36.89100003242493,36.991000175476074,37.09100008010864,37.19099998474121,37.29200005531311,37.390000104904175,37.492000102996826,37.59100008010864,37.69099998474121,37.79200005531311,37.890000104904175,37.991000175476074,38.09100008010864,38.19099998474121,38.29100012779236,38.390000104904175,38.492000102996826,38.59100008010864,38.69000005722046,38.79100012779236,38.89200019836426,38.992000102996826,39.09100008010864,39.19099998474121,39.29100012779236,39.39100003242493,39.491000175476074,39.592000007629395,39.69099998474121,39.790000200271606,39.89100003242493,39.991000175476074,40.09100008010864,40.19099998474121,40.29200005531311,40.39100003242493,40.491000175476074,40.59100008010864,40.69200015068054,40.79100012779236,40.89100003242493,40.992000102996826,41.09100008010864,41.19099998474121,41.29100012779236,41.39100003242493,41.492000102996826,41.592000007629395,41.69200015068054,41.79100012779236,41.89100003242493,41.992000102996826,42.09100008010864,42.19200015068054,42.29200005531311,42.39100003242493,42.491000175476074,42.59100008010864,42.69200015068054,42.79100012779236,42.89100003242493,42.99400019645691,43.09000015258789,43.19000005722046,43.29200005531311,43.39100003242493,43.492000102996826,43.59100008010864,43.69099998474121,43.79200005531311,43.89100003242493,43.991000175476074,44.09100008010864,44.19000005722046,44.29100012779236,44.39100003242493,44.491000175476074,44.59100008010864,44.69200015068054,44.79100012779236,44.89100003242493,44.991000175476074,45.092000007629395,45.19099998474121,45.290000200271606,45.39100003242493,45.491000175476074,45.59000015258789,45.69099998474121,45.79100012779236,45.89100003242493,45.991000175476074,46.09000015258789,46.19200015068054,46.29100012779236,46.39100003242493,46.491000175476074,46.59100008010864,46.69099998474121,46.79100012779236,46.89100003242493,46.992000102996826,47.09100008010864,47.19099998474121,47.290000200271606,47.39100003242493,47.491000175476074,47.59100008010864,47.69200015068054,47.79200005531311,47.89100003242493,47.99000000953674,48.092000007629395,48.19099998474121,48.29100012779236,48.39200019836426,48.491000175476074,48.592000007629395,48.69099998474121,48.790000200271606,48.89100003242493,48.991000175476074,49.092000007629395,49.19099998474121,49.29100012779236,49.39100003242493,49.491000175476074,49.59100008010864,49.69099998474121,49.79100012779236,49.89100003242493,49.991000175476074,50.09100008010864]}</json>-->
<path d = "M0 150.58039215686273 L1 152.2980392156863 L2 152.87058823529412 L3 151.15294117647056 L4 151.72549019607845 L5 151.15294117647056 L6 151.15294117647056 L7 150.58039215686273 L8 151.15294117647056 L9 151.15294117647056 L10 151.15294117647056 L11 151.15294117647056 L12 151.15294117647056 L13 151.15294117647056 L14 151.15294117647056 L15 151.15294117647056 L16 151.15294117647056 L17 151.15294117647056 L18 151.15294117647056 L19 152.2980392156863 L20 151.15294117647056 L21 151.15294117647056 L22 152.2980392156863 L23 156.87843137254907 L24 155.7333333333333 L25 153.443137254902 L26 151.15294117647056 L27 151.15294117647056 L28 147.71764705882356 L29 152.2980392156863 L30 151.15294117647056 L31 151.15294117647056 L32 151.15294117647056 L33 151.15294117647056 L34 150.58039215686273 L35 149.43529411764706 L36 149.43529411764706 L37 150.58039215686273 L38 151.72549019607845 L39 151.15294117647056 L40 152.2980392156863 L41 150.0078431372549 L42 149.43529411764706 L43 149.43529411764706 L44 149.43529411764706 L45 150.0078431372549 L46 150.58039215686273 L47 151.15294117647056 L48 151.15294117647056 L49 151.15294117647056 L50 151.15294117647056 L51 151.15294117647056 L52 150.58039215686273 L53 151.15294117647056 L54 151.15294117647056 L55 151.15294117647056 L56 152.2980392156863 L57 152.87058823529412 L58 152.2980392156863 L59 151.15294117647056 L60 151.15294117647056 L61 151.15294117647056 L62 151.15294117647056 L63 151.15294117647056 L64 151.15294117647056 L65 151.15294117647056 L66 151.15294117647056 L67 151.15294117647056 L68 152.2980392156863 L69 152.2980392156863 L70 152.2980392156863 L71 152.2980392156863 L72 151.72549019607845 L73 151.15294117647056 L74 151.15294117647056 L75 151.15294117647056 L76 151.15294117647056 L77 152.87058823529412 L78 149.43529411764706 L79 150.58039215686273 L80 151.15294117647056 L81 151.15294117647056 L82 151.15294117647056 L83 151.15294117647056 L84 151.15294117647056 L85 149.43529411764706 L86 152.2980392156863 L87 152.87058823529412 L88 151.72549019607845 L89 152.2980392156863 L90 152.87058823529412 L91 152.2980392156863 L92 150.58039215686273 L93 150.0078431372549 L94 150.58039215686273 L95 150.58039215686273 L96 151.72549019607845 L97 151.15294117647056 L98 150.0078431372549 L99 150.0078431372549 L100 150.58039215686273 L101 150.0078431372549 L102 150.58039215686273 L103 150.0078431372549 L104 151.15294117647056 L105 151.15294117647056 L106 151.15294117647056 L107 151.15294117647056 L108 151.15294117647056 L109 151.15294117647056 L110 150.58039215686273 L111 150.58039215686273 L112 151.15294117647056 L113 151.15294117647056 L114 150.58039215686273 L115 150.0078431372549 L116 151.15294117647056 L117 151.72549019607845 L118 151.15294117647056 L119 151.15294117647056 L120 152.2980392156863 L121 154.0156862745098 L122 152.2980392156863 L123 151.15294117647056 L124 150.58039215686273 L125 151.15294117647056 L126 151.15294117647056 L127 151.15294117647056 L128 151.15294117647056 L129 151.15294117647056 L130 151.15294117647056 L131 150.58039215686273 L132 149.43529411764706 L133 148.86274509803923 L134 149.43529411764706 L135 149.43529411764706 L136 150.0078431372549 L137 151.15294117647056 L138 151.15294117647056 L139 151.15294117647056 L140 151.15294117647056 L141 151.15294117647056 L142 151.15294117647056 L143 151.15294117647056 L144 151.15294117647056 L145 151.15294117647056 L146 150.0078431372549 L147 151.15294117647056 L148 151.72549019607845 L149 150.58039215686273 L150 151.15294117647056 L151 150.58039215686273 L152 151.15294117647056 L153 151.15294117647056 L154 150.0078431372549 L155 152.87058823529412 L156 152.87058823529412 L157 151.72549019607845 L158 151.15294117647056 L159 151.15294117647056 L160 151.15294117647056 L161 151.15294117647056 L162 151.15294117647056 L163 151.72549019607845 L164 152.87058823529412 L165 152.2980392156863 L166 150.58039215686273 L167 150.58039215686273 L168 152.2980392156863 L169 150.58039215686273 L170 151.15294117647056 L171 151.15294117647056 L172 151.15294117647056 L173 150.58039215686273 L174 151.15294117647056 L175 151.15294117647056 L176 151.15294117647056 L177 151.72549019607845 L178 152.87058823529412 L179 151.15294117647056 L180 151.72549019607845 L181 150.58039215686273 L182 150.58039215686273 L183 150.0078431372549 L184 150.0078431372549 L185 148.2901960784314 L186 148.86274509803923 L187 149.43529411764706 L188 149.43529411764706 L189 151.15294117647056 L190 151.15294117647056 L191 152.2980392156863 L192 151.15294117647056 L193 150.58039215686273 L194 151.15294117647056 L195 151.15294117647056 L196 151.15294117647056 L197 151.15294117647056 L198 151.15294117647056 L199 151.15294117647056 L200 151.15294117647056 L201 151.15294117647056 L202 151.15294117647056 L203 151.15294117647056 L204 151.15294117647056 L205 147.14509803921567 L206 144.2823529411765 L207 147.14509803921567 L208 149.43529411764706 L209 150.58039215686273 L210 151.15294117647056 L211 150.58039215686273 L212 151.15294117647056 L213 151.15294117647056 L214 151.72549019607845 L215 154.0156862745098 L216 155.7333333333333 L217 155.7333333333333 L218 153.443137254902 L219 152.2980392156863 L220 150.58039215686273 L221 148.86274509803923 L222 150.0078431372549 L223 151.72549019607845 L224 150.58039215686273 L225 150.58039215686273 L226 150.58039215686273 L227 150.0078431372549 L228 148.86274509803923 L229 148.86274509803923 L230 148.2901960784314 L231 150.58039215686273 L232 151.15294117647056 L233 150.58039215686273 L234 151.15294117647056 L235 151.15294117647056 L236 151.15294117647056 L237 151.15294117647056 L238 151.72549019607845 L239 151.15294117647056 L240 151.15294117647056 L241 151.15294117647056 L242 151.15294117647056 L243 151.15294117647056 L244 151.15294117647056 L245 151.15294117647056 L246 151.72549019607845 L247 152.2980392156863 L248 152.2980392156863 L249 151.15294117647056 L250 151.15294117647056 L251 151.15294117647056 L252 151.15294117647056 L253 151.15294117647056 L254 151.15294117647056 L255 150.0078431372549 L256 151.15294117647056 L257 151.15294117647056 L258 151.15294117647056 L259 151.15294117647056 L260 149.43529411764706 L261 150.0078431372549 L262 151.15294117647056 L263 151.15294117647056 L264 151.15294117647056 L265 151.15294117647056 L266 151.15294117647056 L267 151.15294117647056 L268 151.15294117647056 L269 151.72549019607845 L270 151.15294117647056 L271 151.72549019607845 L272 153.443137254902 L273 152.87058823529412 L274 152.2980392156863 L275 150.58039215686273 L276 150.0078431372549 L277 149.43529411764706 L278 149.43529411764706 L279 150.58039215686273 L280 150.58039215686273 L281 151.15294117647056 L282 151.15294117647056 L283 151.15294117647056 L284 151.15294117647056 L285 152.2980392156863 L286 152.87058823529412 L287 152.87058823529412 L288 151.72549019607845 L289 151.15294117647056 L290 148.86274509803923 L291 157.45098039215685 L292 185.5058823529412 L293 216.42352941176472 L294 242.76078431372548 L295 264.5176470588235 L296 281.121568627451 L297 290.85490196078433 L298 297.72549019607845 L299 300.5882352941177 L300 299.44313725490196 L301 301.16078431372546 L302 300.5882352941177 L303 300.0156862745098 L304 300.5882352941177 L305 300.5882352941177 L306 300.5882352941177 L307 300.0156862745098 L308 298.8705882352941 L309 300.5882352941177 L310 302.3058823529412 L311 302.3058823529412 L312 300.0156862745098 L313 299.44313725490196 L314 300.0156862745098 L315 300.0156862745098 L316 301.73333333333335 L317 300.5882352941177 L318 300.0156862745098 L319 300.0156862745098 L320 300.5882352941177 L321 300.5882352941177 L322 300.5882352941177 L323 300.5882352941177 L324 301.16078431372546 L325 300.5882352941177 L326 300.5882352941177 L327 300.0156862745098 L328 299.44313725490196 L329 300.5882352941177 L330 298.8705882352941 L331 299.44313725490196 L332 299.44313725490196 L333 300.5882352941177 L334 300.0156862745098 L335 300.0156862745098 L336 299.44313725490196 L337 300.5882352941177 L338 298.8705882352941 L339 299.44313725490196 L340 300.0156862745098 L341 298.8705882352941 L342 297.15294117647056 L343 300.0156862745098 L344 298.8705882352941 L345 301.16078431372546 L346 302.3058823529412 L347 298.8705882352941 L348 298.8705882352941 L349 300.5882352941177 L350 302.3058823529412 L351 302.3058823529412 L352 301.73333333333335 L353 304.0235294117647 L354 303.4509803921569 L355 304.0235294117647 L356 302.3058823529412 L357 297.72549019607845 L358 298.8705882352941 L359 300.0156862745098 L360 300.5882352941177 L361 298.8705882352941 L362 298.8705882352941 L363 300.0156862745098 L364 303.4509803921569 L365 306.313725490196 L366 305.74117647058824 L367 305.74117647058824 L368 307.4588235294118 L369 304.5960784313726 L370 303.4509803921569 L371 303.4509803921569 L372 302.878431372549 L373 300.5882352941177 L374 300.5882352941177 L375 300.5882352941177 L376 302.3058823529412 L377 304.0235294117647 L378 304.0235294117647 L379 305.1686274509804 L380 305.74117647058824 L381 305.74117647058824 L382 305.74117647058824 L383 305.74117647058824 L384 305.1686274509804 L385 306.313725490196 L386 307.4588235294118 L387 307.4588235294118 L388 308.60392156862747 L389 306.8862745098039 L390 305.1686274509804 L391 301.73333333333335 L392 298.2980392156863 L393 294.8627450980392 L394 293.71764705882356 L395 293.14509803921567 L396 298.8705882352941 L397 299.44313725490196 L398 297.15294117647056 L399 297.15294117647056 L400 298.2980392156863 L401 298.8705882352941 L402 298.8705882352941 L403 297.72549019607845 L404 298.8705882352941 L405 297.15294117647056 L406 296.0078431372549 L407 300.5882352941177 L408 302.3058823529412 L409 300.0156862745098 L410 296.5803921568628 L411 296.5803921568628 L412 295.43529411764706 L413 297.15294117647056 L414 298.2980392156863 L415 299.44313725490196 L416 298.2980392156863 L417 297.15294117647056 L418 299.44313725490196 L419 297.72549019607845 L420 297.15294117647056 L421 292.57254901960783 L422 293.71764705882356 L423 298.2980392156863 L424 298.8705882352941 L425 299.44313725490196 L426 298.8705882352941 L427 298.8705882352941 L428 300.0156862745098 L429 298.8705882352941 L430 298.2980392156863 L431 298.8705882352941 L432 298.8705882352941 L433 298.2980392156863 L434 297.15294117647056 L435 298.8705882352941 L436 298.2980392156863 L437 298.8705882352941 L438 300.0156862745098 L439 301.16078431372546 L440 302.3058823529412 L441 300.5882352941177 L442 300.5882352941177 L443 300.0156862745098 L444 298.2980392156863 L445 297.15294117647056 L446 297.72549019607845 L447 297.15294117647056 L448 297.15294117647056 L449 297.15294117647056 L450 298.2980392156863 L451 298.8705882352941 L452 300.5882352941177 L453 300.5882352941177 L454 300.5882352941177 L455 300.5882352941177 L456 301.16078431372546 L457 301.73333333333335 L458 301.16078431372546 L459 300.5882352941177 L460 301.73333333333335 L461 302.3058823529412 L462 302.3058823529412 L463 299.44313725490196 L464 303.4509803921569 L465 301.16078431372546 L466 301.73333333333335 L467 301.16078431372546 L468 300.5882352941177 L469 301.73333333333335 L470 299.44313725490196 L471 299.44313725490196 L472 302.3058823529412 L473 300.5882352941177 L474 300.5882352941177 L475 301.16078431372546 L476 298.8705882352941 L477 300.0156862745098 L478 302.3058823529412 L479 301.73333333333335 L480 301.16078431372546 L481 302.3058823529412 L482 301.73333333333335 L483 300.5882352941177 L484 301.16078431372546 L485 300.5882352941177 L486 300.5882352941177 L487 300.5882352941177 L488 301.16078431372546 L489 300.5882352941177 L490 301.16078431372546 L491 302.3058823529412 L492 300.5882352941177 L493 300.5882352941177 L494 300.5882352941177 L495 300.5882352941177 L496 300.5882352941177 L497 302.3058823529412 L498 302.3058823529412 L499 303.4509803921569 L500 302.3058823529412" stroke = "red"  stroke-width = "4" fill = "none" />
<path d = "M0 425.4039215686274 L1 438 L2 438 L3 438 L4 438 L5 423.1137254901961 L6 388.18823529411765 L7 407.08235294117645 L8 380.7450980392157 L9 306.8862745098039 L10 320.05490196078426 L11 344.6745098039216 L12 372.7294117647059 L13 404.2196078431373 L14 432.27450980392155 L15 424.25882352941176 L16 385.3254901960784 L17 400.21176470588233 L18 415.0980392156863 L19 417.38823529411764 L20 397.34901960784316 L21 364.1411764705882 L22 361.278431372549 L23 387.6156862745098 L24 390.47843137254904 L25 381.3176470588235 L26 389.90588235294115 L27 389.90588235294115 L28 405.36470588235295 L29 425.9764705882353 L30 438 L31 438 L32 438 L33 432.27450980392155 L34 348.10980392156864 L35 308.60392156862747 L36 318.33725490196076 L37 345.81960784313725 L38 369.29411764705884 L39 373.30196078431374 L40 396.77647058823527 L41 416.24313725490197 L42 377.30980392156863 L43 353.2627450980392 L44 365.2862745098039 L45 362.99607843137255 L46 391.6235294117647 L47 425.4039215686274 L48 438 L49 391.0509803921569 L50 416.24313725490197 L51 424.25882352941176 L52 436.2823529411765 L53 421.9686274509804 L54 407.6549019607843 L55 407.08235294117645 L56 407.08235294117645 L57 432.27450980392155 L58 438 L59 438 L60 438 L61 438 L62 438 L63 438 L64 438 L65 438 L66 438 L67 433.41960784313727 L68 365.8588235294118 L69 337.2313725490196 L70 316.61960784313726 L71 316.61960784313726 L72 306.8862745098039 L73 308.60392156862747 L74 292.57254901960783 L75 290.28235294117644 L76 294.29019607843134 L77 317.1921568627451 L78 339.52156862745096 L79 357.843137254902 L80 378.4549019607843 L81 408.8 L82 413.9529411764706 L83 370.4392156862745 L84 353.2627450980392 L85 362.4235294117647 L86 364.1411764705882 L87 331.50588235294117 L88 299.44313725490196 L89 308.0313725490196 L90 322.9176470588235 L91 332.078431372549 L92 341.2392156862745 L93 333.79607843137256 L94 337.80392156862746 L95 333.22352941176473 L96 300.5882352941177 L97 296.5803921568628 L98 316.61960784313726 L99 325.2078431372549 L100 338.9490196078431 L101 358.41568627450977 L102 369.8666666666667 L103 380.17254901960786 L104 309.74901960784314 L105 283.9843137254902 L106 298.2980392156863 L107 317.1921568627451 L108 316.0470588235294 L109 329.21568627450984 L110 350.4 L111 367.5764705882353 L112 369.8666666666667 L113 368.1490196078431 L114 333.22352941176473 L115 274.25098039215686 L116 304.0235294117647 L117 321.2 L118 350.4 L119 330.3607843137255 L120 311.46666666666664 L121 312.03921568627453 L122 330.3607843137255 L123 349.82745098039214 L124 350.4 L125 321.7725490196078 L126 328.64313725490194 L127 349.2549019607843 L128 353.2627450980392 L129 358.41568627450977 L130 312.61176470588236 L131 313.75686274509803 L132 328.64313725490194 L133 310.32156862745103 L134 313.75686274509803 L135 313.18431372549014 L136 289.1372549019608 L137 282.83921568627454 L138 298.2980392156863 L139 295.43529411764706 L140 300.0156862745098 L141 309.74901960784314 L142 318.33725490196076 L143 328.64313725490194 L144 351.54509803921565 L145 339.52156862745096 L146 320.05490196078426 L147 319.4823529411765 L148 308.60392156862747 L149 317.1921568627451 L150 332.078431372549 L151 318.33725490196076 L152 314.9019607843137 L153 331.50588235294117 L154 340.09411764705885 L155 356.69803921568626 L156 358.41568627450977 L157 362.99607843137255 L158 373.87450980392157 L159 361.278431372549 L160 349.2549019607843 L161 338.3764705882353 L162 353.83529411764704 L163 357.843137254902 L164 321.2 L165 330.93333333333334 L166 332.65098039215684 L167 335.51372549019607 L168 347.5372549019608 L169 363.5686274509804 L170 383.6078431372549 L171 341.2392156862745 L172 314.9019607843137 L173 316.0470588235294 L174 334.94117647058823 L175 347.5372549019608 L176 353.2627450980392 L177 357.843137254902 L178 361.278431372549 L179 360.1333333333333 L180 380.7450980392157 L181 391.0509803921569 L182 391.6235294117647 L183 413.9529411764706 L184 432.84705882352944 L185 430.55686274509804 L186 420.8235294117647 L187 396.20392156862744 L188 352.11764705882354 L189 321.2 L190 338.3764705882353 L191 354.4078431372549 L192 326.9254901960784 L193 336.0862745098039 L194 360.70588235294116 L195 376.16470588235296 L196 388.7607843137255 L197 407.08235294117645 L198 412.8078431372549 L199 424.8313725490196 L200 435.7098039215686 L201 435.7098039215686 L202 427.6941176470588 L203 377.88235294117646 L204 361.8509803921569 L205 364.7137254901961 L206 370.4392156862745 L207 353.83529411764704 L208 341.81176470588235 L209 336.0862745098039 L210 337.80392156862746 L211 338.3764705882353 L212 336.0862745098039 L213 335.51372549019607 L214 318.33725490196076 L215 313.75686274509803 L216 327.4980392156863 L217 332.65098039215684 L218 318.90980392156865 L219 330.3607843137255 L220 332.078431372549 L221 324.63529411764705 L222 315.4745098039216 L223 296.0078431372549 L224 287.4196078431372 L225 300.0156862745098 L226 307.4588235294118 L227 311.46666666666664 L228 332.65098039215684 L229 344.10196078431375 L230 343.52941176470586 L231 335.51372549019607 L232 343.52941176470586 L233 349.2549019607843 L234 333.79607843137256 L235 341.81176470588235 L236 343.52941176470586 L237 344.6745098039216 L238 352.11764705882354 L239 354.4078431372549 L240 355.5529411764706 L241 352.69019607843137 L242 351.54509803921565 L243 329.21568627450984 L244 345.81960784313725 L245 354.98039215686276 L246 373.87450980392157 L247 366.4313725490196 L248 364.1411764705882 L249 371.01176470588234 L250 370.4392156862745 L251 378.4549019607843 L252 371.01176470588234 L253 329.21568627450984 L254 337.80392156862746 L255 350.4 L256 344.6745098039216 L257 356.12549019607843 L258 352.69019607843137 L259 319.4823529411765 L260 306.313725490196 L261 304.5960784313726 L262 298.8705882352941 L263 294.29019607843134 L264 305.1686274509804 L265 294.8627450980392 L266 294.29019607843134 L267 301.16078431372546 L268 295.43529411764706 L269 297.72549019607845 L270 313.18431372549014 L271 317.1921568627451 L272 328.64313725490194 L273 332.65098039215684 L274 332.078431372549 L275 348.6823529411765 L276 364.1411764705882 L277 336.65882352941173 L278 332.078431372549 L279 348.6823529411765 L280 354.98039215686276 L281 367.00392156862745 L282 361.278431372549 L283 361.278431372549 L284 362.4235294117647 L285 344.6745098039216 L286 344.10196078431375 L287 362.4235294117647 L288 333.79607843137256 L289 308.0313725490196 L290 289.1372549019608 L291 280.54901960784315 L292 302.878431372549 L293 331.50588235294117 L294 360.1333333333333 L295 387.6156862745098 L296 410.5176470588235 L297 430.55686274509804 L298 438 L299 424.8313725490196 L300 313.18431372549014 L301 289.1372549019608 L302 282.26666666666665 L303 303.4509803921569 L304 336.65882352941173 L305 371.01176470588234 L306 404.2196078431373 L307 433.41960784313727 L308 438 L309 438 L310 417.38823529411764 L311 421.39607843137253 L312 434.56470588235294 L313 433.9921568627451 L314 436.85490196078433 L315 420.8235294117647 L316 425.9764705882353 L317 435.1372549019608 L318 438 L319 438 L320 438 L321 438 L322 438 L323 438 L324 438 L325 368.1490196078431 L326 312.03921568627453 L327 341.81176470588235 L328 376.16470588235296 L329 407.6549019607843 L330 429.4117647058824 L331 403.6470588235294 L332 326.3529411764706 L333 310.32156862745103 L334 307.4588235294118 L335 259.9372549019608 L336 251.34901960784313 L337 271.38823529411764 L338 251.921568627451 L339 248.48627450980393 L340 263.37254901960785 L341 289.1372549019608 L342 292 L343 293.14509803921567 L344 290.85490196078433 L345 314.32941176470587 L346 320.62745098039215 L347 319.4823529411765 L348 334.3686274509804 L349 341.81176470588235 L350 344.6745098039216 L351 364.7137254901961 L352 377.88235294117646 L353 407.08235294117645 L354 432.27450980392155 L355 438 L356 359.5607843137255 L357 309.74901960784314 L358 300.0156862745098 L359 332.078431372549 L360 362.99607843137255 L361 396.77647058823527 L362 422.54117647058825 L363 433.41960784313727 L364 384.18039215686275 L365 384.7529411764706 L366 410.5176470588235 L367 429.4117647058824 L368 437.42745098039217 L369 438 L370 438 L371 434.56470588235294 L372 416.8156862745098 L373 339.52156862745096 L374 336.0862745098039 L375 369.29411764705884 L376 397.34901960784316 L377 427.121568627451 L378 438 L379 438 L380 438 L381 438 L382 437.42745098039217 L383 427.6941176470588 L384 425.9764705882353 L385 357.843137254902 L386 334.3686274509804 L387 347.5372549019608 L388 357.843137254902 L389 372.156862745098 L390 346.9647058823529 L391 323.4901960784314 L392 341.2392156862745 L393 354.98039215686276 L394 373.30196078431374 L395 372.156862745098 L396 348.10980392156864 L397 357.2705882352941 L398 380.7450980392157 L399 394.48627450980393 L400 351.54509803921565 L401 361.8509803921569 L402 371.58431372549023 L403 371.58431372549023 L404 399.6392156862745 L405 399.6392156862745 L406 388.7607843137255 L407 358.98823529411766 L408 335.51372549019607 L409 350.97254901960787 L410 373.87450980392157 L411 387.6156862745098 L412 403.6470588235294 L413 426.54901960784315 L414 415.0980392156863 L415 391.0509803921569 L416 370.4392156862745 L417 356.12549019607843 L418 331.50588235294117 L419 335.51372549019607 L420 345.2470588235294 L421 354.4078431372549 L422 348.10980392156864 L423 346.9647058823529 L424 364.7137254901961 L425 388.18823529411765 L426 397.921568627451 L427 401.35686274509806 L428 405.9372549019608 L429 401.9294117647059 L430 411.66274509803924 L431 418.5333333333333 L432 428.26666666666665 L433 429.4117647058824 L434 387.6156862745098 L435 391.6235294117647 L436 415.0980392156863 L437 427.6941176470588 L438 435.1372549019608 L439 425.4039215686274 L440 434.56470588235294 L441 387.043137254902 L442 385.3254901960784 L443 400.78431372549016 L444 425.4039215686274 L445 432.84705882352944 L446 438 L447 438 L448 438 L449 438 L450 428.26666666666665 L451 396.77647058823527 L452 403.6470588235294 L453 425.4039215686274 L454 431.1294117647059 L455 398.49411764705883 L456 395.6313725490196 L457 409.9450980392157 L458 393.34117647058827 L459 381.3176470588235 L460 397.34901960784316 L461 391.6235294117647 L462 306.8862745098039 L463 285.7019607843137 L464 298.2980392156863 L465 329.7882352941176 L466 342.3843137254902 L467 334.94117647058823 L468 351.54509803921565 L469 329.7882352941176 L470 320.62745098039215 L471 339.52156862745096 L472 330.93333333333334 L473 325.2078431372549 L474 333.22352941176473 L475 330.3607843137255 L476 334.3686274509804 L477 352.11764705882354 L478 360.1333333333333 L479 376.7372549019608 L480 340.6666666666667 L481 328.64313725490194 L482 344.6745098039216 L483 371.01176470588234 L484 400.78431372549016 L485 404.7921568627451 L486 400.78431372549016 L487 421.9686274509804 L488 396.20392156862744 L489 381.89019607843136 L490 384.18039215686275 L491 406.5098039215686 L492 427.121568627451 L493 438 L494 438 L495 438 L496 438 L497 438 L498 438 L499 436.85490196078433 L500 438" stroke = "green"  stroke-width = "4" fill = "none" />
<path d = "M0 438 L1 438 L2 425.9764705882353 L3 378.4549019607843 L4 370.4392156862745 L5 397.921568627451 L6 428.8392156862745 L7 438 L8 391.0509803921569 L9 389.90588235294115 L10 405.9372549019608 L11 434.56470588235294 L12 438 L13 438 L14 438 L15 438 L16 438 L17 438 L18 438 L19 438 L20 438 L21 438 L22 417.96078431372547 L23 415.0980392156863 L24 412.2352941176471 L25 425.4039215686274 L26 438 L27 438 L28 438 L29 438 L30 438 L31 438 L32 438 L33 417.38823529411764 L34 377.88235294117646 L35 357.2705882352941 L36 357.843137254902 L37 369.8666666666667 L38 384.7529411764706 L39 395.05882352941177 L40 420.8235294117647 L41 412.2352941176471 L42 394.48627450980393 L43 409.9450980392157 L44 416.8156862745098 L45 436.2823529411765 L46 438 L47 438 L48 438 L49 438 L50 438 L51 438 L52 438 L53 438 L54 436.2823529411765 L55 429.9843137254902 L56 438 L57 438 L58 438 L59 438 L60 438 L61 438 L62 438 L63 438 L64 438 L65 438 L66 438 L67 432.27450980392155 L68 394.48627450980393 L69 373.87450980392157 L70 372.7294117647059 L71 383.0352941176471 L72 383.6078431372549 L73 385.3254901960784 L74 376.16470588235296 L75 391.6235294117647 L76 405.36470588235295 L77 417.96078431372547 L78 415.67058823529413 L79 413.38039215686274 L80 434.56470588235294 L81 438 L82 438 L83 380.7450980392157 L84 352.69019607843137 L85 349.82745098039214 L86 371.58431372549023 L87 362.4235294117647 L88 369.8666666666667 L89 395.6313725490196 L90 423.6862745098039 L91 430.55686274509804 L92 411.66274509803924 L93 415.67058823529413 L94 415.67058823529413 L95 425.9764705882353 L96 437.42745098039217 L97 438 L98 437.42745098039217 L99 418.5333333333333 L100 393.9137254901961 L101 390.47843137254904 L102 403.6470588235294 L103 416.24313725490197 L104 423.1137254901961 L105 424.8313725490196 L106 436.2823529411765 L107 438 L108 438 L109 438 L110 438 L111 429.9843137254902 L112 403.6470588235294 L113 396.20392156862744 L114 388.18823529411765 L115 377.30980392156863 L116 395.05882352941177 L117 397.921568627451 L118 408.8 L119 414.5254901960784 L120 376.16470588235296 L121 354.4078431372549 L122 364.7137254901961 L123 378.4549019607843 L124 388.7607843137255 L125 398.49411764705883 L126 392.19607843137254 L127 399.06666666666666 L128 374.4470588235294 L129 350.97254901960787 L130 343.52941176470586 L131 333.22352941176473 L132 332.65098039215684 L133 340.6666666666667 L134 354.98039215686276 L135 350.97254901960787 L136 340.09411764705885 L137 348.6823529411765 L138 337.2313725490196 L139 345.81960784313725 L140 342.3843137254902 L141 356.69803921568626 L142 353.83529411764704 L143 367.5764705882353 L144 371.01176470588234 L145 368.721568627451 L146 351.54509803921565 L147 335.51372549019607 L148 345.81960784313725 L149 347.5372549019608 L150 356.12549019607843 L151 372.7294117647059 L152 384.18039215686275 L153 393.9137254901961 L154 404.2196078431373 L155 410.5176470588235 L156 417.38823529411764 L157 422.54117647058825 L158 431.7019607843137 L159 414.5254901960784 L160 388.7607843137255 L161 397.34901960784316 L162 393.9137254901961 L163 405.36470588235295 L164 367.5764705882353 L165 380.7450980392157 L166 385.3254901960784 L167 392.19607843137254 L168 392.19607843137254 L169 404.2196078431373 L170 432.27450980392155 L171 428.8392156862745 L172 420.8235294117647 L173 425.4039215686274 L174 436.85490196078433 L175 436.2823529411765 L176 423.1137254901961 L177 401.35686274509806 L178 388.7607843137255 L179 388.7607843137255 L180 381.89019607843136 L181 387.6156862745098 L182 403.6470588235294 L183 427.6941176470588 L184 424.25882352941176 L185 406.5098039215686 L186 380.17254901960786 L187 382.4627450980392 L188 387.043137254902 L189 399.06666666666666 L190 421.39607843137253 L191 435.1372549019608 L192 438 L193 438 L194 438 L195 438 L196 438 L197 438 L198 438 L199 438 L200 438 L201 438 L202 438 L203 413.9529411764706 L204 358.41568627450977 L205 360.70588235294116 L206 351.54509803921565 L207 354.98039215686276 L208 366.4313725490196 L209 381.89019607843136 L210 356.69803921568626 L211 351.54509803921565 L212 376.7372549019608 L213 361.278431372549 L214 363.5686274509804 L215 385.3254901960784 L216 405.36470588235295 L217 416.24313725490197 L218 419.1058823529412 L219 401.9294117647059 L220 364.7137254901961 L221 369.8666666666667 L222 382.4627450980392 L223 377.30980392156863 L224 380.17254901960786 L225 380.17254901960786 L226 393.34117647058827 L227 397.34901960784316 L228 399.6392156862745 L229 406.5098039215686 L230 426.54901960784315 L231 381.89019607843136 L232 372.7294117647059 L233 377.30980392156863 L234 371.58431372549023 L235 356.12549019607843 L236 369.29411764705884 L237 376.7372549019608 L238 365.8588235294118 L239 375.59215686274507 L240 370.4392156862745 L241 356.12549019607843 L242 354.4078431372549 L243 356.12549019607843 L244 362.4235294117647 L245 364.7137254901961 L246 352.69019607843137 L247 357.843137254902 L248 370.4392156862745 L249 344.6745098039216 L250 342.956862745098 L251 350.4 L252 334.94117647058823 L253 338.3764705882353 L254 356.69803921568626 L255 360.70588235294116 L256 369.29411764705884 L257 356.69803921568626 L258 349.82745098039214 L259 358.41568627450977 L260 361.278431372549 L261 351.54509803921565 L262 355.5529411764706 L263 362.99607843137255 L264 382.4627450980392 L265 380.7450980392157 L266 383.0352941176471 L267 390.47843137254904 L268 384.18039215686275 L269 379.6 L270 371.01176470588234 L271 354.98039215686276 L272 365.2862745098039 L273 372.7294117647059 L274 380.17254901960786 L275 389.90588235294115 L276 396.77647058823527 L277 402.5019607843137 L278 410.5176470588235 L279 407.6549019607843 L280 409.37254901960785 L281 422.54117647058825 L282 437.42745098039217 L283 438 L284 438 L285 438 L286 438 L287 438 L288 426.54901960784315 L289 385.89803921568625 L290 337.2313725490196 L291 320.05490196078426 L292 342.3843137254902 L293 372.156862745098 L294 396.77647058823527 L295 427.121568627451 L296 438 L297 438 L298 438 L299 438 L300 438 L301 424.8313725490196 L302 426.54901960784315 L303 438 L304 438 L305 438 L306 438 L307 438 L308 438 L309 433.41960784313727 L310 409.9450980392157 L311 420.8235294117647 L312 426.54901960784315 L313 435.1372549019608 L314 438 L315 423.6862745098039 L316 401.9294117647059 L317 425.9764705882353 L318 436.85490196078433 L319 438 L320 425.4039215686274 L321 438 L322 438 L323 438 L324 438 L325 438 L326 438 L327 438 L328 438 L329 438 L330 438 L331 366.4313725490196 L332 324.0627450980392 L333 304.5960784313726 L334 308.0313725490196 L335 312.61176470588236 L336 322.3450980392157 L337 334.94117647058823 L338 340.6666666666667 L339 357.843137254902 L340 358.41568627450977 L341 375.59215686274507 L342 380.7450980392157 L343 326.3529411764706 L344 301.16078431372546 L345 325.7803921568628 L346 356.12549019607843 L347 381.3176470588235 L348 411.66274509803924 L349 436.85490196078433 L350 438 L351 438 L352 438 L353 438 L354 438 L355 438 L356 358.98823529411766 L357 318.33725490196076 L358 319.4823529411765 L359 340.6666666666667 L360 372.7294117647059 L361 393.34117647058827 L362 413.9529411764706 L363 429.9843137254902 L364 423.6862745098039 L365 422.54117647058825 L366 435.7098039215686 L367 423.1137254901961 L368 434.56470588235294 L369 387.6156862745098 L370 387.043137254902 L371 392.7686274509804 L372 384.18039215686275 L373 383.6078431372549 L374 397.921568627451 L375 395.05882352941177 L376 385.89803921568625 L377 408.2274509803922 L378 411.09019607843135 L379 416.8156862745098 L380 417.96078431372547 L381 411.66274509803924 L382 415.0980392156863 L383 378.4549019607843 L384 395.05882352941177 L385 377.30980392156863 L386 349.82745098039214 L387 371.01176470588234 L388 395.05882352941177 L389 412.2352941176471 L390 430.55686274509804 L391 438 L392 438 L393 438 L394 433.9921568627451 L395 420.8235294117647 L396 395.6313725490196 L397 384.7529411764706 L398 388.18823529411765 L399 383.0352941176471 L400 396.77647058823527 L401 415.67058823529413 L402 436.85490196078433 L403 438 L404 438 L405 438 L406 438 L407 438 L408 422.54117647058825 L409 433.41960784313727 L410 426.54901960784315 L411 429.4117647058824 L412 438 L413 438 L414 438 L415 438 L416 438 L417 438 L418 438 L419 435.1372549019608 L420 438 L421 433.41960784313727 L422 436.2823529411765 L423 438 L424 438 L425 438 L426 438 L427 438 L428 438 L429 438 L430 438 L431 438 L432 438 L433 438 L434 438 L435 424.8313725490196 L436 432.27450980392155 L437 436.2823529411765 L438 427.6941176470588 L439 434.56470588235294 L440 432.84705882352944 L441 421.9686274509804 L442 429.4117647058824 L443 438 L444 427.121568627451 L445 425.9764705882353 L446 391.6235294117647 L447 403.07450980392156 L448 423.6862745098039 L449 438 L450 438 L451 438 L452 438 L453 438 L454 433.9921568627451 L455 438 L456 438 L457 420.25098039215686 L458 430.55686274509804 L459 427.6941176470588 L460 405.9372549019608 L461 403.6470588235294 L462 379.6 L463 389.90588235294115 L464 387.6156862745098 L465 411.09019607843135 L466 413.9529411764706 L467 432.84705882352944 L468 427.121568627451 L469 433.41960784313727 L470 438 L471 438 L472 438 L473 438 L474 438 L475 438 L476 438 L477 424.25882352941176 L478 432.27450980392155 L479 438 L480 438 L481 438 L482 438 L483 438 L484 438 L485 438 L486 438 L487 438 L488 438 L489 438 L490 431.7019607843137 L491 436.2823529411765 L492 433.9921568627451 L493 414.5254901960784 L494 435.1372549019608 L495 426.54901960784315 L496 418.5333333333333 L497 417.96078431372547 L498 423.6862745098039 L499 438 L500 436.85490196078433" stroke = "blue"  stroke-width = "4" fill = "none" />
<path d = "M0 438 L1 438 L2 438 L3 438 L4 438 L5 438 L6 438 L7 438 L8 438 L9 438 L10 438 L11 438 L12 438 L13 438 L14 438 L15 438 L16 438 L17 438 L18 438 L19 438 L20 438 L21 434.56470588235294 L22 426.54901960784315 L23 420.8235294117647 L24 416.8156862745098 L25 423.6862745098039 L26 432.27450980392155 L27 438 L28 438 L29 438 L30 438 L31 438 L32 438 L33 438 L34 438 L35 438 L36 438 L37 438 L38 438 L39 438 L40 438 L41 438 L42 438 L43 438 L44 438 L45 438 L46 438 L47 438 L48 438 L49 438 L50 438 L51 438 L52 438 L53 438 L54 438 L55 438 L56 438 L57 438 L58 438 L59 438 L60 438 L61 438 L62 438 L63 438 L64 438 L65 438 L66 438 L67 438 L68 438 L69 438 L70 438 L71 438 L72 433.9921568627451 L73 418.5333333333333 L74 431.7019607843137 L75 438 L76 438 L77 438 L78 438 L79 438 L80 438 L81 438 L82 438 L83 438 L84 438 L85 438 L86 438 L87 438 L88 438 L89 438 L90 438 L91 438 L92 438 L93 438 L94 434.56470588235294 L95 433.9921568627451 L96 438 L97 438 L98 438 L99 408.8 L100 389.3333333333333 L101 399.6392156862745 L102 419.1058823529412 L103 425.9764705882353 L104 438 L105 438 L106 435.1372549019608 L107 438 L108 438 L109 438 L110 438 L111 438 L112 438 L113 438 L114 438 L115 438 L116 438 L117 438 L118 438 L119 435.7098039215686 L120 421.39607843137253 L121 432.27450980392155 L122 438 L123 438 L124 438 L125 438 L126 438 L127 438 L128 438 L129 438 L130 438 L131 438 L132 434.56470588235294 L133 417.96078431372547 L134 431.1294117647059 L135 435.7098039215686 L136 387.6156862745098 L137 396.20392156862744 L138 399.6392156862745 L139 409.9450980392157 L140 420.8235294117647 L141 438 L142 438 L143 438 L144 438 L145 438 L146 432.27450980392155 L147 422.54117647058825 L148 392.19607843137254 L149 391.6235294117647 L150 393.9137254901961 L151 395.6313725490196 L152 413.9529411764706 L153 425.4039215686274 L154 431.7019607843137 L155 438 L156 438 L157 438 L158 438 L159 438 L160 438 L161 438 L162 438 L163 438 L164 438 L165 438 L166 438 L167 438 L168 438 L169 438 L170 438 L171 438 L172 438 L173 438 L174 438 L175 438 L176 438 L177 438 L178 438 L179 438 L180 438 L181 438 L182 438 L183 438 L184 438 L185 438 L186 438 L187 438 L188 438 L189 438 L190 438 L191 438 L192 438 L193 438 L194 438 L195 438 L196 438 L197 438 L198 438 L199 438 L200 438 L201 438 L202 438 L203 438 L204 438 L205 438 L206 438 L207 438 L208 438 L209 438 L210 438 L211 435.7098039215686 L212 436.85490196078433 L213 436.2823529411765 L214 438 L215 438 L216 438 L217 438 L218 438 L219 438 L220 438 L221 438 L222 436.85490196078433 L223 435.1372549019608 L224 434.56470588235294 L225 436.2823529411765 L226 425.9764705882353 L227 435.1372549019608 L228 438 L229 436.2823529411765 L230 438 L231 438 L232 438 L233 438 L234 438 L235 438 L236 438 L237 438 L238 438 L239 431.1294117647059 L240 438 L241 438 L242 438 L243 438 L244 438 L245 438 L246 438 L247 438 L248 438 L249 438 L250 438 L251 438 L252 438 L253 438 L254 438 L255 438 L256 438 L257 438 L258 438 L259 432.84705882352944 L260 422.54117647058825 L261 428.8392156862745 L262 424.25882352941176 L263 415.0980392156863 L264 422.54117647058825 L265 407.6549019607843 L266 419.678431372549 L267 424.8313725490196 L268 423.6862745098039 L269 417.38823529411764 L270 430.55686274509804 L271 434.56470588235294 L272 421.9686274509804 L273 408.2274509803922 L274 389.3333333333333 L275 389.3333333333333 L276 384.7529411764706 L277 392.7686274509804 L278 400.78431372549016 L279 411.66274509803924 L280 417.96078431372547 L281 413.38039215686274 L282 423.6862745098039 L283 437.42745098039217 L284 430.55686274509804 L285 416.8156862745098 L286 432.84705882352944 L287 432.84705882352944 L288 404.7921568627451 L289 329.21568627450984 L290 293.71764705882356 L291 285.7019607843137 L292 317.1921568627451 L293 350.97254901960787 L294 385.3254901960784 L295 416.24313725490197 L296 438 L297 438 L298 438 L299 438 L300 438 L301 438 L302 438 L303 438 L304 438 L305 438 L306 438 L307 438 L308 438 L309 438 L310 438 L311 438 L312 438 L313 438 L314 438 L315 438 L316 438 L317 438 L318 438 L319 438 L320 438 L321 438 L322 438 L323 438 L324 438 L325 438 L326 438 L327 438 L328 438 L329 438 L330 438 L331 429.4117647058824 L332 402.5019607843137 L333 419.678431372549 L334 430.55686274509804 L335 432.27450980392155 L336 432.27450980392155 L337 429.4117647058824 L338 405.36470588235295 L339 428.26666666666665 L340 438 L341 438 L342 433.9921568627451 L343 293.14509803921567 L344 277.6862745098039 L345 304.0235294117647 L346 335.51372549019607 L347 369.29411764705884 L348 397.921568627451 L349 428.26666666666665 L350 438 L351 438 L352 438 L353 438 L354 438 L355 437.42745098039217 L356 381.89019607843136 L357 344.10196078431375 L358 341.2392156862745 L359 362.99607843137255 L360 393.34117647058827 L361 425.9764705882353 L362 438 L363 438 L364 438 L365 438 L366 438 L367 438 L368 438 L369 438 L370 438 L371 438 L372 438 L373 438 L374 438 L375 438 L376 438 L377 438 L378 438 L379 438 L380 438 L381 438 L382 438 L383 438 L384 438 L385 438 L386 433.9921568627451 L387 419.678431372549 L388 413.9529411764706 L389 432.84705882352944 L390 438 L391 438 L392 438 L393 438 L394 435.1372549019608 L395 436.85490196078433 L396 438 L397 438 L398 438 L399 432.27450980392155 L400 423.6862745098039 L401 429.4117647058824 L402 435.1372549019608 L403 438 L404 438 L405 438 L406 438 L407 435.1372549019608 L408 420.25098039215686 L409 424.8313725490196 L410 424.8313725490196 L411 437.42745098039217 L412 438 L413 435.7098039215686 L414 438 L415 438 L416 438 L417 438 L418 438 L419 438 L420 438 L421 438 L422 438 L423 438 L424 438 L425 438 L426 438 L427 438 L428 438 L429 438 L430 438 L431 438 L432 438 L433 438 L434 438 L435 438 L436 438 L437 438 L438 438 L439 438 L440 438 L441 438 L442 438 L443 438 L444 438 L445 438 L446 438 L447 438 L448 438 L449 438 L450 438 L451 438 L452 438 L453 438 L454 438 L455 438 L456 438 L457 438 L458 438 L459 438 L460 432.84705882352944 L461 428.26666666666665 L462 419.678431372549 L463 419.1058823529412 L464 430.55686274509804 L465 438 L466 435.1372549019608 L467 438 L468 438 L469 438 L470 438 L471 438 L472 438 L473 438 L474 438 L475 438 L476 438 L477 434.56470588235294 L478 436.2823529411765 L479 437.42745098039217 L480 438 L481 427.6941176470588 L482 434.56470588235294 L483 438 L484 436.85490196078433 L485 438 L486 438 L487 438 L488 438 L489 438 L490 438 L491 438 L492 438 L493 438 L494 438 L495 438 L496 438 L497 438 L498 438 L499 438 L500 438" stroke = "purple"  stroke-width = "4" fill = "none" />
</svg>