<svg width="1440" height="438" viewbox = "0 0 1440 438"  xmlns="http://www.w3.org/2000/svg">
<!--<json>{"starttime":1741660122,"startdate":"Mon Mar 10 2025 20:28:42 GMT-0600 (Mountain Daylight Time)","f1":1000,"f2":2000,"f3":3000,"f4":4000,"notes":"this is just a test run of some random noise, this is not real data but what is real data? what makes data more real?\nwhat even is real?","p1":[149,149,149,149,149,150,150,150,150,150,150,150,150,150,150,150,150,150,151,150,150,150,150,149,148,148,148,148,148,149,150,150,150,149,149,149,150,150,151,151,151,150,145,147,148,149,149,150,150,150,151,151,151,152,151,151,151,152,152,152,152,151,151,151,155,154,154,154,154,154,153,153,152,152,152,151,151,151,151,151,150,150,151,151,151,151,151,152,152,152,152,151,151,151,150,151,151,151,151,151,151,151,151,151,152,152,152,152,152,153,153,153,153,153,153,152,152,152,152,152,152,151,151,151,151,151,151,151,151,152,151,151,151,152,151,152,151,152,152,152,152,152,151,151,151,151,151,151,150,150,150,150,150,150,150,149,150,150,150,150,150,150,149,149,149,149,149,151,151,151,149,152,152,152,152,151,151,150,149,149,148,148,147,147,148,147,147,146,147,147,148,148,147,147,147,147,147,147,147,147,147],"p2":[52,46,40,42,40,41,38,32,27,27,33,28,24,18,35,39,34,28,21,15,8,2,0,32,36,36,33,36,55,72,80,75,68,65,59,66,68,63,57,50,43,37,38,32,38,37,46,45,41,37,35,31,25,38,55,54,49,42,36,34,43,53,48,42,75,79,75,69,62,55,48,41,34,30,24,18,11,8,3,5,3,3,0,0,0,0,0,0,0,0,28,34,42,38,39,36,36,40,53,69,65,61,54,49,57,57,54,50,45,41,60,74,71,65,73,73,68,63,57,56,52,49,45,42,43,37,31,35,40,38,33,34,27,25,19,13,29,58,53,60,54,47,43,85,79,76,72,72,71,67,63,57,50,44,39,40,62,66,64,58,52,45,41,34,28,22,15,22,55,56,51,44,38,31,24,17,10,8,30,34,32,26,20,15,13,40,46,50,63,58,53,46,43,44,38,32,25,21,20,16,15],"p3":[25,19,12,9,5,10,25,20,21,16,12,6,0,0,7,37,37,36,38,33,29,22,16,10,4,1,7,13,12,13,15,24,23,25,22,35,32,27,22,15,10,13,20,18,15,13,20,20,13,15,16,11,5,0,0,0,0,0,0,0,0,0,0,0,0,0,0,0,0,0,0,0,0,0,0,0,0,0,0,0,0,0,0,0,0,0,0,0,0,0,0,0,0,0,0,0,0,0,0,0,0,0,0,0,0,0,0,0,0,0,0,0,0,0,19,27,28,23,21,18,13,17,16,10,4,0,0,0,0,0,0,0,0,0,0,0,0,0,13,10,4,2,0,0,22,21,15,17,17,10,5,0,0,0,0,0,4,0,0,0,0,0,18,18,14,7,1,8,10,4,0,0,0,0,0,0,0,0,0,0,0,0,0,0,0,0,0,14,15,22,32,30,26,24,20,13,10,6,7,8,2],"p4":[0,0,0,0,0,0,0,0,0,0,0,0,0,0,0,0,0,0,0,0,0,0,0,0,0,0,0,0,0,0,0,0,0,0,0,0,0,0,0,0,0,0,0,0,0,0,0,0,0,0,0,0,0,0,0,0,0,0,0,0,0,0,0,0,0,0,0,0,0,0,0,0,0,0,0,0,0,0,0,0,0,0,0,0,0,0,0,0,0,0,0,0,0,0,0,0,4,0,0,0,0,0,0,5,9,17,17,13,8,2,0,0,0,0,0,4,7,4,0,1,14,15,9,4,0,2,0,0,0,0,0,0,0,0,2,6,18,30,33,28,21,21,15,8,3,0,0,5,0,0,0,0,0,0,0,0,0,0,0,0,0,0,0,0,0,0,0,0,0,0,0,0,0,0,0,0,0,0,0,0,0,0,0,0,0,0,1,21,23,23,19,13,7,0,0,0,0,0,0,0,0],"timeseconds":[0.7000000476837158,0.7999999523162842,0.7999999523162842,0.7999999523162842,0.9000000953674316,0.9000000953674316,0.9000000953674316,1,1,1,1.0999999046325684,1.0999999046325684,1.0999999046325684,1.2000000476837158,1.2000000476837158,1.2000000476837158,1.2999999523162842,1.2999999523162842,1.2999999523162842,1.4000000953674316,1.4000000953674316,1.4000000953674316,1.5,1.5,1.5999999046325684,1.5999999046325684,1.5999999046325684,1.7000000476837158,1.7000000476837158,1.7000000476837158,1.7999999523162842,1.7999999523162842,1.7999999523162842,1.9000000953674316,1.9000000953674316,1.9000000953674316,2,2,2,2.0999999046325684,2.0999999046325684,2.0999999046325684,2.200000047683716,2.200000047683716,2.200000047683716,2.299999952316284,2.299999952316284,2.299999952316284,2.4000000953674316,2.4000000953674316,2.4000000953674316,2.5,2.5,2.5,2.5999999046325684,2.5999999046325684,2.5999999046325684,2.700000047683716,2.700000047683716,2.700000047683716,2.799999952316284,2.799999952316284,2.799999952316284,2.9000000953674316,2.9000000953674316,2.9000000953674316,3,3,3,3.0999999046325684,3.0999999046325684,3.0999999046325684,3.200000047683716,3.200000047683716,3.200000047683716,3.299999952316284,3.299999952316284,3.299999952316284,3.4000000953674316,3.4000000953674316,3.4000000953674316,3.5,3.5,3.5,3.5999999046325684,3.5999999046325684,3.5999999046325684,3.700000047683716,3.700000047683716,3.700000047683716,3.799999952316284,3.799999952316284,3.799999952316284,3.9000000953674316,3.9000000953674316,3.9000000953674316,4,4,4,4.099999904632568,4.099999904632568,4.099999904632568,4.200000047683716,4.200000047683716,4.200000047683716,4.299999952316284,4.299999952316284,4.299999952316284,4.400000095367432,4.400000095367432,4.400000095367432,4.5,4.5,4.5,4.599999904632568,4.599999904632568,4.599999904632568,4.700000047683716,4.700000047683716,4.700000047683716,4.799999952316284,4.799999952316284,4.799999952316284,4.900000095367432,4.900000095367432,4.900000095367432,5,5,5,5.099999904632568,5.099999904632568,5.099999904632568,5.200000047683716,5.200000047683716,5.200000047683716,5.299999952316284,5.299999952316284,5.299999952316284,5.400000095367432,5.400000095367432,5.400000095367432,5.5,5.5,5.5,5.599999904632568,5.599999904632568,5.599999904632568,5.700000047683716,5.700000047683716,5.700000047683716,5.799999952316284,5.799999952316284,5.799999952316284,5.900000095367432,5.900000095367432,5.900000095367432,6,6,6,6.099999904632568,6.099999904632568,6.099999904632568,6.200000047683716,6.200000047683716,6.200000047683716,6.299999952316284,6.299999952316284,6.299999952316284,6.400000095367432,6.400000095367432,6.400000095367432,6.5,6.5,6.5,6.599999904632568,6.599999904632568,6.599999904632568,6.700000047683716,6.700000047683716,6.700000047683716,6.799999952316284,6.799999952316284,6.799999952316284,6.900000095367432,6.900000095367432,6.900000095367432,7,7,7,7.099999904632568,7.099999904632568,7.099999904632568,7.200000047683716,7.200000047683716,7.200000047683716,7.299999952316284,7.299999952316284,7.299999952316284,7.400000095367432,7.400000095367432,7.400000095367432]}</json>-->
<path d = "M0 181.8627450980392 L1 181.8627450980392 L2 181.8627450980392 L3 181.8627450980392 L4 181.8627450980392 L5 180.1470588235294 L6 180.1470588235294 L7 180.1470588235294 L8 180.1470588235294 L9 180.1470588235294 L10 180.1470588235294 L11 180.1470588235294 L12 180.1470588235294 L13 180.1470588235294 L14 180.1470588235294 L15 180.1470588235294 L16 180.1470588235294 L17 180.1470588235294 L18 178.4313725490196 L19 180.1470588235294 L20 180.1470588235294 L21 180.1470588235294 L22 180.1470588235294 L23 181.8627450980392 L24 183.578431372549 L25 183.578431372549 L26 183.578431372549 L27 183.578431372549 L28 183.578431372549 L29 181.8627450980392 L30 180.1470588235294 L31 180.1470588235294 L32 180.1470588235294 L33 181.8627450980392 L34 181.8627450980392 L35 181.8627450980392 L36 180.1470588235294 L37 180.1470588235294 L38 178.4313725490196 L39 178.4313725490196 L40 178.4313725490196 L41 180.1470588235294 L42 188.72549019607845 L43 185.29411764705884 L44 183.578431372549 L45 181.8627450980392 L46 181.8627450980392 L47 180.1470588235294 L48 180.1470588235294 L49 180.1470588235294 L50 178.4313725490196 L51 178.4313725490196 L52 178.4313725490196 L53 176.71568627450984 L54 178.4313725490196 L55 178.4313725490196 L56 178.4313725490196 L57 176.71568627450984 L58 176.71568627450984 L59 176.71568627450984 L60 176.71568627450984 L61 178.4313725490196 L62 178.4313725490196 L63 178.4313725490196 L64 171.5686274509804 L65 173.28431372549022 L66 173.28431372549022 L67 173.28431372549022 L68 173.28431372549022 L69 173.28431372549022 L70 175 L71 175 L72 176.71568627450984 L73 176.71568627450984 L74 176.71568627450984 L75 178.4313725490196 L76 178.4313725490196 L77 178.4313725490196 L78 178.4313725490196 L79 178.4313725490196 L80 180.1470588235294 L81 180.1470588235294 L82 178.4313725490196 L83 178.4313725490196 L84 178.4313725490196 L85 178.4313725490196 L86 178.4313725490196 L87 176.71568627450984 L88 176.71568627450984 L89 176.71568627450984 L90 176.71568627450984 L91 178.4313725490196 L92 178.4313725490196 L93 178.4313725490196 L94 180.1470588235294 L95 178.4313725490196 L96 178.4313725490196 L97 178.4313725490196 L98 178.4313725490196 L99 178.4313725490196 L100 178.4313725490196 L101 178.4313725490196 L102 178.4313725490196 L103 178.4313725490196 L104 176.71568627450984 L105 176.71568627450984 L106 176.71568627450984 L107 176.71568627450984 L108 176.71568627450984 L109 175 L110 175 L111 175 L112 175 L113 175 L114 175 L115 176.71568627450984 L116 176.71568627450984 L117 176.71568627450984 L118 176.71568627450984 L119 176.71568627450984 L120 176.71568627450984 L121 178.4313725490196 L122 178.4313725490196 L123 178.4313725490196 L124 178.4313725490196 L125 178.4313725490196 L126 178.4313725490196 L127 178.4313725490196 L128 178.4313725490196 L129 176.71568627450984 L130 178.4313725490196 L131 178.4313725490196 L132 178.4313725490196 L133 176.71568627450984 L134 178.4313725490196 L135 176.71568627450984 L136 178.4313725490196 L137 176.71568627450984 L138 176.71568627450984 L139 176.71568627450984 L140 176.71568627450984 L141 176.71568627450984 L142 178.4313725490196 L143 178.4313725490196 L144 178.4313725490196 L145 178.4313725490196 L146 178.4313725490196 L147 178.4313725490196 L148 180.1470588235294 L149 180.1470588235294 L150 180.1470588235294 L151 180.1470588235294 L152 180.1470588235294 L153 180.1470588235294 L154 180.1470588235294 L155 181.8627450980392 L156 180.1470588235294 L157 180.1470588235294 L158 180.1470588235294 L159 180.1470588235294 L160 180.1470588235294 L161 180.1470588235294 L162 181.8627450980392 L163 181.8627450980392 L164 181.8627450980392 L165 181.8627450980392 L166 181.8627450980392 L167 178.4313725490196 L168 178.4313725490196 L169 178.4313725490196 L170 181.8627450980392 L171 176.71568627450984 L172 176.71568627450984 L173 176.71568627450984 L174 176.71568627450984 L175 178.4313725490196 L176 178.4313725490196 L177 180.1470588235294 L178 181.8627450980392 L179 181.8627450980392 L180 183.578431372549 L181 183.578431372549 L182 185.29411764705884 L183 185.29411764705884 L184 183.578431372549 L185 185.29411764705884 L186 185.29411764705884 L187 187.00980392156865 L188 185.29411764705884 L189 185.29411764705884 L190 183.578431372549 L191 183.578431372549 L192 185.29411764705884 L193 185.29411764705884 L194 185.29411764705884 L195 185.29411764705884 L196 185.29411764705884 L197 185.29411764705884 L198 185.29411764705884 L199 185.29411764705884 L200 185.29411764705884" stroke = "red"  stroke-width = "4" fill = "none" />
<path d = "M0 348.28431372549016 L1 358.578431372549 L2 368.87254901960785 L3 365.44117647058823 L4 368.87254901960785 L5 367.156862745098 L6 372.30392156862746 L7 382.5980392156863 L8 391.1764705882353 L9 391.1764705882353 L10 380.88235294117646 L11 389.46078431372547 L12 396.3235294117647 L13 406.61764705882354 L14 377.45098039215685 L15 370.5882352941176 L16 379.1666666666667 L17 389.46078431372547 L18 401.47058823529414 L19 411.7647058823529 L20 423.77450980392155 L21 434.0686274509804 L22 437.5 L23 382.5980392156863 L24 375.7352941176471 L25 375.7352941176471 L26 380.88235294117646 L27 375.7352941176471 L28 343.1372549019608 L29 313.97058823529414 L30 300.2450980392157 L31 308.8235294117647 L32 320.8333333333333 L33 325.98039215686276 L34 336.27450980392155 L35 324.2647058823529 L36 320.8333333333333 L37 329.4117647058823 L38 339.70588235294116 L39 351.71568627450984 L40 363.72549019607845 L41 374.01960784313724 L42 372.30392156862746 L43 382.5980392156863 L44 372.30392156862746 L45 374.01960784313724 L46 358.578431372549 L47 360.2941176470588 L48 367.156862745098 L49 374.01960784313724 L50 377.45098039215685 L51 384.3137254901961 L52 394.6078431372549 L53 372.30392156862746 L54 343.1372549019608 L55 344.8529411764706 L56 353.4313725490196 L57 365.44117647058823 L58 375.7352941176471 L59 379.1666666666667 L60 363.72549019607845 L61 346.5686274509804 L62 355.1470588235294 L63 365.44117647058823 L64 308.8235294117647 L65 301.9607843137255 L66 308.8235294117647 L67 319.11764705882354 L68 331.12745098039215 L69 343.1372549019608 L70 355.1470588235294 L71 367.156862745098 L72 379.1666666666667 L73 386.02941176470586 L74 396.3235294117647 L75 406.61764705882354 L76 418.62745098039215 L77 423.77450980392155 L78 432.3529411764706 L79 428.921568627451 L80 432.3529411764706 L81 432.3529411764706 L82 437.5 L83 437.5 L84 437.5 L85 437.5 L86 437.5 L87 437.5 L88 437.5 L89 437.5 L90 389.46078431372547 L91 379.1666666666667 L92 365.44117647058823 L93 372.30392156862746 L94 370.5882352941176 L95 375.7352941176471 L96 375.7352941176471 L97 368.87254901960785 L98 346.5686274509804 L99 319.11764705882354 L100 325.98039215686276 L101 332.843137254902 L102 344.8529411764706 L103 353.4313725490196 L104 339.70588235294116 L105 339.70588235294116 L106 344.8529411764706 L107 351.71568627450984 L108 360.2941176470588 L109 367.156862745098 L110 334.55882352941177 L111 310.5392156862745 L112 315.6862745098039 L113 325.98039215686276 L114 312.2549019607843 L115 312.2549019607843 L116 320.8333333333333 L117 329.4117647058823 L118 339.70588235294116 L119 341.421568627451 L120 348.28431372549016 L121 353.4313725490196 L122 360.2941176470588 L123 365.44117647058823 L124 363.72549019607845 L125 374.01960784313724 L126 384.3137254901961 L127 377.45098039215685 L128 368.87254901960785 L129 372.30392156862746 L130 380.88235294117646 L131 379.1666666666667 L132 391.1764705882353 L133 394.6078431372549 L134 404.9019607843137 L135 415.19607843137254 L136 387.7450980392157 L137 337.9901960784314 L138 346.5686274509804 L139 334.55882352941177 L140 344.8529411764706 L141 356.8627450980392 L142 363.72549019607845 L143 291.6666666666667 L144 301.9607843137255 L145 307.1078431372549 L146 313.97058823529414 L147 313.97058823529414 L148 315.6862745098039 L149 322.54901960784315 L150 329.4117647058823 L151 339.70588235294116 L152 351.71568627450984 L153 362.0098039215686 L154 370.5882352941176 L155 368.87254901960785 L156 331.12745098039215 L157 324.2647058823529 L158 327.69607843137254 L159 337.9901960784314 L160 348.28431372549016 L161 360.2941176470588 L162 367.156862745098 L163 379.1666666666667 L164 389.46078431372547 L165 399.7549019607843 L166 411.7647058823529 L167 399.7549019607843 L168 343.1372549019608 L169 341.421568627451 L170 350 L171 362.0098039215686 L172 372.30392156862746 L173 384.3137254901961 L174 396.3235294117647 L175 408.3333333333333 L176 420.343137254902 L177 423.77450980392155 L178 386.02941176470586 L179 379.1666666666667 L180 382.5980392156863 L181 392.8921568627451 L182 403.1862745098039 L183 411.7647058823529 L184 415.19607843137254 L185 368.87254901960785 L186 358.578431372549 L187 351.71568627450984 L188 329.4117647058823 L189 337.9901960784314 L190 346.5686274509804 L191 358.578431372549 L192 363.72549019607845 L193 362.0098039215686 L194 372.30392156862746 L195 382.5980392156863 L196 394.6078431372549 L197 401.47058823529414 L198 403.1862745098039 L199 410.04901960784315 L200 411.7647058823529" stroke = "green"  stroke-width = "4" fill = "none" />
<path d = "M0 394.6078431372549 L1 404.9019607843137 L2 416.9117647058824 L3 422.05882352941177 L4 428.921568627451 L5 420.343137254902 L6 394.6078431372549 L7 403.1862745098039 L8 401.47058823529414 L9 410.04901960784315 L10 416.9117647058824 L11 427.20588235294116 L12 437.5 L13 437.5 L14 425.4901960784314 L15 374.01960784313724 L16 374.01960784313724 L17 375.7352941176471 L18 372.30392156862746 L19 380.88235294117646 L20 387.7450980392157 L21 399.7549019607843 L22 410.04901960784315 L23 420.343137254902 L24 430.6372549019608 L25 435.7843137254902 L26 425.4901960784314 L27 415.19607843137254 L28 416.9117647058824 L29 415.19607843137254 L30 411.7647058823529 L31 396.3235294117647 L32 398.03921568627453 L33 394.6078431372549 L34 399.7549019607843 L35 377.45098039215685 L36 382.5980392156863 L37 391.1764705882353 L38 399.7549019607843 L39 411.7647058823529 L40 420.343137254902 L41 415.19607843137254 L42 403.1862745098039 L43 406.61764705882354 L44 411.7647058823529 L45 415.19607843137254 L46 403.1862745098039 L47 403.1862745098039 L48 415.19607843137254 L49 411.7647058823529 L50 410.04901960784315 L51 418.62745098039215 L52 428.921568627451 L53 437.5 L54 437.5 L55 437.5 L56 437.5 L57 437.5 L58 437.5 L59 437.5 L60 437.5 L61 437.5 L62 437.5 L63 437.5 L64 437.5 L65 437.5 L66 437.5 L67 437.5 L68 437.5 L69 437.5 L70 437.5 L71 437.5 L72 437.5 L73 437.5 L74 437.5 L75 437.5 L76 437.5 L77 437.5 L78 437.5 L79 437.5 L80 437.5 L81 437.5 L82 437.5 L83 437.5 L84 437.5 L85 437.5 L86 437.5 L87 437.5 L88 437.5 L89 437.5 L90 437.5 L91 437.5 L92 437.5 L93 437.5 L94 437.5 L95 437.5 L96 437.5 L97 437.5 L98 437.5 L99 437.5 L100 437.5 L101 437.5 L102 437.5 L103 437.5 L104 437.5 L105 437.5 L106 437.5 L107 437.5 L108 437.5 L109 437.5 L110 437.5 L111 437.5 L112 437.5 L113 437.5 L114 404.9019607843137 L115 391.1764705882353 L116 389.46078431372547 L117 398.03921568627453 L118 401.47058823529414 L119 406.61764705882354 L120 415.19607843137254 L121 408.3333333333333 L122 410.04901960784315 L123 420.343137254902 L124 430.6372549019608 L125 437.5 L126 437.5 L127 437.5 L128 437.5 L129 437.5 L130 437.5 L131 437.5 L132 437.5 L133 437.5 L134 437.5 L135 437.5 L136 437.5 L137 437.5 L138 415.19607843137254 L139 420.343137254902 L140 430.6372549019608 L141 434.0686274509804 L142 437.5 L143 437.5 L144 399.7549019607843 L145 401.47058823529414 L146 411.7647058823529 L147 408.3333333333333 L148 408.3333333333333 L149 420.343137254902 L150 428.921568627451 L151 437.5 L152 437.5 L153 437.5 L154 437.5 L155 437.5 L156 430.6372549019608 L157 437.5 L158 437.5 L159 437.5 L160 437.5 L161 437.5 L162 406.61764705882354 L163 406.61764705882354 L164 413.48039215686276 L165 425.4901960784314 L166 435.7843137254902 L167 423.77450980392155 L168 420.343137254902 L169 430.6372549019608 L170 437.5 L171 437.5 L172 437.5 L173 437.5 L174 437.5 L175 437.5 L176 437.5 L177 437.5 L178 437.5 L179 437.5 L180 437.5 L181 437.5 L182 437.5 L183 437.5 L184 437.5 L185 437.5 L186 437.5 L187 413.48039215686276 L188 411.7647058823529 L189 399.7549019607843 L190 382.5980392156863 L191 386.02941176470586 L192 392.8921568627451 L193 396.3235294117647 L194 403.1862745098039 L195 415.19607843137254 L196 420.343137254902 L197 427.20588235294116 L198 425.4901960784314 L199 423.77450980392155 L200 434.0686274509804" stroke = "blue"  stroke-width = "4" fill = "none" />
<path d = "M0 437.5 L1 437.5 L2 437.5 L3 437.5 L4 437.5 L5 437.5 L6 437.5 L7 437.5 L8 437.5 L9 437.5 L10 437.5 L11 437.5 L12 437.5 L13 437.5 L14 437.5 L15 437.5 L16 437.5 L17 437.5 L18 437.5 L19 437.5 L20 437.5 L21 437.5 L22 437.5 L23 437.5 L24 437.5 L25 437.5 L26 437.5 L27 437.5 L28 437.5 L29 437.5 L30 437.5 L31 437.5 L32 437.5 L33 437.5 L34 437.5 L35 437.5 L36 437.5 L37 437.5 L38 437.5 L39 437.5 L40 437.5 L41 437.5 L42 437.5 L43 437.5 L44 437.5 L45 437.5 L46 437.5 L47 437.5 L48 437.5 L49 437.5 L50 437.5 L51 437.5 L52 437.5 L53 437.5 L54 437.5 L55 437.5 L56 437.5 L57 437.5 L58 437.5 L59 437.5 L60 437.5 L61 437.5 L62 437.5 L63 437.5 L64 437.5 L65 437.5 L66 437.5 L67 437.5 L68 437.5 L69 437.5 L70 437.5 L71 437.5 L72 437.5 L73 437.5 L74 437.5 L75 437.5 L76 437.5 L77 437.5 L78 437.5 L79 437.5 L80 437.5 L81 437.5 L82 437.5 L83 437.5 L84 437.5 L85 437.5 L86 437.5 L87 437.5 L88 437.5 L89 437.5 L90 437.5 L91 437.5 L92 437.5 L93 437.5 L94 437.5 L95 437.5 L96 430.6372549019608 L97 437.5 L98 437.5 L99 437.5 L100 437.5 L101 437.5 L102 437.5 L103 428.921568627451 L104 422.05882352941177 L105 408.3333333333333 L106 408.3333333333333 L107 415.19607843137254 L108 423.77450980392155 L109 434.0686274509804 L110 437.5 L111 437.5 L112 437.5 L113 437.5 L114 437.5 L115 430.6372549019608 L116 425.4901960784314 L117 430.6372549019608 L118 437.5 L119 435.7843137254902 L120 413.48039215686276 L121 411.7647058823529 L122 422.05882352941177 L123 430.6372549019608 L124 437.5 L125 434.0686274509804 L126 437.5 L127 437.5 L128 437.5 L129 437.5 L130 437.5 L131 437.5 L132 437.5 L133 437.5 L134 434.0686274509804 L135 427.20588235294116 L136 406.61764705882354 L137 386.02941176470586 L138 380.88235294117646 L139 389.46078431372547 L140 401.47058823529414 L141 401.47058823529414 L142 411.7647058823529 L143 423.77450980392155 L144 432.3529411764706 L145 437.5 L146 437.5 L147 428.921568627451 L148 437.5 L149 437.5 L150 437.5 L151 437.5 L152 437.5 L153 437.5 L154 437.5 L155 437.5 L156 437.5 L157 437.5 L158 437.5 L159 437.5 L160 437.5 L161 437.5 L162 437.5 L163 437.5 L164 437.5 L165 437.5 L166 437.5 L167 437.5 L168 437.5 L169 437.5 L170 437.5 L171 437.5 L172 437.5 L173 437.5 L174 437.5 L175 437.5 L176 437.5 L177 437.5 L178 437.5 L179 437.5 L180 437.5 L181 437.5 L182 437.5 L183 437.5 L184 437.5 L185 437.5 L186 435.7843137254902 L187 401.47058823529414 L188 398.03921568627453 L189 398.03921568627453 L190 404.9019607843137 L191 415.19607843137254 L192 425.4901960784314 L193 437.5 L194 437.5 L195 437.5 L196 437.5 L197 437.5 L198 437.5 L199 437.5 L200 437.5" stroke = "purple"  stroke-width = "4" fill = "none" />
</svg>