<svg width="1440" height="438" viewbox = "0 0 1440 438"  xmlns="http://www.w3.org/2000/svg">
<!--<json>{"starttime":1741657571,"startdate":"Mon Mar 10 2025 19:46:11 GMT-0600 (Mountain Daylight Time)","f1":1000,"f2":2000,"f3":3000,"f4":4000,"notes":"this is just a test run of some random noise, this is not real data but what is real data? what makes data more real?\nwhat even is real?","p1":[0,0,0,0,0,0,0,0,0,0,0,0,0,0,0,0,0,0,0,0,0,0,0,0,16,30,39,46,51,54,57,60,62,64,65,66,67,68,69,70,70,71,72,73,73,73,73,74,74,74,74,74,74,74,74,74,74,74,73,73,73,73,73,72,72,72,72,72,72,72,73,73,73,73,73,74,74,74,75,75,75,75,75,75,75,75,75,74,74,74,74,74,73,73,73,73,73,73,73,74,74,74,74,74,74,74,74,74,74,74,74,74,75,75,75,75,75,75,76,76,76,75,75,76,76,75,75,75,74,74,74,73,73,73,74,74,74,74,74,74,74,74,75,75,75,74,74,74,74,74,74,74,74,74,73,73,73,74,74,74,74,74,74,74,74,74,74,74,74,74,74,74,74,74,74,74,74,74,74,74,74,74,75,75,75,75,75,75,75,75,75,75,75,75,75,75,75,75,75,75,75,75,75,75,75,75,75,75,75,75,75,75,75,75,75,74,74,74,74,74,74,74,74,74,74,74,74,74,74,74,74,74,74,74,74,74,74,74,74,74,74,74,74,75,74,74,75,75,75,75,74,74,74,74,75,74,74,75,76,77,77,76,76,77,76,75,75,76,75,75,75,75,73,74,75,75,74,74,74,74,73,74,73,74,74,74,74,74,74,74,74,74,74,74,74,74,74,74,74,74,74,74,74,74,74,75,74,74,74,74,74,75,75,75,75,75,75,75,74,74,74,74,73,74,74,74,74,74,74,74,75,75,75,74,74,73,73,74,74,74,74,74,74,73,73,73,73,73,74,74,75,75,75,77,77,76,77,76,76,76,76,76,76,75,75,75,76,75,75,75,75,75,75,75,76,77,76,76,76,76,76,76,76,76,76,76,76,77,78,78,78,77,77,77,76,76,77,77,77,77,78,77,77,77,77,77,76,76,76,77,77,77,77,78,78,78,78,78,78,78,78,78,78,78,77,75,75,76,76,77,77,77,77,77,77,77,77,78,78,78,78,79,79,79,79,79,79,78,78,78,78,77,78,77,78,78,78,78,77,77,77,77,77,77,77,78,78,77,77,77,77,77,77,78,78,78,78,78,78,78,78,78,78,78,77,77,77,77,76,76,76,76,76,76,76,76,77,77,77,78,78],"p2":[0,0,0,0,0,0,0,0,0,0,0,0,0,0,0,0,0,0,0,0,0,0,0,0,0,0,0,0,0,0,0,0,0,0,0,0,0,0,0,0,0,0,0,0,0,0,0,0,0,0,0,0,0,0,0,0,0,0,0,4,4,10,6,2,0,0,0,0,0,0,0,0,0,0,0,7,6,5,0,0,0,0,0,0,0,0,0,0,0,0,0,0,0,0,0,0,11,20,18,13,9,5,0,0,0,0,0,0,0,0,0,0,0,0,0,0,0,0,0,0,0,0,0,0,0,0,0,0,0,0,0,0,0,0,0,0,0,0,0,0,0,0,0,0,0,10,36,42,42,41,35,28,22,16,10,4,0,0,0,0,0,33,40,36,33,29,24,23,18,12,13,7,10,5,2,0,0,0,0,0,0,0,0,22,23,25,27,25,26,23,19,12,12,10,6,2,3,8,10,14,22,20,15,9,9,30,31,30,28,27,28,27,23,22,17,13,8,7,8,9,13,11,11,12,14,11,10,26,33,39,33,29,24,39,42,44,43,40,45,42,36,33,31,25,22,17,15,18,13,23,32,31,28,29,40,34,29,31,27,21,18,18,19,19,20,15,16,17,20,18,22,31,27,25,22,20,22,17,11,13,10,12,12,12,16,15,9,11,16,25,21,16,21,30,24,20,22,16,20,24,28,27,21,30,25,20,16,11,8,3,0,0,0,0,27,34,33,34,28,22,25,27,34,40,37,35,31,26,21,15,10,14,11,16,15,16,25,38,42,43,39,34,32,34,31,30,24,27,28,35,36,34,32,39,37,39,42,39,45,44,40,41,36,39,34,34,30,29,28,24,25,23,24,27,29,27,27,36,39,37,44,45,42,38,33,27,32,34,37,36,45,41,38,37,38,36,38,36,31,41,40,61,61,55,52,49,43,48,56,60,59,53,51,44,40,35,31,29,27,21,17,12,10,16,17,26,23,18,12,7,0,0,0,0,0,0,0,0,0,0,0,0,0,0,0,10,8,13,8,3,0,0,0,0,0,0,0,0,0,0,0,0,0,0,0,0,0,0,0,0,0,0,17,27,36,37,32,39,36,31,25,19,14,11,7,3,0,0,58,59,56,50,44,38,43,38,48,50,45,53,47],"p3":[0,0,0,0,0,0,0,0,0,0,0,0,0,0,0,0,0,0,0,0,0,0,0,0,0,0,0,0,0,0,0,0,0,0,0,0,0,0,0,0,0,0,0,0,0,0,0,0,0,0,0,0,0,0,0,0,0,0,0,0,0,0,0,0,0,0,0,0,0,0,0,0,0,0,9,35,33,27,20,14,7,1,0,0,0,0,0,0,0,0,0,0,0,0,0,0,0,33,30,23,16,10,4,0,0,0,0,0,0,0,0,0,0,0,0,0,0,0,3,28,26,19,14,10,9,3,0,0,0,0,0,0,0,0,0,0,0,0,0,0,53,51,46,40,35,37,31,27,24,19,15,9,3,0,0,0,0,0,1,12,43,54,74,67,60,55,51,47,44,38,40,36,32,26,24,17,24,23,26,26,24,20,16,46,69,67,62,57,51,45,39,33,29,24,19,15,10,4,3,0,6,5,0,0,0,38,62,65,60,54,47,43,40,34,31,27,25,21,15,12,8,5,2,4,8,4,3,31,42,41,36,33,31,32,29,26,27,21,17,15,11,8,3,15,16,18,16,17,25,52,61,58,53,50,45,44,43,42,39,35,31,30,23,17,12,17,16,18,16,13,34,60,58,53,47,40,37,31,28,27,24,24,23,22,29,28,23,30,35,38,39,35,45,66,65,63,59,54,54,52,52,50,47,44,39,33,32,32,26,28,26,28,30,29,32,49,50,46,44,39,36,41,39,41,37,35,31,28,22,22,23,39,47,42,46,48,54,63,56,51,46,42,46,45,50,53,47,41,36,34,31,27,22,32,38,48,47,43,41,45,41,36,31,36,40,41,43,40,34,27,21,15,10,6,11,9,20,26,29,32,58,57,50,47,41,42,39,47,50,47,43,38,32,26,20,17,14,15,26,33,36,47,66,61,56,51,46,46,46,43,50,44,39,37,33,30,29,29,27,23,30,31,26,47,48,46,43,39,38,35,34,29,27,25,22,20,18,13,8,2,6,4,3,5,25,55,51,46,40,34,33,30,28,29,29,23,18,15,12,6,2,5,14,22,21,16,37,57,55,50,45,42,40,39,38,37,31,26,25,23,27,31,28,33,40,43,47,42,50,58,56,51,45,40,35,34,29,26,22,16,14],"p4":[0,0,0,0,0,0,0,0,0,0,0,0,0,0,0,0,0,0,0,0,0,0,0,0,0,0,0,0,0,0,0,0,0,0,0,0,0,0,0,0,0,0,0,0,0,0,0,0,0,0,0,0,0,0,0,0,0,0,0,0,0,0,0,0,0,0,0,0,0,0,0,0,0,0,0,0,0,0,0,0,0,0,0,0,0,0,0,0,0,0,0,0,0,0,0,0,0,0,0,0,0,0,0,0,0,0,0,0,0,0,0,0,0,0,0,0,0,0,0,0,0,0,0,0,0,0,0,0,0,0,0,0,0,0,0,0,0,0,0,0,0,0,0,0,0,0,0,0,0,0,0,0,0,0,0,0,0,0,0,0,0,1,0,0,0,0,0,0,0,0,0,0,0,0,0,0,0,0,0,0,0,0,0,0,0,0,0,0,0,0,0,0,0,0,0,0,0,0,0,0,0,0,0,0,0,0,0,0,0,0,0,0,1,1,0,0,0,0,0,0,0,0,0,0,0,0,0,0,4,6,1,0,0,0,0,0,0,0,0,0,0,0,0,0,12,7,10,5,5,5,7,1,0,0,0,0,2,1,0,0,0,0,0,0,0,0,0,0,0,0,0,0,0,0,0,0,0,9,4,6,3,0,0,0,0,0,0,0,6,3,2,2,18,18,15,13,15,15,17,24,25,29,28,26,20,16,14,7,7,14,16,17,20,15,30,28,27,24,20,13,28,31,26,21,19,18,16,10,5,10,9,22,20,18,12,7,9,11,11,5,5,3,3,0,0,8,7,7,5,1,2,0,0,4,1,0,0,0,0,0,0,0,0,0,11,9,10,11,7,3,0,0,0,0,0,5,6,5,0,1,4,3,3,17,13,13,19,17,21,19,16,11,8,4,0,0,16,12,7,9,11,32,30,28,26,25,21,30,26,22,19,14,10,6,1,1,1,2,11,9,8,11,5,9,23,21,17,13,6,10,14,10,10,6,2,0,0,0,0,0,13,11,15,13,13,9,13,10,4,0,8,10,7,8,2,0,0,0,0,0,0,0,19,32,38,35,38,34,31,27,24,21,29,29,29,36,30,31,24,18,15,14,9,31,31,34,33,30,43,39,36,30,27,22,48,45,45,44,41,45,39],"timeseconds":[0.2999999523162842,0.2999999523162842,0.2999999523162842,0.40000009536743164,0.40000009536743164,0.40000009536743164,0.5,0.5,0.5,0.5999999046325684,0.5999999046325684,0.5999999046325684,0.7000000476837158,0.7000000476837158,0.7000000476837158,0.7999999523162842,0.7999999523162842,0.7999999523162842,0.9000000953674316,0.9000000953674316,0.9000000953674316,1,1,1,1.0999999046325684,1.0999999046325684,1.0999999046325684,1.2000000476837158,1.2000000476837158,1.2000000476837158,1.2999999523162842,1.2999999523162842,1.2999999523162842,1.4000000953674316,1.4000000953674316,1.4000000953674316,1.5,1.5,1.5,1.5999999046325684,1.5999999046325684,1.5999999046325684,1.7000000476837158,1.7000000476837158,1.7000000476837158,1.7999999523162842,1.7999999523162842,1.7999999523162842,1.9000000953674316,1.9000000953674316,1.9000000953674316,2,2,2,2.0999999046325684,2.0999999046325684,2.0999999046325684,2.200000047683716,2.200000047683716,2.200000047683716,2.299999952316284,2.299999952316284,2.299999952316284,2.4000000953674316,2.4000000953674316,2.4000000953674316,2.5,2.5,2.5,2.5999999046325684,2.5999999046325684,2.5999999046325684,2.700000047683716,2.700000047683716,2.700000047683716,2.799999952316284,2.799999952316284,2.799999952316284,2.9000000953674316,2.9000000953674316,2.9000000953674316,3,3,3,3.0999999046325684,3.0999999046325684,3.0999999046325684,3.200000047683716,3.200000047683716,3.200000047683716,3.299999952316284,3.299999952316284,3.299999952316284,3.4000000953674316,3.4000000953674316,3.4000000953674316,3.5,3.5,3.5,3.5999999046325684,3.5999999046325684,3.5999999046325684,3.700000047683716,3.700000047683716,3.700000047683716,3.799999952316284,3.799999952316284,3.799999952316284,3.9000000953674316,3.9000000953674316,3.9000000953674316,4,4,4,4.099999904632568,4.099999904632568,4.099999904632568,4.200000047683716,4.200000047683716,4.200000047683716,4.299999952316284,4.299999952316284,4.299999952316284,4.400000095367432,4.400000095367432,4.400000095367432,4.5,4.5,4.5,4.599999904632568,4.599999904632568,4.599999904632568,4.700000047683716,4.700000047683716,4.700000047683716,4.799999952316284,4.799999952316284,4.799999952316284,4.900000095367432,4.900000095367432,4.900000095367432,5,5,5,5.099999904632568,5.099999904632568,5.099999904632568,5.200000047683716,5.200000047683716,5.200000047683716,5.299999952316284,5.299999952316284,5.299999952316284,5.400000095367432,5.400000095367432,5.400000095367432,5.5,5.5,5.5,5.599999904632568,5.599999904632568,5.599999904632568,5.700000047683716,5.700000047683716,5.700000047683716,5.799999952316284,5.799999952316284,5.799999952316284,5.900000095367432,5.900000095367432,5.900000095367432,6,6,6,6.099999904632568,6.099999904632568,6.099999904632568,6.200000047683716,6.200000047683716,6.200000047683716,6.299999952316284,6.299999952316284,6.299999952316284,6.400000095367432,6.400000095367432,6.400000095367432,6.5,6.5,6.5,6.599999904632568,6.599999904632568,6.599999904632568,6.700000047683716,6.700000047683716,6.700000047683716,6.799999952316284,6.799999952316284,6.799999952316284,6.900000095367432,6.900000095367432,6.900000095367432,7,7,7,7.099999904632568,7.099999904632568,7.099999904632568,7.200000047683716,7.200000047683716,7.200000047683716,7.299999952316284,7.299999952316284,7.299999952316284,7.400000095367432,7.400000095367432,7.400000095367432,7.5,7.5,7.5,7.599999904632568,7.599999904632568,7.599999904632568,7.700000047683716,7.700000047683716,7.700000047683716,7.799999952316284,7.799999952316284,7.799999952316284,7.900000095367432,7.900000095367432,7.900000095367432,8,8,8,8.099999904632568,8.099999904632568,8.099999904632568,8.200000047683716,8.200000047683716,8.200000047683716,8.299999952316284,8.299999952316284,8.299999952316284,8.400000095367432,8.400000095367432,8.400000095367432,8.5,8.5,8.5,8.599999904632568,8.599999904632568,8.599999904632568,8.700000047683716,8.700000047683716,8.700000047683716,8.799999952316284,8.799999952316284,8.799999952316284,8.900000095367432,8.900000095367432,8.900000095367432,9,9,9,9.099999904632568,9.099999904632568,9.099999904632568,9.200000047683716,9.200000047683716,9.200000047683716,9.299999952316284,9.299999952316284,9.299999952316284,9.400000095367432,9.400000095367432,9.400000095367432,9.5,9.5,9.5,9.599999904632568,9.599999904632568,9.599999904632568,9.700000047683716,9.700000047683716,9.700000047683716,9.799999952316284,9.799999952316284,9.799999952316284,9.900000095367432,9.900000095367432,9.900000095367432,10,10,10,10.099999904632568,10.099999904632568,10.099999904632568,10.200000047683716,10.200000047683716,10.200000047683716,10.299999952316284,10.299999952316284,10.299999952316284,10.400000095367432,10.400000095367432,10.400000095367432,10.5,10.5,10.5,10.599999904632568,10.599999904632568,10.599999904632568,10.700000047683716,10.700000047683716,10.700000047683716,10.799999952316284,10.799999952316284,10.799999952316284,10.900000095367432,10.900000095367432,10.900000095367432,11,11,11,11.099999904632568,11.099999904632568,11.099999904632568,11.200000047683716,11.200000047683716,11.200000047683716,11.299999952316284,11.299999952316284,11.299999952316284,11.400000095367432,11.400000095367432,11.400000095367432,11.5,11.5,11.5,11.599999904632568,11.599999904632568,11.599999904632568,11.700000047683716,11.700000047683716,11.700000047683716,11.799999952316284,11.799999952316284,11.799999952316284,11.900000095367432,11.900000095367432,11.900000095367432,12,12,12,12.099999904632568,12.099999904632568,12.099999904632568,12.200000047683716,12.200000047683716,12.200000047683716,12.299999952316284,12.299999952316284,12.299999952316284,12.400000095367432,12.400000095367432,12.400000095367432,12.5,12.5,12.5,12.599999904632568,12.599999904632568,12.599999904632568,12.700000047683716,12.700000047683716,12.700000047683716,12.799999952316284,12.799999952316284,12.799999952316284,12.900000095367432,12.900000095367432,12.900000095367432,13,13,13,13.099999904632568,13.099999904632568,13.099999904632568,13.200000047683716,13.200000047683716,13.200000047683716,13.299999952316284,13.299999952316284,13.299999952316284,13.400000095367432,13.400000095367432,13.400000095367432,13.5,13.5,13.5,13.599999904632568,13.599999904632568,13.599999904632568,13.700000047683716,13.700000047683716,13.700000047683716,13.799999952316284,13.799999952316284,13.799999952316284,13.900000095367432,13.900000095367432,13.900000095367432,14,14,14,14.099999904632568,14.099999904632568,14.099999904632568,14.200000047683716,14.200000047683716,14.200000047683716,14.299999952316284,14.299999952316284,14.299999952316284,14.400000095367432,14.400000095367432,14.400000095367432,14.5,14.5,14.5,14.599999904632568,14.599999904632568,14.599999904632568,14.700000047683716,14.700000047683716,14.700000047683716,14.799999952316284,14.799999952316284,14.799999952316284,14.900000095367432,14.900000095367432,14.900000095367432,15,15,15,15.099999904632568,15.099999904632568,15.099999904632568,15.200000047683716,15.200000047683716,15.200000047683716,15.299999952316284,15.299999952316284,15.299999952316284,15.400000095367432,15.400000095367432,15.400000095367432,15.5,15.5,15.5,15.599999904632568,15.599999904632568,15.599999904632568,15.700000047683716,15.700000047683716,15.700000047683716,15.799999952316284,15.799999952316284,15.799999952316284,15.900000095367432,15.900000095367432,15.900000095367432,16,16,16,16.09999990463257,16.09999990463257,16.09999990463257,16.200000047683716,16.200000047683716,16.200000047683716,16.299999952316284,16.299999952316284,16.299999952316284,16.40000009536743,16.40000009536743,16.40000009536743,16.5,16.5,16.5,16.59999990463257,16.59999990463257,16.59999990463257,16.700000047683716,16.700000047683716,16.700000047683716,16.799999952316284,16.799999952316284,16.799999952316284,16.90000009536743,16.90000009536743,16.90000009536743]}</json>-->
<path d = "M0 438 L1 438 L2 438 L3 438 L4 438 L5 438 L6 438 L7 438 L8 438 L9 438 L10 438 L11 438 L12 438 L13 438 L14 438 L15 438 L16 438 L17 438 L18 438 L19 438 L20 438 L21 438 L22 438 L23 438 L24 410.5176470588235 L25 386.47058823529414 L26 371.01176470588234 L27 358.98823529411766 L28 350.4 L29 345.2470588235294 L30 340.09411764705885 L31 334.94117647058823 L32 331.50588235294117 L33 328.0705882352941 L34 326.3529411764706 L35 324.63529411764705 L36 322.9176470588235 L37 321.2 L38 319.4823529411765 L39 317.7647058823529 L40 317.7647058823529 L41 316.0470588235294 L42 314.32941176470587 L43 312.61176470588236 L44 312.61176470588236 L45 312.61176470588236 L46 312.61176470588236 L47 310.8941176470588 L48 310.8941176470588 L49 310.8941176470588 L50 310.8941176470588 L51 310.8941176470588 L52 310.8941176470588 L53 310.8941176470588 L54 310.8941176470588 L55 310.8941176470588 L56 310.8941176470588 L57 310.8941176470588 L58 312.61176470588236 L59 312.61176470588236 L60 312.61176470588236 L61 312.61176470588236 L62 312.61176470588236 L63 314.32941176470587 L64 314.32941176470587 L65 314.32941176470587 L66 314.32941176470587 L67 314.32941176470587 L68 314.32941176470587 L69 314.32941176470587 L70 312.61176470588236 L71 312.61176470588236 L72 312.61176470588236 L73 312.61176470588236 L74 312.61176470588236 L75 310.8941176470588 L76 310.8941176470588 L77 310.8941176470588 L78 309.17647058823525 L79 309.17647058823525 L80 309.17647058823525 L81 309.17647058823525 L82 309.17647058823525 L83 309.17647058823525 L84 309.17647058823525 L85 309.17647058823525 L86 309.17647058823525 L87 310.8941176470588 L88 310.8941176470588 L89 310.8941176470588 L90 310.8941176470588 L91 310.8941176470588 L92 312.61176470588236 L93 312.61176470588236 L94 312.61176470588236 L95 312.61176470588236 L96 312.61176470588236 L97 312.61176470588236 L98 312.61176470588236 L99 310.8941176470588 L100 310.8941176470588 L101 310.8941176470588 L102 310.8941176470588 L103 310.8941176470588 L104 310.8941176470588 L105 310.8941176470588 L106 310.8941176470588 L107 310.8941176470588 L108 310.8941176470588 L109 310.8941176470588 L110 310.8941176470588 L111 310.8941176470588 L112 309.17647058823525 L113 309.17647058823525 L114 309.17647058823525 L115 309.17647058823525 L116 309.17647058823525 L117 309.17647058823525 L118 307.4588235294118 L119 307.4588235294118 L120 307.4588235294118 L121 309.17647058823525 L122 309.17647058823525 L123 307.4588235294118 L124 307.4588235294118 L125 309.17647058823525 L126 309.17647058823525 L127 309.17647058823525 L128 310.8941176470588 L129 310.8941176470588 L130 310.8941176470588 L131 312.61176470588236 L132 312.61176470588236 L133 312.61176470588236 L134 310.8941176470588 L135 310.8941176470588 L136 310.8941176470588 L137 310.8941176470588 L138 310.8941176470588 L139 310.8941176470588 L140 310.8941176470588 L141 310.8941176470588 L142 309.17647058823525 L143 309.17647058823525 L144 309.17647058823525 L145 310.8941176470588 L146 310.8941176470588 L147 310.8941176470588 L148 310.8941176470588 L149 310.8941176470588 L150 310.8941176470588 L151 310.8941176470588 L152 310.8941176470588 L153 310.8941176470588 L154 312.61176470588236 L155 312.61176470588236 L156 312.61176470588236 L157 310.8941176470588 L158 310.8941176470588 L159 310.8941176470588 L160 310.8941176470588 L161 310.8941176470588 L162 310.8941176470588 L163 310.8941176470588 L164 310.8941176470588 L165 310.8941176470588 L166 310.8941176470588 L167 310.8941176470588 L168 310.8941176470588 L169 310.8941176470588 L170 310.8941176470588 L171 310.8941176470588 L172 310.8941176470588 L173 310.8941176470588 L174 310.8941176470588 L175 310.8941176470588 L176 310.8941176470588 L177 310.8941176470588 L178 310.8941176470588 L179 310.8941176470588 L180 310.8941176470588 L181 310.8941176470588 L182 309.17647058823525 L183 309.17647058823525 L184 309.17647058823525 L185 309.17647058823525 L186 309.17647058823525 L187 309.17647058823525 L188 309.17647058823525 L189 309.17647058823525 L190 309.17647058823525 L191 309.17647058823525 L192 309.17647058823525 L193 309.17647058823525 L194 309.17647058823525 L195 309.17647058823525 L196 309.17647058823525 L197 309.17647058823525 L198 309.17647058823525 L199 309.17647058823525 L200 309.17647058823525 L201 309.17647058823525 L202 309.17647058823525 L203 309.17647058823525 L204 309.17647058823525 L205 309.17647058823525 L206 309.17647058823525 L207 309.17647058823525 L208 309.17647058823525 L209 309.17647058823525 L210 309.17647058823525 L211 309.17647058823525 L212 309.17647058823525 L213 309.17647058823525 L214 309.17647058823525 L215 310.8941176470588 L216 310.8941176470588 L217 310.8941176470588 L218 310.8941176470588 L219 310.8941176470588 L220 310.8941176470588 L221 310.8941176470588 L222 310.8941176470588 L223 310.8941176470588 L224 310.8941176470588 L225 310.8941176470588 L226 310.8941176470588 L227 310.8941176470588 L228 310.8941176470588 L229 310.8941176470588 L230 310.8941176470588 L231 310.8941176470588 L232 310.8941176470588 L233 310.8941176470588 L234 310.8941176470588 L235 310.8941176470588 L236 310.8941176470588 L237 310.8941176470588 L238 310.8941176470588 L239 310.8941176470588 L240 310.8941176470588 L241 310.8941176470588 L242 310.8941176470588 L243 309.17647058823525 L244 310.8941176470588 L245 310.8941176470588 L246 309.17647058823525 L247 309.17647058823525 L248 309.17647058823525 L249 309.17647058823525 L250 310.8941176470588 L251 310.8941176470588 L252 310.8941176470588 L253 310.8941176470588 L254 309.17647058823525 L255 310.8941176470588 L256 310.8941176470588 L257 309.17647058823525 L258 307.4588235294118 L259 305.74117647058824 L260 305.74117647058824 L261 307.4588235294118 L262 307.4588235294118 L263 305.74117647058824 L264 307.4588235294118 L265 309.17647058823525 L266 309.17647058823525 L267 307.4588235294118 L268 309.17647058823525 L269 309.17647058823525 L270 309.17647058823525 L271 309.17647058823525 L272 312.61176470588236 L273 310.8941176470588 L274 309.17647058823525 L275 309.17647058823525 L276 310.8941176470588 L277 310.8941176470588 L278 310.8941176470588 L279 310.8941176470588 L280 312.61176470588236 L281 310.8941176470588 L282 312.61176470588236 L283 310.8941176470588 L284 310.8941176470588 L285 310.8941176470588 L286 310.8941176470588 L287 310.8941176470588 L288 310.8941176470588 L289 310.8941176470588 L290 310.8941176470588 L291 310.8941176470588 L292 310.8941176470588 L293 310.8941176470588 L294 310.8941176470588 L295 310.8941176470588 L296 310.8941176470588 L297 310.8941176470588 L298 310.8941176470588 L299 310.8941176470588 L300 310.8941176470588 L301 310.8941176470588 L302 310.8941176470588 L303 310.8941176470588 L304 310.8941176470588 L305 309.17647058823525 L306 310.8941176470588 L307 310.8941176470588 L308 310.8941176470588 L309 310.8941176470588 L310 310.8941176470588 L311 309.17647058823525 L312 309.17647058823525 L313 309.17647058823525 L314 309.17647058823525 L315 309.17647058823525 L316 309.17647058823525 L317 309.17647058823525 L318 310.8941176470588 L319 310.8941176470588 L320 310.8941176470588 L321 310.8941176470588 L322 312.61176470588236 L323 310.8941176470588 L324 310.8941176470588 L325 310.8941176470588 L326 310.8941176470588 L327 310.8941176470588 L328 310.8941176470588 L329 310.8941176470588 L330 309.17647058823525 L331 309.17647058823525 L332 309.17647058823525 L333 310.8941176470588 L334 310.8941176470588 L335 312.61176470588236 L336 312.61176470588236 L337 310.8941176470588 L338 310.8941176470588 L339 310.8941176470588 L340 310.8941176470588 L341 310.8941176470588 L342 310.8941176470588 L343 312.61176470588236 L344 312.61176470588236 L345 312.61176470588236 L346 312.61176470588236 L347 312.61176470588236 L348 310.8941176470588 L349 310.8941176470588 L350 309.17647058823525 L351 309.17647058823525 L352 309.17647058823525 L353 305.74117647058824 L354 305.74117647058824 L355 307.4588235294118 L356 305.74117647058824 L357 307.4588235294118 L358 307.4588235294118 L359 307.4588235294118 L360 307.4588235294118 L361 307.4588235294118 L362 307.4588235294118 L363 309.17647058823525 L364 309.17647058823525 L365 309.17647058823525 L366 307.4588235294118 L367 309.17647058823525 L368 309.17647058823525 L369 309.17647058823525 L370 309.17647058823525 L371 309.17647058823525 L372 309.17647058823525 L373 309.17647058823525 L374 307.4588235294118 L375 305.74117647058824 L376 307.4588235294118 L377 307.4588235294118 L378 307.4588235294118 L379 307.4588235294118 L380 307.4588235294118 L381 307.4588235294118 L382 307.4588235294118 L383 307.4588235294118 L384 307.4588235294118 L385 307.4588235294118 L386 307.4588235294118 L387 305.74117647058824 L388 304.0235294117647 L389 304.0235294117647 L390 304.0235294117647 L391 305.74117647058824 L392 305.74117647058824 L393 305.74117647058824 L394 307.4588235294118 L395 307.4588235294118 L396 305.74117647058824 L397 305.74117647058824 L398 305.74117647058824 L399 305.74117647058824 L400 304.0235294117647 L401 305.74117647058824 L402 305.74117647058824 L403 305.74117647058824 L404 305.74117647058824 L405 305.74117647058824 L406 307.4588235294118 L407 307.4588235294118 L408 307.4588235294118 L409 305.74117647058824 L410 305.74117647058824 L411 305.74117647058824 L412 305.74117647058824 L413 304.0235294117647 L414 304.0235294117647 L415 304.0235294117647 L416 304.0235294117647 L417 304.0235294117647 L418 304.0235294117647 L419 304.0235294117647 L420 304.0235294117647 L421 304.0235294117647 L422 304.0235294117647 L423 304.0235294117647 L424 305.74117647058824 L425 309.17647058823525 L426 309.17647058823525 L427 307.4588235294118 L428 307.4588235294118 L429 305.74117647058824 L430 305.74117647058824 L431 305.74117647058824 L432 305.74117647058824 L433 305.74117647058824 L434 305.74117647058824 L435 305.74117647058824 L436 305.74117647058824 L437 304.0235294117647 L438 304.0235294117647 L439 304.0235294117647 L440 304.0235294117647 L441 302.3058823529412 L442 302.3058823529412 L443 302.3058823529412 L444 302.3058823529412 L445 302.3058823529412 L446 302.3058823529412 L447 304.0235294117647 L448 304.0235294117647 L449 304.0235294117647 L450 304.0235294117647 L451 305.74117647058824 L452 304.0235294117647 L453 305.74117647058824 L454 304.0235294117647 L455 304.0235294117647 L456 304.0235294117647 L457 304.0235294117647 L458 305.74117647058824 L459 305.74117647058824 L460 305.74117647058824 L461 305.74117647058824 L462 305.74117647058824 L463 305.74117647058824 L464 305.74117647058824 L465 304.0235294117647 L466 304.0235294117647 L467 305.74117647058824 L468 305.74117647058824 L469 305.74117647058824 L470 305.74117647058824 L471 305.74117647058824 L472 305.74117647058824 L473 304.0235294117647 L474 304.0235294117647 L475 304.0235294117647 L476 304.0235294117647 L477 304.0235294117647 L478 304.0235294117647 L479 304.0235294117647 L480 304.0235294117647 L481 304.0235294117647 L482 304.0235294117647 L483 304.0235294117647 L484 305.74117647058824 L485 305.74117647058824 L486 305.74117647058824 L487 305.74117647058824 L488 307.4588235294118 L489 307.4588235294118 L490 307.4588235294118 L491 307.4588235294118 L492 307.4588235294118 L493 307.4588235294118 L494 307.4588235294118 L495 307.4588235294118 L496 305.74117647058824 L497 305.74117647058824 L498 305.74117647058824 L499 304.0235294117647 L500 304.0235294117647" stroke = "red"  stroke-width = "4" fill = "none" />
<path d = "M0 438 L1 438 L2 438 L3 438 L4 438 L5 438 L6 438 L7 438 L8 438 L9 438 L10 438 L11 438 L12 438 L13 438 L14 438 L15 438 L16 438 L17 438 L18 438 L19 438 L20 438 L21 438 L22 438 L23 438 L24 438 L25 438 L26 438 L27 438 L28 438 L29 438 L30 438 L31 438 L32 438 L33 438 L34 438 L35 438 L36 438 L37 438 L38 438 L39 438 L40 438 L41 438 L42 438 L43 438 L44 438 L45 438 L46 438 L47 438 L48 438 L49 438 L50 438 L51 438 L52 438 L53 438 L54 438 L55 438 L56 438 L57 438 L58 438 L59 431.1294117647059 L60 431.1294117647059 L61 420.8235294117647 L62 427.6941176470588 L63 434.56470588235294 L64 438 L65 438 L66 438 L67 438 L68 438 L69 438 L70 438 L71 438 L72 438 L73 438 L74 438 L75 425.9764705882353 L76 427.6941176470588 L77 429.4117647058824 L78 438 L79 438 L80 438 L81 438 L82 438 L83 438 L84 438 L85 438 L86 438 L87 438 L88 438 L89 438 L90 438 L91 438 L92 438 L93 438 L94 438 L95 438 L96 419.1058823529412 L97 403.6470588235294 L98 407.08235294117645 L99 415.67058823529413 L100 422.54117647058825 L101 429.4117647058824 L102 438 L103 438 L104 438 L105 438 L106 438 L107 438 L108 438 L109 438 L110 438 L111 438 L112 438 L113 438 L114 438 L115 438 L116 438 L117 438 L118 438 L119 438 L120 438 L121 438 L122 438 L123 438 L124 438 L125 438 L126 438 L127 438 L128 438 L129 438 L130 438 L131 438 L132 438 L133 438 L134 438 L135 438 L136 438 L137 438 L138 438 L139 438 L140 438 L141 438 L142 438 L143 438 L144 438 L145 420.8235294117647 L146 376.16470588235296 L147 365.8588235294118 L148 365.8588235294118 L149 367.5764705882353 L150 377.88235294117646 L151 389.90588235294115 L152 400.21176470588233 L153 410.5176470588235 L154 420.8235294117647 L155 431.1294117647059 L156 438 L157 438 L158 438 L159 438 L160 438 L161 381.3176470588235 L162 369.29411764705884 L163 376.16470588235296 L164 381.3176470588235 L165 388.18823529411765 L166 396.77647058823527 L167 398.49411764705883 L168 407.08235294117645 L169 417.38823529411764 L170 415.67058823529413 L171 425.9764705882353 L172 420.8235294117647 L173 429.4117647058824 L174 434.56470588235294 L175 438 L176 438 L177 438 L178 438 L179 438 L180 438 L181 438 L182 438 L183 400.21176470588233 L184 398.49411764705883 L185 395.05882352941177 L186 391.6235294117647 L187 395.05882352941177 L188 393.34117647058827 L189 398.49411764705883 L190 405.36470588235295 L191 417.38823529411764 L192 417.38823529411764 L193 420.8235294117647 L194 427.6941176470588 L195 434.56470588235294 L196 432.84705882352944 L197 424.25882352941176 L198 420.8235294117647 L199 413.9529411764706 L200 400.21176470588233 L201 403.6470588235294 L202 412.2352941176471 L203 422.54117647058825 L204 422.54117647058825 L205 386.47058823529414 L206 384.7529411764706 L207 386.47058823529414 L208 389.90588235294115 L209 391.6235294117647 L210 389.90588235294115 L211 391.6235294117647 L212 398.49411764705883 L213 400.21176470588233 L214 408.8 L215 415.67058823529413 L216 424.25882352941176 L217 425.9764705882353 L218 424.25882352941176 L219 422.54117647058825 L220 415.67058823529413 L221 419.1058823529412 L222 419.1058823529412 L223 417.38823529411764 L224 413.9529411764706 L225 419.1058823529412 L226 420.8235294117647 L227 393.34117647058827 L228 381.3176470588235 L229 371.01176470588234 L230 381.3176470588235 L231 388.18823529411765 L232 396.77647058823527 L233 371.01176470588234 L234 365.8588235294118 L235 362.4235294117647 L236 364.1411764705882 L237 369.29411764705884 L238 360.70588235294116 L239 365.8588235294118 L240 376.16470588235296 L241 381.3176470588235 L242 384.7529411764706 L243 395.05882352941177 L244 400.21176470588233 L245 408.8 L246 412.2352941176471 L247 407.08235294117645 L248 415.67058823529413 L249 398.49411764705883 L250 383.0352941176471 L251 384.7529411764706 L252 389.90588235294115 L253 388.18823529411765 L254 369.29411764705884 L255 379.6 L256 388.18823529411765 L257 384.7529411764706 L258 391.6235294117647 L259 401.9294117647059 L260 407.08235294117645 L261 407.08235294117645 L262 405.36470588235295 L263 405.36470588235295 L264 403.6470588235294 L265 412.2352941176471 L266 410.5176470588235 L267 408.8 L268 403.6470588235294 L269 407.08235294117645 L270 400.21176470588233 L271 384.7529411764706 L272 391.6235294117647 L273 395.05882352941177 L274 400.21176470588233 L275 403.6470588235294 L276 400.21176470588233 L277 408.8 L278 419.1058823529412 L279 415.67058823529413 L280 420.8235294117647 L281 417.38823529411764 L282 417.38823529411764 L283 417.38823529411764 L284 410.5176470588235 L285 412.2352941176471 L286 422.54117647058825 L287 419.1058823529412 L288 410.5176470588235 L289 395.05882352941177 L290 401.9294117647059 L291 410.5176470588235 L292 401.9294117647059 L293 386.47058823529414 L294 396.77647058823527 L295 403.6470588235294 L296 400.21176470588233 L297 410.5176470588235 L298 403.6470588235294 L299 396.77647058823527 L300 389.90588235294115 L301 391.6235294117647 L302 401.9294117647059 L303 386.47058823529414 L304 395.05882352941177 L305 403.6470588235294 L306 410.5176470588235 L307 419.1058823529412 L308 424.25882352941176 L309 432.84705882352944 L310 438 L311 438 L312 438 L313 438 L314 391.6235294117647 L315 379.6 L316 381.3176470588235 L317 379.6 L318 389.90588235294115 L319 400.21176470588233 L320 395.05882352941177 L321 391.6235294117647 L322 379.6 L323 369.29411764705884 L324 374.4470588235294 L325 377.88235294117646 L326 384.7529411764706 L327 393.34117647058827 L328 401.9294117647059 L329 412.2352941176471 L330 420.8235294117647 L331 413.9529411764706 L332 419.1058823529412 L333 410.5176470588235 L334 412.2352941176471 L335 410.5176470588235 L336 395.05882352941177 L337 372.7294117647059 L338 365.8588235294118 L339 364.1411764705882 L340 371.01176470588234 L341 379.6 L342 383.0352941176471 L343 379.6 L344 384.7529411764706 L345 386.47058823529414 L346 396.77647058823527 L347 391.6235294117647 L348 389.90588235294115 L349 377.88235294117646 L350 376.16470588235296 L351 379.6 L352 383.0352941176471 L353 371.01176470588234 L354 374.4470588235294 L355 371.01176470588234 L356 365.8588235294118 L357 371.01176470588234 L358 360.70588235294116 L359 362.4235294117647 L360 369.29411764705884 L361 367.5764705882353 L362 376.16470588235296 L363 371.01176470588234 L364 379.6 L365 379.6 L366 386.47058823529414 L367 388.18823529411765 L368 389.90588235294115 L369 396.77647058823527 L370 395.05882352941177 L371 398.49411764705883 L372 396.77647058823527 L373 391.6235294117647 L374 388.18823529411765 L375 391.6235294117647 L376 391.6235294117647 L377 376.16470588235296 L378 371.01176470588234 L379 374.4470588235294 L380 362.4235294117647 L381 360.70588235294116 L382 365.8588235294118 L383 372.7294117647059 L384 381.3176470588235 L385 391.6235294117647 L386 383.0352941176471 L387 379.6 L388 374.4470588235294 L389 376.16470588235296 L390 360.70588235294116 L391 367.5764705882353 L392 372.7294117647059 L393 374.4470588235294 L394 372.7294117647059 L395 376.16470588235296 L396 372.7294117647059 L397 376.16470588235296 L398 384.7529411764706 L399 367.5764705882353 L400 369.29411764705884 L401 333.22352941176473 L402 333.22352941176473 L403 343.52941176470586 L404 348.6823529411765 L405 353.83529411764704 L406 364.1411764705882 L407 355.5529411764706 L408 341.81176470588235 L409 334.94117647058823 L410 336.65882352941173 L411 346.9647058823529 L412 350.4 L413 362.4235294117647 L414 369.29411764705884 L415 377.88235294117646 L416 384.7529411764706 L417 388.18823529411765 L418 391.6235294117647 L419 401.9294117647059 L420 408.8 L421 417.38823529411764 L422 420.8235294117647 L423 410.5176470588235 L424 408.8 L425 393.34117647058827 L426 398.49411764705883 L427 407.08235294117645 L428 417.38823529411764 L429 425.9764705882353 L430 438 L431 438 L432 438 L433 438 L434 438 L435 438 L436 438 L437 438 L438 438 L439 438 L440 438 L441 438 L442 438 L443 438 L444 438 L445 420.8235294117647 L446 424.25882352941176 L447 415.67058823529413 L448 424.25882352941176 L449 432.84705882352944 L450 438 L451 438 L452 438 L453 438 L454 438 L455 438 L456 438 L457 438 L458 438 L459 438 L460 438 L461 438 L462 438 L463 438 L464 438 L465 438 L466 438 L467 438 L468 438 L469 438 L470 438 L471 438 L472 408.8 L473 391.6235294117647 L474 376.16470588235296 L475 374.4470588235294 L476 383.0352941176471 L477 371.01176470588234 L478 376.16470588235296 L479 384.7529411764706 L480 395.05882352941177 L481 405.36470588235295 L482 413.9529411764706 L483 419.1058823529412 L484 425.9764705882353 L485 432.84705882352944 L486 438 L487 438 L488 338.3764705882353 L489 336.65882352941173 L490 341.81176470588235 L491 352.11764705882354 L492 362.4235294117647 L493 372.7294117647059 L494 364.1411764705882 L495 372.7294117647059 L496 355.5529411764706 L497 352.11764705882354 L498 360.70588235294116 L499 346.9647058823529 L500 357.2705882352941" stroke = "green"  stroke-width = "4" fill = "none" />
<path d = "M0 438 L1 438 L2 438 L3 438 L4 438 L5 438 L6 438 L7 438 L8 438 L9 438 L10 438 L11 438 L12 438 L13 438 L14 438 L15 438 L16 438 L17 438 L18 438 L19 438 L20 438 L21 438 L22 438 L23 438 L24 438 L25 438 L26 438 L27 438 L28 438 L29 438 L30 438 L31 438 L32 438 L33 438 L34 438 L35 438 L36 438 L37 438 L38 438 L39 438 L40 438 L41 438 L42 438 L43 438 L44 438 L45 438 L46 438 L47 438 L48 438 L49 438 L50 438 L51 438 L52 438 L53 438 L54 438 L55 438 L56 438 L57 438 L58 438 L59 438 L60 438 L61 438 L62 438 L63 438 L64 438 L65 438 L66 438 L67 438 L68 438 L69 438 L70 438 L71 438 L72 438 L73 438 L74 422.54117647058825 L75 377.88235294117646 L76 381.3176470588235 L77 391.6235294117647 L78 403.6470588235294 L79 413.9529411764706 L80 425.9764705882353 L81 436.2823529411765 L82 438 L83 438 L84 438 L85 438 L86 438 L87 438 L88 438 L89 438 L90 438 L91 438 L92 438 L93 438 L94 438 L95 438 L96 438 L97 381.3176470588235 L98 386.47058823529414 L99 398.49411764705883 L100 410.5176470588235 L101 420.8235294117647 L102 431.1294117647059 L103 438 L104 438 L105 438 L106 438 L107 438 L108 438 L109 438 L110 438 L111 438 L112 438 L113 438 L114 438 L115 438 L116 438 L117 438 L118 432.84705882352944 L119 389.90588235294115 L120 393.34117647058827 L121 405.36470588235295 L122 413.9529411764706 L123 420.8235294117647 L124 422.54117647058825 L125 432.84705882352944 L126 438 L127 438 L128 438 L129 438 L130 438 L131 438 L132 438 L133 438 L134 438 L135 438 L136 438 L137 438 L138 438 L139 438 L140 346.9647058823529 L141 350.4 L142 358.98823529411766 L143 369.29411764705884 L144 377.88235294117646 L145 374.4470588235294 L146 384.7529411764706 L147 391.6235294117647 L148 396.77647058823527 L149 405.36470588235295 L150 412.2352941176471 L151 422.54117647058825 L152 432.84705882352944 L153 438 L154 438 L155 438 L156 438 L157 438 L158 436.2823529411765 L159 417.38823529411764 L160 364.1411764705882 L161 345.2470588235294 L162 310.8941176470588 L163 322.9176470588235 L164 334.94117647058823 L165 343.52941176470586 L166 350.4 L167 357.2705882352941 L168 362.4235294117647 L169 372.7294117647059 L170 369.29411764705884 L171 376.16470588235296 L172 383.0352941176471 L173 393.34117647058827 L174 396.77647058823527 L175 408.8 L176 396.77647058823527 L177 398.49411764705883 L178 393.34117647058827 L179 393.34117647058827 L180 396.77647058823527 L181 403.6470588235294 L182 410.5176470588235 L183 358.98823529411766 L184 319.4823529411765 L185 322.9176470588235 L186 331.50588235294117 L187 340.09411764705885 L188 350.4 L189 360.70588235294116 L190 371.01176470588234 L191 381.3176470588235 L192 388.18823529411765 L193 396.77647058823527 L194 405.36470588235295 L195 412.2352941176471 L196 420.8235294117647 L197 431.1294117647059 L198 432.84705882352944 L199 438 L200 427.6941176470588 L201 429.4117647058824 L202 438 L203 438 L204 438 L205 372.7294117647059 L206 331.50588235294117 L207 326.3529411764706 L208 334.94117647058823 L209 345.2470588235294 L210 357.2705882352941 L211 364.1411764705882 L212 369.29411764705884 L213 379.6 L214 384.7529411764706 L215 391.6235294117647 L216 395.05882352941177 L217 401.9294117647059 L218 412.2352941176471 L219 417.38823529411764 L220 424.25882352941176 L221 429.4117647058824 L222 434.56470588235294 L223 431.1294117647059 L224 424.25882352941176 L225 431.1294117647059 L226 432.84705882352944 L227 384.7529411764706 L228 365.8588235294118 L229 367.5764705882353 L230 376.16470588235296 L231 381.3176470588235 L232 384.7529411764706 L233 383.0352941176471 L234 388.18823529411765 L235 393.34117647058827 L236 391.6235294117647 L237 401.9294117647059 L238 408.8 L239 412.2352941176471 L240 419.1058823529412 L241 424.25882352941176 L242 432.84705882352944 L243 412.2352941176471 L244 410.5176470588235 L245 407.08235294117645 L246 410.5176470588235 L247 408.8 L248 395.05882352941177 L249 348.6823529411765 L250 333.22352941176473 L251 338.3764705882353 L252 346.9647058823529 L253 352.11764705882354 L254 360.70588235294116 L255 362.4235294117647 L256 364.1411764705882 L257 365.8588235294118 L258 371.01176470588234 L259 377.88235294117646 L260 384.7529411764706 L261 386.47058823529414 L262 398.49411764705883 L263 408.8 L264 417.38823529411764 L265 408.8 L266 410.5176470588235 L267 407.08235294117645 L268 410.5176470588235 L269 415.67058823529413 L270 379.6 L271 334.94117647058823 L272 338.3764705882353 L273 346.9647058823529 L274 357.2705882352941 L275 369.29411764705884 L276 374.4470588235294 L277 384.7529411764706 L278 389.90588235294115 L279 391.6235294117647 L280 396.77647058823527 L281 396.77647058823527 L282 398.49411764705883 L283 400.21176470588233 L284 388.18823529411765 L285 389.90588235294115 L286 398.49411764705883 L287 386.47058823529414 L288 377.88235294117646 L289 372.7294117647059 L290 371.01176470588234 L291 377.88235294117646 L292 360.70588235294116 L293 324.63529411764705 L294 326.3529411764706 L295 329.7882352941176 L296 336.65882352941173 L297 345.2470588235294 L298 345.2470588235294 L299 348.6823529411765 L300 348.6823529411765 L301 352.11764705882354 L302 357.2705882352941 L303 362.4235294117647 L304 371.01176470588234 L305 381.3176470588235 L306 383.0352941176471 L307 383.0352941176471 L308 393.34117647058827 L309 389.90588235294115 L310 393.34117647058827 L311 389.90588235294115 L312 386.47058823529414 L313 388.18823529411765 L314 383.0352941176471 L315 353.83529411764704 L316 352.11764705882354 L317 358.98823529411766 L318 362.4235294117647 L319 371.01176470588234 L320 376.16470588235296 L321 367.5764705882353 L322 371.01176470588234 L323 367.5764705882353 L324 374.4470588235294 L325 377.88235294117646 L326 384.7529411764706 L327 389.90588235294115 L328 400.21176470588233 L329 400.21176470588233 L330 398.49411764705883 L331 371.01176470588234 L332 357.2705882352941 L333 365.8588235294118 L334 358.98823529411766 L335 355.5529411764706 L336 345.2470588235294 L337 329.7882352941176 L338 341.81176470588235 L339 350.4 L340 358.98823529411766 L341 365.8588235294118 L342 358.98823529411766 L343 360.70588235294116 L344 352.11764705882354 L345 346.9647058823529 L346 357.2705882352941 L347 367.5764705882353 L348 376.16470588235296 L349 379.6 L350 384.7529411764706 L351 391.6235294117647 L352 400.21176470588233 L353 383.0352941176471 L354 372.7294117647059 L355 355.5529411764706 L356 357.2705882352941 L357 364.1411764705882 L358 367.5764705882353 L359 360.70588235294116 L360 367.5764705882353 L361 376.16470588235296 L362 384.7529411764706 L363 376.16470588235296 L364 369.29411764705884 L365 367.5764705882353 L366 364.1411764705882 L367 369.29411764705884 L368 379.6 L369 391.6235294117647 L370 401.9294117647059 L371 412.2352941176471 L372 420.8235294117647 L373 427.6941176470588 L374 419.1058823529412 L375 422.54117647058825 L376 403.6470588235294 L377 393.34117647058827 L378 388.18823529411765 L379 383.0352941176471 L380 338.3764705882353 L381 340.09411764705885 L382 352.11764705882354 L383 357.2705882352941 L384 367.5764705882353 L385 365.8588235294118 L386 371.01176470588234 L387 357.2705882352941 L388 352.11764705882354 L389 357.2705882352941 L390 364.1411764705882 L391 372.7294117647059 L392 383.0352941176471 L393 393.34117647058827 L394 403.6470588235294 L395 408.8 L396 413.9529411764706 L397 412.2352941176471 L398 393.34117647058827 L399 381.3176470588235 L400 376.16470588235296 L401 357.2705882352941 L402 324.63529411764705 L403 333.22352941176473 L404 341.81176470588235 L405 350.4 L406 358.98823529411766 L407 358.98823529411766 L408 358.98823529411766 L409 364.1411764705882 L410 352.11764705882354 L411 362.4235294117647 L412 371.01176470588234 L413 374.4470588235294 L414 381.3176470588235 L415 386.47058823529414 L416 388.18823529411765 L417 388.18823529411765 L418 391.6235294117647 L419 398.49411764705883 L420 386.47058823529414 L421 384.7529411764706 L422 393.34117647058827 L423 357.2705882352941 L424 355.5529411764706 L425 358.98823529411766 L426 364.1411764705882 L427 371.01176470588234 L428 372.7294117647059 L429 377.88235294117646 L430 379.6 L431 388.18823529411765 L432 391.6235294117647 L433 395.05882352941177 L434 400.21176470588233 L435 403.6470588235294 L436 407.08235294117645 L437 415.67058823529413 L438 424.25882352941176 L439 434.56470588235294 L440 427.6941176470588 L441 431.1294117647059 L442 432.84705882352944 L443 429.4117647058824 L444 395.05882352941177 L445 343.52941176470586 L446 350.4 L447 358.98823529411766 L448 369.29411764705884 L449 379.6 L450 381.3176470588235 L451 386.47058823529414 L452 389.90588235294115 L453 388.18823529411765 L454 388.18823529411765 L455 398.49411764705883 L456 407.08235294117645 L457 412.2352941176471 L458 417.38823529411764 L459 427.6941176470588 L460 434.56470588235294 L461 429.4117647058824 L462 413.9529411764706 L463 400.21176470588233 L464 401.9294117647059 L465 410.5176470588235 L466 374.4470588235294 L467 340.09411764705885 L468 343.52941176470586 L469 352.11764705882354 L470 360.70588235294116 L471 365.8588235294118 L472 369.29411764705884 L473 371.01176470588234 L474 372.7294117647059 L475 374.4470588235294 L476 384.7529411764706 L477 393.34117647058827 L478 395.05882352941177 L479 398.49411764705883 L480 391.6235294117647 L481 384.7529411764706 L482 389.90588235294115 L483 381.3176470588235 L484 369.29411764705884 L485 364.1411764705882 L486 357.2705882352941 L487 365.8588235294118 L488 352.11764705882354 L489 338.3764705882353 L490 341.81176470588235 L491 350.4 L492 360.70588235294116 L493 369.29411764705884 L494 377.88235294117646 L495 379.6 L496 388.18823529411765 L497 393.34117647058827 L498 400.21176470588233 L499 410.5176470588235 L500 413.9529411764706" stroke = "blue"  stroke-width = "4" fill = "none" />
<path d = "M0 438 L1 438 L2 438 L3 438 L4 438 L5 438 L6 438 L7 438 L8 438 L9 438 L10 438 L11 438 L12 438 L13 438 L14 438 L15 438 L16 438 L17 438 L18 438 L19 438 L20 438 L21 438 L22 438 L23 438 L24 438 L25 438 L26 438 L27 438 L28 438 L29 438 L30 438 L31 438 L32 438 L33 438 L34 438 L35 438 L36 438 L37 438 L38 438 L39 438 L40 438 L41 438 L42 438 L43 438 L44 438 L45 438 L46 438 L47 438 L48 438 L49 438 L50 438 L51 438 L52 438 L53 438 L54 438 L55 438 L56 438 L57 438 L58 438 L59 438 L60 438 L61 438 L62 438 L63 438 L64 438 L65 438 L66 438 L67 438 L68 438 L69 438 L70 438 L71 438 L72 438 L73 438 L74 438 L75 438 L76 438 L77 438 L78 438 L79 438 L80 438 L81 438 L82 438 L83 438 L84 438 L85 438 L86 438 L87 438 L88 438 L89 438 L90 438 L91 438 L92 438 L93 438 L94 438 L95 438 L96 438 L97 438 L98 438 L99 438 L100 438 L101 438 L102 438 L103 438 L104 438 L105 438 L106 438 L107 438 L108 438 L109 438 L110 438 L111 438 L112 438 L113 438 L114 438 L115 438 L116 438 L117 438 L118 438 L119 438 L120 438 L121 438 L122 438 L123 438 L124 438 L125 438 L126 438 L127 438 L128 438 L129 438 L130 438 L131 438 L132 438 L133 438 L134 438 L135 438 L136 438 L137 438 L138 438 L139 438 L140 438 L141 438 L142 438 L143 438 L144 438 L145 438 L146 438 L147 438 L148 438 L149 438 L150 438 L151 438 L152 438 L153 438 L154 438 L155 438 L156 438 L157 438 L158 438 L159 438 L160 438 L161 436.2823529411765 L162 438 L163 438 L164 438 L165 438 L166 438 L167 438 L168 438 L169 438 L170 438 L171 438 L172 438 L173 438 L174 438 L175 438 L176 438 L177 438 L178 438 L179 438 L180 438 L181 438 L182 438 L183 438 L184 438 L185 438 L186 438 L187 438 L188 438 L189 438 L190 438 L191 438 L192 438 L193 438 L194 438 L195 438 L196 438 L197 438 L198 438 L199 438 L200 438 L201 438 L202 438 L203 438 L204 438 L205 438 L206 438 L207 438 L208 438 L209 438 L210 438 L211 438 L212 436.2823529411765 L213 436.2823529411765 L214 438 L215 438 L216 438 L217 438 L218 438 L219 438 L220 438 L221 438 L222 438 L223 438 L224 438 L225 438 L226 438 L227 438 L228 431.1294117647059 L229 427.6941176470588 L230 436.2823529411765 L231 438 L232 438 L233 438 L234 438 L235 438 L236 438 L237 438 L238 438 L239 438 L240 438 L241 438 L242 438 L243 438 L244 417.38823529411764 L245 425.9764705882353 L246 420.8235294117647 L247 429.4117647058824 L248 429.4117647058824 L249 429.4117647058824 L250 425.9764705882353 L251 436.2823529411765 L252 438 L253 438 L254 438 L255 438 L256 434.56470588235294 L257 436.2823529411765 L258 438 L259 438 L260 438 L261 438 L262 438 L263 438 L264 438 L265 438 L266 438 L267 438 L268 438 L269 438 L270 438 L271 438 L272 438 L273 438 L274 438 L275 438 L276 438 L277 422.54117647058825 L278 431.1294117647059 L279 427.6941176470588 L280 432.84705882352944 L281 438 L282 438 L283 438 L284 438 L285 438 L286 438 L287 438 L288 427.6941176470588 L289 432.84705882352944 L290 434.56470588235294 L291 434.56470588235294 L292 407.08235294117645 L293 407.08235294117645 L294 412.2352941176471 L295 415.67058823529413 L296 412.2352941176471 L297 412.2352941176471 L298 408.8 L299 396.77647058823527 L300 395.05882352941177 L301 388.18823529411765 L302 389.90588235294115 L303 393.34117647058827 L304 403.6470588235294 L305 410.5176470588235 L306 413.9529411764706 L307 425.9764705882353 L308 425.9764705882353 L309 413.9529411764706 L310 410.5176470588235 L311 408.8 L312 403.6470588235294 L313 412.2352941176471 L314 386.47058823529414 L315 389.90588235294115 L316 391.6235294117647 L317 396.77647058823527 L318 403.6470588235294 L319 415.67058823529413 L320 389.90588235294115 L321 384.7529411764706 L322 393.34117647058827 L323 401.9294117647059 L324 405.36470588235295 L325 407.08235294117645 L326 410.5176470588235 L327 420.8235294117647 L328 429.4117647058824 L329 420.8235294117647 L330 422.54117647058825 L331 400.21176470588233 L332 403.6470588235294 L333 407.08235294117645 L334 417.38823529411764 L335 425.9764705882353 L336 422.54117647058825 L337 419.1058823529412 L338 419.1058823529412 L339 429.4117647058824 L340 429.4117647058824 L341 432.84705882352944 L342 432.84705882352944 L343 438 L344 438 L345 424.25882352941176 L346 425.9764705882353 L347 425.9764705882353 L348 429.4117647058824 L349 436.2823529411765 L350 434.56470588235294 L351 438 L352 438 L353 431.1294117647059 L354 436.2823529411765 L355 438 L356 438 L357 438 L358 438 L359 438 L360 438 L361 438 L362 438 L363 438 L364 419.1058823529412 L365 422.54117647058825 L366 420.8235294117647 L367 419.1058823529412 L368 425.9764705882353 L369 432.84705882352944 L370 438 L371 438 L372 438 L373 438 L374 438 L375 429.4117647058824 L376 427.6941176470588 L377 429.4117647058824 L378 438 L379 436.2823529411765 L380 431.1294117647059 L381 432.84705882352944 L382 432.84705882352944 L383 408.8 L384 415.67058823529413 L385 415.67058823529413 L386 405.36470588235295 L387 408.8 L388 401.9294117647059 L389 405.36470588235295 L390 410.5176470588235 L391 419.1058823529412 L392 424.25882352941176 L393 431.1294117647059 L394 438 L395 438 L396 410.5176470588235 L397 417.38823529411764 L398 425.9764705882353 L399 422.54117647058825 L400 419.1058823529412 L401 383.0352941176471 L402 386.47058823529414 L403 389.90588235294115 L404 393.34117647058827 L405 395.05882352941177 L406 401.9294117647059 L407 386.47058823529414 L408 393.34117647058827 L409 400.21176470588233 L410 405.36470588235295 L411 413.9529411764706 L412 420.8235294117647 L413 427.6941176470588 L414 436.2823529411765 L415 436.2823529411765 L416 436.2823529411765 L417 434.56470588235294 L418 419.1058823529412 L419 422.54117647058825 L420 424.25882352941176 L421 419.1058823529412 L422 429.4117647058824 L423 422.54117647058825 L424 398.49411764705883 L425 401.9294117647059 L426 408.8 L427 415.67058823529413 L428 427.6941176470588 L429 420.8235294117647 L430 413.9529411764706 L431 420.8235294117647 L432 420.8235294117647 L433 427.6941176470588 L434 434.56470588235294 L435 438 L436 438 L437 438 L438 438 L439 438 L440 415.67058823529413 L441 419.1058823529412 L442 412.2352941176471 L443 415.67058823529413 L444 415.67058823529413 L445 422.54117647058825 L446 415.67058823529413 L447 420.8235294117647 L448 431.1294117647059 L449 438 L450 424.25882352941176 L451 420.8235294117647 L452 425.9764705882353 L453 424.25882352941176 L454 434.56470588235294 L455 438 L456 438 L457 438 L458 438 L459 438 L460 438 L461 438 L462 405.36470588235295 L463 383.0352941176471 L464 372.7294117647059 L465 377.88235294117646 L466 372.7294117647059 L467 379.6 L468 384.7529411764706 L469 391.6235294117647 L470 396.77647058823527 L471 401.9294117647059 L472 388.18823529411765 L473 388.18823529411765 L474 388.18823529411765 L475 376.16470588235296 L476 386.47058823529414 L477 384.7529411764706 L478 396.77647058823527 L479 407.08235294117645 L480 412.2352941176471 L481 413.9529411764706 L482 422.54117647058825 L483 384.7529411764706 L484 384.7529411764706 L485 379.6 L486 381.3176470588235 L487 386.47058823529414 L488 364.1411764705882 L489 371.01176470588234 L490 376.16470588235296 L491 386.47058823529414 L492 391.6235294117647 L493 400.21176470588233 L494 355.5529411764706 L495 360.70588235294116 L496 360.70588235294116 L497 362.4235294117647 L498 367.5764705882353 L499 360.70588235294116 L500 371.01176470588234" stroke = "purple"  stroke-width = "4" fill = "none" />
</svg>